<svg width="7" height="7" viewBox="0 0 7 7" fill="none" xmlns="http://www.w3.org/2000/svg">
<path d="M1.59091 7C1.50652 7 1.42559 6.96648 1.36592 6.90681C1.30625 6.84714 1.27273 6.7662 1.27273 6.68182V5.40909H0.318182C0.233795 5.40909 0.152864 5.37557 0.0931933 5.3159C0.0335226 5.25623 0 5.1753 0 5.09091V0.318182C0 0.233795 0.0335226 0.152864 0.0931933 0.0931933C0.152864 0.0335226 0.233795 0 0.318182 0H6.68182C6.7662 0 6.84714 0.0335226 6.90681 0.0931933C6.96648 0.152864 7 0.233795 7 0.318182V5.09091C7 5.1753 6.96648 5.25623 6.90681 5.3159C6.84714 5.37557 6.7662 5.40909 6.68182 5.40909H3.50159L1.8025 6.91982C1.74418 6.97157 1.66888 7.0001 1.59091 7ZM0.636364 4.77273H1.59091C1.6753 4.77273 1.75623 4.80625 1.8159 4.86592C1.87557 4.92559 1.90909 5.00652 1.90909 5.09091V5.97323L3.16909 4.85291C3.22751 4.80131 3.30274 4.7728 3.38068 4.77273H6.36364V0.636364H0.636364V4.77273Z" fill="#747474"/>
</svg>
