<svg width="8" height="7" viewBox="0 0 8 7" fill="none" xmlns="http://www.w3.org/2000/svg">
<path d="M2.1041 7C0.943905 7 0 6.07507 0 4.93817C0 4.38751 0.218762 3.86969 0.616381 3.48021L3.51229 0.64204C3.6239 0.532653 3.80467 0.532653 3.91629 0.64204C4.0279 0.751427 4.0279 0.928573 3.91629 1.03796L1.02038 3.87613C0.730762 4.15977 0.571429 4.53703 0.571429 4.93817C0.571429 5.76623 1.25895 6.44 2.1041 6.44C2.51343 6.44 2.89848 6.28376 3.18781 6.00021L7.15743 2.10999C7.33229 1.93844 7.42857 1.71033 7.42857 1.46795C7.42857 0.967307 7.01314 0.56 6.50219 0.56C6.25438 0.56 6.022 0.65436 5.84733 0.825813L1.808 4.78408C1.74752 4.84344 1.71429 4.92212 1.71429 5.00612C1.71429 5.17916 1.858 5.32 2.03457 5.32C2.11886 5.32 2.20143 5.28649 2.26114 5.22816L5.22657 2.32204C5.33819 2.21265 5.51895 2.21265 5.63057 2.32204C5.74219 2.43143 5.74219 2.60857 5.63057 2.71796L2.66514 5.62408C2.49914 5.78676 2.26952 5.88 2.03457 5.88C1.54295 5.88 1.14286 5.488 1.14286 5.00612C1.14286 4.7726 1.23552 4.55317 1.404 4.38816L5.44305 0.429987C5.72571 0.152693 6.10181 0 6.50219 0C7.3281 0 8 0.65856 8 1.46795C8 1.85976 7.84429 2.22833 7.56162 2.50581L3.59181 6.39613C3.19448 6.78552 2.666 7 2.1041 7Z" fill="#747474"/>
</svg>
