<svg width="22" height="22" viewBox="0 0 22 22" fill="none" xmlns="http://www.w3.org/2000/svg">
<path d="M0 12.8477H2.36328C3.66639 12.8477 4.72656 11.7875 4.72656 10.4844V8.07812H0V12.8477Z" fill="#747474"/>
<path d="M8.59375 12.8477H11C12.3031 12.8477 13.3633 11.7875 13.3633 10.4844V8.07812H8.59375V12.8477Z" fill="#747474"/>
<path d="M8.59375 18.9062H11C12.3031 18.9062 13.3633 17.8461 13.3633 16.543V14.1367H8.59375V18.9062Z" fill="#747474"/>
<path d="M15.9414 1.80469H14.6523V5.49321H7.30469V1.80469H6.01562V5.49321H0V6.78227H6.01562V20.1953H7.30469V6.78227H14.6523V20.1953H15.9414V6.78227H22V5.49321H15.9414V1.80469Z" fill="#747474"/>
<path d="M17.2305 12.8477H20.0664C21.1326 12.8477 22 11.9802 22 10.9141V8.07812H17.2305V12.8477Z" fill="#747474"/>
<path d="M8.59375 2.92188H13.3633V4.21094H8.59375V2.92188Z" fill="#747474"/>
<path d="M17.2305 2.92188H22V4.21094H17.2305V2.92188Z" fill="#747474"/>
<path d="M0 2.92188H4.76953V4.21094H0V2.92188Z" fill="#747474"/>
</svg>
