<svg width="121" height="121" viewBox="0 0 121 121" fill="none" xmlns="http://www.w3.org/2000/svg">
<g filter="url(#filter0_d_1008_579)">
<path d="M38.8495 91.7635C41.1154 89.4061 42.3741 86.2387 42.353 82.9474C42.332 79.656 41.0329 76.5055 38.7371 74.178C36.4413 71.8505 33.3335 70.5333 30.0866 70.5116C26.8397 70.49 23.7151 71.7656 21.3892 74.0623C17.9535 77.545 16.6015 82.9434 16.1721 87.8193C15.9281 90.5839 15.9436 93.3658 16.2185 96.1275C16.2923 96.824 16.9485 96.9755 17.0619 96.9982H17.0946C17.3711 97.0086 21.3171 97.087 22.5333 93.1915C22.7503 92.4638 23.0709 91.7721 23.485 91.1384C24.2804 89.949 26.1133 90.6647 25.9106 92.0874C25.7133 93.5704 26.016 95.0775 26.7695 96.3643C26.853 96.5068 26.9766 96.6208 27.1245 96.6916C27.2723 96.7623 27.4377 96.7866 27.5993 96.7613C31.7239 96.1309 35.9549 94.6978 38.8495 91.7635V91.7635Z" fill="#323232"/>
<path d="M78.8604 77.5595V66.7716C80.1362 65.6606 81.3839 64.4892 82.6036 63.2574L85.9844 59.8356C98.6347 47.005 104.81 30.5628 103.943 15.7923C103.687 11.4475 100.624 8.34084 96.3362 8.08137C81.7739 7.20197 65.5418 13.4623 52.8881 26.2911L49.5125 29.713C48.2962 30.9459 47.1407 32.2113 46.0458 33.5092H35.4037C33.1447 33.5963 31.1469 34.918 30.0165 36.8562L23.7601 49.544C23.5953 49.9995 23.4801 50.4719 23.4165 50.9528C23.4263 51.7676 23.75 52.5463 24.3184 53.1225C24.8868 53.6987 25.655 54.0268 26.4588 54.0368H34.361C33.3303 57.537 34.0174 60.978 36.2128 63.2L49.5657 76.7376C51.7577 78.9613 55.1522 79.6544 58.6051 78.6148V86.6252C58.6149 87.4401 58.9386 88.2187 59.507 88.7949C60.0755 89.3712 60.8436 89.6993 61.6474 89.7092C62.1218 89.6447 62.5878 89.5279 63.0372 89.3609L75.5501 83.0188C77.4689 81.8764 78.7693 79.8442 78.8604 77.5595ZM71.52 40.9484C69.7552 39.1594 68.5533 36.88 68.0665 34.3986C67.5796 31.9171 67.8295 29.3451 68.7846 27.0076C69.7398 24.6701 71.3572 22.6723 73.4325 21.2667C75.5077 19.8611 77.9475 19.1108 80.4434 19.1108C82.9393 19.1108 85.3791 19.8611 87.4543 21.2667C89.5296 22.6723 91.147 24.6701 92.1022 27.0076C93.0573 29.3451 93.3072 31.9171 92.8203 34.3986C92.3335 36.88 91.1316 39.1594 89.3668 40.9484C88.195 42.1364 86.8038 43.0787 85.2727 43.7216C83.7417 44.3645 82.1006 44.6954 80.4434 44.6954C78.7862 44.6954 77.1452 44.3645 75.6141 43.7216C74.083 43.0787 72.6918 42.1364 71.52 40.9484Z" fill="#323232"/>
</g>
<defs>
<filter id="filter0_d_1008_579" x="0" y="0" width="120.023" height="121" filterUnits="userSpaceOnUse" color-interpolation-filters="sRGB">
<feFlood flood-opacity="0" result="BackgroundImageFix"/>
<feColorMatrix in="SourceAlpha" type="matrix" values="0 0 0 0 0 0 0 0 0 0 0 0 0 0 0 0 0 0 127 0" result="hardAlpha"/>
<feOffset dy="8"/>
<feGaussianBlur stdDeviation="8"/>
<feColorMatrix type="matrix" values="0 0 0 0 0 0 0 0 0 0 0 0 0 0 0 0 0 0 0.07 0"/>
<feBlend mode="normal" in2="BackgroundImageFix" result="effect1_dropShadow_1008_579"/>
<feBlend mode="normal" in="SourceGraphic" in2="effect1_dropShadow_1008_579" result="shape"/>
</filter>
</defs>
</svg>
