<svg width="21" height="17" viewBox="0 0 21 17" fill="none" xmlns="http://www.w3.org/2000/svg">
<path d="M5.32588 0.0664062H1.31865C0.839556 0.0664062 0.451172 0.45479 0.451172 0.933887V1.8309C0.451172 2.30999 0.839556 2.69838 1.31865 2.69838H5.32588C5.80498 2.69838 6.19336 2.30999 6.19336 1.8309V0.933887C6.19336 0.45479 5.80498 0.0664062 5.32588 0.0664062Z" fill="#301709"/>
<path d="M12.5036 0.0664062H8.49639C8.01729 0.0664062 7.62891 0.45479 7.62891 0.933887V1.8309C7.62891 2.30999 8.01729 2.69838 8.49639 2.69838H12.5036C12.9827 2.69838 13.3711 2.30999 13.3711 1.8309V0.933887C13.3711 0.45479 12.9827 0.0664062 12.5036 0.0664062Z" fill="#301709"/>
<path d="M19.6813 0.0664062H15.6741C15.195 0.0664062 14.8066 0.45479 14.8066 0.933887V1.8309C14.8066 2.30999 15.195 2.69838 15.6741 2.69838H19.6813C20.1604 2.69838 20.5488 2.30999 20.5488 1.8309V0.933887C20.5488 0.45479 20.1604 0.0664062 19.6813 0.0664062Z" fill="#301709"/>
<path d="M5.32588 3.5354H1.31865C0.839556 3.5354 0.451172 3.92378 0.451172 4.40288V6.49591C0.451172 6.975 0.839556 7.36339 1.31865 7.36339H5.32588C5.80498 7.36339 6.19336 6.975 6.19336 6.49591V4.40288C6.19336 3.92378 5.80498 3.5354 5.32588 3.5354Z" fill="#301709"/>
<path d="M12.5036 3.5354H8.49639C8.01729 3.5354 7.62891 3.92378 7.62891 4.40288V6.49591C7.62891 6.975 8.01729 7.36339 8.49639 7.36339H12.5036C12.9827 7.36339 13.3711 6.975 13.3711 6.49591V4.40288C13.3711 3.92378 12.9827 3.5354 12.5036 3.5354Z" fill="#301709"/>
<path d="M19.6813 3.5354H15.6741C15.195 3.5354 14.8066 3.92378 14.8066 4.40288V6.49591C14.8066 6.975 15.195 7.36339 15.6741 7.36339H19.6813C20.1604 7.36339 20.5488 6.975 20.5488 6.49591V4.40288C20.5488 3.92378 20.1604 3.5354 19.6813 3.5354Z" fill="#301709"/>
<path d="M5.32588 8.3208H1.31865C0.839556 8.3208 0.451172 8.70918 0.451172 9.18828V11.2813C0.451172 11.7604 0.839556 12.1488 1.31865 12.1488H5.32588C5.80498 12.1488 6.19336 11.7604 6.19336 11.2813V9.18828C6.19336 8.70918 5.80498 8.3208 5.32588 8.3208Z" fill="#301709"/>
<path d="M12.5036 8.3208H8.49639C8.01729 8.3208 7.62891 8.70918 7.62891 9.18828V11.2813C7.62891 11.7604 8.01729 12.1488 8.49639 12.1488H12.5036C12.9827 12.1488 13.3711 11.7604 13.3711 11.2813V9.18828C13.3711 8.70918 12.9827 8.3208 12.5036 8.3208Z" fill="#301709"/>
<path d="M19.6813 8.3208H15.6741C15.195 8.3208 14.8066 8.70918 14.8066 9.18828V11.2813C14.8066 11.7604 15.195 12.1488 15.6741 12.1488H19.6813C20.1604 12.1488 20.5488 11.7604 20.5488 11.2813V9.18828C20.5488 8.70918 20.1604 8.3208 19.6813 8.3208Z" fill="#301709"/>
<path d="M5.32588 13.1057H1.31865C0.839556 13.1057 0.451172 13.4941 0.451172 13.9732V16.0662C0.451172 16.5453 0.839556 16.9337 1.31865 16.9337H5.32588C5.80498 16.9337 6.19336 16.5453 6.19336 16.0662V13.9732C6.19336 13.4941 5.80498 13.1057 5.32588 13.1057Z" fill="#301709"/>
<path d="M12.5036 13.1057H8.49639C8.01729 13.1057 7.62891 13.4941 7.62891 13.9732V16.0662C7.62891 16.5453 8.01729 16.9337 8.49639 16.9337H12.5036C12.9827 16.9337 13.3711 16.5453 13.3711 16.0662V13.9732C13.3711 13.4941 12.9827 13.1057 12.5036 13.1057Z" fill="#301709"/>
<path d="M19.6813 13.1057H15.6741C15.195 13.1057 14.8066 13.4941 14.8066 13.9732V16.0662C14.8066 16.5453 15.195 16.9337 15.6741 16.9337H19.6813C20.1604 16.9337 20.5488 16.5453 20.5488 16.0662V13.9732C20.5488 13.4941 20.1604 13.1057 19.6813 13.1057Z" fill="#301709"/>
</svg>
