<svg width="15" height="16" viewBox="0 0 15 16" fill="none" xmlns="http://www.w3.org/2000/svg">
<path d="M8.5402 0H1.64811C0.737154 0 0 0.7856 0 1.75642V11.6563C0 12.6271 0.737154 13.4127 1.64811 13.4127H5.59758C5.27395 12.6846 5.09416 11.8734 5.09416 11.0176C5.09416 10.2831 5.226 9.58048 5.47172 8.9354C5.44775 8.94178 5.42378 8.94178 5.39381 8.94178H2.39725C2.06763 8.94178 1.79794 8.65437 1.79794 8.30308C1.79794 7.9518 2.06763 7.66439 2.39725 7.66439H5.39381C5.62155 7.66439 5.82532 7.8049 5.92121 8.00928C6.31076 7.3642 6.81418 6.81492 7.4075 6.38699H2.39725C2.06763 6.38699 1.79794 6.09957 1.79794 5.74829C1.79794 5.39701 2.06763 5.10959 2.39725 5.10959H7.79106C8.12068 5.10959 8.39037 5.39701 8.39037 5.74829C8.39037 5.78022 8.39037 5.80577 8.38438 5.83132C8.94174 5.58861 9.55304 5.4481 10.1883 5.43533V1.75642C10.1883 0.7856 9.45116 0 8.5402 0V0ZM4.7945 3.83219H2.39725C2.06763 3.83219 1.79794 3.54478 1.79794 3.19349C1.79794 2.84221 2.06763 2.5548 2.39725 2.5548H4.7945C5.12412 2.5548 5.39381 2.84221 5.39381 3.19349C5.39381 3.54478 5.12412 3.83219 4.7945 3.83219Z" fill="white"/>
<path d="M10.3383 6.70703C8.10769 6.70703 6.29297 8.64101 6.29297 11.0182C6.29297 13.3955 8.10769 15.3295 10.3383 15.3295C12.569 15.3295 14.3837 13.3955 14.3837 11.0182C14.3837 8.64101 12.569 6.70703 10.3383 6.70703ZM11.9864 11.6569H10.9376V12.7747C10.9376 13.1272 10.6691 13.4134 10.3383 13.4134C10.0075 13.4134 9.73901 13.1272 9.73901 12.7747V11.6569H8.69022C8.3594 11.6569 8.09091 11.3708 8.09091 11.0182C8.09091 10.6657 8.3594 10.3795 8.69022 10.3795H9.73901V9.26183C9.73901 8.90927 10.0075 8.62313 10.3383 8.62313C10.6691 8.62313 10.9376 8.90927 10.9376 9.26183V10.3795H11.9864C12.3173 10.3795 12.5857 10.6657 12.5857 11.0182C12.5857 11.3708 12.3173 11.6569 11.9864 11.6569Z" fill="white"/>
</svg>
