<svg width="12" height="12" viewBox="0 0 12 12" fill="none" xmlns="http://www.w3.org/2000/svg">
<path d="M11.0946 8.69592H3.84925C3.34898 8.69592 2.94336 9.10173 2.94336 9.6022C2.94336 10.1023 3.34898 10.5081 3.84925 10.5081H11.0946C11.5947 10.5081 12.0003 10.1023 12.0003 9.6022C12.0003 9.10192 11.5947 8.69592 11.0946 8.69592Z" fill="#747474"/>
<path d="M11.0946 5.08997H3.84925C3.34898 5.08997 2.94336 5.49558 2.94336 5.99605C2.94336 6.49632 3.34898 6.90194 3.84925 6.90194H11.0946C11.5947 6.90194 12.0003 6.49632 12.0003 5.99605C12.0003 5.49577 11.5947 5.08997 11.0946 5.08997Z" fill="#747474"/>
<path d="M3.84925 3.29586H11.0946C11.5947 3.29586 12.0003 2.89024 12.0003 2.38978C12.0003 1.88931 11.5947 1.48389 11.0946 1.48389H3.84925C3.34898 1.48389 2.94336 1.8895 2.94336 2.38978C2.94336 2.89005 3.34898 3.29586 3.84925 3.29586Z" fill="#747474"/>
<path d="M0.919577 3.31767C1.42745 3.31767 1.83915 2.90596 1.83915 2.39809C1.83915 1.89022 1.42745 1.47852 0.919577 1.47852C0.411709 1.47852 0 1.89022 0 2.39809C0 2.90596 0.411709 3.31767 0.919577 3.31767Z" fill="#747474"/>
<path d="M0.919384 6.91543C1.42715 6.91543 1.83877 6.50381 1.83877 5.99604C1.83877 5.48828 1.42715 5.07666 0.919384 5.07666C0.411622 5.07666 0 5.48828 0 5.99604C0 6.50381 0.411622 6.91543 0.919384 6.91543Z" fill="#747474"/>
<path d="M0.919577 10.5216C1.42745 10.5216 1.83915 10.1099 1.83915 9.60207C1.83915 9.0942 1.42745 8.6825 0.919577 8.6825C0.411709 8.6825 0 9.0942 0 9.60207C0 10.1099 0.411709 10.5216 0.919577 10.5216Z" fill="#747474"/>
</svg>
