<svg width="408" height="324" viewBox="0 0 408 324" fill="none" xmlns="http://www.w3.org/2000/svg">
<path d="M150.061 146.801C178.605 146.801 201.745 123.472 201.745 94.6954C201.745 65.9184 178.605 42.59 150.061 42.59C121.517 42.59 98.3773 65.9184 98.3773 94.6954C98.3773 123.472 121.517 146.801 150.061 146.801Z" fill="#DBE8EC"/>
<path d="M116.309 77.7026H136.586" stroke="#B9D4DB" stroke-width="3" stroke-miterlimit="10" stroke-linecap="round"/>
<path d="M116.309 83.5944H136.586" stroke="#B9D4DB" stroke-width="3" stroke-miterlimit="10" stroke-linecap="round"/>
<path d="M116.309 89.4862H136.586" stroke="#B9D4DB" stroke-width="3" stroke-miterlimit="10" stroke-linecap="round"/>
<path d="M382.204 170.614V159.103C382.204 156.908 381.339 154.802 379.8 153.25C378.26 151.698 376.172 150.826 373.995 150.826H345.017C343.938 150.826 342.871 150.612 341.875 150.196C340.879 149.78 339.974 149.17 339.211 148.402C338.449 147.633 337.844 146.721 337.432 145.716C337.019 144.712 336.807 143.636 336.807 142.549V131.037C336.807 129.951 337.019 128.874 337.432 127.87C337.844 126.866 338.449 125.953 339.211 125.185C339.974 124.416 340.879 123.807 341.875 123.391C342.871 122.975 343.938 122.761 345.017 122.761H345.931C348.109 122.761 350.197 121.889 351.737 120.336C353.276 118.784 354.141 116.679 354.141 114.484V102.972C354.141 100.777 353.276 98.6718 351.737 97.1196C350.197 95.5674 348.109 94.6954 345.931 94.6954H81.1036C78.9262 94.6954 76.838 95.5674 75.2983 97.1196C73.7587 98.6718 72.8937 100.777 72.8937 102.972V114.484C72.8937 116.679 73.7587 118.784 75.2983 120.336C76.838 121.889 78.9262 122.761 81.1036 122.761C83.281 122.761 85.3692 123.633 86.9088 125.185C88.4485 126.737 89.3135 128.842 89.3135 131.037V142.549C89.3135 144.744 88.4485 146.849 86.9088 148.402C85.3692 149.954 83.281 150.826 81.1036 150.826H49.3553C47.1779 150.826 45.0897 151.698 43.55 153.25C42.0104 154.802 41.1454 156.908 41.1454 159.103V170.614C41.1454 172.81 42.0104 174.915 43.55 176.467C45.0897 178.019 47.1779 178.891 49.3553 178.891H61.8128C63.9902 178.891 66.0785 179.763 67.6181 181.315C69.1578 182.868 70.0227 184.973 70.0227 187.168V198.68C70.0227 200.875 69.1578 202.98 67.6181 204.532C66.0785 206.085 63.9902 206.957 61.8128 206.957H61.7827C59.6053 206.957 57.5171 207.829 55.9775 209.381C54.4379 210.933 53.5729 213.038 53.5729 215.233V226.745C53.5729 228.94 54.4379 231.045 55.9775 232.598C57.5172 234.15 59.6054 235.022 61.7828 235.022H63.5851C64.6632 235.022 65.7308 235.236 66.7269 235.652C67.723 236.068 68.628 236.677 69.3904 237.446C70.1527 238.215 70.7575 239.127 71.17 240.131C71.5826 241.135 71.795 242.212 71.795 243.299V254.81C71.795 255.897 71.5826 256.973 71.17 257.978C70.7575 258.982 70.1527 259.894 69.3904 260.663C68.628 261.431 67.723 262.041 66.7269 262.457C65.7308 262.873 64.6632 263.087 63.5851 263.087H34.0054C31.828 263.087 29.7398 263.959 28.2002 265.511C26.6605 267.064 25.7955 269.169 25.7955 271.364V282.876C25.7955 283.962 26.0079 285.039 26.4205 286.043C26.833 287.047 27.4378 287.96 28.2001 288.728C28.9625 289.497 29.8675 290.106 30.8636 290.522C31.8597 290.938 32.9273 291.152 34.0054 291.152H350.339C352.517 291.152 354.605 290.28 356.144 288.728C357.684 287.176 358.549 285.071 358.549 282.876V271.364C358.549 269.169 357.684 267.064 356.144 265.511C354.605 263.959 352.517 263.087 350.339 263.087H343.221C342.143 263.087 341.075 262.873 340.079 262.457C339.083 262.041 338.178 261.431 337.415 260.663C336.653 259.894 336.048 258.982 335.636 257.978C335.223 256.973 335.011 255.897 335.011 254.81V243.299C335.011 242.212 335.223 241.135 335.636 240.131C336.048 239.127 336.653 238.215 337.415 237.446C338.178 236.677 339.083 236.068 340.079 235.652C341.075 235.236 342.143 235.022 343.221 235.022H360.005C362.183 235.022 364.271 234.15 365.81 232.598C367.35 231.045 368.215 228.94 368.215 226.745V215.233C368.215 214.146 368.003 213.07 367.59 212.066C367.177 211.062 366.573 210.149 365.81 209.381C365.048 208.612 364.143 208.003 363.147 207.587C362.151 207.171 361.083 206.957 360.005 206.957H354.914C352.736 206.957 350.648 206.085 349.108 204.532C347.569 202.98 346.704 200.875 346.704 198.68V187.168C346.704 184.973 347.569 182.868 349.108 181.315C350.648 179.763 352.736 178.891 354.914 178.891H373.995C376.172 178.891 378.26 178.019 379.8 176.467C381.339 174.915 382.204 172.81 382.204 170.614Z" fill="#DBE8EC"/>
<path d="M294.11 32.8476H136.513C133.393 32.8476 130.864 35.3975 130.864 38.5429V276.835C130.864 279.98 133.393 282.53 136.513 282.53H294.11C297.23 282.53 299.759 279.98 299.759 276.835V38.5429C299.759 35.3975 297.23 32.8476 294.11 32.8476Z" fill="#3086A3"/>
<path d="M283.909 45.0645H146.714C143.594 45.0645 141.065 47.6144 141.065 50.7598V264.618C141.065 267.763 143.594 270.313 146.714 270.313H283.909C287.029 270.313 289.558 267.763 289.558 264.618V50.7598C289.558 47.6144 287.029 45.0645 283.909 45.0645Z" fill="#DBE8EC"/>
<path d="M215.311 134.512C230.684 134.512 243.145 121.949 243.145 106.451C243.145 90.9539 230.684 78.3907 215.311 78.3907C199.939 78.3907 187.478 90.9539 187.478 106.451C187.478 121.949 199.939 134.512 215.311 134.512Z" fill="#F9AE2B"/>
<path d="M210.635 104.004V98.169C210.635 97.5839 210.75 97.0046 210.973 96.4646C211.196 95.9246 211.524 95.4346 211.936 95.0228C212.348 94.6111 212.837 94.2858 213.375 94.0657C213.913 93.8456 214.488 93.7351 215.069 93.7405H215.551C216.132 93.7349 216.708 93.8452 217.245 94.0652C217.783 94.2852 218.272 94.6105 218.685 95.0223C219.097 95.4341 219.424 95.9243 219.648 96.4644C219.871 97.0045 219.986 97.5838 219.986 98.169V100.135C219.987 100.266 220.039 100.393 220.131 100.486C220.223 100.579 220.348 100.633 220.479 100.635L222.814 100.645C222.879 100.645 222.944 100.633 223.005 100.608C223.065 100.583 223.12 100.546 223.166 100.499C223.212 100.453 223.249 100.398 223.274 100.337C223.299 100.276 223.312 100.211 223.313 100.145V98.4943C223.313 97.4814 223.115 96.4785 222.73 95.5428C222.346 94.6071 221.782 93.7571 221.071 93.0413C220.36 92.3255 219.517 91.7581 218.588 91.3714C217.66 90.9847 216.664 90.7864 215.66 90.7878H214.96C213.956 90.7869 212.961 90.9856 212.033 91.3725C211.105 91.7594 210.262 92.3269 209.551 93.0426C208.841 93.7583 208.277 94.6082 207.893 95.5436C207.508 96.479 207.31 97.4817 207.31 98.4943V104.16L210.635 104.004Z" fill="#409CB5"/>
<path d="M224.417 120.782C225.002 120.78 225.562 120.546 225.975 120.129C226.389 119.712 226.621 119.148 226.623 118.558V105.912C226.621 105.323 226.389 104.758 225.975 104.341C225.562 103.925 225.002 103.69 224.417 103.689H206.206C205.621 103.69 205.061 103.925 204.648 104.341C204.234 104.758 204.001 105.323 204 105.912V118.558C204.001 119.148 204.234 119.712 204.648 120.129C205.061 120.546 205.621 120.78 206.206 120.782L224.417 120.782Z" fill="#3086A3"/>
<path d="M215.312 108.026C214.685 108.029 214.086 108.28 213.643 108.727C213.2 109.173 212.95 109.778 212.948 110.409C212.959 110.768 213.052 111.119 213.218 111.436C213.385 111.752 213.621 112.027 213.909 112.237V115.033C213.909 115.408 214.057 115.768 214.32 116.033C214.583 116.298 214.94 116.447 215.312 116.447C215.684 116.447 216.04 116.298 216.303 116.033C216.566 115.768 216.714 115.408 216.714 115.033V112.237C217.002 112.026 217.238 111.752 217.404 111.435C217.571 111.118 217.663 110.768 217.675 110.409C217.673 109.778 217.423 109.173 216.981 108.727C216.538 108.28 215.938 108.029 215.312 108.026Z" fill="#409CB5"/>
<path d="M141.065 238.9V265.541C141.065 266.168 141.187 266.788 141.425 267.367C141.663 267.946 142.012 268.472 142.451 268.916C142.891 269.359 143.413 269.71 143.987 269.95C144.561 270.19 145.177 270.313 145.798 270.313H284.824C285.446 270.313 286.062 270.19 286.636 269.95C287.21 269.71 287.732 269.359 288.172 268.916C288.611 268.472 288.96 267.946 289.198 267.367C289.436 266.788 289.558 266.168 289.558 265.541V238.9H141.065Z" fill="#409CB5"/>
<path d="M289.558 49.8367C289.558 49.21 289.436 48.5895 289.198 48.0105C288.96 47.4315 288.611 46.9054 288.172 46.4623C287.732 46.0191 287.21 45.6676 286.636 45.4278C286.062 45.1879 285.446 45.0645 284.824 45.0645H145.798C145.177 45.0645 144.561 45.1879 143.987 45.4278C143.413 45.6676 142.891 46.0191 142.451 46.4623C142.012 46.9054 141.663 47.4315 141.425 48.0105C141.187 48.5895 141.065 49.21 141.065 49.8367V59.3812H289.558V49.8367Z" fill="#409CB5"/>
<path d="M215.311 53.0818C219.703 53.0818 223.264 49.4924 223.264 45.0645C223.264 40.6367 219.703 37.0472 215.311 37.0472C210.919 37.0472 207.359 40.6367 207.359 45.0645C207.359 49.4924 210.919 53.0818 215.311 53.0818Z" fill="#F9AE2B"/>
<path d="M215.311 262.624C219.703 262.624 223.264 259.035 223.264 254.607C223.264 250.179 219.703 246.589 215.311 246.589C210.919 246.589 207.359 250.179 207.359 254.607C207.359 259.035 210.919 262.624 215.311 262.624Z" fill="#F9AE2B"/>
<path d="M200.932 144.327H158.876C157.836 144.327 156.993 145.177 156.993 146.225V158.553C156.993 159.601 157.836 160.451 158.876 160.451H200.932C201.972 160.451 202.815 159.601 202.815 158.553V146.225C202.815 145.177 201.972 144.327 200.932 144.327Z" fill="#F9AE2B"/>
<path d="M272.125 144.327H220.224C219.184 144.327 218.341 145.177 218.341 146.225V216.53C218.341 217.579 219.184 218.429 220.224 218.429H272.125C273.165 218.429 274.008 217.579 274.008 216.53V146.225C274.008 145.177 273.165 144.327 272.125 144.327Z" fill="#EE781D"/>
<path d="M200.932 173.316H158.876C157.836 173.316 156.993 174.166 156.993 175.214V187.542C156.993 188.59 157.836 189.44 158.876 189.44H200.932C201.972 189.44 202.815 188.59 202.815 187.542V175.214C202.815 174.166 201.972 173.316 200.932 173.316Z" fill="#F9AE2B"/>
<path d="M200.932 202.304H158.876C157.836 202.304 156.993 203.154 156.993 204.203V216.53C156.993 217.579 157.836 218.429 158.876 218.429H200.932C201.972 218.429 202.815 217.579 202.815 216.53V204.203C202.815 203.154 201.972 202.304 200.932 202.304Z" fill="#F9AE2B"/>
<path d="M246.175 197.161H230.134C229.824 197.161 229.52 197.079 229.252 196.923C228.984 196.767 228.761 196.542 228.606 196.272C228.451 196.002 228.37 195.695 228.37 195.383C228.37 195.071 228.451 194.764 228.606 194.494L236.627 180.489L244.647 166.484C244.802 166.213 245.024 165.989 245.293 165.833C245.561 165.677 245.865 165.594 246.175 165.594C246.484 165.594 246.788 165.677 247.057 165.833C247.325 165.989 247.547 166.213 247.702 166.484L255.723 180.489L263.743 194.494C263.898 194.764 263.979 195.071 263.979 195.383C263.979 195.695 263.898 196.002 263.743 196.272C263.588 196.542 263.365 196.767 263.097 196.923C262.829 197.079 262.525 197.161 262.215 197.161H246.175Z" fill="#F9AE2B"/>
<path d="M246.175 172.997H246.175C245.687 172.997 245.292 173.395 245.292 173.887V187.149C245.292 187.641 245.687 188.039 246.175 188.039H246.175C246.662 188.039 247.057 187.641 247.057 187.149V173.887C247.057 173.395 246.662 172.997 246.175 172.997Z" fill="#409CB5"/>
<path d="M248.276 192.196C248.391 191.026 247.543 189.984 246.383 189.868C245.222 189.752 244.188 190.606 244.074 191.776C243.959 192.946 244.806 193.988 245.967 194.104C247.127 194.22 248.161 193.365 248.276 192.196Z" fill="#409CB5"/>
<path d="M109.251 239.705V224.812C109.252 223.318 109.545 221.84 110.115 220.461C110.685 219.083 111.521 217.832 112.573 216.781C113.626 215.73 114.874 214.9 116.247 214.338C117.619 213.776 119.088 213.494 120.57 213.508H121.802C123.283 213.494 124.753 213.775 126.125 214.337C127.498 214.899 128.747 215.729 129.799 216.78C130.852 217.831 131.687 219.082 132.257 220.461C132.827 221.839 133.12 223.318 133.12 224.812V229.829C133.122 230.165 133.256 230.487 133.491 230.726C133.726 230.964 134.045 231.1 134.379 231.105L140.339 231.132C140.506 231.133 140.671 231.1 140.825 231.036C140.98 230.973 141.12 230.879 141.238 230.76C141.356 230.642 141.45 230.501 141.514 230.346C141.578 230.191 141.611 230.024 141.612 229.856V225.642C141.612 223.057 141.107 220.497 140.126 218.108C139.144 215.72 137.705 213.55 135.891 211.723C134.076 209.896 131.923 208.448 129.552 207.461C127.182 206.474 124.643 205.968 122.078 205.971H120.293C117.729 205.969 115.19 206.476 112.821 207.464C110.452 208.451 108.299 209.9 106.486 211.727C104.672 213.554 103.234 215.723 102.253 218.11C101.271 220.498 100.766 223.057 100.766 225.642V240.103L109.251 239.705Z" fill="#EE781D"/>
<path d="M144.431 282.53C145.923 282.526 147.353 281.927 148.408 280.864C149.463 279.8 150.057 278.359 150.061 276.855V244.576C150.057 243.072 149.463 241.63 148.408 240.567C147.353 239.503 145.923 238.904 144.431 238.9H97.9466C96.4546 238.904 95.0248 239.503 93.9699 240.567C92.9149 241.63 92.3206 243.072 92.317 244.576V276.855C92.3206 278.359 92.9149 279.8 93.9699 280.864C95.0248 281.927 96.4546 282.526 97.9466 282.53H144.431Z" fill="#F9AE2B"/>
<path d="M121.189 249.972C119.591 249.978 118.06 250.62 116.93 251.76C115.8 252.899 115.163 254.443 115.158 256.054C115.185 256.969 115.421 257.866 115.846 258.674C116.271 259.483 116.874 260.183 117.61 260.719V267.856C117.611 268.813 117.989 269.729 118.66 270.405C119.331 271.081 120.241 271.46 121.189 271.46C122.137 271.46 123.047 271.081 123.718 270.405C124.389 269.729 124.767 268.813 124.768 267.856V260.719C125.503 260.182 126.105 259.482 126.53 258.673C126.955 257.865 127.191 256.969 127.22 256.054C127.215 254.443 126.578 252.899 125.448 251.76C124.318 250.62 122.787 249.978 121.189 249.972Z" fill="#EE781D"/>
<path d="M38.9489 271.474H59.2251" stroke="#B9D4DB" stroke-width="3" stroke-miterlimit="10" stroke-linecap="round"/>
<path d="M38.9489 277.366H59.2251" stroke="#B9D4DB" stroke-width="3" stroke-miterlimit="10" stroke-linecap="round"/>
<path d="M38.9489 283.258H59.2251" stroke="#B9D4DB" stroke-width="3" stroke-miterlimit="10" stroke-linecap="round"/>
<path d="M309.347 179.741H329.624" stroke="#B9D4DB" stroke-width="3" stroke-miterlimit="10" stroke-linecap="round"/>
<path d="M309.347 185.633H329.624" stroke="#B9D4DB" stroke-width="3" stroke-miterlimit="10" stroke-linecap="round"/>
<path d="M309.347 191.525H329.624" stroke="#B9D4DB" stroke-width="3" stroke-miterlimit="10" stroke-linecap="round"/>
<path d="M85.604 202.719C91.299 202.719 95.9157 198.064 95.9157 192.323C95.9157 186.581 91.299 181.927 85.604 181.927C79.9089 181.927 75.2922 186.581 75.2922 192.323C75.2922 198.064 79.9089 202.719 85.604 202.719Z" fill="#B9D4DB"/>
<path d="M86.0225 176.542C88.9889 176.542 91.3936 174.118 91.3936 171.127C91.3936 168.136 88.9889 165.712 86.0225 165.712C83.056 165.712 80.6512 168.136 80.6512 171.127C80.6512 174.118 83.056 176.542 86.0225 176.542Z" fill="#B9D4DB"/>
<path d="M121.798 178.978C124.365 178.978 126.446 176.879 126.446 174.291C126.446 171.703 124.365 169.604 121.798 169.604C119.23 169.604 117.149 171.703 117.149 174.291C117.149 176.879 119.23 178.978 121.798 178.978Z" fill="#B9D4DB"/>
<path d="M104.885 172.86C106.596 172.86 107.983 171.462 107.983 169.737C107.983 168.012 106.596 166.613 104.885 166.613C103.174 166.613 101.787 168.012 101.787 169.737C101.787 171.462 103.174 172.86 104.885 172.86Z" fill="#B9D4DB"/>
<path d="M108.486 194.274C112.588 194.274 115.913 190.922 115.913 186.786C115.913 182.651 112.588 179.298 108.486 179.298C104.384 179.298 101.058 182.651 101.058 186.786C101.058 190.922 104.384 194.274 108.486 194.274Z" fill="#B9D4DB"/>
<path d="M333.884 279.893C339.579 279.893 344.196 275.239 344.196 269.497C344.196 263.756 339.579 259.101 333.884 259.101C328.189 259.101 323.572 263.756 323.572 269.497C323.572 275.239 328.189 279.893 333.884 279.893Z" fill="#B9D4DB"/>
<path d="M312.058 280.036C315.024 280.036 317.429 277.611 317.429 274.621C317.429 271.63 315.024 269.206 312.058 269.206C309.092 269.206 306.687 271.63 306.687 274.621C306.687 277.611 309.092 280.036 312.058 280.036Z" fill="#B9D4DB"/>
<path d="M312.058 260.188C316.16 260.188 319.485 256.836 319.485 252.7C319.485 248.565 316.16 245.213 312.058 245.213C307.956 245.213 304.631 248.565 304.631 252.7C304.631 256.836 307.956 260.188 312.058 260.188Z" fill="#B9D4DB"/>
<path d="M334.725 95.5257C340.42 95.5257 345.037 90.8713 345.037 85.1299C345.037 79.3884 340.42 74.734 334.725 74.734C329.03 74.734 324.413 79.3884 324.413 85.1299C324.413 90.8713 329.03 95.5257 334.725 95.5257Z" fill="#B9D4DB"/>
<path d="M314.27 100.213C316.838 100.213 318.919 98.1143 318.919 95.5259C318.919 92.9375 316.838 90.8392 314.27 90.8392C311.703 90.8392 309.621 92.9375 309.621 95.5259C309.621 98.1143 311.703 100.213 314.27 100.213Z" fill="#B9D4DB"/>
<path d="M308.571 85.1297C312.673 85.1297 315.999 81.7773 315.999 77.6419C315.999 73.5065 312.673 70.1541 308.571 70.1541C304.469 70.1541 301.144 73.5065 301.144 77.6419C301.144 81.7773 304.469 85.1297 308.571 85.1297Z" fill="#B9D4DB"/>
</svg>
