<svg width="211" height="180" viewBox="0 0 211 180" fill="none" xmlns="http://www.w3.org/2000/svg">
<path d="M98.9993 162.737C95.7804 159.831 91.5143 147.92 91.5143 147.92C87.6465 150.82 75.2698 164.062 52.5827 179.09H0C49.0379 162.09 81.2551 132.718 81.2551 132.718C81.2551 132.718 76.7183 127.556 65.8722 125.609C63.6483 125.208 100.139 114.703 108.874 122.345C113.477 130.217 102.216 165.641 98.9993 162.737Z" fill="#419F81"/>
<path d="M158.922 95.0331C158.025 94.8001 155.706 94.4976 155.706 94.4976L155.233 96.9005L158.72 97.3229L160.074 95.9011L158.922 95.0331Z" fill="#F6B2B5"/>
<path d="M158.076 95.1299C157.87 94.9656 158.066 94.3856 158.463 94.3122C159.36 94.142 160.072 91.0625 160.178 90.5811C160.232 90.3327 161.556 90.0011 161.484 91.2451C161.423 92.3239 161.237 95.7795 161.162 96.9587C161.154 97.0787 161.107 97.1929 161.028 97.2835C160.949 97.3741 160.842 97.4359 160.724 97.4594C159.854 97.6266 158.307 97.4962 158.299 97.1694C158.421 96.7267 159.003 95.8684 158.076 95.1299Z" fill="#1F1F39"/>
<path d="M99.9482 107.327C100.818 107.634 103.109 108.125 103.109 108.125L103.777 105.769L100.337 105.062L98.8682 106.369L99.9482 107.327Z" fill="#F6B2B5"/>
<path d="M100.801 107.301C100.994 107.482 100.749 108.044 100.353 108.085C99.445 108.182 98.4829 111.192 98.3379 111.662C98.2634 111.905 96.9175 112.13 97.0905 110.888C97.2404 109.819 97.7084 106.39 97.8796 105.22C97.8971 105.101 97.9534 104.991 98.0398 104.908C98.1261 104.824 98.2377 104.771 98.3572 104.757C99.2342 104.66 100.766 104.919 100.749 105.249C100.587 105.681 99.9372 106.489 100.801 107.301Z" fill="#1F1F39"/>
<path d="M140.28 95.7253C144.269 95.6151 154.366 98.0152 156.648 97.818C156.691 97.5746 156.721 97.329 156.738 97.0824C156.797 96.2699 156.797 95.4542 156.738 94.6417C156.715 94.2905 156.68 93.9123 156.633 93.5069C156.633 93.5069 143.811 92.0638 140.667 91.4838C137.282 90.8536 130.054 92.868 129.677 91.4597C129.677 91.4597 124.084 89.0528 121.735 91.1214C121.429 91.392 119.498 92.636 119.386 93.0236C119.109 93.9844 119.217 96.0771 119.181 98.0103C119.103 102.206 120.83 105.269 119.129 106.738C117.872 107.826 102.523 105.06 102.196 105.161C102.145 105.182 102.1 105.215 102.065 105.257C102.03 105.3 102.006 105.351 101.996 105.405C101.884 105.765 101.949 106.543 102.357 107.959C102.382 108.047 102.408 108.136 102.436 108.229C102.436 108.229 118.829 113.65 122.322 110.917C126.452 107.688 125.408 103.968 126.261 98.3516L125.848 98.31H125.857C125.993 98.3805 128.377 98.4356 131.648 97.7909" fill="#3B3B4C"/>
<path d="M126.117 60.2627C126.066 59.7223 126.087 59.3802 125.924 58.6813C125.76 58.0047 125.73 57.6963 125.894 56.9521C126.001 56.4485 125.804 54.1682 125.223 54.2456C124.555 54.3364 124.072 55.2789 124.159 55.6645C124.37 56.5577 123.923 56.7529 123.534 57.156C123.196 57.5059 124.028 57.4731 124.177 58.661C124.267 59.3744 124.054 59.1134 124.189 59.3927C124.324 59.6721 126.117 60.2627 126.117 60.2627Z" fill="#EFAEA6"/>
<path d="M121.22 76.6949L119.114 76.1052C119.089 75.1386 118.508 72.8758 118.657 72.0088C118.82 71.0577 118.905 71.1089 118.905 71.1089L120.368 71.9788L121.055 72.3887C121.055 72.3887 120.976 72.7753 121.138 73.42C121.304 74.0298 121.579 74.6048 121.949 75.1174C122.295 75.6142 121.22 76.6949 121.22 76.6949Z" fill="#EFAEA6"/>
<path opacity="0.14" d="M121.06 72.3867C121.035 72.7667 121.072 73.1483 121.169 73.5166C119.865 74.1188 119.089 73.1242 119.417 72.752C119.622 72.5191 120.372 71.9788 120.372 71.9788L121.06 72.3867Z" fill="#1F1F39"/>
<path d="M121.01 68.8962C121.234 69.6753 122.391 71.0228 121.855 71.1252C121.32 71.2277 122.328 72.7684 121.759 72.9028C120.387 73.2208 118.626 72.6612 118.315 72.0329C118.003 71.4046 117.734 69.5197 117.734 69.5197L121.01 68.8962Z" fill="#EFAEA6"/>
<path d="M119.739 69.9373C120.184 69.9025 120.222 70.0031 120.494 69.7952C120.765 69.5874 120.159 69.2713 120.709 69.0655C121.26 68.8596 121.877 68.701 121.808 68.0389C121.711 67.0801 120.902 67.3913 120.407 67.602C120.089 67.7383 119.864 67.0337 119.207 67.1951C118.691 67.3227 118.812 67.6136 118.357 67.748C118.082 67.8282 117.444 67.4754 117.074 67.8988C116.388 68.6827 117.216 69.3168 116.674 70.122C116.043 71.0547 118.192 72.3548 118.365 72.1122C118.564 71.8299 118.041 71.0953 118.252 70.8556C118.572 70.496 118.683 70.8073 119.057 71.0412C119.456 71.2915 120.081 71.1881 119.561 70.6545C119.04 70.121 119.335 69.9692 119.739 69.9373Z" fill="#1F1F39"/>
<path opacity="0.28" d="M119.213 99.5947C120.049 98.6522 122.634 96.3517 123.044 93.2151L119.126 94.3837C119.205 96.3285 119.14 97.241 119.213 99.5947Z" fill="#1F1F39"/>
<path d="M118.734 75.2063C119.472 74.6979 120.191 75.5765 120.861 75.3726C121.27 75.2488 121.124 74.8893 121.236 74.6283C121.305 74.4659 121.554 74.4756 121.882 74.3828C122.74 74.1411 128.914 90.5501 128.914 90.5501C128.914 90.5501 126.846 92.0542 125.143 92.6351C123.441 93.216 120.517 93.594 120.365 92.9802C120.213 92.3664 117.47 76.6446 117.47 76.6446C117.47 76.6446 117.995 75.7138 118.734 75.2063Z" fill="white"/>
<path d="M123.38 94.198C122.49 95.3222 119.996 96.1728 119.586 96.5807C119.085 97.0746 117.685 97.1607 117.685 95.8006C117.685 94.6987 118.822 90.4205 118.339 88.5038C118.224 88.0543 117.565 85.8302 117.446 85.604C117.349 85.4107 114.642 77.5812 116.092 74.5035C117.053 72.4737 118.591 75.2768 118.591 75.2768C118.889 75.8848 120.393 77.0805 121.209 79.3781C121.634 80.6094 121.934 81.8805 122.104 83.172C122.411 85.9413 122.484 88.6971 122.921 89.9933C123.128 90.6061 123.446 91.3388 123.623 92.0599C123.823 92.8429 123.849 93.6103 123.38 94.198Z" fill="#0267A4"/>
<path d="M121.863 74.4118C124.951 73.4278 125.134 67.3856 125.217 66.0024C125.299 64.6192 124.019 60.1689 123.888 58.3256C124.767 58.2174 125.85 58.1845 126.233 58.3256C126.716 59.5078 127.928 63.1113 127.885 65.8651C127.849 68.2507 125.678 76.3266 125.687 77.0187C125.702 78.0433 127.484 84.1803 128.033 85.2242C128.582 86.2681 131.031 92.3007 129.738 92.4205C128.376 92.5481 126.983 94.3537 126.45 93.8569C125.952 93.3968 126.672 86.7621 125.717 83.9405C124.763 81.119 124.704 80.4453 123.337 77.4131" fill="#0267A4"/>
<path opacity="0.41" d="M126.262 98.3467L125.849 98.3051H125.857C125.993 98.3757 129.021 98.337 131.309 97.8605C131.309 97.8605 127.606 97.3327 127.344 97.2602C127.083 97.1877 126.444 97.0814 126.262 98.3467Z" fill="#1F1F39"/>
<path d="M153.742 49.05C153.742 49.05 156.477 49.0123 156.5 49.2095C156.523 49.4067 153.907 50.151 153.907 50.151L139.107 52.3577L138.948 51.2587L153.742 49.05Z" fill="#060606"/>
<path d="M140.184 52.4988C140.104 53.0737 139.84 53.6072 139.432 54.0197C139.023 54.4321 138.492 54.7012 137.918 54.7868L119.725 57.5L119.532 56.1855L118.908 52.0078V52.002L137.1 49.2897C137.805 49.1845 138.523 49.3635 139.096 49.7873C139.668 50.2111 140.049 50.845 140.155 51.5496L140.183 51.743C140.218 51.9936 140.219 52.2481 140.184 52.4988Z" fill="#E7E7E9"/>
<path d="M119.724 57.4952L101.053 59.5908C100.592 59.6595 97.3203 60.0422 93.7204 60.3351C88.966 60.7218 83.6401 60.9528 83.4709 60.0983C83.4709 60.0983 83.4709 60.0983 83.4709 60.0925C83.3123 58.5711 99.3653 55.6084 100.433 55.4528L118.901 52.0117L119.524 56.1894L119.724 57.4952Z" fill="#0073B8"/>
<path d="M97.1108 58.0597L78.1647 60.8841C78.0999 60.8271 78.0361 60.7691 77.9713 60.7102C77.9375 60.6792 77.9046 60.6483 77.8746 60.6135C76.656 59.408 75.9391 57.786 75.8681 56.0736C75.7972 54.3612 76.3774 52.6855 77.4922 51.3834C78.6069 50.0813 80.1735 49.2494 81.8769 49.055C83.5803 48.8606 85.2941 49.3182 86.6737 50.3356L94.1336 55.8569L94.9913 56.4929L97.1108 58.0597Z" fill="#0073B8"/>
<path opacity="0.18" d="M140.184 52.4988C140.105 53.0736 139.841 53.6072 139.432 54.0196C139.024 54.432 138.493 54.7012 137.919 54.7867L119.726 57.5L101.055 59.5956C100.594 59.6642 97.3222 60.047 93.7223 60.3398L93.2012 59.5859L119.529 56.1835L125.35 55.4315C125.35 55.4315 137.174 53.5466 140.184 52.4988Z" fill="#1F1F39"/>
<path d="M84.9352 71.1592C85.8159 71.0282 86.6622 70.7248 87.4254 70.2664C88.1887 69.8079 88.8539 69.2034 89.3831 68.4875L97.1069 58.0598L78.1647 60.8842C77.4844 61.9839 77.1327 63.255 77.1511 64.5479C77.1695 65.8407 77.5572 67.1013 78.2685 68.1812C78.9799 69.2611 79.9852 70.1151 81.166 70.6428C82.3468 71.1704 83.6539 71.3496 84.9333 71.1592H84.9352Z" fill="#00446D"/>
<path opacity="0.18" d="M94.9914 56.4927C89.2614 57.8392 81.1711 59.8952 77.9734 60.712C77.9396 60.681 77.9067 60.6501 77.8767 60.6153C77.4 60.1451 76.9959 59.6066 76.6777 59.0175C78.9413 58.973 81.3993 58.4704 84.595 57.8131C87.8477 57.1452 92.6137 56.2801 94.1415 55.8596L94.9914 56.4927Z" fill="#1F1F39"/>
<path d="M109.35 60.9633C108.569 59.8353 107.675 57.7126 108.101 57.1105C108.528 56.5083 109.442 55.8007 109.855 56.4561C110.269 57.1114 110.395 59.2486 110.769 59.8053C111.143 60.3621 109.35 60.9633 109.35 60.9633Z" fill="#EFAEA6"/>
<path d="M116.15 80.8878C115.337 78.0277 113.901 70.5307 112.88 69.4027C111.86 68.2746 108.239 60.4848 108.737 59.9957C109.235 59.5066 111.181 58.2877 110.818 59.0948C110.636 59.4979 113.724 65.7045 115.313 68.1326C116.764 70.3557 119.148 78.9749 119.057 79.5037C118.966 80.0324 116.931 83.6359 116.15 80.8878Z" fill="#0267A4"/>
<path opacity="0.18" d="M120.877 75.9303C120.78 75.91 120.625 77.7668 119.776 78.7073C119.545 78.9722 119.263 79.1889 118.948 79.3453C118.013 79.7928 117.239 79.875 115.973 80.2152C115.758 79.3173 115.843 79.6991 115.758 79.3173C116.743 79.2351 117.968 78.6822 118.446 78.4222C118.789 78.232 119.102 77.9912 119.374 77.7079C119.826 77.2255 120.201 76.6773 120.488 76.082C120.617 75.8259 120.537 75.5475 120.778 75.4393C121.088 75.2962 121.003 75.9564 120.877 75.9303Z" fill="#1F1F39"/>
<path d="M121.232 75.4178C121.208 75.3642 121.173 75.3161 121.13 75.2764C121.087 75.2368 121.036 75.2064 120.98 75.1872C120.925 75.168 120.866 75.1604 120.807 75.1648C120.749 75.1692 120.691 75.1856 120.639 75.2129C120.403 75.3221 120.423 75.4275 120.294 75.6846C119.907 76.4579 119.271 77.4699 118.252 78.0247C117.233 78.5796 114.221 78.1794 112.783 79.1721C111.345 80.1648 111.448 81.7819 109.318 83.0772C107.187 84.3724 104.34 84.4227 103.715 84.817C103.091 85.2114 102.748 85.5236 102.87 85.7837C102.992 86.0437 103.512 86.3462 104.062 86.3404C104.613 86.3346 108.89 84.906 109.929 84.3105C111.623 83.3314 112.499 81.0792 113.613 80.5021C114.727 79.9251 117.43 79.5858 118.754 78.9556C120.23 78.25 120.736 75.9852 120.864 76.0113C120.934 76.0347 121.01 76.04 121.083 76.0267C121.157 76.0134 121.225 75.9818 121.283 75.9349C121.402 75.8373 121.305 75.5647 121.232 75.4178Z" fill="#F4AD00"/>
<path d="M95.2114 110.139C95.1972 110.181 95.173 110.218 95.1409 110.247C95.1089 110.277 95.07 110.298 95.0277 110.309C91.8097 111.154 89.4949 112.965 87.9497 115.845C87.9332 115.876 87.9108 115.903 87.8838 115.925C87.8568 115.947 87.8256 115.964 87.7922 115.974C87.7587 115.984 87.7236 115.988 87.6889 115.984C87.6541 115.981 87.6204 115.97 87.5896 115.954C87.5588 115.937 87.5315 115.915 87.5094 115.888C87.4873 115.861 87.4707 115.83 87.4606 115.796C87.4505 115.763 87.4471 115.728 87.4505 115.693C87.454 115.658 87.4643 115.625 87.4808 115.594C89.0994 112.576 91.5245 110.68 94.8933 109.794C94.9273 109.786 94.9627 109.784 94.9975 109.789C95.0323 109.794 95.0657 109.805 95.0959 109.823C95.1261 109.841 95.1524 109.865 95.1734 109.893C95.1944 109.921 95.2096 109.953 95.2182 109.988C95.231 110.038 95.2286 110.09 95.2114 110.139Z" fill="#603A3E"/>
<path d="M90.4616 109.933C90.4415 109.993 90.4002 110.043 90.3456 110.074C88.8381 110.96 87.7165 111.899 86.8153 113.032C85.9383 114.135 85.2682 115.428 84.7016 117.101C84.6769 117.165 84.6283 117.217 84.566 117.246C84.5036 117.275 84.4324 117.279 84.3673 117.257C84.3022 117.235 84.2482 117.188 84.2168 117.127C84.1854 117.066 84.179 116.995 84.1988 116.929C85.3533 113.507 87.0571 111.387 90.0768 109.613C90.107 109.596 90.1404 109.584 90.175 109.58C90.2097 109.575 90.2449 109.577 90.2787 109.586C90.3125 109.595 90.3442 109.611 90.3719 109.632C90.3997 109.653 90.4229 109.68 90.4404 109.71C90.4602 109.743 90.4724 109.781 90.4761 109.819C90.4798 109.858 90.4748 109.897 90.4616 109.933Z" fill="#603A3E"/>
<path fill-rule="evenodd" clip-rule="evenodd" d="M19.7978 83.26C19.1046 85.6871 18.7516 87.9963 22.5758 91.3301C25.5608 93.9322 28.7565 92.1624 31.9889 93.8723C36.4039 96.2076 35.8566 99.8652 41.5934 100.33C46.548 100.728 47.6851 93.1773 54.9071 96.1534C60.3635 98.4037 66.5335 96.4057 66.3459 91.1735C66.1574 85.921 71.6515 84.9679 68.3378 79.8421C64.9603 74.6224 59.4324 78.8909 56.7926 77.6672C52.7315 75.7862 52.2278 71.9014 46.1922 72.1827C38.4896 72.5413 39.327 77.182 32.2568 76.8959C25.9021 76.6378 20.9891 79.0929 19.7978 83.26Z" fill="#EEFEFF"/>
<path fill-rule="evenodd" clip-rule="evenodd" d="M188.655 132.441C188.631 139.316 183.696 143.023 177.606 140.126C171.827 137.376 170.09 141.953 165.087 141.996C159.753 142.043 158.968 135.078 154.999 137.563C147.342 142.358 140.775 137.492 143.886 130.323C146.4 124.523 150.202 123.473 153.315 123.667C158.964 124.02 158.121 119.109 164.702 119.386C173.101 119.739 170.035 127.106 177.677 126.065C182.416 125.419 188.667 128.809 188.655 132.441Z" fill="#EEFEFF"/>
<path fill-rule="evenodd" clip-rule="evenodd" d="M118.375 26.9998C118.334 37.21 109.805 42.7158 99.2808 38.4134C89.2934 34.3305 86.2911 41.1238 77.6448 41.1914C68.4261 41.2601 67.0694 30.9165 60.21 34.607C46.9756 41.7279 35.6268 34.5016 40.9981 23.8545C45.3493 15.2421 51.9138 13.68 57.2957 13.9691C67.0569 14.4939 65.6007 7.20284 76.9747 7.61075C91.4951 8.13465 86.1963 19.0756 99.4007 17.53C107.593 16.5721 118.396 21.6062 118.375 26.9998Z" fill="#EEFEFF"/>
<path d="M210.889 56.2801C210.948 25.2444 201.091 0.0659135 188.872 0.0424629C176.653 0.0190122 166.7 25.1594 166.64 56.1952C166.581 87.2309 176.438 112.409 188.657 112.433C200.875 112.456 210.829 87.3159 210.889 56.2801Z" fill="#303646"/>
<path d="M207.261 56.2752C207.321 25.2395 198.178 0.0623812 186.84 0.0406216C175.503 0.018862 166.263 25.1607 166.204 56.1964C166.144 87.2322 175.287 112.409 186.625 112.431C197.962 112.453 207.202 87.311 207.261 56.2752Z" fill="#EFEFEF"/>
<path d="M203.479 56.1256C203.479 28.6959 195.356 6.45968 185.336 6.45968C175.316 6.45968 167.192 28.6959 167.192 56.1256C167.192 83.5553 175.316 105.792 185.336 105.792C195.356 105.792 203.479 83.5553 203.479 56.1256Z" fill="#CD2B31"/>
<path d="M199.577 56.2613C199.62 33.9324 193.042 15.8186 184.885 15.803C176.728 15.7873 170.08 33.8757 170.038 56.2046C169.995 78.5334 176.573 96.6472 184.73 96.6629C192.887 96.6785 199.534 78.5901 199.577 56.2613Z" fill="#EFEFEF"/>
<path d="M195.696 56.252C195.731 38.1388 190.395 23.4449 183.778 23.4322C177.161 23.4195 171.769 38.0928 171.734 56.206C171.699 74.3191 177.035 89.013 183.652 89.0257C190.269 89.0384 195.662 74.3651 195.696 56.252Z" fill="#CD2B31"/>
<path d="M191.007 56.2444C191.031 44.1172 187.458 34.2793 183.028 34.2708C178.598 34.2623 174.987 44.0864 174.964 56.2136C174.941 68.3408 178.513 78.1788 182.944 78.1873C187.374 78.1958 190.984 68.3716 191.007 56.2444Z" fill="#EFEFEF"/>
<path d="M187.028 56.2367C187.039 50.1264 185.239 45.1696 183.007 45.1653C180.775 45.161 178.956 50.1109 178.944 56.2212C178.932 62.3315 180.732 67.2884 182.965 67.2927C185.197 67.297 187.016 62.347 187.028 56.2367Z" fill="#CD2B31"/>
</svg>
