<svg width="120" height="120" viewBox="0 0 120 120" fill="none" xmlns="http://www.w3.org/2000/svg">
<g id="fi_1719521" clip-path="url(#clip0_2894_16758)">
<path id="Vector" d="M110.957 5.12146H105.972C102.9 5.12146 100.401 7.62085 100.401 10.6924V28.1525V35.0189V51.4316V71.141V87.8998V93.1009C100.401 94.6078 100.359 95.7916 101.002 97.1475C101.599 98.4073 102.195 99.6661 102.793 100.926C103.799 103.05 104.806 105.175 105.814 107.3C106.304 108.334 107.321 108.978 108.465 108.977C109.61 108.977 110.626 108.334 111.116 107.3C112.185 105.044 113.254 102.788 114.323 100.532C114.916 99.2825 115.589 98.0429 116.11 96.7612C116.928 94.7516 116.528 92.6871 116.528 90.5823C116.528 85.264 116.528 79.9466 116.528 74.6283C116.528 73.6569 115.741 72.8686 114.768 72.8686C113.795 72.8686 113.008 73.656 113.008 74.6283V93.7234H103.922V29.913H113.008V66.3364C113.008 67.3087 113.795 68.0969 114.768 68.0969C115.741 68.0969 116.528 67.3087 116.528 66.3364V10.6924C116.528 7.62085 114.029 5.12146 110.957 5.12146ZM103.922 26.2765V23.6728H113.008V26.2765H103.922ZM103.922 10.6924C103.922 9.56177 104.842 8.64166 105.972 8.64166H110.958C112.088 8.64166 113.008 9.56177 113.008 10.6924V20.1526H103.922V10.6924ZM111.986 97.2436L108.465 104.673L104.944 97.2436H111.986Z" fill="#F3F2F2"/>
<path id="Vector_2" d="M73.5693 29.1357V18.5266C73.5693 16.9089 72.2537 15.5933 70.6359 15.5933H18.7731C17.1554 15.5933 15.8389 16.9089 15.8389 18.5266V29.1367C15.8389 30.7544 17.1545 32.07 18.7731 32.07H26.1459C27.1182 32.07 27.9064 31.2827 27.9064 30.3094C27.9064 29.3372 27.1182 28.5498 26.1459 28.5498H19.36V19.1135H70.0491V28.5498H34.2822C33.3099 28.5498 32.5225 29.3372 32.5225 30.3094C32.5225 31.2827 33.3099 32.07 34.2822 32.07H70.6359C72.2537 32.07 73.5693 30.7544 73.5693 29.1357Z" fill="#F3F2F2"/>
<path id="Vector_3" d="M87.5125 8.63708H85.892V5.77972C85.892 2.59277 83.2992 0 80.1123 0H5.27618C4.30389 0 3.51562 0.788269 3.51562 1.76056V104.452C3.51562 107.804 6.24298 110.531 9.59473 110.531H11.3141V117.017C11.3141 118.093 11.8698 119.056 12.8009 119.595C13.2678 119.864 13.7805 120 14.2923 120C14.8022 120 15.3131 119.866 15.7773 119.598L20.5453 116.856L25.3134 119.598C26.2454 120.135 27.3587 120.134 28.2889 119.595C29.2209 119.056 29.7766 118.093 29.7766 117.017V110.531H87.5134C90.7004 110.531 93.2931 107.938 93.2931 104.751V14.4168C93.2922 11.2299 90.6995 8.63708 87.5125 8.63708ZM11.3141 107.01H9.59473C8.1839 107.01 7.03583 105.862 7.03583 104.452V101.894H11.3141V107.01ZM26.2555 116.079L22.0303 113.649C21.1148 113.122 19.9768 113.122 19.0604 113.649L14.8352 116.079V101.894H26.2555V116.079ZM28.0161 98.3725H7.03583V3.5202H80.1123C81.3583 3.5202 82.3718 4.53369 82.3718 5.77972V96.1139C82.3718 97.359 81.3583 98.3725 80.1123 98.3725H28.0161ZM89.772 104.751C89.772 105.997 88.7585 107.01 87.5125 107.01H29.7766V101.894H80.1123C83.2992 101.894 85.892 99.3008 85.892 96.1139V12.1582H87.5125C88.7585 12.1582 89.772 13.1717 89.772 14.4177V104.751Z" fill="#F3F2F2"/>
<path id="Vector_4" d="M65.4208 69.7504C65.4208 68.7781 64.6325 67.9907 63.6602 67.9907H36.8719C35.8996 67.9907 35.1113 68.7781 35.1113 69.7504C35.1113 70.7236 35.8996 71.5109 36.8719 71.5109H63.6602C64.6325 71.5109 65.4208 70.7227 65.4208 69.7504Z" fill="#F3F2F2"/>
<path id="Vector_5" d="M75.6597 67.9907H71.9335C70.9621 67.9907 70.1738 68.7781 70.1738 69.7504C70.1738 70.7236 70.9612 71.5109 71.9335 71.5109H75.6597C76.632 71.5109 77.4202 70.7236 77.4202 69.7504C77.4202 68.7781 76.6329 67.9907 75.6597 67.9907Z" fill="#F3F2F2"/>
<path id="Vector_6" d="M36.8719 79.1675C35.8996 79.1675 35.1113 79.9557 35.1113 80.928C35.1113 81.9003 35.8996 82.6886 36.8719 82.6886H46.8786C47.85 82.6886 48.6382 81.9003 48.6382 80.928C48.6382 79.9557 47.8509 79.1675 46.8786 79.1675H36.8719Z" fill="#F3F2F2"/>
<path id="Vector_7" d="M75.6589 79.1675H54.9442C53.9719 79.1675 53.1836 79.9557 53.1836 80.928C53.1836 81.9003 53.9719 82.6886 54.9442 82.6886H75.6589C76.6312 82.6886 77.4194 81.9003 77.4194 80.928C77.4194 79.9557 76.6321 79.1675 75.6589 79.1675Z" fill="#F3F2F2"/>
<path id="Vector_8" d="M52.9806 86.1282H36.8719C35.8996 86.1282 35.1113 86.9156 35.1113 87.8879C35.1113 88.8611 35.8996 89.6484 36.8719 89.6484H52.9806C53.9529 89.6484 54.7411 88.8611 54.7411 87.8879C54.7411 86.9165 53.9529 86.1282 52.9806 86.1282Z" fill="#F3F2F2"/>
<path id="Vector_9" d="M75.6596 86.1282H60.9617C59.9894 86.1282 59.2012 86.9156 59.2012 87.8879C59.2012 88.8611 59.9885 89.6484 60.9617 89.6484H75.6596C76.6319 89.6484 77.4202 88.8611 77.4202 87.8879C77.4202 86.9165 76.6328 86.1282 75.6596 86.1282Z" fill="#F3F2F2"/>
</g>
<defs>
<clipPath id="clip0_2894_16758">
<rect width="120" height="120" fill="white"/>
</clipPath>
</defs>
</svg>
