<svg width="408" height="472" viewBox="0 0 408 472" fill="none" xmlns="http://www.w3.org/2000/svg">
<g clip-path="url(#clip0_176_1513)">
<path d="M11.5715 357.534C14.8344 350.403 19.8921 340.301 25.8651 336.111C41.2404 325.355 77.8272 306.737 141.818 337.228C213.542 371.398 215.569 308.704 285.973 304.378C336.693 301.27 391.715 314.617 403.649 340.17C414.87 364.154 405.373 422.599 361.173 418.475C281.521 411.041 286.745 428.334 210.279 458.201C132.03 488.752 115.294 409.633 41.8466 433.1C-6.69216 448.598 -3.28666 390.195 11.5715 357.534Z" fill="#E9EDFB"/>
<path d="M340.371 52.9185L263.127 253.724H267.994L340.371 52.9185Z" fill="#E9EDFB"/>
<path d="M341.049 18.8201C341.049 18.8201 336.776 45.6032 340.371 52.9185C340.371 52.9185 349.483 37.6283 341.049 18.8201ZM321.573 26.1116C321.573 26.1116 328.996 48.723 335.361 53.1027C335.361 53.1027 337.21 37.6758 321.573 26.1116Z" fill="#E9EDFB"/>
<path d="M361.702 12.3606C361.702 12.3606 339.86 40.9919 341.56 51.7776C341.56 51.7776 364.781 39.5954 361.702 12.3606ZM311.737 35.8218C311.737 35.8218 318.964 64.7562 321.472 72.8975C322.066 74.811 322.661 75.6846 323.255 75.8391C325.038 76.2966 326.708 70.2293 327.094 66.0219C327.623 60.4181 324.83 43.0302 311.737 35.8218Z" fill="#E9EDFB"/>
<path d="M323.659 75.3754C323.659 75.3754 323.594 75.2268 323.605 75.4645C323.724 78.0376 324.479 93.6607 323.873 96.3051C323.207 99.1991 325.591 92.6088 325.591 92.6088L323.659 75.3754ZM335.367 52.8293C335.367 52.8293 335.106 52.6867 335.13 52.7758C335.789 55.2836 334.892 65.5701 334.286 68.2265C333.62 71.1146 335.474 65.9445 335.474 65.9445L335.367 52.8293ZM305.169 47.1304C305.169 47.1304 306.756 84.8241 311.071 93.4824C316.569 104.512 319.683 84.5091 319.118 80.7712C318.554 77.0333 317.252 55.5391 305.169 47.1304Z" fill="#E9EDFB"/>
<path d="M335.367 52.8294C335.367 52.8294 335.106 52.6868 335.129 52.7759C335.789 55.2837 334.892 65.5702 334.285 68.2266C333.62 71.1146 335.474 65.9446 335.474 65.9446L335.367 52.8294ZM314.679 95.4554C314.679 95.4554 314.607 95.283 314.619 95.5505C314.732 98.4207 315.457 115.832 314.839 118.78C314.167 122.007 316.574 114.662 316.574 114.662L314.679 95.4554ZM283.316 61.5709C283.316 61.5709 294.014 104.761 300.409 114.044C308.509 125.858 309.217 101.564 307.749 97.3392C306.281 93.114 297.277 69.2784 283.316 61.5709Z" fill="#E9EDFB"/>
<path d="M304.843 116.813C304.843 116.813 304.646 116.082 304.658 116.379C304.783 119.582 307.071 137.012 306.376 140.304C305.621 143.899 308.308 136.34 308.308 136.34L304.843 116.813ZM270.746 81.3894C270.746 81.3894 285.01 126.274 291.381 136.162C299.464 148.742 299 121.502 296.766 113.996C294.472 106.313 284.701 89.602 270.746 81.3894Z" fill="#E9EDFB"/>
<path d="M295.809 139.086C295.809 139.086 295.613 138.307 295.624 138.622C295.749 142.039 298.002 160.61 297.318 164.11C296.558 167.943 299.25 159.885 299.25 159.885L295.809 139.086ZM262.128 103.222C262.128 103.222 276.392 148.107 282.757 157.995C290.846 170.581 290.377 143.335 288.142 135.835C285.854 128.146 276.083 111.441 262.128 103.222Z" fill="#E9EDFB"/>
<path d="M287.191 160.948C287.191 160.948 286.989 160.17 287.001 160.485C287.126 163.896 289.378 183.067 288.689 186.585C287.928 190.417 290.983 181.611 290.983 181.611L287.191 160.948ZM247.46 122.244C247.46 122.244 266.354 168.775 272.707 178.657C280.79 191.243 278.989 160.342 276.755 152.837C274.466 145.153 261.415 130.457 247.46 122.244Z" fill="#E9EDFB"/>
<path d="M276.232 181.391C276.232 181.391 276.083 180.969 276.095 181.349C276.208 185.456 279.292 208.287 278.579 212.506C277.807 217.123 281.402 206.647 281.402 206.647L276.232 181.391ZM228.561 146.062C228.561 146.062 236.233 162.85 246.058 176.964C252.661 186.472 261.51 193.906 264.838 197.4C275.352 208.471 266.407 179.543 262.693 172.536C258.883 165.376 243.983 151.916 228.561 146.062Z" fill="#E9EDFB"/>
<path d="M268.975 199.349C268.975 199.349 268.826 198.927 268.838 199.308C268.951 203.42 272.226 228.088 271.311 232.283C271.097 233.275 274.342 224.795 274.342 224.795L268.975 199.349ZM219.681 169.22C219.681 169.22 228.293 188.118 239.229 204.056C246.575 214.752 256.369 223.209 260.03 227.155C271.679 239.67 261.522 207.158 257.368 199.266C253.124 191.178 236.643 175.93 219.681 169.22ZM200.871 207.467C200.871 207.467 220.656 219.114 234.629 230.084C251.026 242.956 253.932 244.418 258.812 246.004C274.264 251.014 251.086 219.738 244.084 215.186C236.917 210.521 218.398 205.506 200.871 207.467Z" fill="#E9EDFB"/>
<path d="M264.868 230.167C264.799 229.869 264.705 229.577 264.589 229.294C264.737 231.433 267.935 241.209 267.061 243.396C266.853 243.913 268.696 239.598 268.696 239.598L264.868 230.167ZM261.92 244.988C261.92 244.988 261.617 244.465 261.635 244.56C261.801 245.618 265.094 250.449 264.238 251.525C264.036 251.781 265.843 249.653 265.843 249.653L261.92 244.988ZM357.286 29.5227C357.286 29.5227 344.49 53.8397 338.369 59.1523C338.369 59.1523 342.018 43.4105 357.286 29.5227ZM363.901 41.2711C363.901 41.2711 347.016 58.7066 341.025 60.7093C341.025 60.7093 348.734 46.875 363.901 41.2711Z" fill="#E9EDFB"/>
<path d="M349.548 18.1665C349.548 18.1665 345.388 48.9965 338.357 57.8331C338.357 57.8331 332.443 40.8196 349.548 18.1665ZM363.829 52.4016C363.829 52.4016 343.48 75.3577 337.495 81.6806C336.086 83.1663 335.248 83.7546 334.832 83.7189C333.584 83.606 336.104 77.9071 338.267 74.1692C341.156 69.1893 352.537 54.9569 363.829 52.4016Z" fill="#E9EDFB"/>
<path d="M334.886 83.2257C334.886 83.2257 335.011 83.1127 334.886 83.3148C333.364 85.5017 324.111 98.7655 322.952 101.232C321.68 103.918 324.093 97.5591 324.093 97.5591L334.886 83.2257ZM341.18 60.4656C341.18 60.4656 341.406 60.4181 341.34 60.4954C339.557 62.4683 334.208 71.602 333.073 74.0563C331.801 76.7423 333.703 71.7565 333.703 71.7565L341.18 60.4656ZM361.036 64.0015C361.036 64.0015 338.838 96.0913 331.558 102.373C322.286 110.359 331.884 92.2168 334.309 89.1504C336.734 86.084 349.637 67.882 361.036 64.0015Z" fill="#E9EDFB"/>
<path d="M341.18 60.4656C341.18 60.4656 341.406 60.4181 341.34 60.4954C339.557 62.4683 334.208 71.602 333.073 74.0563C331.801 76.7423 333.703 71.7565 333.703 71.7565L341.18 60.4656ZM328.467 103.05C328.467 103.05 328.598 102.919 328.467 103.151C326.779 105.593 316.533 120.42 315.202 123.142C313.752 126.113 316.58 119.095 316.58 119.095L328.467 103.05ZM364.941 82.5779C364.941 82.5779 334.595 116.867 325.834 123.094C314.685 131.028 328.039 109.854 331.231 106.622C334.422 103.389 352.876 85.3293 364.941 82.5779Z" fill="#E9EDFB"/>
<path d="M321.811 124.229C321.811 124.229 322.334 123.635 322.155 123.908C320.271 126.636 309.157 141.041 307.672 144.078C306.055 147.393 308.86 140.114 308.86 140.114L321.811 124.229ZM360.662 103.205C360.662 103.205 327.379 137.957 318.304 144.713C306.727 153.312 322.393 129.928 327.873 124.075C333.477 118.079 348.318 106.402 360.662 103.205Z" fill="#E9EDFB"/>
<path d="M314.191 146.021C314.191 146.021 314.738 145.426 314.554 145.676C312.557 148.588 300.807 163.979 299.202 167.2C297.455 170.718 300.528 163.011 300.528 163.011L314.191 146.021ZM353.066 124.467C353.066 124.467 319.784 159.219 310.703 165.976C299.125 174.575 314.792 151.191 320.271 145.337C325.882 139.341 340.722 127.658 353.066 124.467Z" fill="#E9EDFB"/>
<path d="M306.59 167.283C306.59 167.283 307.143 166.689 306.958 166.939C304.955 169.85 292.867 185.776 291.262 188.997C289.515 192.515 292.813 184.059 292.813 184.059L306.59 167.283ZM350.392 144.993C350.392 144.993 313.656 179.87 304.575 186.626C292.998 195.225 311.475 169.054 316.949 163.207C322.542 157.211 338.054 148.178 350.392 144.993Z" fill="#E9EDFB"/>
<path d="M301.074 187.999C301.074 187.999 301.389 187.672 301.17 187.999C298.792 191.517 284.172 210.355 282.151 214.206C279.97 218.401 283.934 208.352 283.934 208.352L301.074 187.999ZM347.367 170.837C347.367 170.837 333.638 183.186 320.224 192.634C311.214 198.981 302.109 202.939 298.305 205.024C286.246 211.633 307.541 189.17 313.555 184.16C319.695 179.026 335.528 171.58 347.367 170.837Z" fill="#E9EDFB"/>
<path d="M294.911 205.53C294.911 205.53 295.232 205.209 295.012 205.53C292.635 209.048 276.868 229.425 274.995 233.299C274.556 234.22 277.557 225.99 277.557 225.99L294.911 205.53ZM339.141 193.318C339.141 193.318 323.689 207.217 308.658 217.92C298.555 225.104 288.374 229.656 284.107 232.033C270.603 239.575 294.596 214.354 301.342 208.703C308.278 202.915 325.971 194.352 339.141 193.318ZM327.879 231.6C327.879 231.6 310.382 236.116 296.468 241.702C280.148 248.239 277.717 248.679 274.128 248.679C262.77 248.679 293.253 228.171 299.684 226.198C306.275 224.148 319.32 224.997 327.879 231.6Z" fill="#E9EDFB"/>
<path d="M279.75 233.281C279.75 233.281 280.517 232.443 280.392 232.61C279.102 234.393 271.81 241.957 271.055 244.091C270.877 244.59 272.297 240.353 272.297 240.353L279.75 233.281ZM272.987 246.908C272.987 246.908 273.45 246.533 273.391 246.616C272.695 247.478 268.149 250.729 268.042 251.899C268.042 252.179 268.22 249.831 268.22 249.831L272.987 246.908Z" fill="#E9EDFB"/>
<path d="M25.4609 107.186L105.517 307.991H100.477L25.4609 107.186Z" fill="#E9EDFB"/>
<path d="M24.7597 73.0876C24.7597 73.0876 29.1875 99.8708 25.461 107.186C25.461 107.186 16.0172 91.8959 24.7597 73.0876ZM44.9431 80.3792C44.9431 80.3792 37.2466 102.991 30.6792 107.37C30.6495 107.37 28.7358 91.9434 44.9431 80.3792Z" fill="#E9EDFB"/>
<path d="M3.35795 66.6279C3.35795 66.6279 25.9899 95.2592 24.2307 106.045C24.2307 106.045 0.166412 93.8627 3.35795 66.6279ZM55.1358 90.0892C55.1358 90.0892 47.6413 119.024 45.0322 127.165C44.4379 129.078 43.7841 129.952 43.1601 130.106C41.2999 130.564 39.5941 124.497 39.184 120.289C38.6729 114.685 41.5673 97.2915 55.1358 90.0892Z" fill="#E9EDFB"/>
<path d="M42.7797 129.643C42.7797 129.643 42.851 129.494 42.8391 129.732C42.7143 132.305 41.9298 147.922 42.5598 150.573C43.2551 153.467 40.7768 146.876 40.7768 146.876L42.7797 129.643ZM30.6435 107.097C30.6435 107.097 30.9228 106.948 30.8931 107.043C30.2096 109.551 31.1368 119.838 31.7668 122.494C32.4562 125.388 30.5365 120.218 30.5365 120.218L30.6435 107.097ZM61.9467 101.398C61.9467 101.398 60.3064 139.086 55.8311 147.762C50.1315 158.791 46.9162 138.789 47.5105 135.045C48.1048 131.301 49.4183 109.807 61.9467 101.398Z" fill="#E9EDFB"/>
<path d="M30.6435 107.097C30.6435 107.097 30.9228 106.948 30.8931 107.043C30.2096 109.551 31.1368 119.838 31.7668 122.494C32.4562 125.388 30.5365 120.218 30.5365 120.218L30.6435 107.097ZM52.0631 149.723C52.0631 149.723 52.1344 149.551 52.1284 149.818C52.0096 152.688 51.2548 170.094 51.8966 173.048C52.592 176.274 50.1137 168.929 50.1137 168.929L52.0631 149.723ZM84.5906 115.839C84.5906 115.839 73.4707 159.029 66.8737 168.311C58.4818 180.125 57.7508 155.832 59.2723 151.607C60.7937 147.382 70.1187 123.546 84.5906 115.839Z" fill="#E9EDFB"/>
<path d="M62.2796 171.08C62.2796 171.08 62.4876 170.349 62.4758 170.647C62.3391 173.85 59.9736 191.279 60.6928 194.571C61.4773 198.167 58.6958 190.608 58.6958 190.608L62.2796 171.08ZM97.6124 135.657C97.6124 135.657 82.8196 180.541 76.2166 190.429C67.8366 203.01 68.318 175.769 70.6359 168.264C73.0251 160.58 83.1524 143.869 97.6124 135.657Z" fill="#E9EDFB"/>
<path d="M71.6402 193.377C71.6402 193.377 71.8482 192.598 71.8364 192.913C71.7056 196.33 69.358 214.901 70.0831 218.401C70.8676 222.234 68.0802 214.176 68.0802 214.176L71.6402 193.377ZM106.551 157.508C106.551 157.508 91.7523 202.392 85.1552 212.28C76.7752 224.867 77.2625 197.62 79.5745 190.12C81.9577 182.413 92.091 165.708 106.551 157.508Z" fill="#E9EDFB"/>
<path d="M80.579 215.216C80.579 215.216 80.7811 214.437 80.7692 214.752C80.6384 218.163 78.3027 237.334 79.0218 240.852C79.8123 244.685 76.6445 235.878 76.6445 235.878L80.579 215.216ZM121.748 176.524C121.748 176.524 102.171 223.048 95.5976 232.937C87.2176 245.523 89.06 214.622 91.4017 207.116C93.7612 199.421 107.288 184.725 121.748 176.524Z" fill="#E9EDFB"/>
<path d="M91.9306 235.658C91.9306 235.658 92.0851 235.236 92.0732 235.617C91.9603 239.723 88.7628 262.548 89.4938 266.774C90.2962 271.391 86.5757 260.914 86.5757 260.914L91.9306 235.658ZM141.337 200.33C141.337 200.33 133.385 217.118 123.198 231.231C116.363 240.739 107.151 248.173 103.74 251.668C92.8399 262.739 102.111 233.81 105.963 226.804C109.909 219.643 125.35 206.183 141.337 200.33Z" fill="#E9EDFB"/>
<path d="M99.4548 253.617C99.4548 253.617 99.6034 253.195 99.5915 253.575C99.4786 257.687 96.085 282.355 97.03 286.551C97.2558 287.543 93.886 279.063 93.886 279.063L99.4548 253.617ZM150.537 223.47C150.537 223.47 141.622 242.368 130.277 258.306C122.669 269.002 112.518 277.458 108.709 281.404C96.6318 293.919 107.157 261.408 111.466 253.516C115.876 245.458 132.957 230.209 150.537 223.47ZM170.031 261.734C170.031 261.734 149.533 273.382 135.043 284.352C118.051 297.223 115.044 298.685 109.986 300.272C93.9395 305.281 118.004 274.006 125.249 269.454C132.678 264.789 151.863 259.773 170.031 261.734Z" fill="#E9EDFB"/>
<path d="M103.692 284.429C103.692 284.429 103.996 283.365 103.984 283.561C103.829 285.701 100.513 295.446 101.422 297.663C101.636 298.18 99.7223 293.866 99.7223 293.866L103.692 284.429ZM106.765 299.256C106.765 299.256 107.074 298.733 107.062 298.828C106.884 299.886 103.496 304.717 104.364 305.792C104.572 306.048 102.7 303.921 102.7 303.921L106.765 299.256ZM7.93433 83.8198C7.93433 83.8198 21.1938 108.137 27.5471 113.449C27.5353 113.42 23.7791 97.666 7.93433 83.8198ZM1.07581 95.5386C1.07581 95.5386 18.5728 112.974 24.7835 114.977C24.7835 114.977 16.7958 101.142 1.07581 95.5386Z" fill="#E9EDFB"/>
<path d="M15.9518 72.4338C15.9518 72.4338 20.2547 103.264 27.5471 112.1C27.5471 112.1 33.6746 95.1107 15.9518 72.4338ZM1.14709 106.669C1.14709 106.669 22.2398 129.625 28.4446 135.948C29.9007 137.434 30.7684 138.022 31.2022 137.986C32.4979 137.873 29.8828 132.174 27.6363 128.437C24.6468 123.457 12.8554 109.224 1.14709 106.669Z" fill="#E9EDFB"/>
<path d="M31.1488 137.475C31.1488 137.475 31.024 137.362 31.1488 137.57C32.7297 139.757 42.3162 153.021 43.5227 155.487C44.8361 158.173 42.334 151.809 42.334 151.809L31.1488 137.475ZM24.6468 114.721C24.6468 114.721 24.4091 114.674 24.4804 114.751C26.3288 116.724 31.8441 125.858 33.0506 128.312C34.3641 130.998 32.3968 126.012 32.3968 126.012L24.6468 114.721ZM4.0177 118.287C4.0177 118.287 27.0241 150.377 34.5721 156.64C44.1824 164.627 34.2333 146.484 31.7193 143.418C29.2053 140.352 15.8627 122.149 4.0177 118.287Z" fill="#E9EDFB"/>
<path d="M24.6468 114.721C24.6468 114.721 24.409 114.674 24.4803 114.751C26.3287 116.724 31.8441 125.858 33.0506 128.312C34.364 130.998 32.3968 126.012 32.3968 126.012L24.6468 114.721ZM37.7992 157.318C37.7992 157.318 37.6625 157.187 37.7992 157.413C39.5466 159.861 50.1672 174.688 51.546 177.409C53.0497 180.381 50.1196 173.362 50.1196 173.362L37.7992 157.318ZM0 136.845C0 136.845 31.4518 171.128 40.5272 177.362C52.0809 185.295 38.239 164.122 34.9286 160.889C31.6182 157.656 12.4987 139.597 0 136.845Z" fill="#E9EDFB"/>
<path d="M44.6874 178.515C44.6874 178.515 44.1466 177.92 44.3249 178.194C46.2743 180.921 57.7983 195.326 59.3317 198.363C61.0136 201.679 58.1133 194.399 58.1133 194.399L44.6874 178.515ZM4.43958 157.472C4.43958 157.472 38.9106 192.224 48.3366 198.981C60.3361 207.58 44.0991 184.196 38.4232 178.342C32.6048 172.364 17.2236 160.663 4.43958 157.472Z" fill="#E9EDFB"/>
<path d="M52.5801 200.294C52.5801 200.294 52.0155 199.7 52.2057 199.949C54.2739 202.861 66.4696 218.252 68.1099 221.473C69.9226 224.991 66.743 217.284 66.743 217.284L52.5801 200.294ZM12.3085 178.734C12.3085 178.734 46.7795 213.486 56.2055 220.243C68.205 228.842 51.9679 205.458 46.2921 199.605C40.4796 193.609 25.0984 181.926 12.3085 178.734Z" fill="#E9EDFB"/>
<path d="M60.4669 221.551C60.4669 221.551 59.8726 220.956 60.0925 221.206C62.1607 224.118 74.6951 240.038 76.3533 243.265C78.1362 246.783 74.7486 238.326 74.7486 238.326L60.4669 221.551ZM15.0721 199.26C15.0721 199.26 53.1745 234.167 62.5768 240.894C74.5703 249.493 55.4448 223.321 49.7511 217.468C43.9386 211.478 27.8621 202.445 15.0721 199.26Z" fill="#E9EDFB"/>
<path d="M66.1903 242.266C66.1903 242.266 65.8575 241.94 66.0892 242.266C68.5617 245.784 83.7051 264.622 85.7734 268.467C88.0378 272.669 83.9488 262.62 83.9488 262.62L66.1903 242.266ZM18.234 225.104C18.234 225.104 32.4622 237.453 46.3635 246.902C55.6945 253.248 65.1324 257.2 69.0787 259.292C81.5596 265.9 59.5041 243.437 53.2696 238.427C46.8865 233.293 30.4831 225.847 18.234 225.104Z" fill="#E9EDFB"/>
<path d="M72.5733 259.797C72.5733 259.797 72.2405 259.476 72.4723 259.797C74.9447 263.315 91.2768 283.692 93.2143 287.567C93.6719 288.488 90.5577 280.257 90.5577 280.257L72.5733 259.797ZM26.7388 247.585C26.7388 247.585 42.738 261.502 58.3273 272.199C68.7993 279.384 79.3546 283.936 83.7704 286.313C97.749 293.842 72.9002 268.633 65.8931 262.97C58.7195 257.182 40.3726 248.637 26.7388 247.585ZM38.4054 285.867C38.4054 285.867 56.5383 290.383 70.9627 295.969C87.8772 302.506 90.3972 302.946 94.1414 302.946C105.909 302.946 74.3266 282.438 67.6582 280.465C60.7997 278.415 47.2787 279.265 38.4054 285.867Z" fill="#E9EDFB"/>
<path d="M88.2874 287.549C88.0855 287.314 87.8712 287.089 87.6455 286.877C88.9887 288.66 96.5604 296.225 97.3271 298.352C97.5113 298.857 96.0374 294.62 96.0374 294.62L88.2874 287.549ZM95.2945 301.169C95.2945 301.169 94.8131 300.801 94.8785 300.878C95.5976 301.745 100.305 304.996 100.453 306.167C100.483 306.446 100.269 304.099 100.269 304.099L95.2945 301.169Z" fill="#E9EDFB"/>
<path d="M355.729 150.21L281.533 302.399L285.349 302.732L355.729 150.21Z" fill="#BAC5F4"/>
<path d="M358.576 123.522C358.576 123.522 353.405 144.232 355.729 150.21C355.729 150.21 363.913 138.842 358.576 123.522ZM342.808 127.92C342.808 127.92 347.093 146.152 351.788 150.014C351.788 150.014 354.285 138.046 342.808 127.92Z" fill="#BAC5F4"/>
<path d="M375.205 119.862C375.205 119.862 356.139 140.827 356.739 149.396C356.739 149.396 375.77 141.421 375.205 119.862ZM334.44 134.861C334.44 134.861 338.143 158.037 339.551 164.573C339.884 166.113 340.306 166.843 340.77 167.004C342.149 167.485 343.854 162.844 344.443 159.57C345.221 155.226 344.217 141.403 334.44 134.861Z" fill="#BAC5F4"/>
<path d="M341.103 166.683C341.103 166.683 341.061 166.558 341.049 166.748C340.972 168.775 340.502 181.076 339.86 183.108C339.141 185.331 341.465 180.327 341.465 180.327L341.103 166.683ZM351.812 149.782C351.812 149.782 351.616 149.652 351.628 149.729C351.973 151.738 350.576 159.742 349.916 161.775C349.197 163.997 351.004 160.069 351.004 160.069L351.812 149.782ZM328.521 143.281C328.521 143.281 327.201 172.947 330.001 180.036C333.566 189.057 337.358 173.582 337.168 170.611C336.978 167.64 337.424 150.698 328.521 143.281Z" fill="#BAC5F4"/>
<path d="M351.812 149.782C351.812 149.782 351.616 149.652 351.628 149.729C351.973 151.737 350.576 159.742 349.916 161.774C349.197 163.997 351.004 160.069 351.004 160.069L351.812 149.782ZM332.717 181.819C332.717 181.819 332.669 181.682 332.663 181.89C332.556 184.148 331.944 197.846 331.26 200.116C330.512 202.6 332.895 197.002 332.895 197.002L332.717 181.819ZM310.411 153.122C310.411 153.122 315.885 187.714 320.248 195.421C325.799 205.232 327.974 186.228 327.136 182.823C326.298 179.418 320.83 160.116 310.411 153.122Z" fill="#BAC5F4"/>
<path d="M323.534 197.917C323.534 197.917 323.427 197.323 323.415 197.567C323.302 200.086 323.908 213.903 323.142 216.44C322.31 219.209 324.925 213.469 324.925 213.469L323.534 197.917ZM299.226 167.806C299.226 167.806 307.374 203.967 311.707 212.15C317.193 222.561 318.672 201.174 317.43 195.136C316.117 188.956 309.591 175.193 299.226 167.806Z" fill="#BAC5F4"/>
<path d="M314.94 214.764C314.94 214.764 314.833 214.14 314.821 214.384C314.691 217.07 315.202 231.778 314.423 234.482C313.567 237.453 316.206 231.302 316.206 231.302L314.94 214.764ZM290.971 184.338C290.971 184.338 299.113 220.499 303.452 228.682C308.937 239.099 310.423 217.706 309.181 211.674C307.88 205.488 301.348 191.731 290.971 184.338Z" fill="#BAC5F4"/>
<path d="M306.697 231.296C306.697 231.296 306.596 230.702 306.584 230.922C306.447 233.608 306.911 248.797 306.132 251.501C305.276 254.472 308.266 247.757 308.266 247.757L306.697 231.296ZM278.181 198.256C278.181 198.256 289.83 236.015 294.139 244.204C299.624 254.615 300.308 230.268 299.066 224.231C297.794 218.051 288.558 205.642 278.181 198.256Z" fill="#BAC5F4"/>
<path d="M296.718 246.581C296.718 246.581 296.629 246.242 296.611 246.539C296.421 249.766 297.289 267.873 296.445 271.135C295.529 274.701 299.054 266.732 299.054 266.732L296.718 246.581ZM261.742 215.644C261.742 215.644 266.615 229.312 273.361 241.078C277.89 248.964 284.332 255.411 286.698 258.377C294.192 267.766 289.14 244.483 286.698 238.766C284.202 232.848 273.438 221.283 261.742 215.644Z" fill="#BAC5F4"/>
<path d="M289.806 260.171C289.806 260.171 289.723 259.833 289.705 260.13C289.515 263.357 290.406 282.92 289.408 286.146C289.17 286.913 292.29 280.483 292.29 280.483L289.806 260.171ZM253.207 233.204C253.207 233.204 258.675 248.601 266.17 261.841C271.198 270.755 278.306 278.017 280.921 281.363C289.206 291.964 283.453 265.787 280.725 259.316C277.937 252.684 266.051 239.622 253.207 233.204ZM235.865 261.913C235.865 261.913 250.58 272.383 260.797 281.933C272.779 293.135 274.954 294.484 278.674 296.053C290.448 301.033 274.395 274.939 269.219 270.892C263.917 266.75 249.742 261.562 235.865 261.913Z" fill="#BAC5F4"/>
<path d="M284.499 284.049C284.462 283.811 284.409 283.577 284.338 283.347C284.338 285.035 286.121 292.915 285.319 294.567C285.117 294.959 286.858 291.709 286.858 291.709L284.499 284.049ZM281.182 295.47C281.182 295.47 280.98 295.036 280.986 295.114C281.046 295.957 283.298 299.969 282.549 300.753C282.377 300.943 283.934 299.392 283.934 299.392L281.182 295.47ZM370.575 133.018C370.575 133.018 358.891 151.214 353.738 154.958C353.738 154.958 357.643 142.859 370.575 133.018ZM374.967 142.651C374.967 142.651 360.543 155.178 355.717 156.319C355.717 156.361 362.694 146.038 374.967 142.651Z" fill="#BAC5F4"/>
<path d="M365.28 123.587C365.28 123.587 359.931 147.476 353.815 153.924C353.815 153.942 350.338 140.185 365.28 123.587ZM374.159 151.399C374.159 151.399 356.638 168.038 351.521 172.566C350.332 173.636 349.619 174.04 349.292 173.98C348.324 173.814 350.683 169.512 352.638 166.73C355.242 163.022 365.125 152.635 374.159 151.399Z" fill="#BAC5F4"/>
<path d="M349.364 173.588C349.364 173.588 349.471 173.511 349.364 173.659C348.02 175.27 339.854 185.045 338.79 186.894C337.602 188.914 339.932 184.095 339.932 184.095L349.364 173.588ZM355.848 156.182C355.848 156.182 356.032 156.182 355.973 156.218C354.445 157.644 349.649 164.443 348.567 166.291C347.379 168.305 349.221 164.508 349.221 164.508L355.848 156.182ZM371.199 160.307C371.199 160.307 351.616 183.964 345.477 188.385C337.667 194.019 346.422 180.446 348.532 178.206C350.641 175.965 361.975 162.571 371.199 160.307Z" fill="#BAC5F4"/>
<path d="M355.848 156.182C355.848 156.182 356.032 156.182 355.972 156.218C354.445 157.644 349.649 164.443 348.567 166.291C347.379 168.305 349.221 164.508 349.221 164.508L355.848 156.182ZM342.992 188.706C342.992 188.706 343.105 188.617 342.992 188.783C341.501 190.566 332.461 201.512 331.231 203.556C329.893 205.785 332.586 200.478 332.586 200.478L342.992 188.706ZM372.976 175.133C372.976 175.133 346.855 199.955 339.563 204.252C330.286 209.713 342.196 194.019 344.912 191.701C347.628 189.383 363.336 176.47 372.976 175.133Z" fill="#BAC5F4"/>
<path d="M336.342 204.876C336.342 204.876 336.788 204.46 336.633 204.644C334.975 206.659 325.281 217.195 323.909 219.501C322.417 221.99 325.097 216.47 325.097 216.47L336.342 204.876ZM368.222 191.018C368.222 191.018 339.783 215.977 332.193 220.683C322.53 226.626 336.401 209.392 341.108 205.149C345.899 200.829 358.326 192.676 368.222 191.018Z" fill="#BAC5F4"/>
<path d="M328.877 221.426C328.877 221.426 329.353 220.98 329.186 221.182C327.403 223.327 317.169 234.595 315.695 237.013C314.084 239.658 317.014 233.822 317.014 233.822L328.877 221.426ZM360.822 207.17C360.822 207.17 332.384 232.158 324.794 236.835C315.13 242.778 329.002 225.544 333.709 221.307C338.499 216.987 350.933 208.828 360.822 207.17Z" fill="#BAC5F4"/>
<path d="M321.478 237.584C321.478 237.584 321.953 237.138 321.787 237.334C320.004 239.479 309.46 251.145 307.987 253.563C306.376 256.208 309.538 249.802 309.538 249.802L321.478 237.584ZM357.334 223.078C357.334 223.078 326.161 247.93 318.572 252.612C308.914 258.555 325.169 239.301 329.864 235.088C334.666 230.768 347.444 224.736 357.334 223.078Z" fill="#BAC5F4"/>
<path d="M315.743 253.444C315.743 253.444 316.016 253.219 315.82 253.444C313.71 256.041 300.962 269.816 299.149 272.698C297.152 275.842 300.932 268.229 300.932 268.229L315.743 253.444ZM353.191 243.134C345.866 248.598 338.269 253.688 330.428 258.383C322.94 262.744 315.529 265.229 312.402 266.607C302.501 270.969 320.723 254.805 325.781 251.281C330.957 247.68 343.872 242.914 353.191 243.134Z" fill="#BAC5F4"/>
<path d="M309.728 266.779C309.728 266.779 309.995 266.548 309.799 266.779C307.689 269.376 293.954 284.28 292.225 287.192C291.815 287.881 294.727 281.636 294.727 281.636L309.728 266.779ZM345.233 260.201C345.233 260.201 332.158 270.054 319.677 277.434C311.267 282.379 302.976 285.255 299.47 286.836C288.374 291.827 308.896 273.685 314.578 269.709C320.378 265.662 334.844 260.136 345.233 260.201ZM333.804 289.432C333.804 289.432 319.778 291.81 308.492 295.203C295.25 299.202 293.313 299.362 290.501 299.155C281.586 298.382 306.887 284.369 312.064 283.258C317.365 282.141 327.54 283.692 333.804 289.432Z" fill="#BAC5F4"/>
<path d="M295.951 287.501C296.127 287.332 296.312 287.171 296.504 287.02C295.369 288.345 289.14 293.765 288.403 295.387C288.231 295.768 289.634 292.541 289.634 292.541L295.951 287.501ZM289.717 297.753C289.717 297.753 290.109 297.497 290.056 297.557C289.461 298.187 285.669 300.427 285.479 301.336C285.438 301.55 285.759 299.726 285.759 299.726L289.717 297.753Z" fill="#BAC5F4"/>
<path d="M267.953 0H117.178C99.6366 0 85.4167 14.2181 85.4167 31.7571V337.585C85.4167 355.124 99.6366 369.342 117.178 369.342H267.953C285.494 369.342 299.713 355.124 299.713 337.585V31.7571C299.713 14.2181 285.494 0 267.953 0Z" fill="#E1E6FB"/>
<path d="M268.719 14.4226H115.84C104.218 14.4226 94.7953 23.8437 94.7953 35.4652V337.639C94.7953 349.26 104.218 358.681 115.84 358.681H268.719C280.342 358.681 289.764 349.26 289.764 337.639V35.4652C289.764 23.8437 280.342 14.4226 268.719 14.4226Z" fill="white"/>
<path d="M235.336 6.53076H145.687C140.879 6.53076 136.981 10.4285 136.981 15.2366V15.2426C136.981 20.0507 140.879 23.9484 145.687 23.9484H235.336C240.145 23.9484 244.043 20.0507 244.043 15.2426V15.2366C244.043 10.4285 240.145 6.53076 235.336 6.53076Z" fill="#E1E6FB"/>
<path d="M211.545 8.03442H170.762C168.937 8.03442 167.458 9.5138 167.458 11.3387V11.3446C167.458 13.1696 168.937 14.6489 170.762 14.6489H211.545C213.37 14.6489 214.849 13.1696 214.849 11.3446V11.3387C214.849 9.5138 213.37 8.03442 211.545 8.03442Z" fill="white"/>
<path d="M267.483 58.564H120.583C115.788 58.564 111.9 62.4511 111.9 67.246V99.0506C111.9 103.846 115.788 107.733 120.583 107.733H267.483C272.279 107.733 276.166 103.846 276.166 99.0506V67.246C276.166 62.4511 272.279 58.564 267.483 58.564Z" fill="#F5F5FC"/>
<path d="M136.933 100.507C146.708 100.507 154.632 92.5835 154.632 82.8098C154.632 73.036 146.708 65.1128 136.933 65.1128C127.158 65.1128 119.234 73.036 119.234 82.8098C119.234 92.5835 127.158 100.507 136.933 100.507Z" fill="#BAC5F4"/>
<path d="M259.228 66.6636H167.565C165.49 66.6636 163.809 68.3452 163.809 70.4195C163.809 72.4939 165.49 74.1755 167.565 74.1755H259.228C261.302 74.1755 262.984 72.4939 262.984 70.4195C262.984 68.3452 261.302 66.6636 259.228 66.6636Z" fill="#BAC5F4"/>
<path d="M238.189 79.1431H167.565C165.49 79.1431 163.809 80.8247 163.809 82.899C163.809 84.9734 165.49 86.655 167.565 86.655H238.189C240.263 86.655 241.945 84.9734 241.945 82.899C241.945 80.8247 240.263 79.1431 238.189 79.1431Z" fill="#BAC5F4"/>
<path d="M184.182 92.9893H167.565C165.49 92.9893 163.809 94.6709 163.809 96.7452C163.809 98.8196 165.49 100.501 167.565 100.501H184.182C186.257 100.501 187.938 98.8196 187.938 96.7452C187.938 94.6709 186.257 92.9893 184.182 92.9893Z" fill="#BAC5F4"/>
<path d="M267.483 185.414H120.583C115.788 185.414 111.9 189.301 111.9 194.096V225.901C111.9 230.695 115.788 234.583 120.583 234.583H267.483C272.279 234.583 276.166 230.695 276.166 225.901V194.096C276.166 189.301 272.279 185.414 267.483 185.414Z" fill="#F5F5FC"/>
<path d="M136.933 227.357C146.708 227.357 154.632 219.433 154.632 209.66C154.632 199.886 146.708 191.963 136.933 191.963C127.158 191.963 119.234 199.886 119.234 209.66C119.234 219.433 127.158 227.357 136.933 227.357Z" fill="#BAC5F4"/>
<path d="M259.228 193.52H167.565C165.49 193.52 163.809 195.201 163.809 197.275C163.809 199.35 165.49 201.031 167.565 201.031H259.228C261.302 201.031 262.984 199.35 262.984 197.275C262.984 195.201 261.302 193.52 259.228 193.52Z" fill="#BAC5F4"/>
<path d="M238.189 205.999H167.565C165.49 205.999 163.809 207.681 163.809 209.755C163.809 211.829 165.49 213.511 167.565 213.511H238.189C240.263 213.511 241.945 211.829 241.945 209.755C241.945 207.681 240.263 205.999 238.189 205.999Z" fill="#BAC5F4"/>
<path d="M184.182 219.845H167.565C165.49 219.845 163.809 221.527 163.809 223.601C163.809 225.675 165.49 227.357 167.565 227.357H184.182C186.257 227.357 187.938 225.675 187.938 223.601C187.938 221.527 186.257 219.845 184.182 219.845Z" fill="#BAC5F4"/>
<path d="M267.483 245.576H120.583C115.788 245.576 111.9 249.464 111.9 254.258V286.063C111.9 290.858 115.788 294.745 120.583 294.745H267.483C272.279 294.745 276.166 290.858 276.166 286.063V254.258C276.166 249.464 272.279 245.576 267.483 245.576Z" fill="#F5F5FC"/>
<path d="M136.933 287.513C146.708 287.513 154.632 279.59 154.632 269.816C154.632 260.042 146.708 252.119 136.933 252.119C127.158 252.119 119.234 260.042 119.234 269.816C119.234 279.59 127.158 287.513 136.933 287.513Z" fill="#BAC5F4"/>
<path d="M259.228 253.676H167.565C165.49 253.676 163.809 255.358 163.809 257.432C163.809 259.507 165.49 261.188 167.565 261.188H259.228C261.302 261.188 262.984 259.507 262.984 257.432C262.984 255.358 261.302 253.676 259.228 253.676Z" fill="#BAC5F4"/>
<path d="M238.189 266.156H167.565C165.49 266.156 163.809 267.837 163.809 269.911C163.809 271.986 165.49 273.667 167.565 273.667H238.189C240.263 273.667 241.945 271.986 241.945 269.911C241.945 267.837 240.263 266.156 238.189 266.156Z" fill="#BAC5F4"/>
<path d="M184.182 280.002H167.565C165.49 280.002 163.809 281.683 163.809 283.758C163.809 285.832 165.49 287.514 167.565 287.514H184.182C186.257 287.514 187.938 285.832 187.938 283.758C187.938 281.683 186.257 280.002 184.182 280.002Z" fill="#BAC5F4"/>
<path d="M229.012 126.666H82.1123C77.3168 126.666 73.4292 130.553 73.4292 135.348V167.152C73.4292 171.947 77.3168 175.835 82.1123 175.835H229.012C233.808 175.835 237.695 171.947 237.695 167.152V135.348C237.695 130.553 233.808 126.666 229.012 126.666Z" fill="#F5F5FC"/>
<path d="M221.88 118.346H74.9804C70.1848 118.346 66.2972 122.233 66.2972 127.028V158.833C66.2972 163.628 70.1848 167.515 74.9804 167.515H221.88C226.676 167.515 230.563 163.628 230.563 158.833V127.028C230.563 122.233 226.676 118.346 221.88 118.346Z" fill="#BAC5F4"/>
<path d="M91.3303 160.289C101.105 160.289 109.029 152.365 109.029 142.592C109.029 132.818 101.105 124.895 91.3303 124.895C81.5554 124.895 73.6312 132.818 73.6312 142.592C73.6312 152.365 81.5554 160.289 91.3303 160.289Z" fill="white"/>
<path d="M213.625 126.446H121.962C119.888 126.446 118.206 128.127 118.206 130.202C118.206 132.276 119.888 133.958 121.962 133.958H213.625C215.7 133.958 217.381 132.276 217.381 130.202C217.381 128.127 215.7 126.446 213.625 126.446Z" fill="white"/>
<path d="M192.586 138.925H121.962C119.888 138.925 118.206 140.607 118.206 142.681C118.206 144.756 119.888 146.437 121.962 146.437H192.586C194.66 146.437 196.342 144.756 196.342 142.681C196.342 140.607 194.66 138.925 192.586 138.925Z" fill="white"/>
<path d="M138.579 152.771H121.962C119.888 152.771 118.206 154.453 118.206 156.527C118.206 158.602 119.888 160.283 121.962 160.283H138.579C140.654 160.283 142.336 158.602 142.336 156.527C142.336 154.453 140.654 152.771 138.579 152.771Z" fill="white"/>
<path d="M171.012 472C169.659 472.043 168.328 471.649 167.217 470.876C166.105 470.103 165.273 468.993 164.843 467.709C164.094 465.325 164.127 462.764 164.938 460.4C166.638 455.183 171.386 443.303 174.364 435.685C174.905 434.382 175.819 433.27 176.992 432.487C178.166 431.704 179.545 431.287 180.955 431.288L342.767 429.505C342.767 429.505 351.937 428.566 352.335 437.527C352.734 446.489 352.603 462.486 352.603 462.486C352.603 462.486 353.827 468.607 345.245 468.749C339.581 468.833 195.968 471.531 171.012 472Z" fill="#BAC5F4"/>
<path d="M172.04 465.451C170.54 465.494 169.053 465.176 167.701 464.524C165.663 463.502 163.541 461.446 164.872 457.429C166.56 452.211 172.515 436.76 175.475 429.142C176.005 427.842 176.909 426.729 178.074 425.945C179.238 425.161 180.609 424.741 182.013 424.739L342.796 422.992C342.796 422.992 351.907 422.053 352.306 431.014C352.704 439.975 352.579 455.973 352.579 455.973C352.579 455.973 353.768 462.094 345.263 462.236C339.415 462.302 187.802 465.154 172.04 465.451Z" fill="#F5F5FC"/>
<path d="M198.095 460.242C210.229 460.11 219.99 452.999 219.897 444.358C219.803 435.717 209.89 428.819 197.756 428.95C185.622 429.081 175.861 436.193 175.954 444.834C176.048 453.475 185.961 460.373 198.095 460.242Z" fill="white"/>
<path d="M336.814 429.438L231.779 430.574C230.089 430.592 228.733 431.977 228.752 433.668C228.77 435.358 230.155 436.713 231.845 436.695L336.881 435.558C338.571 435.54 339.926 434.155 339.908 432.465C339.89 430.775 338.505 429.419 336.814 429.438Z" fill="white"/>
<path d="M309.214 440.391L229.572 441.253C228.131 441.268 226.976 442.449 226.992 443.89C227.007 445.33 228.188 446.486 229.629 446.47L309.27 445.608C310.711 445.593 311.866 444.412 311.851 442.971C311.835 441.531 310.654 440.375 309.214 440.391Z" fill="white"/>
<path d="M256.737 453.764L227.628 454.079C226.45 454.092 225.505 455.057 225.518 456.235C225.53 457.414 226.496 458.359 227.674 458.346L256.783 458.031C257.961 458.018 258.906 457.053 258.893 455.874C258.88 454.696 257.915 453.751 256.737 453.764Z" fill="white"/>
<path d="M163.286 455.361C161.933 455.404 160.602 455.01 159.49 454.237C158.379 453.464 157.547 452.354 157.116 451.07C156.367 448.686 156.401 446.125 157.212 443.761C158.911 438.543 163.66 426.664 166.638 419.046C167.178 417.743 168.093 416.63 169.266 415.848C170.439 415.065 171.818 414.648 173.229 414.648L335.04 412.866C335.04 412.866 344.211 411.927 344.609 420.888C345.007 429.849 344.876 445.847 344.876 445.847C344.876 445.847 346.101 451.968 337.519 452.11C331.855 452.193 188.241 454.891 163.286 455.361Z" fill="#BAC5F4"/>
<path d="M164.314 448.812C162.814 448.855 161.326 448.537 159.975 447.885C157.937 446.863 155.815 444.807 157.146 440.79C158.834 435.572 164.789 420.121 167.749 412.503C168.279 411.203 169.183 410.09 170.347 409.306C171.512 408.522 172.883 408.102 174.287 408.1L335.07 406.352C335.07 406.352 344.181 405.413 344.579 414.375C344.978 423.336 344.853 439.334 344.853 439.334C344.853 439.334 346.041 445.454 337.537 445.597C331.688 445.662 180.075 448.515 164.314 448.812Z" fill="#F5F5FC"/>
<path d="M190.373 443.604C202.507 443.472 212.268 436.361 212.175 427.72C212.081 419.079 202.169 412.181 190.035 412.312C177.9 412.443 168.139 419.555 168.233 428.196C168.326 436.837 178.239 443.735 190.373 443.604Z" fill="white"/>
<path d="M329.093 412.8L224.057 413.936C222.367 413.954 221.012 415.339 221.03 417.03C221.048 418.72 222.433 420.075 224.124 420.057L329.159 418.921C330.849 418.902 332.205 417.517 332.186 415.827C332.168 414.137 330.783 412.781 329.093 412.8Z" fill="white"/>
<path d="M301.492 423.753L221.851 424.615C220.41 424.63 219.254 425.811 219.27 427.252C219.286 428.692 220.466 429.848 221.907 429.832L301.548 428.97C302.989 428.955 304.145 427.774 304.129 426.333C304.113 424.893 302.933 423.737 301.492 423.753Z" fill="white"/>
<path d="M249.009 437.126L219.901 437.441C218.722 437.454 217.777 438.419 217.79 439.598C217.803 440.776 218.768 441.721 219.947 441.708L249.055 441.393C250.234 441.38 251.178 440.415 251.166 439.236C251.153 438.058 250.187 437.113 249.009 437.126Z" fill="white"/>
<path d="M179.089 441.004C177.775 441.028 176.489 440.621 175.428 439.847C174.367 439.072 173.588 437.972 173.211 436.713C172.499 434.326 172.53 431.779 173.3 429.41C174.917 424.192 179.433 412.313 182.262 404.694C182.744 403.414 183.602 402.308 184.723 401.524C185.844 400.739 187.176 400.311 188.545 400.297L342.648 398.621C342.648 398.621 351.378 397.682 351.759 406.65C352.139 415.617 352.032 431.608 352.032 431.608C352.032 431.608 353.221 437.735 345.025 437.866C339.64 437.925 202.85 440.546 179.089 441.004Z" fill="#BAC5F4"/>
<path d="M180.063 434.431C178.62 434.481 177.187 434.16 175.903 433.498C173.966 432.476 171.969 430.426 173.205 426.409C174.81 421.191 180.474 405.74 183.309 398.122C183.781 396.844 184.631 395.739 185.745 394.955C186.86 394.171 188.186 393.744 189.549 393.73L342.66 392.061C342.66 392.061 351.337 391.122 351.717 400.089C352.098 409.056 351.991 425.048 351.991 425.048C351.991 425.048 353.179 431.175 345.031 431.305C339.456 431.388 195.076 434.164 180.063 434.431Z" fill="#F5F5FC"/>
<path d="M204.879 429.263C216.436 429.138 225.729 422.032 225.635 413.391C225.542 404.75 216.097 397.846 204.541 397.971C192.984 398.096 183.691 405.202 183.785 413.843C183.878 422.484 193.323 429.388 204.879 429.263Z" fill="white"/>
<path d="M336.824 398.532L237.09 399.611C235.4 399.629 234.044 401.015 234.063 402.705C234.081 404.395 235.466 405.75 237.156 405.732L336.89 404.653C338.581 404.635 339.936 403.25 339.918 401.559C339.9 399.869 338.515 398.514 336.824 398.532Z" fill="white"/>
<path d="M305.324 417.037H229.725C228.284 417.037 227.116 418.205 227.116 419.646C227.116 421.087 228.284 422.255 229.725 422.255H305.324C306.765 422.255 307.933 421.087 307.933 419.646C307.933 418.205 306.765 417.037 305.324 417.037Z" fill="white"/>
<path d="M260.621 422.81L233.099 423.108C231.921 423.121 230.976 424.087 230.989 425.265C231.002 426.443 231.967 427.388 233.145 427.375L260.667 427.077C261.846 427.065 262.79 426.099 262.778 424.921C262.765 423.743 261.799 422.798 260.621 422.81Z" fill="white"/>
<path d="M158.026 425.238C156.712 425.249 155.431 424.83 154.378 424.044C153.326 423.259 152.559 422.15 152.195 420.888C151.511 418.491 151.569 415.942 152.362 413.579C154.038 408.385 158.68 396.553 161.598 388.971C162.091 387.693 162.96 386.595 164.09 385.822C165.22 385.048 166.558 384.636 167.927 384.638H322.036C322.036 384.638 330.779 383.801 331.058 392.768C331.338 401.735 331.058 417.727 331.058 417.727C331.058 417.727 332.164 423.859 323.986 423.907C318.583 423.913 181.793 425.042 158.026 425.238Z" fill="#BAC5F4"/>
<path d="M159.072 418.701C157.637 418.731 156.217 418.395 154.947 417.726C153.016 416.681 151.042 414.607 152.32 410.595C153.984 405.402 159.821 390.01 162.715 382.428C163.201 381.154 164.063 380.058 165.185 379.284C166.308 378.511 167.639 378.096 169.003 378.095H322.126C322.126 378.095 330.815 377.258 331.094 386.225C331.373 395.192 331.094 411.184 331.094 411.184C331.094 411.184 332.188 417.316 324.069 417.364C318.488 417.376 174.084 418.576 159.072 418.701Z" fill="#F5F5FC"/>
<path d="M183.98 413.733C195.537 413.733 204.906 406.728 204.906 398.086C204.906 389.445 195.537 382.44 183.98 382.44C172.423 382.44 163.054 389.445 163.054 398.086C163.054 406.728 172.423 413.733 183.98 413.733Z" fill="white"/>
<path d="M316.248 384.43H216.508C214.817 384.43 213.447 385.801 213.447 387.491C213.447 389.181 214.817 390.552 216.508 390.552H316.248C317.938 390.552 319.309 389.181 319.309 387.491C319.309 385.801 317.938 384.43 316.248 384.43Z" fill="white"/>
<path d="M289.871 395.085H214.273C212.832 395.085 211.664 396.253 211.664 397.694C211.664 399.135 212.832 400.303 214.273 400.303H289.871C291.312 400.303 292.48 399.135 292.48 397.694C292.48 396.253 291.312 395.085 289.871 395.085Z" fill="white"/>
<path d="M239.787 407.892H212.264C211.086 407.892 210.13 408.847 210.13 410.025C210.13 411.203 211.086 412.159 212.264 412.159H239.787C240.966 412.159 241.921 411.203 241.921 410.025C241.921 408.847 240.966 407.892 239.787 407.892Z" fill="white"/>
</g>
<defs>
<clipPath id="clip0_176_1513">
<rect width="408" height="472" fill="white"/>
</clipPath>
</defs>
</svg>
