<svg width="183" height="183" viewBox="0 0 183 183" fill="none" xmlns="http://www.w3.org/2000/svg">
<path d="M183 176.552H0V177.47H183V176.552Z" fill="#0E1738"/>
<path d="M83.8734 54.5247V90.056H50.4438V46.4846H75.8488L83.8734 54.5247Z" fill="#E8E9FD"/>
<path d="M83.8737 54.5247H77.8575C77.594 54.5253 77.333 54.4738 77.0893 54.3731C76.8457 54.2724 76.6242 54.1245 76.4377 53.9379C76.2511 53.7513 76.1031 53.5297 76.0021 53.2856C75.9011 53.0416 75.8491 52.78 75.8491 52.5158V46.4846L83.8737 54.5247Z" fill="#CFD7FE"/>
<path d="M66.8726 72.2605C66.7632 72.257 66.6556 72.2318 66.5559 72.1866C66.4563 72.1413 66.3665 72.0768 66.2917 71.9967C66.2169 71.9166 66.1586 71.8226 66.1201 71.7199C66.0816 71.6172 66.0637 71.5079 66.0674 71.3983L66.2138 67.2704C66.2221 67.0494 66.3171 66.8407 66.4782 66.6895C66.6393 66.5383 66.8533 66.457 67.0739 66.4632C67.5432 66.4802 68.0071 66.3572 68.4067 66.1098C68.8064 65.8624 69.1239 65.5018 69.319 65.0735C69.5142 64.6452 69.5783 64.1685 69.5032 63.7037C69.4281 63.2389 69.2171 62.8069 68.8971 62.4623C68.577 62.1177 68.1622 61.876 67.7051 61.7678C67.248 61.6595 66.7691 61.6896 66.3291 61.8543C65.889 62.0189 65.5076 62.3107 65.233 62.6927C64.9584 63.0747 64.803 63.5297 64.7864 64.0003C64.7828 64.1099 64.7576 64.2178 64.7125 64.3176C64.6673 64.4175 64.6029 64.5075 64.5231 64.5825C64.4432 64.6574 64.3494 64.7159 64.247 64.7545C64.1446 64.7931 64.0356 64.8111 63.9263 64.8075C63.8169 64.8039 63.7093 64.7787 63.6097 64.7334C63.5101 64.6882 63.4203 64.6236 63.3455 64.5436C63.2708 64.4635 63.2124 64.3694 63.1739 64.2668C63.1354 64.1641 63.1175 64.0549 63.1211 63.9453C63.1462 63.1792 63.3875 62.4359 63.8169 61.8017C64.2462 61.1675 64.8462 60.6682 65.5471 60.3619C66.248 60.0557 67.0211 59.9548 67.7769 60.0711C68.5326 60.1874 69.24 60.5161 69.817 61.0191C70.3939 61.5221 70.8168 62.1787 71.0367 62.9129C71.2565 63.647 71.2643 64.4286 71.059 65.167C70.8538 65.9053 70.444 66.5703 69.8771 67.0846C69.3102 67.599 68.6095 67.9417 67.8562 68.0731L67.7418 71.4395C67.7401 71.5512 67.716 71.6613 67.6711 71.7634C67.6262 71.8656 67.5613 71.9576 67.4802 72.0342C67.3992 72.1107 67.3036 72.1702 67.1993 72.2091C67.0949 72.2479 66.9838 72.2654 66.8726 72.2605Z" fill="#CFD7FE"/>
<path d="M68.2313 75.1913C68.2239 75.4566 68.138 75.7137 67.9845 75.93C67.8311 76.1463 67.617 76.3119 67.3694 76.406C67.1219 76.5001 66.852 76.5183 66.5941 76.4583C66.3362 76.3984 66.1019 76.2629 65.921 76.0692C65.74 75.8755 65.6205 75.6323 65.5777 75.3704C65.5348 75.1085 65.5706 74.8397 65.6804 74.5982C65.7902 74.3567 65.9691 74.1534 66.1944 74.014C66.4197 73.8746 66.6812 73.8055 66.9458 73.8154C67.2973 73.8297 67.6291 73.982 67.8696 74.2394C68.1101 74.4969 68.24 74.8387 68.2313 75.1913Z" fill="#CFD7FE"/>
<path d="M33.9602 34.4314L47.5205 67.2568L16.6301 80.0805L0 39.8251L23.4743 30.0789L33.9602 34.4314Z" fill="#E8E9FD"/>
<path d="M33.9605 34.4314L28.3973 36.7247C28.1537 36.826 27.8926 36.8782 27.6288 36.8781C27.3651 36.8781 27.104 36.8259 26.8605 36.7245C26.6169 36.6231 26.3958 36.4745 26.2096 36.2872C26.0235 36.0999 25.8761 35.8776 25.7758 35.6331L23.4883 30.0605L33.9605 34.4314Z" fill="#CFD7FE"/>
<path d="M18.2479 60.3222L22.8804 62.2458L29.2777 46.7626L24.6452 44.8389L18.2479 60.3222Z" fill="#CFD7FE"/>
<path d="M16.996 48.0146L15.0771 52.6587L30.5217 59.0721L32.4405 54.4279L16.996 48.0146Z" fill="#CFD7FE"/>
<path d="M57.0135 11.4395C56.8102 11.5083 56.5881 11.4939 56.3953 11.3994C56.2026 11.3049 56.0548 11.138 55.9841 10.9349L54.6848 7.1557C54.6496 7.05485 54.6347 6.948 54.641 6.84133C54.6472 6.73466 54.6746 6.63031 54.7214 6.53431C54.7682 6.43832 54.8336 6.35259 54.9137 6.28212C54.9938 6.21164 55.0871 6.15781 55.1881 6.12374C55.613 5.97306 55.984 5.69991 56.2546 5.33857C56.5252 4.97722 56.6833 4.5438 56.709 4.09271C56.7347 3.64162 56.627 3.19295 56.3992 2.80305C56.1715 2.41314 55.8339 2.09936 55.4289 1.90111C55.0239 1.70285 54.5695 1.62895 54.1228 1.68869C53.6761 1.74842 53.2569 1.93913 52.9179 2.23686C52.5789 2.5346 52.3351 2.9261 52.2173 3.36221C52.0995 3.79832 52.1127 4.25962 52.2555 4.68818C52.3241 4.89196 52.3098 5.11467 52.2155 5.3079C52.1213 5.50113 51.9548 5.64927 51.7523 5.72014C51.6517 5.75546 51.5451 5.77041 51.4387 5.76412C51.3323 5.75783 51.2282 5.73042 51.1324 5.68349C51.0367 5.63656 50.9512 5.57104 50.8809 5.49073C50.8106 5.41041 50.7569 5.3169 50.7229 5.21562C50.4816 4.5126 50.4439 3.75542 50.6141 3.03179C50.7844 2.30816 51.1556 1.64769 51.6849 1.12687C52.2141 0.60605 52.8797 0.246195 53.6046 0.0889824C54.3295 -0.0682298 55.0839 -0.0163664 55.7806 0.238566C56.4772 0.493498 57.0876 0.941067 57.541 1.52944C57.9944 2.11781 58.2723 2.8229 58.3424 3.56305C58.4125 4.30321 58.2721 5.04814 57.9373 5.71156C57.6025 6.37499 57.0871 6.92977 56.4508 7.31164L57.5168 10.4075C57.5854 10.6113 57.571 10.834 57.4768 11.0272C57.3826 11.2204 57.2161 11.3686 57.0135 11.4395Z" fill="#E8E9FD"/>
<path d="M59.2646 13.6042C59.3495 13.8477 59.3604 14.1111 59.2958 14.3608C59.2312 14.6106 59.0942 14.8355 58.9019 15.007C58.7097 15.1785 58.471 15.289 58.2161 15.3243C57.9611 15.3596 57.7015 15.3183 57.47 15.2055C57.2386 15.0927 57.0457 14.9135 56.916 14.6907C56.7862 14.4679 56.7254 14.2115 56.7412 13.954C56.757 13.6965 56.8488 13.4495 57.0048 13.2443C57.1608 13.0392 57.3741 12.885 57.6176 12.8016C57.7783 12.7458 57.9484 12.7224 58.1181 12.7325C58.2879 12.7427 58.454 12.7863 58.6069 12.8608C58.7599 12.9354 58.8967 13.0394 59.0095 13.1669C59.1224 13.2945 59.209 13.4431 59.2646 13.6042Z" fill="#E8E9FD"/>
<path d="M90.9188 19.6951C90.799 19.6538 90.6885 19.5893 90.5937 19.5051C90.4989 19.4209 90.4217 19.3187 90.3664 19.2045C90.3111 19.0903 90.2789 18.9662 90.2716 18.8394C90.2644 18.7127 90.2822 18.5857 90.324 18.4659L91.8704 13.9666C91.9536 13.724 92.1294 13.5244 92.3594 13.4117C92.5893 13.2991 92.8544 13.2825 93.0965 13.3658C93.6098 13.5416 94.1636 13.561 94.6879 13.4216C95.2122 13.2821 95.6835 12.9901 96.0424 12.5823C96.4013 12.1745 96.6316 11.6693 96.7043 11.1304C96.777 10.5915 96.6887 10.0431 96.4508 9.55438C96.2128 9.0657 95.8357 8.65867 95.3671 8.38467C94.8986 8.11066 94.3595 7.98198 93.8181 8.01486C93.2766 8.04774 92.757 8.24071 92.3249 8.56941C91.8927 8.89811 91.5674 9.34779 91.39 9.8617C91.3069 10.105 91.1308 10.3052 90.9004 10.4183C90.67 10.5314 90.4043 10.5481 90.1616 10.4648C89.9189 10.3815 89.7192 10.2049 89.6064 9.974C89.4936 9.74305 89.4769 9.47663 89.56 9.23335C89.8484 8.39654 90.3674 7.65873 91.0568 7.10535C91.7462 6.55196 92.5778 6.20562 93.4554 6.10642C94.333 6.00722 95.2206 6.15922 96.0156 6.54483C96.8106 6.93043 97.4804 7.53387 97.9475 8.28528C98.4146 9.0367 98.6598 9.90536 98.6548 10.7907C98.6498 11.6761 98.3948 12.5419 97.9193 13.288C97.4438 14.0341 96.7673 14.6299 95.968 15.0065C95.1687 15.3831 94.2794 15.525 93.403 15.4159L92.1357 19.0851C92.0959 19.2053 92.0328 19.3166 91.9501 19.4123C91.8673 19.5081 91.7666 19.5866 91.6535 19.6432C91.5405 19.6999 91.4174 19.7337 91.2913 19.7426C91.1652 19.7514 91.0386 19.7353 90.9188 19.6951Z" fill="#E8E9FD"/>
<path d="M89.972 24.4511C90.8235 24.4511 91.5137 23.7591 91.5137 22.9055C91.5137 22.0519 90.8235 21.3599 89.972 21.3599C89.1205 21.3599 88.4302 22.0519 88.4302 22.9055C88.4302 23.7591 89.1205 24.4511 89.972 24.4511Z" fill="#E8E9FD"/>
<path d="M164.27 60.8127C163.387 59.9275 162.786 58.7997 162.543 57.572C162.3 56.3443 162.425 55.0718 162.903 53.9154C163.381 52.759 164.19 51.7707 165.228 51.0753C166.266 50.3799 167.487 50.0088 168.735 50.0088C169.984 50.0088 171.205 50.3799 172.243 51.0753C173.281 51.7707 174.09 52.759 174.568 53.9154C175.046 55.0718 175.171 56.3443 174.928 57.572C174.684 58.7997 174.083 59.9275 173.201 60.8127C172.614 61.4007 171.918 61.8672 171.152 62.1854C170.386 62.5036 169.565 62.6674 168.735 62.6674C167.906 62.6674 167.085 62.5036 166.319 62.1854C165.553 61.8672 164.856 61.4007 164.27 60.8127ZM165.085 59.9963C165.808 60.7183 166.728 61.2093 167.729 61.4074C168.731 61.6054 169.768 61.5016 170.711 61.109C171.653 60.7165 172.459 60.0528 173.025 59.2017C173.592 58.3507 173.894 57.3504 173.894 56.3272C173.894 55.304 173.592 54.3037 173.025 53.4526C172.459 52.6016 171.653 51.9379 170.711 51.5453C169.768 51.1527 168.731 51.0489 167.729 51.247C166.728 51.445 165.808 51.936 165.085 52.658C164.603 53.1391 164.22 53.7109 163.959 54.3406C163.698 54.9702 163.564 55.6453 163.564 56.3272C163.564 57.009 163.698 57.6841 163.959 58.3138C164.22 58.9434 164.603 59.5152 165.085 59.9963Z" fill="#E8E9FD"/>
<path d="M156.538 67.7521L164.243 60.0239L165.057 60.8357L157.344 68.5685C157.29 68.6219 157.227 68.6643 157.158 68.6932C157.088 68.7221 157.014 68.7369 156.939 68.7369C156.863 68.7369 156.789 68.7221 156.72 68.6932C156.65 68.6643 156.587 68.6219 156.534 68.5685C156.427 68.4596 156.367 68.3124 156.368 68.1594C156.369 68.0063 156.43 67.8599 156.538 67.7521Z" fill="#E8E9FD"/>
<path d="M152.709 144.264C156.534 145.126 163.653 141.415 164.714 136.187C165.707 131.311 164.828 125.922 169.257 122.276C173.686 118.63 179.596 105.884 178.233 103.765C176.252 100.701 166.576 103.971 162.678 108.558C158.78 113.144 160.221 116.199 157.485 119.657C154.75 123.115 150.975 127.142 149.319 132.458C147.663 137.774 152.709 144.264 152.709 144.264Z" fill="#5FD284"/>
<path d="M153.171 144.342C153.77 142.507 154.713 140.695 156.071 139.581C157.099 138.778 158.232 138.12 159.439 137.627C161.328 136.769 162.957 136.026 164.64 132.903C164.828 132.553 165.041 132.218 165.276 131.898C165.156 133.338 164.964 134.771 164.7 136.191C163.693 141.236 157.078 144.837 153.171 144.342Z" fill="#38C092"/>
<path d="M144.423 172.58C144.473 172.592 144.524 172.594 144.574 172.586C144.624 172.578 144.672 172.559 144.715 172.532C144.758 172.504 144.794 172.469 144.823 172.426C144.851 172.384 144.871 172.337 144.881 172.287C144.936 172.007 150.627 144.309 165.066 117.025C165.104 116.937 165.108 116.837 165.077 116.747C165.046 116.656 164.982 116.58 164.897 116.535C164.813 116.49 164.714 116.478 164.622 116.503C164.529 116.527 164.449 116.586 164.398 116.667C149.9 144.053 144.19 171.856 144.135 172.135C144.116 172.233 144.135 172.333 144.189 172.417C144.243 172.5 144.327 172.558 144.423 172.58Z" fill="#38C092"/>
<path d="M155.115 154.147C152.594 151.267 154.086 143.177 157.032 140.759C159.978 138.342 163.067 139.04 165.976 133.623C168.653 128.642 178.951 125.367 179.784 126.156C181.38 127.674 179.418 136.526 175.181 139.622C168.291 144.667 169.211 149.909 165.629 152.992C160.944 157.014 155.115 154.147 155.115 154.147Z" fill="#5FD284"/>
<path d="M146.633 173.131C146.73 173.154 146.833 173.139 146.918 173.087C147.004 173.036 147.066 172.952 147.091 172.856C151.172 156.45 166.05 140.044 166.196 139.883C166.265 139.809 166.301 139.711 166.297 139.61C166.293 139.509 166.249 139.413 166.175 139.344C166.101 139.276 166.003 139.239 165.902 139.243C165.802 139.247 165.706 139.291 165.638 139.365C165.487 139.53 150.481 156.074 146.354 172.672C146.331 172.77 146.347 172.873 146.399 172.959C146.452 173.045 146.536 173.107 146.633 173.131Z" fill="#38C092"/>
<path d="M125.007 46.7276C124.52 47.2168 123.899 47.5501 123.222 47.6853C122.546 47.8204 121.845 47.7515 121.208 47.4871C120.57 47.2227 120.026 46.7747 119.642 46.1999C119.259 45.6251 119.055 44.9492 119.055 44.2578C119.055 43.5664 119.259 42.8906 119.642 42.3157C120.026 41.7409 120.57 41.293 121.208 41.0286C121.845 40.7642 122.546 40.6952 123.222 40.8304C123.899 40.9656 124.52 41.2988 125.007 41.788C125.66 42.4433 126.027 43.3316 126.027 44.2578C126.027 45.184 125.66 46.0723 125.007 46.7276Z" fill="#0E1738"/>
<path d="M120.78 47.1129C120.417 46.7854 120.124 46.3873 119.919 45.9428C119.714 45.4982 119.602 45.0165 119.588 44.527C119.575 44.0375 119.661 43.5503 119.842 43.0953C120.022 42.6402 120.293 42.2267 120.638 41.88C120.983 41.5333 121.395 41.2605 121.848 41.0783C122.302 40.8962 122.787 40.8084 123.276 40.8204C123.764 40.8324 124.245 40.9439 124.689 41.1481C125.133 41.3523 125.531 41.6449 125.858 42.0081C126.2 42.3495 126.47 42.7564 126.652 43.2047C126.833 43.6529 126.923 44.1333 126.915 44.617C126.908 45.1008 126.803 45.578 126.607 46.0203C126.411 46.4625 126.129 46.8606 125.776 47.1909C125.094 47.8325 124.19 48.1832 123.255 48.1687C122.32 48.1541 121.428 47.7755 120.766 47.1129H120.78ZM120.78 47.1129C121.093 47.4267 121.465 47.6755 121.874 47.8453C122.284 48.015 122.722 48.1022 123.165 48.102C123.608 48.1018 124.047 48.0141 124.456 47.844C124.865 47.6739 125.236 47.4247 125.549 47.1106C125.862 46.7965 126.111 46.4237 126.28 46.0134C126.449 45.6031 126.536 45.1634 126.536 44.7194C126.536 44.2754 126.448 43.8358 126.279 43.4257C126.109 43.0156 125.86 42.643 125.547 42.3292C125.081 41.8621 124.489 41.5419 123.844 41.4083C123.199 41.2747 122.529 41.3335 121.917 41.5774C121.305 41.8214 120.777 42.2398 120.399 42.7809C120.022 43.3221 119.811 43.9623 119.792 44.6224C119.78 45.0829 119.862 45.541 120.032 45.969C120.202 46.397 120.456 46.7861 120.78 47.1129Z" fill="#0E1738"/>
<path d="M122.935 48.9805C124.325 47.587 124.243 45.2449 122.751 43.7494C121.259 42.2538 118.923 42.171 117.533 43.5645C116.143 44.958 116.225 47.3001 117.717 48.7957C119.209 50.2912 121.545 50.374 122.935 48.9805Z" fill="#FF5F81"/>
<path d="M124.211 51.3416C124.211 56.3317 120.551 60.377 116.031 60.377C111.511 60.377 107.855 53.1762 107.855 50.0804C107.855 45.0903 112.234 42.3201 116.749 42.3201C121.265 42.3201 124.211 46.3653 124.211 51.3416Z" fill="#0E1738"/>
<path d="M112.481 64.2756C108.363 65.7112 104.703 70.3756 97.5024 80.6952C97.5024 80.6952 99.6481 81.1217 104.763 82.383L114.302 72.1414L112.481 64.2756Z" fill="#FFC3BD"/>
<path d="M112.481 64.2756H121.205L127.45 65.7892C129.381 69.4583 125.803 84.135 128.965 97.3441C128.965 97.3441 113.359 99.9813 105.243 97.3441C105.243 97.3441 108.903 91.5559 107.123 83.1902C105.568 75.8886 104.836 72.2744 107.544 67.4449L112.481 64.2756Z" fill="#FF5F81"/>
<path d="M122.99 52.8781C122.733 52.6743 122.416 52.5633 122.088 52.5633C121.761 52.5633 121.444 52.6743 121.187 52.8781V50.883C121.186 49.6078 120.68 48.3852 119.78 47.484C118.88 46.5827 117.66 46.0764 116.388 46.0764C114.476 46.0764 112.642 46.838 111.29 48.1935C109.937 49.5491 109.178 51.3876 109.178 53.3047V56.0566C109.175 57.1691 109.48 58.2605 110.059 59.2095C110.638 60.1585 111.469 60.9278 112.458 61.4319V65.4084L121.205 64.2984V56.795C122.798 57.1711 124.111 53.823 122.99 52.8781Z" fill="#FFC3BD"/>
<path d="M112.458 61.432V62.6887C118.373 63.9821 120.062 58.8911 120.062 58.8911C117.038 62.3493 113.666 61.8907 112.458 61.432Z" fill="#FF847F"/>
<path d="M127.45 65.7891C125.73 66.422 124.595 73.2971 126.178 75.9206L131.646 86.9281L131.06 95.6836C135.145 97.5641 134.848 96.2157 134.848 96.2157C134.848 96.2157 136.925 90.9412 136.925 85.7448C136.925 82.1903 131.133 67.2751 127.45 65.7891Z" fill="#FFC3BD"/>
<path d="M115.624 53.9468C115.877 53.9468 116.082 53.7415 116.082 53.4882C116.082 53.2349 115.877 53.0295 115.624 53.0295C115.371 53.0295 115.167 53.2349 115.167 53.4882C115.167 53.7415 115.371 53.9468 115.624 53.9468Z" fill="#0E1738"/>
<path d="M111.406 53.9468C111.658 53.9468 111.863 53.7415 111.863 53.4882C111.863 53.2349 111.658 53.0295 111.406 53.0295C111.153 53.0295 110.948 53.2349 110.948 53.4882C110.948 53.7415 111.153 53.9468 111.406 53.9468Z" fill="#0E1738"/>
<path d="M112.952 53.635C112.769 54.2037 112.517 54.7312 112.311 55.2632C112.261 55.3905 112.218 55.5207 112.183 55.6531C112.151 55.7815 112.128 55.9099 112.183 55.9512C112.368 56.1648 112.572 56.3613 112.792 56.5382C112.485 56.4765 112.2 56.3358 111.964 56.13C111.925 56.088 111.895 56.0379 111.877 55.9833C111.868 55.9347 111.868 55.8851 111.877 55.8365C111.867 55.7527 111.867 55.6681 111.877 55.5843C111.909 55.4277 111.955 55.2743 112.014 55.1256C112.234 54.5759 112.552 54.0708 112.952 53.635Z" fill="#FF847F"/>
<path d="M117.038 52.7542C116.632 52.4752 116.194 52.2457 115.734 52.0709C115.268 51.9361 114.778 51.911 114.302 51.9975C114.498 51.7987 114.748 51.6603 115.02 51.5984C115.303 51.5334 115.598 51.5444 115.876 51.6306C116.139 51.7213 116.38 51.8689 116.581 52.0631C116.782 52.2572 116.938 52.4932 117.038 52.7542Z" fill="#0E1738"/>
<path d="M109.681 52.7543C109.78 52.4924 109.935 52.2557 110.136 52.0614C110.337 51.8671 110.579 51.7199 110.843 51.6306C111.119 51.5444 111.413 51.5333 111.694 51.5985C111.967 51.6583 112.217 51.7971 112.412 51.9975C111.936 51.911 111.446 51.9361 110.98 52.0709C110.522 52.2468 110.086 52.4762 109.681 52.7543Z" fill="#0E1738"/>
<path d="M121.238 55.6805C121.489 55.4236 121.777 55.0475 121.535 54.8687L121.434 54.7678C121.396 54.7269 121.363 54.6805 121.338 54.6302C121.286 54.5339 121.249 54.4303 121.228 54.3229C121.187 54.1127 121.197 53.8957 121.256 53.6899C121.291 53.5672 121.361 53.4572 121.457 53.3735C121.556 53.3062 121.668 53.2623 121.787 53.2451C121.999 53.2037 122.219 53.2277 122.418 53.3139C122.517 53.3607 122.603 53.4291 122.672 53.514C122.741 53.5989 122.79 53.6982 122.816 53.8046C122.857 53.9965 122.857 54.1951 122.816 54.3871C122.77 54.0156 122.633 53.6349 122.331 53.5615C122.181 53.5197 122.023 53.5197 121.873 53.5615C121.807 53.5758 121.744 53.6006 121.686 53.6349C121.647 53.6793 121.62 53.733 121.608 53.7908C121.562 53.939 121.548 54.0954 121.567 54.2495C121.577 54.3266 121.597 54.4021 121.626 54.4742C121.642 54.5078 121.66 54.54 121.681 54.5705C121.681 54.5705 121.722 54.6302 121.764 54.676C121.841 54.7734 121.88 54.8958 121.873 55.02C121.86 55.1335 121.81 55.2395 121.732 55.3227C121.594 55.4753 121.425 55.5972 121.238 55.6805Z" fill="#FF847F"/>
<path opacity="0.15" d="M128.054 70.4305L125.588 70.0315C125.561 74.0813 122.633 81.6536 115.67 80.8877C115.67 80.8877 126.06 84.5935 125.419 87.8041C124.779 91.0146 115.18 93.9958 113.3 94.2251C111.42 94.4544 113.25 95.5277 121.187 95.5277C123.598 95.5277 124.541 96.5321 124.692 97.9218C127.258 97.6328 128.965 97.3439 128.965 97.3439C126.595 87.4417 128.009 76.7231 128.054 70.4305Z" fill="#0E1738"/>
<path d="M130.428 97.4266L127.171 97.046C126.986 97.0246 126.815 96.9356 126.691 96.7961C126.567 96.6565 126.498 96.4761 126.499 96.2892C126.499 96.0873 126.579 95.8936 126.721 95.7508C126.863 95.608 127.057 95.5278 127.258 95.5278H130.428V97.4266Z" fill="#FFC3BD"/>
<path d="M121.205 64.2756H112.472C112.472 64.2756 111.195 66.3029 112.472 67.2293C112.896 67.498 113.38 67.6557 113.881 67.688L114.302 72.8294L116.31 67.555C118.707 67.1147 121.205 65.8809 121.205 64.2756Z" fill="#FFC3BD"/>
<path d="M115.034 57.9049C115.056 57.9942 115.058 58.0875 115.039 58.1776C115.02 58.2677 114.981 58.3523 114.924 58.425C114.868 58.4976 114.796 58.5564 114.713 58.5968C114.631 58.6372 114.54 58.6583 114.448 58.6583C114.356 58.6583 114.266 58.6372 114.183 58.5968C114.101 58.5564 114.028 58.4976 113.972 58.425C113.915 58.3523 113.876 58.2677 113.857 58.1776C113.838 58.0875 113.84 57.9942 113.863 57.9049C113.84 57.8156 113.838 57.7224 113.857 57.6322C113.876 57.5421 113.915 57.4575 113.972 57.3849C114.028 57.3122 114.101 57.2535 114.183 57.213C114.266 57.1726 114.356 57.1516 114.448 57.1516C114.54 57.1516 114.631 57.1726 114.713 57.213C114.796 57.2535 114.868 57.3122 114.924 57.3849C114.981 57.4575 115.02 57.5421 115.039 57.6322C115.058 57.7224 115.056 57.8156 115.034 57.9049Z" fill="#FF847F"/>
<path d="M108.885 64.9543L111.886 67.0871L105.01 81.9334C104.753 82.4856 104.373 82.9709 103.898 83.3516C103.424 83.7322 102.868 83.9979 102.274 84.1279C101.681 84.258 101.065 84.2489 100.475 84.1013C99.8859 83.9538 99.3382 83.6718 98.8751 83.2773C98.081 82.6073 97.582 81.6508 97.4861 80.6147C97.3902 79.5787 97.7051 78.5465 98.3627 77.7414L108.885 64.9543Z" fill="#FFC3BD"/>
<path d="M108.885 64.9542L108.427 62.5739C108.418 62.5069 108.418 62.439 108.427 62.3721L109.036 59.2808C109.055 59.1842 109.101 59.095 109.168 59.0239L109.855 58.3039C109.903 58.2556 109.96 58.2173 110.023 58.1912C110.085 58.1651 110.153 58.1516 110.221 58.1516C110.289 58.1516 110.356 58.1651 110.419 58.1912C110.482 58.2173 110.539 58.2556 110.587 58.3039L110.765 58.4827C110.85 58.5678 110.903 58.68 110.913 58.7999C110.924 58.9197 110.893 59.0396 110.825 59.1386L110.404 59.7578C110.339 59.852 110.307 59.9647 110.312 60.0788C110.32 60.1819 110.359 60.2803 110.423 60.3613C110.487 60.4423 110.574 60.5022 110.672 60.5332C110.771 60.5643 110.876 60.5652 110.975 60.5357C111.074 60.5062 111.162 60.4477 111.227 60.3678L113.345 57.7214C113.423 57.6233 113.534 57.557 113.657 57.5351C113.78 57.5131 113.907 57.537 114.013 57.6021L116.511 59.1478C116.617 59.2128 116.696 59.3145 116.732 59.4337C116.768 59.5528 116.76 59.6812 116.708 59.7945L114.617 64.4589C114.59 64.5196 114.551 64.5742 114.503 64.6194L111.909 67.0961L108.885 64.9542Z" fill="#FFC3BD"/>
<path d="M109.85 58.304C109.925 58.2211 110.024 58.1641 110.134 58.1411C110.243 58.118 110.357 58.1301 110.459 58.1756C110.557 58.2287 110.645 58.2985 110.719 58.382C110.809 58.4535 110.88 58.5465 110.925 58.6526C110.962 58.7658 110.962 58.8879 110.925 59.0011C110.886 59.11 110.831 59.2121 110.761 59.3038C110.651 59.4827 110.518 59.6753 110.422 59.845C110.383 59.9255 110.37 60.0164 110.385 60.1047C110.401 60.1929 110.444 60.2738 110.509 60.3358C110.573 60.3957 110.655 60.4337 110.742 60.4444C110.829 60.4551 110.917 60.438 110.994 60.3954C111.144 60.2597 111.276 60.1056 111.387 59.9368L111.785 59.4231L112.581 58.3957L112.989 57.8866L113.19 57.6298C113.273 57.5169 113.39 57.4334 113.524 57.3913C113.659 57.3478 113.805 57.3478 113.94 57.3913C114.051 57.4385 114.157 57.4969 114.256 57.5656L114.809 57.905L115.921 58.5792L116.47 58.9232C116.585 58.9843 116.686 59.0687 116.767 59.1708C116.852 59.2884 116.897 59.4297 116.896 59.5744C116.889 59.7068 116.852 59.8358 116.786 59.9505L116.653 60.2487L116.383 60.8403C116.022 61.6292 115.669 62.4226 115.294 63.2069L114.741 64.3856C114.7 64.5006 114.632 64.6043 114.544 64.6884L114.306 64.9085L113.849 65.3671C113.204 65.945 112.563 66.5321 111.909 67.1008C112.508 66.4771 113.126 65.8625 113.739 65.2433L114.196 64.7847L114.425 64.5599C114.49 64.4891 114.539 64.4044 114.567 64.3123L115.079 63.1152C115.413 62.3126 115.775 61.5237 116.122 60.7302L116.383 60.134C116.476 59.9636 116.545 59.7816 116.589 59.5928C116.59 59.5182 116.566 59.4454 116.52 59.3864C116.467 59.3192 116.398 59.2658 116.319 59.2305L115.761 58.8911L114.663 58.1985L114.109 57.8545C113.908 57.7215 113.798 57.6527 113.652 57.7032C113.577 57.7267 113.511 57.7733 113.464 57.8362L113.258 58.0884L112.851 58.5929L112.023 59.602L111.611 60.1019L111.401 60.3541C111.33 60.4555 111.238 60.5401 111.131 60.6018C111.015 60.6613 110.882 60.6823 110.753 60.6617C110.624 60.6411 110.505 60.58 110.413 60.4871C110.323 60.3958 110.264 60.2782 110.245 60.1512C110.226 60.0242 110.248 59.8945 110.308 59.7808C110.44 59.5836 110.564 59.4231 110.692 59.2442C110.76 59.1659 110.815 59.0777 110.857 58.9828C110.888 58.889 110.888 58.7876 110.857 58.6938C110.823 58.598 110.764 58.5126 110.687 58.4462C110.621 58.364 110.542 58.2928 110.454 58.2352C110.36 58.1783 110.25 58.1543 110.14 58.1667C110.031 58.1791 109.929 58.2274 109.85 58.304Z" fill="#FF847F"/>
<path d="M114.375 57.8225C114.286 58.4225 114.099 59.0036 113.821 59.5424C113.683 59.8156 113.519 60.0751 113.332 60.3176C113.15 60.568 112.914 60.7735 112.641 60.9184C112.815 60.6812 112.968 60.4295 113.099 60.1662C113.236 59.9094 113.373 59.6525 113.501 59.3865C113.789 58.8682 114.046 58.3362 114.375 57.8225Z" fill="#FF847F"/>
<path d="M115.29 58.3728C115.251 58.9335 115.11 59.4823 114.874 59.9918C114.658 60.5172 114.313 60.9794 113.872 61.3357C114.119 60.8266 114.329 60.3496 114.562 59.8496C114.796 59.3497 114.988 58.8636 115.29 58.3728Z" fill="#FF847F"/>
<path d="M116.036 58.8452C116 59.4136 115.873 59.9726 115.661 60.5009C115.466 61.0418 115.154 61.5323 114.746 61.9365L115.336 60.3771C115.534 59.8511 115.768 59.3392 116.036 58.8452Z" fill="#FF847F"/>
<path d="M127.45 65.7891C125.73 66.422 124.595 73.2971 126.178 75.9206L128.759 81.938L135.123 76.8608C132.643 71.7606 129.472 66.6009 127.45 65.7891Z" fill="#FF5F81"/>
<path d="M119.169 44.9207C116.777 43.9346 109.681 44.3703 108.734 47.3928V51.062C108.734 51.062 109.599 51.1124 110.797 51.1491L111.406 48.2872L111.749 51.1721C113.063 51.2034 114.378 51.1667 115.688 51.062L116.036 48.9981L116.493 51.1812L118.479 51.5527C118.479 51.5527 120.4 54.3046 120.286 61.1522L121.201 52.8415C121.201 52.8415 121.562 45.9206 119.169 44.9207Z" fill="#0E1738"/>
<path d="M127.921 79.9842C128.818 78.9673 129.777 78.0083 130.795 77.1131C131.798 76.2032 132.858 75.359 133.97 74.5859C133.076 75.6051 132.116 76.5642 131.096 77.4571C130.094 78.3673 129.033 79.2114 127.921 79.9842Z" fill="white"/>
<path d="M81.1331 90.1707L79.9482 86.8134C79.3179 85.0241 78.1496 83.4749 76.6042 82.3791C75.0589 81.2833 73.2126 80.6949 71.3197 80.6951H32.048C29.6212 80.6951 27.2939 81.6615 25.5779 83.3818C23.862 85.102 22.8979 87.4352 22.8979 89.868V167.379C22.8979 169.812 23.862 172.145 25.5779 173.866C27.2939 175.586 29.6212 176.552 32.048 176.552H140.933C143.36 176.552 145.687 175.586 147.403 173.866C149.119 172.145 150.083 169.812 150.083 167.379V105.462C150.083 103.029 149.119 100.696 147.403 98.9757C145.687 97.2555 143.36 96.2891 140.933 96.2891H89.7616C87.8687 96.2892 86.0224 95.7008 84.4771 94.605C82.9318 93.5093 81.7634 91.96 81.1331 90.1707Z" fill="#FF8A72"/>
<path d="M6.98587 129.082C6.88075 129.085 6.77786 129.052 6.69453 128.987C6.6112 128.923 6.55253 128.832 6.52837 128.729L1.33575 106.306C1.30823 106.188 1.32839 106.064 1.39182 105.961C1.45525 105.858 1.5568 105.784 1.6743 105.756C1.7332 105.741 1.79433 105.739 1.85416 105.748C1.91399 105.758 1.97132 105.779 2.02282 105.811C2.07432 105.843 2.11897 105.885 2.15417 105.935C2.18937 105.984 2.21442 106.04 2.22787 106.099L7.43422 128.518C7.44778 128.577 7.44966 128.638 7.43975 128.697C7.42984 128.757 7.40833 128.814 7.37646 128.865C7.3446 128.916 7.30299 128.96 7.25402 128.995C7.20506 129.03 7.1497 129.055 7.0911 129.069C7.05682 129.078 7.02141 129.083 6.98587 129.082Z" fill="#FFC592"/>
<path d="M11.0851 146.74C10.9793 146.743 10.876 146.709 10.7925 146.643C10.7091 146.578 10.6508 146.486 10.6276 146.382L7.8277 134.32C7.81414 134.261 7.81226 134.2 7.82218 134.141C7.83209 134.082 7.85359 134.025 7.88546 133.974C7.91733 133.922 7.95893 133.878 8.0079 133.843C8.05686 133.808 8.11223 133.783 8.17082 133.77C8.2294 133.756 8.29008 133.754 8.34939 133.764C8.40869 133.774 8.46546 133.796 8.51645 133.828C8.56744 133.859 8.61164 133.901 8.64654 133.95C8.68144 133.999 8.70634 134.055 8.71982 134.114L11.5197 146.176C11.5333 146.235 11.5352 146.296 11.5252 146.355C11.5153 146.414 11.4938 146.471 11.462 146.523C11.4301 146.574 11.3885 146.618 11.3395 146.653C11.2906 146.688 11.2352 146.713 11.1766 146.726C11.1468 146.735 11.116 146.739 11.0851 146.74Z" fill="#FFC592"/>
<path d="M150.083 165.88V167.379C150.083 169.812 149.119 172.145 147.403 173.866C145.687 175.586 143.36 176.552 140.933 176.552H30.5609C25.5284 176.552 20.5508 172.86 19.494 168.297L3.2985 98.5823C2.2371 94.0188 5.48992 90.3267 10.5224 90.3267H49.7988C51.7729 90.3618 53.7082 90.882 55.4351 91.8416C57.162 92.8011 58.6277 94.1708 59.7037 95.8304L61.5886 98.8483C62.6645 100.508 64.1302 101.878 65.8571 102.837C67.584 103.797 69.5193 104.317 71.4934 104.352H122.674C127.729 104.352 132.684 108.049 133.741 112.608L146.235 166.393C146.36 166.852 146.646 167.249 147.04 167.512C147.435 167.776 147.911 167.886 148.381 167.824C148.851 167.762 149.282 167.531 149.595 167.174C149.908 166.818 150.081 166.359 150.083 165.884V165.88Z" fill="#FFC592"/>
<path d="M69.8969 151.804L63.3638 146.612L80.0808 123.913L86.6093 129.101L69.8969 151.804Z" fill="#FF8A72"/>
<path d="M58.7886 129.101L62.6087 123.913L91.1841 146.612L87.364 151.804L58.7886 129.101Z" fill="#FF8A72"/>
<path d="M93.7095 146.282L87.7117 154.423L80.7439 148.887L78.397 147.02C79.7024 143.811 82.0299 141.124 85.017 139.379L87.4509 141.31L93.7095 146.282Z" fill="#FF8A72"/>
<path d="M103.885 163.398C101.703 165.586 98.9232 167.076 95.8969 167.679C92.8706 168.283 89.7336 167.974 86.8828 166.79C84.0319 165.606 81.5952 163.602 79.8809 161.03C78.1665 158.458 77.2515 155.434 77.2515 152.34C77.2515 149.247 78.1665 146.223 79.8809 143.651C81.5952 141.079 84.0319 139.074 86.8828 137.891C89.7336 136.707 92.8706 136.397 95.8969 137.001C98.9232 137.605 101.703 139.095 103.885 141.282C106.809 144.216 108.451 148.193 108.451 152.34C108.451 156.487 106.809 160.465 103.885 163.398ZM101.876 161.389C103.662 159.6 104.878 157.32 105.371 154.838C105.864 152.355 105.611 149.782 104.645 147.444C103.679 145.105 102.043 143.106 99.9439 141.7C97.8448 140.294 95.3768 139.543 92.8521 139.543C90.3274 139.543 87.8594 140.294 85.7602 141.7C83.661 143.106 82.025 145.105 81.059 147.444C80.0931 149.782 79.8405 152.355 80.3334 154.838C80.8262 157.32 82.0423 159.6 83.8279 161.389C86.2227 163.786 89.4683 165.132 92.8521 165.132C96.2359 165.132 99.4814 163.786 101.876 161.389Z" fill="#0E1738"/>
<path d="M120.99 182.556L101.936 163.458L103.944 161.449L122.994 180.547C123.26 180.814 123.409 181.175 123.409 181.551C123.409 181.928 123.26 182.289 122.994 182.556C122.728 182.822 122.368 182.971 121.992 182.971C121.617 182.971 121.256 182.822 120.99 182.556Z" fill="#0E1738"/>
<path opacity="0.15" d="M92.8541 165.136C99.9036 165.136 105.618 159.407 105.618 152.34C105.618 145.273 99.9036 139.544 92.8541 139.544C85.8046 139.544 80.0898 145.273 80.0898 152.34C80.0898 159.407 85.8046 165.136 92.8541 165.136Z" fill="white"/>
<path opacity="0.5" d="M93.71 141.901C101.401 141.901 105.797 153.253 101.831 158.069C101.962 154.842 101.239 151.637 99.7352 148.781C98.281 146.054 96.2191 143.7 93.71 141.901Z" fill="white"/>
<path d="M134.811 94.9407H130.598C130.502 94.9395 130.408 94.9572 130.319 94.9927C130.23 95.0282 130.149 95.081 130.081 95.1478C130.012 95.2147 129.958 95.2944 129.92 95.3824C129.883 95.4704 129.863 95.565 129.861 95.6608V97.9999C129.862 98.0847 129.879 98.1684 129.914 98.2459C129.948 98.3234 129.998 98.393 130.06 98.4503C130.122 98.5076 130.196 98.5513 130.276 98.5788C130.356 98.6063 130.44 98.6169 130.525 98.6099H130.616C130.783 98.6116 130.945 98.5495 131.068 98.4362C131.191 98.3229 131.267 98.167 131.28 97.9999C131.291 98.1666 131.366 98.3225 131.488 98.4359C131.611 98.5492 131.772 98.6115 131.938 98.6099H132.03C132.197 98.6105 132.358 98.548 132.481 98.435C132.604 98.3219 132.679 98.1666 132.693 97.9999C132.707 98.1666 132.783 98.3219 132.906 98.435C133.029 98.548 133.19 98.6105 133.357 98.6099H133.448C134.116 98.6099 134.084 98.0779 134.107 97.7385C134.12 97.9055 134.195 98.0615 134.318 98.1748C134.442 98.288 134.603 98.3501 134.77 98.3485H134.862C135.028 98.3501 135.189 98.2878 135.312 98.1744C135.434 98.0611 135.509 97.9052 135.521 97.7385V95.6608C135.518 95.4721 135.443 95.2917 135.311 95.1574C135.179 95.0231 135 94.9455 134.811 94.9407Z" fill="#FFC3BD"/>
<path d="M131.302 94.9407C131.421 95.4425 131.48 95.9568 131.476 96.4726C131.483 96.9867 131.426 97.4998 131.307 97.9998C131.078 96.993 131.078 95.9475 131.307 94.9407H131.302Z" fill="#FF847F"/>
<path d="M132.702 94.9407C132.934 95.9472 132.934 96.9934 132.702 97.9998C132.477 96.9927 132.477 95.9479 132.702 94.9407Z" fill="#FF847F"/>
<path d="M134.13 94.9407C134.361 95.8588 134.361 96.8203 134.13 97.7384C133.904 96.8196 133.904 95.8595 134.13 94.9407Z" fill="#FF847F"/>
<path d="M147.068 31.418C146.985 31.415 146.904 31.3959 146.83 31.3615C146.755 31.3272 146.687 31.2784 146.631 31.2179C146.575 31.1574 146.531 31.0864 146.503 31.009C146.474 30.9316 146.461 30.8493 146.464 30.7667L146.574 27.6709C146.576 27.5881 146.595 27.5067 146.629 27.4313C146.663 27.3559 146.711 27.2881 146.772 27.2317C146.832 27.1754 146.903 27.1317 146.981 27.1031C147.058 27.0746 147.141 27.0618 147.223 27.0655C147.576 27.0751 147.923 26.98 148.222 26.7922C148.521 26.6044 148.758 26.3321 148.903 26.0098C149.048 25.6874 149.094 25.3292 149.037 24.9804C148.979 24.6315 148.82 24.3074 148.58 24.049C148.339 23.7905 148.027 23.6092 147.684 23.5277C147.341 23.4463 146.981 23.4684 146.65 23.5913C146.32 23.7141 146.033 23.9323 145.825 24.2183C145.618 24.5043 145.499 24.8454 145.485 25.1988C145.482 25.2811 145.464 25.3621 145.43 25.4372C145.396 25.5123 145.348 25.5799 145.288 25.6362C145.228 25.6925 145.158 25.7363 145.081 25.7651C145.004 25.794 144.922 25.8072 144.84 25.8042C144.757 25.8018 144.676 25.7832 144.601 25.7494C144.526 25.7156 144.458 25.6673 144.402 25.6072C144.345 25.5472 144.301 25.4765 144.272 25.3994C144.243 25.3222 144.229 25.24 144.231 25.1575C144.251 24.5817 144.433 24.0234 144.757 23.5472C145.08 23.0709 145.531 22.6962 146.058 22.4665C146.585 22.2367 147.166 22.1612 147.734 22.2488C148.302 22.3364 148.834 22.5835 149.268 22.9615C149.701 23.3394 150.019 23.8327 150.185 24.3844C150.351 24.936 150.357 25.5234 150.203 26.0786C150.05 26.6337 149.743 27.1339 149.317 27.5212C148.892 27.9085 148.366 28.1671 147.8 28.2671L147.708 30.8034C147.707 30.8861 147.689 30.9678 147.657 31.0436C147.624 31.1194 147.576 31.1879 147.516 31.2451C147.457 31.3023 147.386 31.3471 147.309 31.3767C147.232 31.4064 147.15 31.4204 147.068 31.418Z" fill="#9CAFCD"/>
<path d="M148.093 33.6287C148.086 33.8283 148.021 34.0215 147.905 34.1838C147.789 34.3461 147.627 34.4703 147.441 34.5405C147.254 34.6107 147.051 34.6239 146.857 34.5784C146.663 34.5328 146.487 34.4306 146.351 34.2846C146.215 34.1387 146.125 33.9556 146.093 33.7585C146.061 33.5614 146.088 33.3591 146.171 33.1774C146.253 32.9957 146.388 32.8426 146.557 32.7376C146.727 32.6326 146.924 32.5804 147.123 32.5876C147.255 32.5917 147.385 32.622 147.505 32.6766C147.625 32.7312 147.733 32.8092 147.824 32.9059C147.914 33.0027 147.984 33.1164 148.03 33.2404C148.076 33.3644 148.097 33.4964 148.093 33.6287Z" fill="#9CAFCD"/>
<path d="M133.068 44.4208L136.092 34.7342C134.563 32.0153 134.07 28.8325 134.705 25.7768C135.34 22.7212 137.059 20.0002 139.544 18.1193C142.028 16.2384 145.109 15.3254 148.215 15.5497C151.32 15.774 154.239 17.1205 156.429 19.3391C158.619 21.5578 159.931 24.4977 160.122 27.6131C160.313 30.7284 159.37 33.8074 157.468 36.2784C155.566 38.7494 152.834 40.4443 149.779 41.0485C146.725 41.6527 143.555 41.1251 140.86 39.5637L133.068 44.4208ZM147.283 16.902C145.256 16.9029 143.265 17.4421 141.513 18.4647C139.761 19.4873 138.31 20.9568 137.308 22.7237C136.307 24.4907 135.79 26.4921 135.81 28.5244C135.83 30.5567 136.387 32.5473 137.424 34.2939L137.584 34.5553L135.484 41.2882L140.855 37.9401L141.216 38.1694C142.724 39.1106 144.429 39.688 146.197 39.8562C147.965 40.0245 149.748 39.7789 151.406 39.1389C153.063 38.4989 154.55 37.482 155.748 36.1681C156.947 34.8542 157.825 33.2793 158.313 31.5674C158.802 29.8555 158.887 28.0534 158.562 26.3028C158.238 24.5523 157.512 22.9012 156.443 21.4795C155.374 20.0578 153.99 18.9044 152.4 18.1101C150.811 17.3158 149.059 16.9022 147.283 16.902Z" fill="#CFD7FE"/>
</svg>
