<svg width="291" height="174" viewBox="0 0 291 174" fill="none" xmlns="http://www.w3.org/2000/svg">
<path fill-rule="evenodd" clip-rule="evenodd" d="M129.064 46.4857L31.5279 107.464C26.7623 110.427 23.2812 115.06 21.7691 120.452C20.2569 125.844 20.8231 131.605 23.3564 136.602L31.1251 152.022C37.01 163.703 48.2449 170.611 61.3605 170.611H232.727C245.84 170.611 257.075 163.703 262.963 152.022L270.725 136.602C273.259 131.605 273.825 125.844 272.313 120.452C270.801 115.06 267.32 110.427 262.554 107.464L165.015 46.4857C153.755 39.4465 140.323 39.4465 129.064 46.4857Z" fill="url(#paint0_linear_176_1615)"/>
<path d="M278.343 170.909H15.7349C15.6558 170.909 15.5799 170.877 15.5239 170.821C15.468 170.766 15.4365 170.69 15.4365 170.611C15.4365 170.532 15.468 170.457 15.5239 170.401C15.5799 170.345 15.6558 170.314 15.7349 170.314H278.343C278.422 170.314 278.498 170.345 278.554 170.401C278.61 170.457 278.641 170.532 278.641 170.611C278.641 170.69 278.61 170.766 278.554 170.821C278.498 170.877 278.422 170.909 278.343 170.909Z" fill="#E5E0F8"/>
<path d="M209.085 173.998H202.597C202.518 173.998 202.442 173.967 202.386 173.911C202.33 173.855 202.299 173.779 202.299 173.701C202.299 173.622 202.33 173.546 202.386 173.49C202.442 173.434 202.518 173.403 202.597 173.403H209.086C209.165 173.403 209.241 173.434 209.297 173.49C209.353 173.546 209.384 173.622 209.384 173.701C209.384 173.779 209.353 173.855 209.297 173.911C209.241 173.967 209.165 173.998 209.086 173.998H209.085ZM197.349 173.998H96.7357C96.6566 173.998 96.5807 173.967 96.5247 173.911C96.4688 173.855 96.4374 173.779 96.4374 173.701C96.4374 173.622 96.4688 173.546 96.5247 173.49C96.5807 173.434 96.6566 173.403 96.7357 173.403H197.344C197.423 173.403 197.499 173.434 197.555 173.49C197.611 173.546 197.642 173.622 197.642 173.701C197.642 173.779 197.611 173.855 197.555 173.911C197.499 173.967 197.423 173.998 197.344 173.998H197.349ZM91.4883 173.998H84.9947C84.9155 173.998 84.8396 173.967 84.7837 173.911C84.7277 173.855 84.6963 173.779 84.6963 173.701C84.6963 173.622 84.7277 173.546 84.7837 173.49C84.8396 173.434 84.9155 173.403 84.9947 173.403H91.4833C91.5625 173.403 91.6384 173.434 91.6943 173.49C91.7503 173.546 91.7817 173.622 91.7817 173.701C91.7817 173.779 91.7503 173.855 91.6943 173.911C91.6384 173.967 91.5625 173.998 91.4833 173.998H91.4883Z" fill="#E5E0F8"/>
<path fill-rule="evenodd" clip-rule="evenodd" d="M204.917 142.204H205.481C205.769 142.203 206.052 142.278 206.302 142.421C206.55 142.564 206.756 142.769 206.898 143.016L209.612 147.7H215.579C216.033 147.701 216.467 147.881 216.788 148.201C217.108 148.521 217.289 148.954 217.29 149.406V168.9C217.289 169.352 217.108 169.785 216.788 170.105C216.467 170.425 216.033 170.605 215.579 170.606H182.904C182.451 170.605 182.016 170.425 181.696 170.105C181.375 169.785 181.194 169.352 181.193 168.9V149.41C181.194 148.958 181.375 148.525 181.696 148.205C182.016 147.885 182.451 147.705 182.904 147.704H188.872L191.584 143.02C191.727 142.774 191.933 142.568 192.181 142.425C192.43 142.282 192.713 142.207 193.001 142.208H193.565V142.17C193.565 142.049 193.613 141.934 193.699 141.849C193.785 141.763 193.901 141.716 194.022 141.716H204.465C204.585 141.716 204.701 141.764 204.787 141.849C204.872 141.934 204.921 142.049 204.921 142.17V142.208L204.917 142.204ZM208.049 147.705L205.728 143.696C205.704 143.653 205.67 143.615 205.628 143.588C205.584 143.565 205.535 143.554 205.485 143.556H204.921V143.593C204.921 143.714 204.873 143.83 204.787 143.915C204.702 144 204.586 144.048 204.465 144.048H194.022C193.901 144.048 193.785 144 193.699 143.915C193.613 143.83 193.565 143.714 193.565 143.593V143.561H193.001C192.951 143.559 192.902 143.57 192.858 143.593C192.816 143.621 192.782 143.658 192.758 143.701L190.437 147.71L208.049 147.705Z" fill="#E5E1F8"/>
<path fill-rule="evenodd" clip-rule="evenodd" d="M115.016 113.144L116.119 115.049C116.154 115.11 116.205 115.16 116.267 115.195C116.328 115.23 116.398 115.248 116.468 115.247H120.488C120.559 115.248 120.629 115.23 120.69 115.195C120.751 115.16 120.802 115.11 120.837 115.049L121.94 113.144C122.003 113.037 122.036 112.915 122.036 112.791C122.036 112.667 122.003 112.545 121.941 112.437C121.879 112.33 121.789 112.24 121.681 112.178C121.574 112.116 121.451 112.084 121.327 112.083H115.631C115.506 112.083 115.384 112.116 115.276 112.178C115.168 112.24 115.078 112.329 115.016 112.437C114.954 112.544 114.921 112.666 114.921 112.791C114.921 112.915 114.954 113.037 115.016 113.144Z" fill="#E3455E"/>
<path fill-rule="evenodd" clip-rule="evenodd" d="M116.579 115.25L116.997 116.929C117.033 117.078 117.119 117.211 117.241 117.306C117.362 117.401 117.513 117.452 117.667 117.451H119.288C119.443 117.452 119.593 117.401 119.715 117.306C119.837 117.211 119.923 117.078 119.959 116.929L120.376 115.25H116.579Z" fill="#9E8ED6"/>
<path fill-rule="evenodd" clip-rule="evenodd" d="M119.087 117.451V135.489C119.088 136.089 119.328 136.663 119.753 137.086C120.178 137.51 120.754 137.749 121.355 137.75H143.459V138.964H121.355C120.431 138.963 119.546 138.596 118.892 137.945C118.239 137.293 117.871 136.411 117.869 135.489V117.451H119.087Z" fill="#B0A3E1"/>
<path fill-rule="evenodd" clip-rule="evenodd" d="M179.063 113.144L177.96 115.049C177.924 115.11 177.873 115.16 177.812 115.195C177.751 115.23 177.681 115.248 177.61 115.247H173.59C173.52 115.248 173.45 115.23 173.389 115.195C173.328 115.16 173.277 115.11 173.241 115.049L172.138 113.144C172.076 113.037 172.043 112.915 172.043 112.791C172.043 112.666 172.076 112.544 172.138 112.437C172.2 112.329 172.29 112.24 172.398 112.178C172.506 112.116 172.628 112.083 172.753 112.083H178.449C178.573 112.084 178.696 112.116 178.804 112.178C178.911 112.24 179.001 112.33 179.063 112.437C179.125 112.545 179.158 112.667 179.158 112.791C179.158 112.915 179.125 113.037 179.063 113.144Z" fill="#E3455E"/>
<path fill-rule="evenodd" clip-rule="evenodd" d="M177.499 115.25L177.082 116.929C177.046 117.078 176.96 117.211 176.838 117.306C176.716 117.401 176.566 117.452 176.411 117.451H174.79C174.636 117.452 174.485 117.401 174.364 117.306C174.242 117.211 174.156 117.078 174.12 116.929L173.702 115.25H177.499Z" fill="#9E8ED6"/>
<path fill-rule="evenodd" clip-rule="evenodd" d="M174.992 117.451V135.489C174.991 136.089 174.751 136.663 174.326 137.086C173.901 137.51 173.325 137.749 172.724 137.75H150.62V138.964H172.724C173.647 138.961 174.531 138.594 175.184 137.943C175.836 137.292 176.203 136.41 176.205 135.489V117.451H174.992Z" fill="#B0A3E1"/>
<path d="M148.131 136.694H145.947V147.817H148.131V136.694Z" fill="#9E8ED6"/>
<path d="M120.921 161.186H119.768V164.116H120.921V161.186Z" fill="#9E8ED6"/>
<path d="M120.932 164.126H119.757V161.175H120.932V164.126ZM119.778 164.105H120.911V161.195H119.778V164.105Z" fill="#9E8ED6"/>
<path d="M174.311 161.186H173.157V164.116H174.311V161.186Z" fill="#9E8ED6"/>
<path d="M147.617 161.186H146.463V166.595H147.617V161.186Z" fill="#9E8ED6"/>
<path d="M148.25 164.785H145.83V169.672H148.25V164.785Z" fill="#9E8ED6"/>
<path d="M149.545 163.847H148.447C148.231 163.847 148.056 164.021 148.056 164.236V170.222C148.056 170.437 148.231 170.611 148.447 170.611H149.545C149.76 170.611 149.935 170.437 149.935 170.222V164.236C149.935 164.021 149.76 163.847 149.545 163.847Z" fill="#B0A3E1"/>
<path d="M145.632 163.847H144.534C144.319 163.847 144.144 164.021 144.144 164.236V170.222C144.144 170.437 144.319 170.611 144.534 170.611H145.632C145.848 170.611 146.023 170.437 146.023 170.222V164.236C146.023 164.021 145.848 163.847 145.632 163.847Z" fill="#B0A3E1"/>
<path fill-rule="evenodd" clip-rule="evenodd" d="M150.516 151.294L173.629 158.343C173.976 158.446 174.281 158.659 174.496 158.95C174.711 159.241 174.826 159.594 174.822 159.955V161.903C174.822 161.964 174.798 162.022 174.755 162.065C174.712 162.108 174.653 162.132 174.593 162.132H172.871C172.81 162.132 172.751 162.108 172.708 162.065C172.665 162.022 172.64 161.964 172.64 161.903V161.122C172.641 161.043 172.614 160.966 172.564 160.904C172.514 160.843 172.444 160.801 172.366 160.785L150.513 156.213L150.516 151.294Z" fill="#B0A3E1"/>
<path fill-rule="evenodd" clip-rule="evenodd" d="M143.564 151.294L120.45 158.343C120.103 158.446 119.798 158.659 119.583 158.95C119.368 159.241 119.253 159.594 119.257 159.955V161.903C119.257 161.964 119.281 162.022 119.324 162.065C119.368 162.108 119.426 162.132 119.487 162.132H121.208C121.269 162.132 121.328 162.108 121.371 162.065C121.414 162.022 121.439 161.964 121.439 161.903V161.122C121.438 161.043 121.465 160.966 121.516 160.904C121.566 160.843 121.636 160.801 121.714 160.785L143.567 156.213L143.564 151.294Z" fill="#B0A3E1"/>
<path d="M122.83 169.584C124.204 168.215 124.204 165.995 122.83 164.626C121.457 163.257 119.23 163.257 117.857 164.626C116.483 165.995 116.483 168.215 117.857 169.584C119.23 170.953 121.457 170.953 122.83 169.584Z" fill="#B0A3E1"/>
<path d="M120.344 169.018C121.404 169.018 122.263 168.162 122.263 167.105C122.263 166.049 121.404 165.193 120.344 165.193C119.285 165.193 118.426 166.049 118.426 167.105C118.426 168.162 119.285 169.018 120.344 169.018Z" fill="#9E8ED6"/>
<path fill-rule="evenodd" clip-rule="evenodd" d="M144.266 147.446V155.627H149.813V147.446C149.813 147.148 149.694 146.862 149.482 146.652C149.271 146.441 148.985 146.322 148.686 146.322H145.393C145.095 146.322 144.808 146.441 144.597 146.652C144.385 146.862 144.266 147.148 144.266 147.446Z" fill="#B0A3E1"/>
<path d="M150.196 150.166H143.882C143.605 150.166 143.381 150.389 143.381 150.665V157.092C143.381 157.368 143.605 157.592 143.882 157.592H150.196C150.473 157.592 150.697 157.368 150.697 157.092V150.665C150.697 150.389 150.473 150.166 150.196 150.166Z" fill="#9E8ED6"/>
<path fill-rule="evenodd" clip-rule="evenodd" d="M149.098 152.563L148.131 161.907C148.13 161.968 148.106 162.026 148.063 162.069C148.02 162.112 147.962 162.136 147.901 162.136H146.178C146.117 162.136 146.059 162.112 146.016 162.069C145.973 162.026 145.949 161.968 145.948 161.907L144.981 152.563C144.964 152.403 144.981 152.242 145.031 152.089C145.081 151.936 145.163 151.796 145.271 151.677C145.379 151.557 145.511 151.462 145.658 151.397C145.805 151.332 145.964 151.298 146.125 151.298H147.954C148.115 151.298 148.274 151.332 148.421 151.397C148.568 151.462 148.7 151.557 148.808 151.677C148.916 151.796 148.998 151.936 149.048 152.089C149.098 152.242 149.115 152.403 149.098 152.563Z" fill="#B0A3E1"/>
<path d="M174.536 170.526C176.426 170.082 177.597 168.194 177.151 166.309C176.704 164.425 174.81 163.258 172.92 163.703C171.03 164.147 169.859 166.035 170.305 167.92C170.751 169.804 172.645 170.971 174.536 170.526Z" fill="#B0A3E1"/>
<path d="M173.734 169.018C174.794 169.018 175.653 168.162 175.653 167.105C175.653 166.049 174.794 165.193 173.734 165.193C172.674 165.193 171.815 166.049 171.815 167.105C171.815 168.162 172.674 169.018 173.734 169.018Z" fill="#9E8ED6"/>
<path d="M137.565 133.428H156.514C156.85 133.428 157.173 133.562 157.411 133.799C157.649 134.036 157.783 134.358 157.783 134.693V140.637C157.783 140.972 157.649 141.294 157.411 141.531C157.174 141.768 156.851 141.901 156.515 141.901H137.565C137.229 141.901 136.906 141.768 136.668 141.531C136.43 141.294 136.297 140.972 136.297 140.637V134.693C136.297 134.358 136.43 134.036 136.668 133.799C136.906 133.562 137.229 133.428 137.565 133.428Z" fill="#9E8ED6"/>
<path fill-rule="evenodd" clip-rule="evenodd" d="M127.008 73.6035H167.064C167.826 73.6056 168.557 73.9085 169.096 74.446C169.635 74.9834 169.939 75.7118 169.94 76.4718V124.297C169.938 125.513 169.452 126.679 168.59 127.539C167.727 128.399 166.557 128.883 165.337 128.885H128.737C127.517 128.883 126.347 128.399 125.485 127.539C124.622 126.679 124.136 125.513 124.134 124.297V76.4718C124.136 75.7121 124.439 74.9841 124.978 74.4467C125.516 73.9093 126.246 73.6061 127.008 73.6035Z" fill="#E3455E"/>
<path fill-rule="evenodd" clip-rule="evenodd" d="M169.943 124.297C169.941 125.513 169.455 126.679 168.593 127.539C167.73 128.399 166.56 128.883 165.34 128.885H128.74C127.52 128.883 126.35 128.399 125.488 127.539C124.625 126.679 124.139 125.513 124.137 124.297H169.943Z" fill="#F49500"/>
<path d="M170.271 128.885H123.808C122.799 128.885 121.981 129.701 121.981 130.707V135.929C121.981 136.935 122.799 137.75 123.808 137.75H170.271C171.28 137.75 172.098 136.935 172.098 135.929V130.707C172.098 129.701 171.28 128.885 170.271 128.885Z" fill="#E3455E"/>
<path fill-rule="evenodd" clip-rule="evenodd" d="M158.522 76.3221C159.783 75.7445 161.223 75.6899 162.524 76.1704C163.825 76.6508 164.882 77.6269 165.461 78.8839C165.537 79.0475 165.604 79.221 165.671 79.3886L173.827 99.9114C174.057 100.392 174.189 100.913 174.215 101.445C174.241 101.976 174.16 102.508 173.979 103.008C173.797 103.509 173.517 103.968 173.156 104.36C172.794 104.751 172.358 105.068 171.873 105.29C171.388 105.512 170.863 105.636 170.329 105.655C169.796 105.673 169.264 105.585 168.764 105.397C168.265 105.209 167.808 104.923 167.42 104.557C167.033 104.191 166.722 103.752 166.506 103.265L156.133 83.5982C156.072 83.4813 156.008 83.3603 155.952 83.2403C155.373 81.9831 155.318 80.5481 155.8 79.2508C156.282 77.9535 157.261 76.9 158.522 76.3221Z" fill="#6C59AD"/>
<path d="M165.026 100.751C164.972 100.751 164.919 100.736 164.872 100.708C164.826 100.68 164.788 100.64 164.763 100.592L155.869 83.7372C155.803 83.6113 155.739 83.4883 155.681 83.3644C155.07 82.0356 155.013 80.5193 155.522 79.1484C156.031 77.7775 157.066 76.6641 158.398 76.0525C158.433 76.0346 158.472 76.024 158.512 76.0214C158.552 76.0188 158.593 76.0243 158.63 76.0375C158.668 76.0507 158.703 76.0714 158.733 76.0983C158.762 76.1252 158.786 76.1578 158.803 76.1942C158.82 76.2305 158.829 76.2698 158.83 76.3098C158.831 76.3497 158.824 76.3895 158.81 76.4267C158.795 76.4639 158.773 76.4978 158.745 76.5264C158.717 76.5549 158.683 76.5775 158.646 76.5929C157.458 77.1388 156.536 78.1321 156.082 79.3549C155.628 80.5777 155.679 81.9301 156.223 83.1156C156.275 83.2266 156.335 83.3426 156.397 83.4606L165.291 100.315C165.328 100.385 165.335 100.466 165.312 100.542C165.288 100.617 165.236 100.68 165.166 100.717C165.123 100.739 165.075 100.751 165.026 100.751Z" fill="#4D3E82"/>
<path d="M172.66 97.2605C172.601 97.2605 172.542 97.2427 172.493 97.2093C172.443 97.1759 172.405 97.1284 172.383 97.0731L165.398 79.5038C165.369 79.4304 165.37 79.3485 165.401 79.2761C165.433 79.2036 165.492 79.1466 165.566 79.1176C165.639 79.0885 165.721 79.0898 165.794 79.1211C165.867 79.1525 165.924 79.2113 165.953 79.2846L172.938 96.854C172.967 96.9272 172.966 97.0089 172.934 97.0812C172.903 97.1535 172.844 97.2105 172.771 97.2396C172.736 97.2533 172.698 97.2604 172.66 97.2605Z" fill="#4D3E82"/>
<path fill-rule="evenodd" clip-rule="evenodd" d="M194.884 28.606H210.554C210.628 28.6062 210.7 28.636 210.753 28.6888C210.806 28.7416 210.835 28.813 210.835 28.8875V49.3112H194.604V28.8875C194.604 28.8133 194.633 28.7421 194.686 28.6894C194.738 28.6367 194.809 28.6067 194.884 28.606Z" fill="#E5E1F8"/>
<path fill-rule="evenodd" clip-rule="evenodd" d="M132.267 120.031V128.873H161.812L161.005 120.615L161.278 120.424L161.812 120.028L158.669 105.778L154.163 100.095C152.422 101.508 149.739 102.096 147.039 101.979C144.339 102.093 141.655 101.505 139.915 100.095L135.409 105.778L132.267 120.031Z" fill="#604AA1"/>
<path fill-rule="evenodd" clip-rule="evenodd" d="M147.039 115.73L144.273 121.598H131.623L134.374 98.239H147.039H159.704L162.455 121.598H149.805L147.039 115.73Z" fill="#6C59AD"/>
<path d="M159.624 121.896H149.805C149.749 121.896 149.693 121.88 149.645 121.849C149.598 121.819 149.56 121.776 149.536 121.725L147.039 116.43L144.543 121.725C144.519 121.776 144.48 121.819 144.433 121.849C144.385 121.88 144.33 121.896 144.273 121.896H134.455C134.375 121.896 134.3 121.864 134.244 121.809C134.188 121.753 134.156 121.677 134.156 121.598C134.156 121.519 134.188 121.444 134.244 121.388C134.3 121.332 134.375 121.301 134.455 121.301H144.083L146.769 115.604C146.793 115.553 146.831 115.51 146.879 115.479C146.926 115.449 146.982 115.433 147.039 115.433C147.095 115.433 147.151 115.449 147.199 115.479C147.246 115.51 147.285 115.553 147.309 115.604L149.994 121.301H159.623C159.702 121.301 159.778 121.332 159.834 121.388C159.89 121.444 159.921 121.519 159.921 121.598C159.921 121.677 159.89 121.753 159.834 121.809C159.778 121.864 159.702 121.896 159.623 121.896H159.624Z" fill="#4D3E82"/>
<path fill-rule="evenodd" clip-rule="evenodd" d="M147.04 68.463L146.25 68.5384L143.239 67.656V71.4483C143.239 71.8835 143.025 72.3197 142.702 72.6985V75.8453H151.376V72.6985C151.053 72.3197 150.839 71.8835 150.839 71.4483V67.656L147.828 68.5384L147.04 68.463Z" fill="#FDAB91"/>
<path fill-rule="evenodd" clip-rule="evenodd" d="M147.04 68.463L146.25 68.5384L143.239 67.656V69.3305C144.003 70.2655 145.691 71.8349 147.04 71.8349C148.388 71.8349 150.076 70.2655 150.84 69.3305V67.656L147.829 68.5384L147.04 68.463Z" fill="#E58163"/>
<path d="M147.483 65.8006C148.525 65.5554 149.17 64.5147 148.925 63.4761C148.679 62.4374 147.635 61.7941 146.593 62.0393C145.551 62.2844 144.905 63.3252 145.151 64.3638C145.397 65.4025 146.441 66.0457 147.483 65.8006Z" fill="#F9DF13"/>
<path fill-rule="evenodd" clip-rule="evenodd" d="M140.486 60.1517L140.401 60.0089C137.398 57.2824 137.879 52.0456 141.595 50.9233C142.423 48.526 145.479 48.0699 147.796 48.406C150.952 48.8631 153.08 51.196 155.315 49.2091C156.255 50.4603 156.171 52.2112 155.304 53.6359C156.055 55.6753 155.531 58.3224 153.674 60.0089L153.587 60.1507L140.486 60.1517Z" fill="#423C59"/>
<path fill-rule="evenodd" clip-rule="evenodd" d="M145.717 69.9452L145.209 69.6983C143.109 68.6751 141.986 67.7472 141.498 65.4212C141.412 65.0118 141.339 64.5775 141.245 64.1324C140.959 62.7612 140.624 61.279 140.485 60.1527C139.9 55.3997 141.38 50.4039 147.038 50.384C152.697 50.4039 154.176 55.3997 153.591 60.1527C153.452 61.279 153.117 62.7612 152.831 64.1324C152.737 64.5805 152.664 65.0147 152.578 65.4212C152.091 67.7472 150.968 68.6751 148.867 69.6983L148.361 69.9432C147.596 70.316 146.486 70.316 145.717 69.9452Z" fill="#FDAB91"/>
<path d="M147.072 64.3316C146.756 64.3316 146.439 64.2067 146.078 63.9579C146.015 63.9121 145.973 63.8439 145.96 63.7677C145.947 63.6915 145.965 63.6133 146.009 63.5497C146.053 63.4861 146.12 63.442 146.196 63.4267C146.272 63.4115 146.35 63.4263 146.416 63.4681C146.946 63.831 147.204 63.831 147.735 63.4681C147.8 63.4263 147.879 63.4115 147.955 63.4267C148.031 63.442 148.098 63.4861 148.142 63.5497C148.185 63.6133 148.203 63.6915 148.19 63.7677C148.177 63.8439 148.135 63.9121 148.073 63.9579C147.706 64.2067 147.389 64.3316 147.072 64.3316Z" fill="#F49275"/>
<path d="M144.199 61.059C144.528 61.059 144.795 60.6817 144.795 60.2163C144.795 59.7508 144.528 59.3735 144.199 59.3735C143.87 59.3735 143.604 59.7508 143.604 60.2163C143.604 60.6817 143.87 61.059 144.199 61.059Z" fill="#423C59"/>
<path d="M149.888 61.059C150.217 61.059 150.484 60.6817 150.484 60.2163C150.484 59.7508 150.217 59.3735 149.888 59.3735C149.559 59.3735 149.292 59.7508 149.292 60.2163C149.292 60.6817 149.559 61.059 149.888 61.059Z" fill="#423C59"/>
<path fill-rule="evenodd" clip-rule="evenodd" d="M147.039 50.1016C141.463 50.1016 139.617 55.3245 140.486 60.1518L140.553 60.1369C140.743 60.098 140.913 59.9945 141.035 59.8443C141.157 59.6941 141.223 59.5064 141.222 59.313V56.9514C141.222 54.5482 143.782 53.3039 145.755 53.7372C146.192 53.8389 146.621 53.9711 147.039 54.1328C147.458 53.9728 147.887 53.8422 148.323 53.7421C150.297 53.3089 152.857 54.5531 152.857 56.9564V59.318C152.855 59.5113 152.921 59.6991 153.043 59.8493C153.166 59.9995 153.336 60.1029 153.526 60.1419L153.592 60.1568C154.459 55.3225 152.616 50.1016 147.039 50.1016Z" fill="#423C59"/>
<path fill-rule="evenodd" clip-rule="evenodd" d="M141.123 59.889C140.626 59.2704 139.749 59.1484 139.454 60.0943C139.302 60.5811 139.367 61.2067 139.472 61.6399C139.77 62.8762 140.786 63.9331 141.813 63.6654L141.123 59.889Z" fill="#FDAB91"/>
<path fill-rule="evenodd" clip-rule="evenodd" d="M153.023 59.889C153.521 59.2704 154.396 59.1484 154.691 60.0943C154.843 60.5811 154.778 61.2067 154.674 61.6399C154.376 62.8762 153.359 63.9331 152.332 63.6654L153.023 59.889Z" fill="#FDAB91"/>
<path d="M148.454 58.6647C148.379 58.6647 148.306 58.6411 148.245 58.5972C148.184 58.5533 148.138 58.4912 148.114 58.42C148.091 58.3487 148.09 58.2718 148.113 58.2002C148.135 58.1286 148.18 58.066 148.241 58.0212C149.398 57.1666 150.864 57.3887 151.656 58.0311C151.729 58.0911 151.775 58.1775 151.785 58.2714C151.794 58.3653 151.766 58.4591 151.706 58.5323C151.646 58.6054 151.56 58.6519 151.466 58.6617C151.371 58.6715 151.277 58.6437 151.204 58.5843C150.613 58.1055 149.503 57.9776 148.666 58.5953C148.605 58.6403 148.531 58.6646 148.454 58.6647ZM145.633 58.6647C145.556 58.6645 145.482 58.6402 145.42 58.5953C144.585 57.9776 143.474 58.1055 142.884 58.5843C142.81 58.6437 142.716 58.6715 142.622 58.6617C142.528 58.6519 142.441 58.6054 142.381 58.5323C142.322 58.4591 142.293 58.3653 142.303 58.2714C142.312 58.1775 142.358 58.0911 142.431 58.0311C143.227 57.3887 144.688 57.1666 145.847 58.0212C145.907 58.066 145.952 58.1286 145.975 58.2002C145.997 58.2718 145.997 58.3487 145.973 58.42C145.949 58.4912 145.904 58.5533 145.843 58.5972C145.782 58.6411 145.708 58.6647 145.633 58.6647Z" fill="#423C59"/>
<path fill-rule="evenodd" clip-rule="evenodd" d="M153.146 54.0256C153.054 53.7946 152.903 51.1177 152.791 50.9016L144.047 50.9869L140.799 54.5699L142.026 54.8C142.921 53.8591 144.377 53.4338 145.757 53.7361C147.05 54.0197 148.207 54.6542 149.437 55.1033C150.181 55.375 150.953 55.5743 151.625 55.4999C152.427 55.4117 152.931 54.9328 153.146 54.0256Z" fill="#423C59"/>
<path d="M147.493 105.967C149.024 105.719 150.064 104.281 149.815 102.755C149.567 101.229 148.124 100.192 146.593 100.44C145.062 100.688 144.022 102.126 144.27 103.652C144.519 105.178 145.962 106.215 147.493 105.967Z" fill="#F9DF13"/>
<path fill-rule="evenodd" clip-rule="evenodd" d="M135.561 76.3221C134.3 75.7445 132.861 75.6899 131.56 76.1704C130.258 76.6508 129.202 77.6269 128.622 78.8839C128.546 79.0475 128.479 79.221 128.412 79.3886L120.257 99.9114C120.036 100.391 119.912 100.908 119.892 101.435C119.871 101.962 119.956 102.488 120.139 102.982C120.323 103.477 120.602 103.931 120.962 104.317C121.321 104.704 121.754 105.017 122.235 105.237C122.715 105.457 123.235 105.581 123.763 105.601C124.292 105.621 124.819 105.537 125.315 105.354C125.811 105.171 126.266 104.892 126.655 104.534C127.043 104.176 127.356 103.745 127.577 103.265L137.948 83.5982C138.01 83.4813 138.074 83.3603 138.128 83.2403C138.708 81.9836 138.764 80.5487 138.282 79.2512C137.801 77.9538 136.822 76.9002 135.561 76.3221Z" fill="#6C59AD"/>
<path d="M129.053 100.751C129.004 100.751 128.956 100.74 128.913 100.717C128.843 100.68 128.791 100.617 128.767 100.542C128.744 100.466 128.751 100.385 128.788 100.315L137.682 83.4606C137.744 83.3426 137.804 83.2266 137.856 83.1156C138.4 81.9301 138.451 80.5777 137.997 79.3549C137.543 78.1321 136.621 77.1388 135.433 76.5929C135.396 76.5775 135.362 76.5549 135.334 76.5264C135.306 76.4978 135.284 76.4639 135.27 76.4267C135.255 76.3895 135.248 76.3497 135.249 76.3098C135.25 76.2698 135.259 76.2305 135.276 76.1942C135.293 76.1578 135.317 76.1252 135.346 76.0983C135.376 76.0714 135.411 76.0507 135.449 76.0375C135.487 76.0243 135.527 76.0188 135.567 76.0214C135.607 76.024 135.646 76.0346 135.682 76.0525C137.013 76.6645 138.047 77.778 138.556 79.1487C139.065 80.5194 139.008 82.0355 138.398 83.3644C138.34 83.4883 138.276 83.6113 138.21 83.7372L129.316 100.592C129.291 100.64 129.253 100.68 129.207 100.708C129.16 100.736 129.107 100.751 129.053 100.751Z" fill="#4D3E82"/>
<path d="M121.421 97.2605C121.384 97.2603 121.347 97.2532 121.312 97.2396C121.239 97.2105 121.18 97.1535 121.148 97.0812C121.117 97.0089 121.116 96.9272 121.145 96.854L128.13 79.2846C128.159 79.2113 128.216 79.1525 128.289 79.1211C128.362 79.0898 128.444 79.0885 128.517 79.1176C128.591 79.1466 128.65 79.2036 128.681 79.2761C128.713 79.3485 128.714 79.4304 128.685 79.5038L121.699 97.0731C121.677 97.1284 121.639 97.1759 121.589 97.2093C121.54 97.2427 121.481 97.2605 121.421 97.2605Z" fill="#4D3E82"/>
<path fill-rule="evenodd" clip-rule="evenodd" d="M132.102 75.9999C131.039 77.0598 132.064 82.016 132.312 83.7838L135.409 105.781H158.669L160.739 90.6971C160.965 89.0533 161.398 86.538 161.705 83.9979C161.859 82.7199 162.026 81.3508 162.103 79.9855C162.18 78.6203 162.173 77.2601 161.974 75.9999L153.072 73.79C152.06 73.5323 150.837 72.4893 150.837 71.4482L149.783 74.1251L147.037 74.2709L144.291 74.1251L143.237 71.4482C143.237 72.4893 142.014 73.5303 141.002 73.79L132.102 75.9999Z" fill="#6C59AD"/>
<path fill-rule="evenodd" clip-rule="evenodd" d="M147.039 74.5743L141.219 73.7246L146.522 95.693C146.552 95.8067 146.619 95.9072 146.713 95.9789C146.806 96.0507 146.921 96.0896 147.039 96.0896C147.157 96.0896 147.272 96.0507 147.365 95.9789C147.459 95.9072 147.526 95.8067 147.556 95.693L152.859 73.7246L147.039 74.5743Z" fill="#D8D2F3"/>
<path fill-rule="evenodd" clip-rule="evenodd" d="M144.394 86.8761L146.522 95.693C146.552 95.8067 146.619 95.9073 146.713 95.979C146.806 96.0507 146.921 96.0896 147.039 96.0896C147.157 96.0896 147.272 96.0507 147.365 95.979C147.459 95.9073 147.526 95.8067 147.556 95.693L149.685 86.8761L147.706 78.7463L147.039 78.5044L146.373 78.7463L144.394 86.8761Z" fill="#FBC800"/>
<path fill-rule="evenodd" clip-rule="evenodd" d="M141.219 73.7247L143.239 71.4443C144.078 72.7332 145.474 73.6087 147.039 73.9557C148.605 73.6087 150 72.7302 150.839 71.4443L152.859 73.7247L152.625 74.6626L150.5 77.7142C150.45 77.7859 150.384 77.845 150.307 77.8868C150.23 77.9286 150.145 77.952 150.057 77.955C149.97 77.9581 149.883 77.9408 149.803 77.9045C149.723 77.8682 149.653 77.8139 149.598 77.7459L147.695 75.3913C147.616 75.2928 147.516 75.2134 147.402 75.1588C147.288 75.1042 147.163 75.0759 147.036 75.0759C146.909 75.0759 146.785 75.1042 146.67 75.1588C146.556 75.2134 146.456 75.2928 146.377 75.3913L144.477 77.7459C144.422 77.8139 144.352 77.8682 144.272 77.9045C144.193 77.9408 144.106 77.9581 144.018 77.955C143.93 77.952 143.845 77.9286 143.768 77.8868C143.691 77.845 143.625 77.7859 143.575 77.7142L141.45 74.6626L141.219 73.7247Z" fill="#FDFDFD"/>
<path fill-rule="evenodd" clip-rule="evenodd" d="M146.373 78.7491L145.334 76.6879L146.38 75.391C146.46 75.2926 146.56 75.2132 146.674 75.1586C146.788 75.104 146.913 75.0757 147.04 75.0757C147.166 75.0757 147.291 75.104 147.405 75.1586C147.52 75.2132 147.62 75.2926 147.699 75.391L148.745 76.6879L147.706 78.7491H146.373Z" fill="#F49500"/>
<path d="M149.118 95.7346C149.067 95.7347 149.016 95.7214 148.971 95.6961C148.926 95.6709 148.889 95.6344 148.862 95.5904C148.836 95.5464 148.821 95.4963 148.82 95.4449C148.818 95.3936 148.83 95.3428 148.855 95.2974L157.343 79.4829L155.2 77.848C155.154 77.8125 155.119 77.7642 155.099 77.7089C155.08 77.6537 155.078 77.5941 155.093 77.5375C155.107 77.4809 155.138 77.4299 155.182 77.3908C155.225 77.3517 155.279 77.3262 155.337 77.3176L158.452 76.8457C158.491 76.8398 158.531 76.8416 158.569 76.851C158.607 76.8604 158.643 76.8772 158.674 76.9004C158.706 76.9236 158.733 76.9528 158.753 76.9862C158.773 77.0197 158.787 77.0569 158.793 77.0955C158.798 77.1342 158.797 77.1736 158.787 77.2116C158.778 77.2496 158.761 77.2853 158.738 77.3168C158.714 77.3483 158.685 77.3749 158.652 77.3951C158.618 77.4153 158.581 77.4288 158.542 77.4346L156.121 77.8004L157.911 79.1647C157.967 79.2076 158.006 79.2689 158.021 79.3377C158.036 79.4065 158.026 79.4783 157.993 79.5404L149.381 95.575C149.356 95.6229 149.318 95.663 149.272 95.6911C149.226 95.7193 149.172 95.7343 149.118 95.7346ZM144.961 95.7346C144.907 95.7348 144.854 95.7203 144.807 95.6927C144.761 95.6651 144.723 95.6255 144.697 95.578L136.089 79.5404C136.056 79.4783 136.046 79.4065 136.061 79.3377C136.076 79.2689 136.115 79.2076 136.171 79.1647L137.961 77.8004L135.537 77.4316C135.459 77.4198 135.388 77.3774 135.341 77.3138C135.294 77.2503 135.275 77.1707 135.287 77.0926C135.298 77.0145 135.341 76.9443 135.405 76.8974C135.469 76.8506 135.548 76.8309 135.627 76.8427L138.742 77.3146C138.8 77.3234 138.854 77.349 138.897 77.3882C138.941 77.4273 138.971 77.4784 138.986 77.5349C139 77.5915 138.998 77.651 138.979 77.7062C138.96 77.7613 138.925 77.8096 138.878 77.8451L136.735 79.4799L145.224 95.2944C145.262 95.364 145.27 95.4455 145.247 95.521C145.224 95.5964 145.172 95.6597 145.102 95.697C145.059 95.721 145.01 95.7339 144.961 95.7346Z" fill="#4D3E82"/>
<path fill-rule="evenodd" clip-rule="evenodd" d="M146.588 120.35C146.819 121.674 146.679 123.036 146.182 124.286C145.685 125.535 144.851 126.624 143.772 127.43C142.209 128.6 140.739 128.886 138.854 128.885H123.288C120.738 128.916 118.383 127.03 118.297 124.416C118.155 120.153 121.272 119.296 124.631 118.321L137.93 114.454C138.888 114.263 139.874 114.265 140.831 114.46C141.788 114.654 142.696 115.037 143.503 115.586C144.309 116.136 144.998 116.84 145.527 117.658C146.057 118.476 146.418 119.391 146.588 120.35Z" fill="#604AA1"/>
<path d="M146.204 119.27C146.144 119.27 146.085 119.252 146.035 119.218C145.985 119.184 145.947 119.136 145.925 119.08C145.332 117.54 144.21 116.26 142.759 115.466C141.308 114.672 139.622 114.417 138 114.744L124.593 118.639C123.905 118.837 123.257 119.027 122.634 119.244C122.597 119.257 122.558 119.262 122.519 119.26C122.48 119.258 122.442 119.248 122.406 119.231C122.371 119.215 122.339 119.191 122.313 119.162C122.287 119.133 122.266 119.099 122.253 119.062C122.24 119.025 122.235 118.986 122.237 118.947C122.239 118.908 122.249 118.87 122.265 118.835C122.282 118.799 122.306 118.768 122.335 118.742C122.364 118.716 122.398 118.695 122.435 118.682C123.073 118.46 123.728 118.27 124.425 118.068L137.867 114.163C139.629 113.813 141.457 114.092 143.032 114.952C144.608 115.812 145.829 117.197 146.481 118.865C146.496 118.901 146.502 118.94 146.501 118.979C146.5 119.018 146.492 119.057 146.476 119.092C146.46 119.128 146.437 119.16 146.409 119.187C146.38 119.214 146.347 119.235 146.31 119.249C146.277 119.263 146.24 119.27 146.204 119.27Z" fill="#4D3E82"/>
<path fill-rule="evenodd" clip-rule="evenodd" d="M136.393 164.629L137.724 167.405C138.038 168.055 138.506 168.916 138.093 169.627C138.092 169.889 137.986 170.139 137.8 170.324C137.613 170.509 137.361 170.612 137.099 170.612H125.808C125.112 170.612 124.704 170.265 124.59 169.857C124.475 169.448 124.678 169.016 125.163 168.738L131.202 165.284L136.393 164.629Z" fill="#8068C1"/>
<path fill-rule="evenodd" clip-rule="evenodd" d="M138.029 170.611C138.074 170.611 138.118 170.601 138.158 170.581C138.198 170.561 138.232 170.532 138.258 170.495C138.285 170.459 138.302 170.418 138.308 170.374C138.315 170.33 138.311 170.285 138.297 170.242L138.098 169.626H124.559C124.558 169.703 124.568 169.781 124.59 169.856C124.704 170.264 125.117 170.611 125.808 170.611H138.029Z" fill="#B0A3E1"/>
<path fill-rule="evenodd" clip-rule="evenodd" d="M128.095 123.445L132.81 133.99C133.599 135.791 134.13 137.406 134.315 139.362L136.729 164.931C135.396 166.73 130.847 166.686 129.498 165.21L118.897 127.227C118.149 124.533 119.064 121.734 121.816 120.734C123.012 120.301 124.329 120.34 125.497 120.844C126.664 121.349 127.594 122.279 128.095 123.445Z" fill="#6C59AD"/>
<path d="M136.569 163.535C136.494 163.536 136.422 163.508 136.367 163.458C136.312 163.408 136.277 163.34 136.27 163.266L134.016 139.39C133.854 137.668 133.426 136.139 132.536 134.109L127.821 123.566C127.791 123.494 127.79 123.414 127.819 123.341C127.848 123.269 127.904 123.211 127.975 123.179C128.046 123.148 128.127 123.145 128.2 123.172C128.273 123.199 128.333 123.254 128.366 123.324L133.082 133.869C134 135.963 134.442 137.546 134.611 139.334L136.865 163.21C136.869 163.249 136.865 163.288 136.853 163.326C136.841 163.363 136.823 163.398 136.798 163.428C136.773 163.458 136.742 163.483 136.707 163.501C136.672 163.519 136.634 163.531 136.595 163.534L136.569 163.535Z" fill="#4D3E82"/>
<path fill-rule="evenodd" clip-rule="evenodd" d="M187.011 101.774C187.011 101.851 187.042 101.925 187.096 101.98C187.151 102.034 187.226 102.065 187.303 102.065H203.316C203.595 102.064 203.863 101.954 204.061 101.757C204.258 101.56 204.369 101.293 204.37 101.015V99.6796C204.37 99.401 204.259 99.134 204.061 98.9371C203.863 98.7402 203.595 98.6296 203.316 98.6296H187.303C187.226 98.6296 187.152 98.6602 187.097 98.7147C187.042 98.7691 187.011 98.843 187.011 98.9201V101.774Z" fill="#9E8ED6"/>
<path d="M190.888 99.0767H181.146V101.617H190.888V99.0767Z" fill="#EAE6F9"/>
<path fill-rule="evenodd" clip-rule="evenodd" d="M180.445 101.482C180.368 101.482 180.293 101.513 180.238 101.567C180.184 101.622 180.153 101.696 180.153 101.774C180.153 101.851 180.184 101.925 180.238 101.98C180.293 102.034 180.368 102.065 180.445 102.065H190.249C190.528 102.064 190.795 101.953 190.993 101.757C191.19 101.56 191.301 101.293 191.302 101.015V99.6796C191.302 99.4012 191.191 99.1343 190.993 98.9375C190.796 98.7406 190.528 98.6299 190.249 98.6296H180.445C180.405 98.6273 180.366 98.6331 180.328 98.6467C180.291 98.6603 180.256 98.6814 180.228 98.7086C180.199 98.7359 180.175 98.7687 180.16 98.8052C180.144 98.8416 180.136 98.8809 180.136 98.9206C180.136 98.9603 180.144 98.9996 180.16 99.0361C180.175 99.0726 180.199 99.1054 180.228 99.1327C180.256 99.1599 180.291 99.181 180.328 99.1946C180.366 99.2081 180.405 99.2139 180.445 99.2116H190.249C190.373 99.2127 190.492 99.2623 190.579 99.3499C190.667 99.4375 190.716 99.5559 190.717 99.6796V101.015C190.716 101.139 190.667 101.257 190.579 101.344C190.491 101.431 190.373 101.481 190.249 101.482H180.445Z" fill="#B0A3E1"/>
<path fill-rule="evenodd" clip-rule="evenodd" d="M182.406 100.165C182.381 100.163 182.356 100.167 182.332 100.175C182.309 100.183 182.287 100.196 182.268 100.214C182.25 100.231 182.235 100.251 182.225 100.274C182.215 100.297 182.21 100.322 182.21 100.347C182.21 100.372 182.215 100.397 182.225 100.42C182.235 100.443 182.25 100.464 182.268 100.481C182.287 100.498 182.309 100.511 182.332 100.519C182.356 100.528 182.381 100.531 182.406 100.529H188.772C188.818 100.526 188.861 100.505 188.892 100.471C188.924 100.438 188.941 100.393 188.941 100.347C188.941 100.301 188.924 100.257 188.892 100.223C188.861 100.189 188.818 100.169 188.772 100.165H182.406Z" fill="#D8D2F3"/>
<path fill-rule="evenodd" clip-rule="evenodd" d="M188.686 105.209C188.686 105.286 188.716 105.36 188.771 105.415C188.826 105.47 188.9 105.5 188.978 105.5H204.991C205.27 105.5 205.537 105.389 205.735 105.192C205.932 104.995 206.043 104.729 206.044 104.45V103.115C206.043 102.837 205.932 102.57 205.735 102.373C205.537 102.177 205.27 102.066 204.991 102.065H188.978C188.9 102.065 188.826 102.096 188.771 102.15C188.716 102.205 188.686 102.279 188.686 102.356V105.209Z" fill="#8773C7"/>
<path d="M192.562 102.512H182.819V105.052H192.562V102.512Z" fill="#D8D2F3"/>
<path fill-rule="evenodd" clip-rule="evenodd" d="M182.12 104.917C182.042 104.917 181.968 104.948 181.913 105.003C181.858 105.057 181.827 105.132 181.827 105.209C181.827 105.286 181.858 105.36 181.913 105.415C181.968 105.47 182.042 105.5 182.12 105.5H191.923C192.202 105.5 192.47 105.389 192.668 105.192C192.865 104.995 192.977 104.729 192.977 104.45V103.115C192.977 102.836 192.865 102.57 192.668 102.373C192.47 102.176 192.202 102.065 191.923 102.065H182.12C182.042 102.065 181.968 102.096 181.913 102.15C181.858 102.205 181.827 102.279 181.827 102.356C181.827 102.434 181.858 102.508 181.913 102.563C181.968 102.617 182.042 102.648 182.12 102.648H191.923C192.047 102.648 192.167 102.697 192.254 102.785C192.342 102.872 192.392 102.991 192.393 103.115V104.45C192.392 104.574 192.342 104.693 192.254 104.78C192.167 104.868 192.047 104.917 191.923 104.917H182.12Z" fill="#9E8ED6"/>
<path fill-rule="evenodd" clip-rule="evenodd" d="M184.076 103.606C184.03 103.609 183.987 103.63 183.955 103.663C183.924 103.697 183.906 103.742 183.906 103.788C183.906 103.834 183.924 103.878 183.955 103.912C183.987 103.946 184.03 103.966 184.076 103.97H190.441C190.466 103.971 190.491 103.968 190.515 103.96C190.539 103.951 190.561 103.938 190.579 103.921C190.598 103.904 190.612 103.884 190.622 103.861C190.632 103.838 190.638 103.813 190.638 103.788C190.638 103.763 190.632 103.738 190.622 103.715C190.612 103.692 190.598 103.671 190.579 103.654C190.561 103.637 190.539 103.624 190.515 103.616C190.491 103.607 190.466 103.604 190.441 103.606H184.076Z" fill="#C1B7E9"/>
<path fill-rule="evenodd" clip-rule="evenodd" d="M147.039 4.98877L289.871 97.4437C289.933 97.4818 289.978 97.5427 289.996 97.6133C290.014 97.6839 290.004 97.7588 289.968 97.8221C289.931 97.8853 289.872 97.932 289.801 97.9523C289.731 97.9725 289.656 97.9647 289.591 97.9305L147.039 26.8798L0 100.167L147.039 4.98877Z" fill="#E5E1F8"/>
<path d="M242.252 170.994H221.948C221.869 170.994 221.793 170.962 221.737 170.907C221.681 170.851 221.649 170.775 221.649 170.696C221.649 170.617 221.681 170.542 221.737 170.486C221.793 170.43 221.869 170.399 221.948 170.399H242.252C242.331 170.399 242.407 170.43 242.463 170.486C242.519 170.542 242.551 170.617 242.551 170.696C242.551 170.775 242.519 170.851 242.463 170.907C242.407 170.962 242.331 170.994 242.252 170.994Z" fill="#E5E0F8"/>
<path fill-rule="evenodd" clip-rule="evenodd" d="M229.486 120.878C226.999 132.721 228.299 146.623 235.699 163.124C227.33 157.123 219.9 146.943 216.371 136.231C214.15 129.489 212.664 120.061 216.813 113.731C220.452 108.179 228.376 108.438 229.747 114.665C230.179 116.626 229.906 118.88 229.486 120.878Z" fill="#E5E1F8"/>
<path fill-rule="evenodd" clip-rule="evenodd" d="M247.887 147.549C239.672 149.123 233.604 154.205 235.699 163.124C227.329 153.148 222.947 133.876 225.884 118.023C227.136 111.267 230.26 104.155 235.233 99.1054C238.174 96.1172 242.341 93.5405 246.67 92.6323C254.14 91.0629 261.047 95.2745 262.469 102.838C263.228 106.872 262.218 111.296 259.653 114.88C258.304 116.764 256.705 118.648 255.203 120.77C253.231 123.561 251.775 126.465 252.371 129.419C252.738 131.233 253.646 132.616 254.625 133.952C256.316 136.259 258.137 138.909 257.771 141.428C257.142 145.702 251.356 146.885 247.887 147.549Z" fill="#D8D2F3"/>
<path fill-rule="evenodd" clip-rule="evenodd" d="M231.761 145.967C230.856 138.955 231.625 131.07 234.085 123.576C236.958 114.822 242.141 106.596 249.66 100.913C249.685 100.889 249.716 100.871 249.749 100.859C249.782 100.848 249.817 100.843 249.852 100.846C249.887 100.849 249.921 100.859 249.952 100.876C249.983 100.893 250.01 100.916 250.031 100.944C250.052 100.972 250.068 101.004 250.076 101.038C250.084 101.072 250.085 101.107 250.079 101.141C250.073 101.176 250.059 101.209 250.039 101.237C250.02 101.266 249.994 101.291 249.964 101.309C242.531 106.927 237.405 115.066 234.561 123.731C232.407 130.295 231.561 137.159 232.014 143.46C232.439 141.966 233.328 140.592 234.493 139.416C236.425 137.466 239.122 136.059 241.707 135.56C241.776 135.546 241.839 135.535 241.896 135.525C241.962 135.513 242.03 135.528 242.085 135.566C242.14 135.605 242.177 135.663 242.189 135.729C242.201 135.794 242.186 135.862 242.147 135.917C242.109 135.972 242.051 136.009 241.985 136.021L241.804 136.054C239.317 136.536 236.713 137.893 234.85 139.772C233.501 141.135 232.392 142.958 232.264 144.908C232.219 145.583 232.296 146.229 232.42 147.015C232.662 148.581 233.004 150.13 233.446 151.653C233.46 151.715 233.45 151.78 233.417 151.836C233.385 151.891 233.332 151.931 233.271 151.949C233.209 151.967 233.143 151.961 233.086 151.932C233.029 151.902 232.985 151.853 232.964 151.793C232.598 150.536 232.299 149.261 232.069 147.974C231.965 147.39 231.811 146.572 231.761 145.967Z" fill="#E5E1F8"/>
<path fill-rule="evenodd" clip-rule="evenodd" d="M224.327 159.25H239.872L236.888 169.462C236.786 169.821 236.569 170.138 236.269 170.362C235.97 170.585 235.604 170.705 235.23 170.701H228.975C228.6 170.705 228.235 170.585 227.936 170.361C227.636 170.137 227.419 169.821 227.317 169.462L224.327 159.25Z" fill="#9E8ED6"/>
<path fill-rule="evenodd" clip-rule="evenodd" d="M222.663 156.902H241.537C241.595 156.901 241.652 156.916 241.703 156.944C241.754 156.971 241.797 157.011 241.828 157.06C241.859 157.108 241.878 157.164 241.882 157.222C241.886 157.279 241.875 157.337 241.851 157.389L240.695 159.914C240.667 159.974 240.623 160.024 240.567 160.06C240.511 160.095 240.446 160.113 240.38 160.112H223.819C223.753 160.113 223.688 160.095 223.632 160.06C223.577 160.024 223.532 159.974 223.505 159.914L222.348 157.389C222.324 157.337 222.314 157.279 222.318 157.222C222.322 157.164 222.341 157.109 222.372 157.06C222.404 157.012 222.447 156.972 222.497 156.944C222.548 156.916 222.605 156.902 222.663 156.902Z" fill="#B0A3E1"/>
<path d="M239.62 160.415H224.578C224.499 160.415 224.423 160.384 224.367 160.328C224.311 160.272 224.279 160.197 224.279 160.118C224.279 160.039 224.311 159.963 224.367 159.907C224.423 159.852 224.499 159.82 224.578 159.82H239.617C239.696 159.82 239.772 159.852 239.828 159.907C239.884 159.963 239.915 160.039 239.915 160.118C239.915 160.197 239.884 160.272 239.828 160.328C239.772 160.384 239.696 160.415 239.617 160.415H239.62Z" fill="#8773C7"/>
<path d="M235.358 168.824C235.33 168.824 235.302 168.82 235.275 168.812C235.199 168.789 235.136 168.737 235.099 168.668C235.062 168.599 235.053 168.518 235.076 168.443L235.316 167.62C235.339 167.544 235.39 167.48 235.459 167.443C235.529 167.405 235.61 167.396 235.686 167.418C235.762 167.44 235.826 167.491 235.864 167.56C235.902 167.629 235.911 167.711 235.889 167.787L235.649 168.61C235.63 168.672 235.592 168.727 235.54 168.765C235.487 168.804 235.423 168.825 235.358 168.824ZM228.841 168.824C228.776 168.824 228.713 168.803 228.662 168.764C228.61 168.726 228.572 168.671 228.554 168.61L228.314 167.787C228.303 167.749 228.299 167.71 228.303 167.671C228.308 167.632 228.319 167.595 228.338 167.56C228.357 167.526 228.383 167.496 228.413 167.471C228.444 167.447 228.479 167.429 228.516 167.418C228.554 167.407 228.593 167.403 228.632 167.408C228.671 167.412 228.709 167.424 228.743 167.443C228.778 167.461 228.808 167.487 228.833 167.517C228.857 167.548 228.875 167.583 228.886 167.62L229.127 168.443C229.149 168.518 229.141 168.599 229.104 168.668C229.067 168.737 229.003 168.789 228.928 168.812C228.9 168.82 228.87 168.824 228.841 168.824ZM236.002 166.632C235.973 166.632 235.945 166.628 235.918 166.62C235.843 166.597 235.78 166.545 235.742 166.476C235.705 166.407 235.697 166.326 235.719 166.251L237.035 161.754C237.057 161.678 237.109 161.614 237.178 161.576C237.247 161.538 237.329 161.529 237.405 161.551C237.481 161.574 237.545 161.625 237.583 161.694C237.621 161.763 237.63 161.845 237.608 161.92L236.292 166.417C236.274 166.48 236.235 166.535 236.182 166.574C236.129 166.613 236.065 166.633 236 166.632H236.002ZM228.201 166.632C228.137 166.632 228.074 166.611 228.022 166.572C227.97 166.533 227.933 166.479 227.915 166.417L226.599 161.92C226.577 161.845 226.586 161.763 226.624 161.694C226.662 161.625 226.726 161.574 226.802 161.551C226.878 161.529 226.959 161.538 227.029 161.576C227.098 161.614 227.15 161.678 227.172 161.754L228.488 166.251C228.51 166.326 228.501 166.407 228.464 166.476C228.427 166.545 228.364 166.597 228.289 166.62C228.26 166.628 228.229 166.632 228.199 166.632H228.201Z" fill="#B0A3E1"/>
<path d="M272.997 82.128C272.94 82.1277 272.883 82.1108 272.835 82.0794L214.618 44.3957C214.581 44.3766 214.548 44.35 214.522 44.3175C214.496 44.2851 214.477 44.2476 214.466 44.2073C214.456 44.1671 214.453 44.1251 214.46 44.084C214.467 44.0429 214.482 44.0037 214.505 43.9688C214.528 43.934 214.557 43.9043 214.592 43.8817C214.628 43.859 214.667 43.844 214.708 43.8375C214.749 43.831 214.792 43.8332 214.832 43.844C214.872 43.8547 214.91 43.8738 214.942 43.8999L273.16 81.5836C273.214 81.6185 273.256 81.67 273.278 81.7303C273.301 81.7906 273.303 81.8566 273.284 81.9182C273.266 81.9798 273.228 82.0339 273.176 82.0723C273.124 82.1106 273.062 82.1312 272.997 82.1309V82.128ZM21.0848 82.128C21.0202 82.1282 20.9574 82.1076 20.9056 82.0693C20.8538 82.0309 20.8159 81.9769 20.7975 81.9152C20.7791 81.8536 20.7813 81.7877 20.8037 81.7273C20.8261 81.667 20.8674 81.6156 20.9216 81.5807L146.877 0.0474887C146.925 0.0163321 146.981 -0.000244141 147.039 -0.000244141C147.096 -0.000244141 147.153 0.0163321 147.201 0.0474887L190.817 28.2798C190.874 28.3261 190.912 28.392 190.924 28.4647C190.935 28.5375 190.919 28.6119 190.879 28.6736C190.839 28.7353 190.777 28.7798 190.705 28.7987C190.634 28.8175 190.558 28.8092 190.492 28.7755L147.039 0.652268L21.2429 82.0794C21.1958 82.1101 21.141 82.1269 21.0848 82.128Z" fill="#E5E1F8"/>
<path fill-rule="evenodd" clip-rule="evenodd" d="M52.9214 170.611H73.9967V145.355C73.9968 145.3 73.9804 145.245 73.9494 145.199C73.9184 145.153 73.8743 145.117 73.8227 145.095C73.7711 145.074 73.7143 145.069 73.6596 145.08C73.6048 145.091 73.5546 145.118 73.5153 145.157L71.0129 147.652H67.2057L64.7033 145.157C64.664 145.118 64.6138 145.091 64.559 145.08C64.5043 145.069 64.4475 145.074 64.3959 145.095C64.3443 145.117 64.3002 145.153 64.2692 145.199C64.2382 145.245 64.2218 145.3 64.2219 145.355V152.931L54.3755 162.746C53.9062 163.201 53.5349 163.746 53.2845 164.349C53.0342 164.952 52.9099 165.6 52.9195 166.252L52.9214 170.611Z" fill="#E5E1F8"/>
<path fill-rule="evenodd" clip-rule="evenodd" d="M68.7919 169.031C68.7893 168.613 68.6213 168.213 68.3244 167.918C68.0275 167.622 67.6258 167.456 67.2065 167.454H52.9223C52.5018 167.454 52.0986 167.621 51.8013 167.917C51.5039 168.214 51.3369 168.616 51.3369 169.035C51.3369 169.454 51.5039 169.856 51.8013 170.152C52.0986 170.449 52.5018 170.615 52.9223 170.615H67.2065C67.6272 170.613 68.0301 170.446 68.3272 170.149C68.6243 169.852 68.7914 169.45 68.7919 169.031Z" fill="#D8D2F3"/>
<path fill-rule="evenodd" clip-rule="evenodd" d="M74.6182 167.514H70.8994V170.611H77.7243C77.7219 169.791 77.3939 169.004 76.812 168.424C76.23 167.844 75.4413 167.517 74.6182 167.514Z" fill="#E5E1F8"/>
<path d="M71.6331 110.167H25.3223V112.588H71.6331V110.167Z" fill="white"/>
<path d="M71.6327 112.887H25.3218C25.2427 112.887 25.1668 112.855 25.1108 112.799C25.0549 112.744 25.0234 112.668 25.0234 112.589V110.167C25.0234 110.088 25.0549 110.013 25.1108 109.957C25.1668 109.901 25.2427 109.87 25.3218 109.87H71.6327C71.7118 109.87 71.7877 109.901 71.8436 109.957C71.8996 110.013 71.931 110.088 71.931 110.167V112.589C71.931 112.668 71.8996 112.744 71.8436 112.799C71.7877 112.855 71.7118 112.887 71.6327 112.887ZM25.6202 112.292H71.3343V110.464H25.6202V112.292Z" fill="#D8D2F3"/>
<path fill-rule="evenodd" clip-rule="evenodd" d="M63.8698 101.821H59.6806V98.2359C59.6806 97.9203 59.5549 97.6177 59.331 97.3946C59.1072 97.1715 58.8036 97.0461 58.4871 97.0461H57.2876V98.0713C57.2944 98.5699 57.138 99.0572 56.8421 99.4593L54.2949 103.011V108.976C54.2965 109.291 54.4227 109.593 54.6462 109.816C54.8697 110.038 55.1724 110.164 55.4884 110.166H63.8668C64.1829 110.165 64.4858 110.039 64.7093 109.816C64.9328 109.593 65.059 109.291 65.0603 108.976V103.011C65.059 102.696 64.9333 102.395 64.7104 102.172C64.4875 101.949 64.1854 101.823 63.8698 101.821Z" fill="white"/>
<path d="M63.8703 110.464H55.4919C55.0962 110.464 54.7167 110.308 54.437 110.029C54.1572 109.75 54 109.372 54 108.977V103.011C53.9998 102.949 54.0189 102.889 54.0547 102.838L56.6018 99.2839C56.8613 98.9321 56.9976 98.505 56.9897 98.0684V97.0433C56.9897 96.9644 57.0212 96.8887 57.0771 96.833C57.1331 96.7772 57.209 96.7458 57.2881 96.7458H58.4816C58.8773 96.7458 59.2567 96.9025 59.5365 97.1814C59.8163 97.4603 59.9735 97.8386 59.9735 98.233V101.524H63.8643C64.26 101.524 64.6394 101.68 64.9192 101.959C65.199 102.238 65.3562 102.616 65.3562 103.011V108.976C65.3564 109.37 65.2002 109.747 64.9217 110.026C64.6431 110.305 64.2651 110.463 63.8703 110.464ZM54.5938 103.104V108.974C54.5938 109.211 54.6881 109.438 54.8559 109.605C55.0238 109.773 55.2515 109.867 55.4889 109.867H63.8673C64.1047 109.867 64.3324 109.773 64.5002 109.605C64.6681 109.438 64.7624 109.211 64.7624 108.974V103.011C64.7624 102.774 64.6681 102.547 64.5002 102.38C64.3324 102.212 64.1047 102.118 63.8673 102.118H59.6811C59.6019 102.118 59.526 102.087 59.4701 102.031C59.4141 101.976 59.3827 101.9 59.3827 101.821V98.236C59.3827 97.9993 59.2884 97.7724 59.1205 97.605C58.9526 97.4377 58.725 97.3437 58.4876 97.3437H57.5924V98.0714C57.5995 98.6311 57.4251 99.1781 57.0951 99.6309L54.5938 103.104Z" fill="#D8D2F3"/>
<path d="M54.2953 101.816H51.9014V110.168H54.2953V101.816Z" fill="white"/>
<path d="M54.2959 110.465H51.9019C51.8228 110.465 51.7469 110.433 51.6909 110.377C51.6349 110.322 51.6035 110.246 51.6035 110.167V101.821C51.6035 101.742 51.6349 101.667 51.6909 101.611C51.7469 101.555 51.8228 101.524 51.9019 101.524H54.2959C54.375 101.524 54.4509 101.555 54.5068 101.611C54.5628 101.667 54.5942 101.742 54.5942 101.821V110.172C54.5929 110.25 54.5609 110.324 54.5051 110.379C54.4493 110.434 54.3741 110.465 54.2959 110.465ZM52.2003 109.87H53.9975V102.119H52.2003V109.87Z" fill="#D8D2F3"/>
<path d="M46.0655 95.3171H42.9346V110.167H46.0655V95.3171Z" fill="white"/>
<path d="M46.0651 110.465H42.9341C42.855 110.465 42.7791 110.434 42.7231 110.378C42.6672 110.323 42.6357 110.247 42.6357 110.168V95.3172C42.6357 95.2383 42.6672 95.1627 42.7231 95.1069C42.7791 95.0511 42.855 95.0198 42.9341 95.0198H46.0651C46.1442 95.0198 46.2201 95.0511 46.2761 95.1069C46.332 95.1627 46.3634 95.2383 46.3634 95.3172V110.168C46.3634 110.247 46.332 110.323 46.2761 110.378C46.2201 110.434 46.1442 110.465 46.0651 110.465ZM43.2325 109.871H45.7667V95.6146H43.2325V109.871Z" fill="#D8D2F3"/>
<path d="M42.9347 95.3171H39.8037V110.167H42.9347V95.3171Z" fill="white"/>
<path d="M42.9342 110.465H39.8033C39.7241 110.465 39.6482 110.434 39.5923 110.378C39.5363 110.323 39.5049 110.247 39.5049 110.168V95.3172C39.5049 95.2383 39.5363 95.1627 39.5923 95.1069C39.6482 95.0511 39.7241 95.0198 39.8033 95.0198H42.9342C43.0133 95.0198 43.0892 95.0511 43.1452 95.1069C43.2012 95.1627 43.2326 95.2383 43.2326 95.3172V110.168C43.2326 110.247 43.2012 110.323 43.1452 110.378C43.0892 110.434 43.0133 110.465 42.9342 110.465ZM40.1016 109.871H42.6358V95.6146H40.1016V109.871Z" fill="#D8D2F3"/>
<path d="M37.092 95.7471L29.6436 108.607L32.355 110.168L39.8035 97.3076L37.092 95.7471Z" fill="white"/>
<path d="M32.3546 110.465C32.3021 110.466 32.2506 110.451 32.2054 110.425L29.4942 108.86C29.4602 108.841 29.4305 108.815 29.4066 108.784C29.3827 108.753 29.3651 108.718 29.3549 108.68C29.3448 108.642 29.3422 108.603 29.3473 108.564C29.3524 108.525 29.3651 108.488 29.3848 108.454L36.8332 95.5938C36.8528 95.5599 36.8789 95.5302 36.91 95.5064C36.9411 95.4826 36.9766 95.4651 37.0144 95.455C37.0523 95.4449 37.0918 95.4423 37.1307 95.4474C37.1696 95.4525 37.2071 95.4652 37.241 95.4847L39.9523 97.0452C39.9862 97.0648 40.016 97.0907 40.0399 97.1217C40.0638 97.1527 40.0813 97.1881 40.0915 97.2259C40.1016 97.2636 40.1042 97.303 40.0991 97.3418C40.094 97.3805 40.0813 97.4179 40.0617 97.4517L32.6132 110.312C32.5876 110.358 32.5502 110.396 32.5048 110.423C32.4593 110.45 32.4075 110.465 32.3546 110.465ZM30.0512 108.498L32.2452 109.761L39.3953 97.416L37.1972 96.1529L30.0512 108.498Z" fill="#D8D2F3"/>
<path d="M42.9347 98.9419H39.8037V99.5368H42.9347V98.9419Z" fill="#D8D2F3"/>
<path d="M42.9347 100.914H39.8037V101.509H42.9347V100.914Z" fill="#D8D2F3"/>
<path fill-rule="evenodd" clip-rule="evenodd" d="M147.512 120.35C147.28 121.674 147.421 123.036 147.918 124.286C148.415 125.535 149.249 126.623 150.327 127.43C151.891 128.6 153.36 128.886 155.246 128.885H170.812C173.362 128.916 175.717 127.03 175.804 124.416C175.945 120.153 172.828 119.296 169.469 118.321L156.17 114.454C155.213 114.263 154.226 114.265 153.269 114.46C152.312 114.654 151.404 115.037 150.597 115.587C149.791 116.136 149.102 116.84 148.572 117.658C148.042 118.476 147.682 119.391 147.512 120.35Z" fill="#604AA1"/>
<path d="M147.895 119.27C147.858 119.27 147.822 119.263 147.788 119.249C147.751 119.235 147.718 119.214 147.689 119.187C147.661 119.16 147.638 119.128 147.622 119.092C147.606 119.057 147.598 119.018 147.597 118.979C147.596 118.94 147.603 118.901 147.617 118.865C148.269 117.197 149.491 115.812 151.066 114.952C152.641 114.092 154.47 113.813 156.231 114.163L156.255 114.169L169.677 118.07C170.373 118.268 171.028 118.466 171.666 118.684C171.703 118.697 171.737 118.718 171.766 118.744C171.795 118.77 171.819 118.801 171.836 118.837C171.853 118.872 171.862 118.91 171.864 118.949C171.866 118.988 171.861 119.027 171.848 119.064C171.835 119.101 171.815 119.135 171.788 119.164C171.762 119.193 171.73 119.217 171.695 119.233C171.66 119.25 171.621 119.26 171.582 119.262C171.543 119.264 171.504 119.259 171.467 119.246C170.844 119.029 170.195 118.84 169.508 118.641L169.388 118.606L156.102 114.746C154.479 114.419 152.793 114.674 151.342 115.468C149.891 116.262 148.77 117.542 148.176 119.082C148.154 119.138 148.115 119.186 148.065 119.22C148.015 119.253 147.956 119.271 147.895 119.27Z" fill="#4D3E82"/>
<path fill-rule="evenodd" clip-rule="evenodd" d="M157.707 164.629L156.375 167.405C156.063 168.055 155.595 168.916 156.006 169.627C156.008 169.889 156.113 170.139 156.3 170.324C156.486 170.509 156.738 170.612 157.001 170.612H168.29C168.987 170.612 169.394 170.265 169.509 169.857C169.623 169.448 169.42 169.016 168.935 168.738L162.897 165.284L157.707 164.629Z" fill="#8068C1"/>
<path fill-rule="evenodd" clip-rule="evenodd" d="M156.071 170.611C156.027 170.611 155.983 170.601 155.943 170.581C155.903 170.56 155.869 170.531 155.843 170.495C155.817 170.459 155.799 170.417 155.793 170.374C155.786 170.33 155.789 170.285 155.803 170.242L156.002 169.626H169.537C169.538 169.703 169.527 169.781 169.506 169.856C169.392 170.264 168.979 170.611 168.288 170.611H156.071Z" fill="#B0A3E1"/>
<path fill-rule="evenodd" clip-rule="evenodd" d="M166.006 123.445L161.29 133.99C160.501 135.791 159.97 137.406 159.786 139.362L157.372 164.931C158.705 166.73 163.254 166.686 164.602 165.21L175.204 127.227C175.952 124.533 175.037 121.734 172.285 120.734C171.089 120.301 169.772 120.34 168.604 120.844C167.437 121.349 166.507 122.279 166.006 123.445Z" fill="#6C59AD"/>
<path d="M157.532 163.535H157.504C157.465 163.532 157.427 163.52 157.393 163.502C157.358 163.484 157.327 163.459 157.302 163.429C157.277 163.399 157.258 163.364 157.247 163.327C157.235 163.289 157.231 163.25 157.235 163.211L159.488 139.335C159.658 137.55 160.1 135.964 161.017 133.872L165.733 123.325C165.767 123.255 165.826 123.2 165.899 123.173C165.973 123.146 166.053 123.149 166.125 123.18C166.196 123.212 166.252 123.27 166.281 123.342C166.31 123.415 166.309 123.495 166.278 123.567L161.562 134.112C160.674 136.141 160.245 137.67 160.083 139.391L157.829 163.267C157.822 163.34 157.788 163.408 157.733 163.458C157.678 163.508 157.606 163.535 157.532 163.535Z" fill="#4D3E82"/>
<path fill-rule="evenodd" clip-rule="evenodd" d="M175.849 90.2895L178.189 91.5694L181.881 83.3127C182.117 82.7831 182.139 82.1833 181.942 81.6379C181.746 81.0926 181.347 80.6435 180.827 80.384C180.307 80.1244 179.707 80.0744 179.152 80.2443C178.596 80.4141 178.127 80.7908 177.843 81.2961L173.419 89.187L175.849 90.2895Z" fill="#FDAB91"/>
<path fill-rule="evenodd" clip-rule="evenodd" d="M173.894 103.121L181.834 84.6632C180.956 83.3506 178.137 82.0359 176.785 82.142L166.717 99.518C166.667 99.6062 166.618 99.6985 166.568 99.7887C166.106 100.739 166.038 101.832 166.379 102.832C166.72 103.832 167.442 104.658 168.389 105.13C169.336 105.603 170.432 105.686 171.439 105.359C172.447 105.033 173.285 104.324 173.772 103.387C173.815 103.301 173.853 103.209 173.894 103.121Z" fill="#6C59AD"/>
<path d="M167.613 98.2687C167.561 98.2687 167.509 98.255 167.464 98.2289C167.418 98.2028 167.381 98.1653 167.354 98.12C167.328 98.0748 167.314 98.0235 167.314 97.9713C167.314 97.9191 167.328 97.8678 167.354 97.8225L175.255 84.1862C175.295 84.1179 175.36 84.068 175.437 84.0475C175.513 84.0271 175.595 84.0377 175.663 84.0772C175.732 84.1166 175.782 84.1816 175.802 84.2578C175.823 84.3341 175.812 84.4153 175.773 84.4837L167.872 98.12C167.845 98.1652 167.808 98.2028 167.762 98.2289C167.717 98.255 167.665 98.2687 167.613 98.2687Z" fill="#4D3E82"/>
<path d="M134.129 96.9837C134.056 96.9844 133.986 96.9589 133.931 96.9118C133.876 96.8648 133.84 96.7994 133.83 96.7279L131.417 79.6682C131.408 79.5908 131.429 79.5127 131.477 79.4508C131.524 79.3889 131.594 79.3481 131.672 79.3372C131.749 79.3262 131.828 79.3461 131.891 79.3924C131.954 79.4388 131.996 79.5079 132.008 79.5849L134.421 96.6456C134.432 96.7237 134.412 96.803 134.364 96.866C134.316 96.9291 134.246 96.9707 134.167 96.9817L134.129 96.9837ZM159.911 96.9837C159.898 96.9847 159.885 96.9847 159.872 96.9837C159.833 96.9787 159.796 96.9661 159.762 96.9466C159.728 96.9271 159.698 96.901 159.674 96.87C159.65 96.839 159.632 96.8035 159.622 96.7657C159.612 96.7279 159.61 96.6884 159.615 96.6496L161.81 79.9488C161.813 79.9085 161.824 79.8692 161.843 79.8334C161.862 79.7976 161.888 79.7659 161.919 79.7404C161.951 79.7149 161.987 79.6961 162.026 79.6851C162.065 79.6741 162.106 79.6711 162.146 79.6764C162.186 79.6817 162.225 79.695 162.26 79.7157C162.295 79.7364 162.325 79.764 162.349 79.7967C162.373 79.8294 162.39 79.8666 162.398 79.9061C162.407 79.9455 162.408 79.9864 162.401 80.0261L160.207 96.725C160.197 96.7965 160.162 96.8621 160.108 96.9097C160.053 96.9573 159.983 96.9836 159.911 96.9837Z" fill="#4D3E82"/>
<path fill-rule="evenodd" clip-rule="evenodd" d="M185.739 74.7141L181.922 76.7961L178.262 79.4552C177.845 81.3389 179.831 84.0594 182.041 83.2504L186.868 81.1684L187.643 79.9549C187.799 79.7169 187.881 79.4382 187.879 79.1538L187.888 78.0295C187.89 77.8901 187.843 77.7546 187.755 77.646C187.668 77.5375 187.545 77.4627 187.408 77.4346L185.891 77.3722L185.515 76.4521L186.688 75.659L185.739 74.7141Z" fill="#F49275"/>
<path fill-rule="evenodd" clip-rule="evenodd" d="M184.84 76.463L187.758 74.9412L188.09 75.2683C188.244 75.4176 188.339 75.6165 188.359 75.8294C188.379 76.0423 188.322 76.2553 188.199 76.4303L186.943 78.2367L185.258 77.8401L184.84 76.463Z" fill="#F49275"/>
<path fill-rule="evenodd" clip-rule="evenodd" d="M185.59 71.3521H180.947C180.763 71.3521 180.585 71.4252 180.455 71.5553C180.324 71.6855 180.251 71.862 180.251 72.0461L180.26 82.1588C180.26 82.3428 180.333 82.5194 180.464 82.6495C180.594 82.7797 180.771 82.8528 180.956 82.8528H185.6C185.785 82.8528 185.962 82.7797 186.092 82.6495C186.223 82.5194 186.296 82.3428 186.296 82.1588L186.287 72.0461C186.287 71.9548 186.269 71.8645 186.234 71.7802C186.199 71.696 186.148 71.6194 186.083 71.555C186.018 71.4905 185.941 71.4394 185.857 71.4046C185.772 71.3698 185.681 71.3519 185.59 71.3521Z" fill="#7663B5"/>
<path fill-rule="evenodd" clip-rule="evenodd" d="M186.095 71.3521H181.451C181.266 71.3521 181.089 71.4252 180.959 71.5553C180.828 71.6855 180.755 71.862 180.755 72.0461L180.764 82.1588C180.764 82.3428 180.837 82.5194 180.968 82.6495C181.098 82.7797 181.275 82.8528 181.46 82.8528H186.104C186.288 82.8528 186.465 82.7797 186.596 82.6495C186.727 82.5194 186.8 82.3428 186.8 82.1588L186.791 72.0461C186.791 71.862 186.718 71.6855 186.587 71.5553C186.457 71.4252 186.279 71.3521 186.095 71.3521Z" fill="#9E8ED6"/>
<path fill-rule="evenodd" clip-rule="evenodd" d="M186.094 71.8032C186.158 71.8035 186.219 71.8288 186.265 71.8737C186.31 71.9186 186.336 71.9795 186.336 72.0432L186.346 82.1559C186.346 82.2198 186.32 82.281 186.275 82.3263C186.23 82.3716 186.168 82.3973 186.104 82.3978H181.461C181.397 82.3973 181.336 82.3717 181.29 82.3266C181.245 82.2816 181.219 82.2206 181.219 82.1568L181.209 72.0441C181.21 71.9804 181.235 71.9194 181.28 71.8744C181.326 71.8293 181.387 71.8037 181.451 71.8032H186.094Z" fill="#FDFDFD"/>
<path fill-rule="evenodd" clip-rule="evenodd" d="M186.095 71.8032H185.481C185.409 71.8032 185.34 71.8317 185.289 71.8825C185.238 71.9332 185.21 72.0021 185.21 72.0739V72.1928C185.209 72.2958 185.168 72.3945 185.095 72.4673C185.022 72.5402 184.923 72.5812 184.82 72.5815H182.731C182.628 72.5815 182.528 72.5406 182.455 72.4677C182.382 72.3948 182.341 72.296 182.34 72.1928V72.0778C182.34 72.0061 182.311 71.9374 182.26 71.8867C182.21 71.836 182.141 71.8074 182.069 71.8072H181.454V71.4691L186.098 71.4641L186.095 71.8032Z" fill="#9E8ED6"/>
<path fill-rule="evenodd" clip-rule="evenodd" d="M183.775 73.6641C184.087 73.6637 184.393 73.7557 184.653 73.9285C184.913 74.1014 185.116 74.3472 185.236 74.635C185.356 74.9228 185.388 75.2395 185.327 75.5452C185.266 75.8509 185.116 76.1318 184.895 76.3524C184.674 76.5729 184.393 76.7233 184.086 76.7843C183.78 76.8454 183.462 76.8144 183.173 76.6954C182.884 76.5764 182.637 76.3746 182.463 76.1156C182.289 75.8567 182.196 75.5521 182.196 75.2405C182.196 74.8228 182.362 74.4221 182.658 74.1265C182.954 73.8309 183.356 73.6646 183.775 73.6641Z" fill="#D8D2F3"/>
<path fill-rule="evenodd" clip-rule="evenodd" d="M185.319 77.5356H182.236C182.182 77.5356 182.13 77.557 182.092 77.595C182.054 77.6331 182.032 77.6846 182.032 77.7384C182.032 77.7922 182.054 77.8437 182.092 77.8818C182.13 77.9198 182.182 77.9411 182.236 77.9411H185.319C185.373 77.9411 185.425 77.9198 185.463 77.8818C185.501 77.8437 185.522 77.7922 185.522 77.7384C185.522 77.6846 185.501 77.6331 185.463 77.595C185.425 77.557 185.373 77.5356 185.319 77.5356Z" fill="#D8D2F3"/>
<path fill-rule="evenodd" clip-rule="evenodd" d="M185.32 78.3645H182.237C182.183 78.3645 182.131 78.3859 182.093 78.4239C182.055 78.4619 182.033 78.5135 182.033 78.5673C182.033 78.621 182.055 78.6726 182.093 78.7106C182.131 78.7486 182.183 78.77 182.237 78.77H185.32C185.374 78.77 185.425 78.7486 185.464 78.7106C185.502 78.6726 185.523 78.621 185.523 78.5673C185.523 78.5135 185.502 78.4619 185.464 78.4239C185.425 78.3859 185.374 78.3645 185.32 78.3645Z" fill="#D8D2F3"/>
<path fill-rule="evenodd" clip-rule="evenodd" d="M184.338 80.2483H183.225C183.187 80.246 183.149 80.2515 183.114 80.2644C183.078 80.2772 183.045 80.2972 183.018 80.3231C182.99 80.3489 182.968 80.3801 182.953 80.4148C182.938 80.4494 182.931 80.4867 182.931 80.5244C182.931 80.5621 182.938 80.5995 182.953 80.6341C182.968 80.6687 182.99 80.6999 183.018 80.7258C183.045 80.7516 183.078 80.7716 183.114 80.7845C183.149 80.7973 183.187 80.8028 183.225 80.8005H184.339C184.409 80.7963 184.476 80.7654 184.524 80.7141C184.573 80.6628 184.6 80.5949 184.6 80.5244C184.6 80.4539 184.573 80.3861 184.524 80.3348C184.476 80.2834 184.409 80.2525 184.339 80.2483H184.338Z" fill="#D8D2F3"/>
<path fill-rule="evenodd" clip-rule="evenodd" d="M184.764 79.1348H182.796C182.742 79.1348 182.69 79.1562 182.652 79.1943C182.613 79.2324 182.592 79.2841 182.592 79.338C182.592 79.3919 182.613 79.4436 182.652 79.4817C182.69 79.5198 182.742 79.5413 182.796 79.5413H184.764C184.818 79.5413 184.87 79.5199 184.908 79.4819C184.946 79.4439 184.967 79.3923 184.967 79.3385C184.967 79.2847 184.946 79.2332 184.908 79.1951C184.87 79.1571 184.818 79.1358 184.764 79.1358V79.1348Z" fill="#D8D2F3"/>
<path fill-rule="evenodd" clip-rule="evenodd" d="M186.865 81.1604L187.639 79.9469C187.796 79.7089 187.878 79.4302 187.876 79.1458L187.885 78.0215C187.887 77.8821 187.84 77.7465 187.752 77.638C187.664 77.5294 187.542 77.4547 187.405 77.4266L186.219 77.1738C186.082 77.1428 185.94 77.1447 185.805 77.1791C185.669 77.2136 185.543 77.2797 185.438 77.3721L184.262 78.3734C184.321 78.7046 184.508 78.9068 184.92 78.9326C184.323 79.23 184.522 80.1223 185.291 80.0519L186.752 79.9082C186.8 79.9035 186.849 79.9104 186.894 79.9283C186.939 79.9461 186.979 79.9744 187.01 80.0108C187.042 80.0472 187.065 80.0906 187.076 80.1374C187.088 80.1842 187.088 80.2331 187.076 80.28L186.865 81.1604Z" fill="#FDAB91"/>
<path fill-rule="evenodd" clip-rule="evenodd" d="M187.358 74.7785C187.258 74.7785 187.16 74.8045 187.073 74.8538L185.554 75.7184C185.466 75.7677 185.395 75.8439 185.352 75.936C185.31 76.028 185.298 76.1311 185.318 76.2304C185.338 76.3297 185.39 76.4201 185.465 76.4884C185.54 76.5568 185.634 76.5996 185.735 76.6107C185.869 76.608 186.001 76.5741 186.119 76.5115L187.589 75.8612C187.711 75.8095 187.81 75.7174 187.871 75.6007C187.932 75.4839 187.951 75.3496 187.923 75.2209C187.896 75.0921 187.825 74.9768 187.721 74.8947C187.618 74.8126 187.49 74.7687 187.358 74.7706V74.7785Z" fill="#FDAB91"/>
<path fill-rule="evenodd" clip-rule="evenodd" d="M179.043 74.58L178.393 76.2348C178.317 76.4241 178.275 76.6256 178.269 76.8296L178.169 79.3727C178.121 82.1289 181.301 82.1824 181.719 79.5591C181.908 78.3753 181.403 76.9258 180.327 76.1376L180.469 74.7496C181.029 73.7869 181.234 72.8559 180.601 72.1094L179.334 73.9723C179.15 74.2499 179.186 74.2162 179.043 74.58Z" fill="#FDAB91"/>
<path fill-rule="evenodd" clip-rule="evenodd" d="M187.058 73.0593C186.959 73.0759 186.867 73.1183 186.79 73.1822L186.111 73.8465C186.031 73.9098 185.973 73.9972 185.946 74.0958C185.919 74.1943 185.924 74.2989 185.961 74.3942C185.998 74.4895 186.065 74.5704 186.151 74.6251C186.238 74.6798 186.34 74.7054 186.442 74.6981C186.573 74.6729 186.697 74.6176 186.803 74.5365L187.472 74.0904C187.581 74.0184 187.661 73.9111 187.7 73.7866C187.739 73.6621 187.734 73.5281 187.685 73.407C187.637 73.286 187.548 73.1853 187.434 73.1219C187.319 73.0586 187.187 73.0365 187.058 73.0593Z" fill="#FDAB91"/>
<path fill-rule="evenodd" clip-rule="evenodd" d="M144.696 66.0479C145.639 67.9713 148.505 67.9713 149.448 66.0479C149.458 66.0267 149.462 66.0034 149.46 65.9802C149.458 65.957 149.451 65.9345 149.438 65.9149C149.426 65.8953 149.409 65.879 149.388 65.8676C149.368 65.8562 149.345 65.85 149.322 65.8496H144.822C144.799 65.85 144.776 65.8562 144.756 65.8676C144.735 65.879 144.718 65.8953 144.706 65.9149C144.693 65.9345 144.686 65.957 144.684 65.9802C144.682 66.0034 144.686 66.0267 144.696 66.0479Z" fill="#FDFDFD"/>
<path fill-rule="evenodd" clip-rule="evenodd" d="M92.6849 107.626H91.3919H89.4873L90.1835 170.611H91.9887L92.6849 107.626Z" fill="#C1B7E9"/>
<path fill-rule="evenodd" clip-rule="evenodd" d="M92.6849 107.626H91.3919H89.4873L89.542 112.512L92.6113 114.279L92.6849 107.626Z" fill="#B0A3E1"/>
<path fill-rule="evenodd" clip-rule="evenodd" d="M201.394 107.626H202.687H204.591L203.895 170.611H202.09L201.394 107.626Z" fill="#C1B7E9"/>
<path fill-rule="evenodd" clip-rule="evenodd" d="M201.394 107.626H202.687H204.591L204.536 112.512L201.467 114.279L201.394 107.626Z" fill="#B0A3E1"/>
<path d="M208.649 105.5H85.4302C85.2352 105.5 85.0771 105.658 85.0771 105.852V108.526C85.0771 108.721 85.2352 108.878 85.4302 108.878H208.649C208.844 108.878 209.002 108.721 209.002 108.526V105.852C209.002 105.658 208.844 105.5 208.649 105.5Z" fill="#D8D2F3"/>
<path d="M205.618 109.176H88.4615C88.3823 109.176 88.3064 109.145 88.2505 109.089C88.1945 109.034 88.1631 108.958 88.1631 108.879C88.1631 108.8 88.1945 108.724 88.2505 108.669C88.3064 108.613 88.3823 108.582 88.4615 108.582H205.618C205.697 108.582 205.773 108.613 205.829 108.669C205.885 108.724 205.916 108.8 205.916 108.879C205.916 108.958 205.885 109.034 205.829 109.089C205.773 109.145 205.697 109.176 205.618 109.176Z" fill="#9E8ED6"/>
<path fill-rule="evenodd" clip-rule="evenodd" d="M142.908 105.479L144.288 100.714L149.621 101.397C149.779 101.416 149.933 101.46 150.077 101.527L156.389 104.402C156.242 104.95 155.685 105.499 154.843 105.499H144.897L142.908 105.479Z" fill="#FDAB91"/>
<path d="M203.58 75.279C203.54 75.279 203.5 75.2709 203.464 75.2553C201.374 74.3761 199.591 72.902 198.338 71.0174C197.084 69.1329 196.417 66.9217 196.418 64.6607C196.418 64.5818 196.449 64.5062 196.505 64.4504C196.561 64.3946 196.637 64.3633 196.716 64.3633C196.795 64.3633 196.871 64.3946 196.927 64.4504C196.983 64.5062 197.015 64.5818 197.015 64.6607C197.016 66.8042 197.651 68.8999 198.839 70.6865C200.027 72.4731 201.716 73.8717 203.696 74.708C203.76 74.7348 203.812 74.7826 203.844 74.8433C203.875 74.9039 203.885 74.9737 203.872 75.0408C203.858 75.108 203.822 75.1683 203.768 75.2117C203.715 75.2551 203.649 75.2789 203.58 75.279ZM215.9 72.8788C215.841 72.8791 215.783 72.8619 215.733 72.8292C215.684 72.7965 215.645 72.75 215.623 72.6954C215.6 72.6408 215.594 72.5808 215.606 72.5228C215.617 72.4649 215.646 72.4118 215.688 72.3702C216.739 71.3655 217.577 70.1619 218.155 68.83C218.733 67.498 219.039 66.0645 219.054 64.6134C219.069 63.1622 218.794 61.7227 218.243 60.379C217.693 59.0354 216.88 57.8148 215.85 56.7886C214.821 55.7624 213.596 54.9514 212.248 54.403C210.901 53.8546 209.456 53.5799 208.001 53.5949C206.545 53.61 205.107 53.9145 203.771 54.4907C202.435 55.0668 201.227 55.903 200.219 56.9503C200.163 57.0061 200.087 57.0375 200.008 57.0375C199.929 57.0375 199.853 57.0061 199.797 56.9503C199.741 56.8944 199.709 56.8186 199.709 56.7396C199.709 56.6606 199.741 56.5848 199.797 56.5289C200.858 55.4181 202.131 54.5302 203.542 53.9174C204.952 53.3046 206.472 52.9793 208.01 52.9606C209.549 52.9419 211.076 53.2302 212.501 53.8085C213.926 54.3869 215.221 55.2436 216.309 56.3282C217.397 57.4128 218.257 58.7035 218.837 60.1242C219.417 61.5448 219.706 63.0669 219.687 64.6007C219.669 66.1344 219.342 67.649 218.728 69.0552C218.113 70.4613 217.222 71.7307 216.108 72.7885C216.053 72.8447 215.978 72.8771 215.9 72.8788Z" fill="#C1B7E9"/>
<path d="M214.165 70.8528C217.596 67.4328 217.596 61.888 214.165 58.468C210.735 55.048 205.172 55.048 201.741 58.468C198.311 61.888 198.311 67.4328 201.741 70.8528C205.172 74.2728 210.735 74.2728 214.165 70.8528Z" fill="white"/>
<path d="M207.954 73.7147C206.157 73.7149 204.401 73.1839 202.907 72.1891C201.413 71.1942 200.248 69.78 199.561 68.1254C198.873 66.4708 198.693 64.6501 199.044 62.8936C199.394 61.137 200.259 59.5235 201.53 58.2571C202.8 56.9907 204.419 56.1283 206.181 55.7789C207.943 55.4296 209.769 55.609 211.429 56.2944C213.089 56.9799 214.508 58.1406 215.506 59.6298C216.504 61.1191 217.036 62.8699 217.036 64.6608C217.033 67.0612 216.075 69.3624 214.373 71.0597C212.67 72.757 210.362 73.7118 207.954 73.7147ZM207.954 56.2008C206.275 56.2006 204.634 56.6966 203.238 57.6261C201.843 58.5556 200.755 59.8768 200.112 61.4226C199.47 62.9685 199.301 64.6695 199.629 66.3107C199.956 67.9518 200.764 69.4593 201.951 70.6426C203.138 71.8258 204.65 72.6316 206.297 72.9582C207.943 73.2847 209.649 73.1172 211.2 72.4769C212.751 71.8366 214.077 70.7523 215.009 69.361C215.942 67.9698 216.439 66.3341 216.439 64.6608C216.437 62.4181 215.542 60.2679 213.951 58.682C212.36 57.096 210.204 56.2037 207.954 56.2008Z" fill="#B0A3E1"/>
<path fill-rule="evenodd" clip-rule="evenodd" d="M202.1 71.1855C203.71 72.6215 205.795 73.4154 207.956 73.4154C210.117 73.4154 212.202 72.6215 213.813 71.1855V68.351C212.202 66.9144 210.117 66.1201 207.956 66.1201C205.795 66.1201 203.71 66.9144 202.1 68.351V71.1855Z" fill="#B0A3E1"/>
<path d="M207.952 73.7145C205.719 73.7151 203.564 72.8939 201.9 71.4084C201.869 71.3806 201.844 71.3465 201.827 71.3084C201.81 71.2703 201.801 71.2291 201.801 71.1873V68.3508C201.801 68.3091 201.81 68.2678 201.827 68.2297C201.844 68.1916 201.869 68.1576 201.9 68.1297C203.565 66.6441 205.721 65.8228 207.956 65.8228C210.19 65.8228 212.346 66.6441 214.011 68.1297C214.043 68.1576 214.067 68.1916 214.085 68.2297C214.102 68.2678 214.111 68.3091 214.111 68.3508V71.1853C214.111 71.2271 214.102 71.2684 214.085 71.3064C214.067 71.3445 214.043 71.3786 214.011 71.4064C212.346 72.8942 210.188 73.7162 207.952 73.7145ZM202.398 71.0525C203.94 72.3857 205.914 73.1197 207.956 73.1197C209.998 73.1197 211.971 72.3857 213.514 71.0525V68.4856C211.971 67.1518 209.998 66.4175 207.956 66.4175C205.914 66.4175 203.94 67.1518 202.398 68.4856V71.0525Z" fill="#B0A3E1"/>
<path d="M207.953 64.174C209.571 64.174 210.882 62.8672 210.882 61.2552C210.882 59.6432 209.571 58.3364 207.953 58.3364C206.336 58.3364 205.025 59.6432 205.025 61.2552C205.025 62.8672 206.336 64.174 207.953 64.174Z" fill="#B0A3E1"/>
<path d="M207.954 64.4723C207.316 64.4725 206.692 64.284 206.161 63.9306C205.63 63.5772 205.216 63.0748 204.972 62.4869C204.727 61.8991 204.663 61.2522 204.787 60.628C204.912 60.0039 205.219 59.4305 205.671 58.9805C206.122 58.5305 206.697 58.224 207.323 58.0997C207.949 57.9755 208.598 58.0392 209.188 58.2826C209.778 58.5261 210.282 58.9385 210.636 59.4676C210.991 59.9967 211.18 60.6187 211.18 61.2551C211.179 62.1078 210.839 62.9254 210.234 63.5285C209.63 64.1316 208.809 64.471 207.954 64.4723ZM207.954 58.6337C207.434 58.6335 206.925 58.7872 206.492 59.0752C206.059 59.3633 205.722 59.7729 205.523 60.2521C205.324 60.7313 205.271 61.2586 205.373 61.7674C205.474 62.2762 205.725 62.7436 206.093 63.1104C206.461 63.4772 206.93 63.7269 207.44 63.8281C207.95 63.9292 208.479 63.8772 208.96 63.6786C209.441 63.48 209.852 63.1437 210.141 62.7124C210.43 62.281 210.584 61.7738 210.584 61.2551C210.583 60.5601 210.306 59.8938 209.813 59.4024C209.32 58.9109 208.651 58.6345 207.954 58.6337Z" fill="#B0A3E1"/>
<path d="M154.152 32.733C158.081 28.8167 158.081 22.467 154.152 18.5507C150.224 14.6343 143.854 14.6343 139.925 18.5507C135.996 22.467 135.996 28.8167 139.925 32.733C143.854 36.6494 150.224 36.6494 154.152 32.733Z" fill="white"/>
<path d="M147.039 35.9674C144.991 35.9674 142.988 35.3618 141.284 34.2272C139.581 33.0926 138.253 31.4799 137.469 29.5931C136.685 27.7063 136.48 25.6301 136.88 23.6271C137.279 21.624 138.266 19.7842 139.715 18.3401C141.163 16.896 143.009 15.9125 145.018 15.5141C147.028 15.1157 149.111 15.3201 151.003 16.1017C152.896 16.8832 154.514 18.2067 155.652 19.9048C156.79 21.6029 157.398 23.5993 157.398 25.6415C157.395 28.3792 156.302 31.0038 154.36 32.9396C152.418 34.8753 149.786 35.9643 147.039 35.9674ZM147.039 15.9105C145.109 15.9105 143.221 16.4813 141.616 17.5505C140.011 18.6198 138.759 20.1395 138.02 21.9177C137.282 23.6958 137.088 25.6523 137.465 27.54C137.842 29.4276 138.771 31.1615 140.137 32.5224C141.502 33.8833 143.241 34.8101 145.135 35.1856C147.028 35.561 148.991 35.3683 150.775 34.6318C152.559 33.8953 154.083 32.6481 155.156 31.0478C156.229 29.4475 156.801 27.5662 156.801 25.6415C156.798 23.0616 155.769 20.5882 153.939 18.7639C152.109 16.9396 149.627 15.9134 147.039 15.9105Z" fill="#B0A3E1"/>
<path fill-rule="evenodd" clip-rule="evenodd" d="M140.336 33.114C142.18 34.7594 144.568 35.6691 147.042 35.6691C149.517 35.6691 151.905 34.7594 153.749 33.114V29.868C151.905 28.2233 149.517 27.314 147.042 27.314C144.568 27.314 142.18 28.2233 140.336 29.868V33.114Z" fill="#B0A3E1"/>
<path d="M147.039 35.9675C144.492 35.9678 142.034 35.0313 140.137 33.3372C140.105 33.3094 140.08 33.2753 140.063 33.2372C140.046 33.1991 140.037 33.1579 140.037 33.1161V29.8681C140.037 29.8262 140.046 29.7848 140.063 29.7465C140.08 29.7082 140.105 29.674 140.137 29.6461C142.036 27.9528 144.494 27.0166 147.042 27.0166C149.59 27.0166 152.048 27.9528 153.947 29.6461C153.979 29.674 154.004 29.7082 154.021 29.7465C154.038 29.7848 154.047 29.8262 154.047 29.8681V33.1141C154.047 33.1559 154.038 33.1971 154.021 33.2352C154.004 33.2733 153.979 33.3074 153.947 33.3352C152.049 35.0314 149.589 35.9688 147.039 35.9675ZM140.634 32.9813C142.41 34.5233 144.686 35.3727 147.042 35.3727C149.398 35.3727 151.674 34.5233 153.45 32.9813V30.002C151.673 28.4605 149.397 27.6115 147.042 27.6115C144.687 27.6115 142.411 28.4605 140.634 30.002V32.9813Z" fill="#B0A3E1"/>
<path d="M147.039 25.0855C148.892 25.0855 150.393 23.5887 150.393 21.7423C150.393 19.8959 148.892 18.3992 147.039 18.3992C145.187 18.3992 143.686 19.8959 143.686 21.7423C143.686 23.5887 145.187 25.0855 147.039 25.0855Z" fill="#B0A3E1"/>
<path d="M147.04 25.3808C146.317 25.3808 145.611 25.1672 145.011 24.7672C144.41 24.3672 143.942 23.7986 143.666 23.1334C143.389 22.4681 143.317 21.7361 143.458 21.0299C143.599 20.3237 143.947 19.6751 144.457 19.1659C144.968 18.6568 145.619 18.31 146.327 18.1696C147.036 18.0291 147.77 18.1012 148.437 18.3767C149.105 18.6523 149.675 19.1189 150.076 19.7176C150.478 20.3163 150.692 21.0201 150.692 21.7402C150.691 22.7054 150.306 23.6308 149.621 24.3133C148.936 24.9958 148.008 25.3797 147.04 25.3808ZM147.04 18.6955C146.435 18.6955 145.845 18.8741 145.342 19.2088C144.84 19.5435 144.448 20.0193 144.217 20.5759C143.986 21.1325 143.925 21.7449 144.043 22.3357C144.161 22.9266 144.452 23.4693 144.88 23.8952C145.307 24.3211 145.852 24.6111 146.444 24.7285C147.037 24.8459 147.651 24.7854 148.21 24.5548C148.768 24.3241 149.245 23.9336 149.581 23.4326C149.916 22.9316 150.095 22.3426 150.095 21.7402C150.094 20.9332 149.771 20.1597 149.198 19.5893C148.626 19.019 147.849 18.6982 147.04 18.6974V18.6955Z" fill="#B0A3E1"/>
<path d="M147.04 38.3974C143.815 38.4007 140.709 37.1859 138.347 34.9978C138.289 34.9441 138.255 34.8697 138.252 34.7909C138.249 34.712 138.277 34.6352 138.331 34.5774C138.385 34.5195 138.459 34.4854 138.539 34.4824C138.618 34.4794 138.695 34.5079 138.753 34.5615C141.008 36.6455 143.969 37.8035 147.045 37.8035C150.12 37.8035 153.081 36.6455 155.336 34.5615C155.394 34.5079 155.471 34.4794 155.551 34.4824C155.63 34.4854 155.704 34.5195 155.758 34.5774C155.812 34.6352 155.84 34.712 155.837 34.7909C155.834 34.8697 155.8 34.9441 155.742 34.9978C153.378 37.1882 150.268 38.4032 147.04 38.3974ZM159.273 28.483C159.252 28.4831 159.231 28.4808 159.211 28.4761C159.134 28.4598 159.066 28.4138 159.023 28.3481C158.98 28.2823 158.965 28.2021 158.981 28.1251C159.35 26.3558 159.319 24.5268 158.89 22.771C158.461 21.0152 157.645 19.3768 156.501 17.9749C155.357 16.573 153.914 15.4429 152.277 14.6667C150.639 13.8905 148.849 13.4877 147.037 13.4877C145.224 13.4877 143.434 13.8905 141.797 14.6667C140.159 15.4429 138.716 16.573 137.573 17.9749C136.429 19.3768 135.612 21.0152 135.183 22.771C134.754 24.5268 134.723 26.3558 135.093 28.1251C135.105 28.2009 135.088 28.2787 135.045 28.3422C135.001 28.4056 134.935 28.4498 134.859 28.4654C134.784 28.4811 134.705 28.467 134.64 28.4261C134.574 28.3852 134.527 28.3206 134.509 28.246C134.121 26.3901 134.154 24.4715 134.603 22.6296C135.053 20.7876 135.909 19.0688 137.109 17.5981C138.309 16.1274 139.822 14.9418 141.54 14.1275C143.257 13.3131 145.135 12.8906 147.037 12.8906C148.938 12.8906 150.816 13.3131 152.533 14.1275C154.251 14.9418 155.764 16.1274 156.964 17.5981C158.164 19.0688 159.02 20.7876 159.47 22.6296C159.92 24.4715 159.952 26.3901 159.564 28.246C159.552 28.3133 159.516 28.3741 159.463 28.4182C159.411 28.4622 159.345 28.4869 159.276 28.488L159.273 28.483Z" fill="#C1B7E9"/>
<path d="M179.776 46.0783C181.519 45.7962 182.703 44.1589 182.42 42.4213C182.137 40.6836 180.494 39.5036 178.751 39.7857C177.008 40.0677 175.824 41.705 176.107 43.4427C176.39 45.1803 178.033 46.3603 179.776 46.0783Z" fill="white"/>
<path d="M179.262 46.4252C178.57 46.4252 177.894 46.2208 177.319 45.8378C176.744 45.4549 176.296 44.9106 176.032 44.2739C175.767 43.6371 175.698 42.9364 175.833 42.2604C175.968 41.5844 176.301 40.9634 176.79 40.476C177.278 39.9887 177.901 39.6568 178.58 39.5223C179.258 39.3878 179.961 39.4568 180.599 39.7206C181.238 39.9844 181.784 40.431 182.168 41.0041C182.553 41.5772 182.758 42.251 182.758 42.9402C182.757 43.8642 182.388 44.75 181.732 45.4033C181.077 46.0566 180.188 46.4241 179.262 46.4252ZM179.262 40.0502C178.688 40.0502 178.128 40.2197 177.651 40.5372C177.174 40.8548 176.802 41.3062 176.583 41.8343C176.364 42.3624 176.306 42.9434 176.418 43.5041C176.53 44.0647 176.806 44.5796 177.212 44.9838C177.617 45.388 178.134 45.6632 178.696 45.7748C179.258 45.8863 179.841 45.829 180.371 45.6103C180.901 45.3916 181.354 45.0211 181.672 44.5459C181.991 44.0706 182.161 43.5118 182.161 42.9402C182.159 42.1746 181.853 41.4408 181.31 40.8998C180.766 40.3588 180.03 40.0547 179.262 40.0542V40.0502Z" fill="#C1B7E9"/>
<path d="M179.262 44.7537C179.183 44.7537 179.107 44.7223 179.051 44.6665C178.995 44.6108 178.964 44.5351 178.964 44.4562V41.4234C178.964 41.3445 178.995 41.2689 179.051 41.2131C179.107 41.1573 179.183 41.126 179.262 41.126C179.341 41.126 179.417 41.1573 179.473 41.2131C179.529 41.2689 179.561 41.3445 179.561 41.4234V44.4562C179.561 44.5351 179.529 44.6108 179.473 44.6665C179.417 44.7223 179.341 44.7537 179.262 44.7537Z" fill="#C1B7E9"/>
<path d="M180.782 43.2377H177.74C177.661 43.2377 177.585 43.2064 177.529 43.1506C177.473 43.0948 177.441 43.0191 177.441 42.9403C177.441 42.8614 177.473 42.7857 177.529 42.7299C177.585 42.6742 177.661 42.6428 177.74 42.6428H180.782C180.861 42.6428 180.937 42.6742 180.993 42.7299C181.049 42.7857 181.081 42.8614 181.081 42.9403C181.081 43.0191 181.049 43.0948 180.993 43.1506C180.937 43.2064 180.861 43.2377 180.782 43.2377Z" fill="#C1B7E9"/>
<path d="M90.4996 75.2792C90.4309 75.279 90.3643 75.2553 90.3111 75.2119C90.2579 75.1684 90.2214 75.1081 90.2077 75.0409C90.1941 74.9738 90.2041 74.904 90.236 74.8434C90.268 74.7827 90.32 74.7349 90.3832 74.7081C92.3652 73.8747 94.0564 72.4768 95.245 70.6895C96.4335 68.9023 97.0666 66.8051 97.0648 64.6608C97.0648 64.5819 97.0963 64.5063 97.1522 64.4505C97.2082 64.3947 97.2841 64.3634 97.3632 64.3634C97.4423 64.3634 97.5182 64.3947 97.5742 64.4505C97.6301 64.5063 97.6616 64.5819 97.6616 64.6608C97.6608 66.9213 96.9922 69.1316 95.7392 71.0157C94.4862 72.8998 92.7043 74.3744 90.6159 75.2554C90.5792 75.271 90.5396 75.2791 90.4996 75.2792ZM78.1797 72.8789C78.1006 72.8788 78.0247 72.8474 77.9688 72.7916C75.8922 70.618 74.7503 67.7213 74.787 64.7199C74.8237 61.7185 76.0361 58.8503 78.1653 56.7279C80.2945 54.6054 83.1717 53.3968 86.1827 53.3602C89.1936 53.3236 92.0995 54.4619 94.28 56.532C94.336 56.5879 94.3675 56.6637 94.3675 56.7427C94.3675 56.8217 94.336 56.8975 94.28 56.9534C94.2239 57.0092 94.1479 57.0406 94.0686 57.0406C93.9894 57.0406 93.9133 57.0092 93.8573 56.9534C92.8499 55.9038 91.6423 55.0654 90.3055 54.4874C88.9686 53.9094 87.5293 53.6035 86.0722 53.5876C84.6151 53.5717 83.1695 53.8461 81.8202 54.3947C80.471 54.9433 79.2452 55.7551 78.215 56.7824C77.1848 57.8097 76.3708 59.0318 75.8209 60.377C75.2709 61.7222 74.9961 63.1633 75.0126 64.6158C75.029 66.0683 75.3364 67.5029 75.9166 68.8354C76.4969 70.1679 77.3383 71.3714 78.3915 72.3752C78.4336 72.4168 78.4623 72.47 78.4739 72.5279C78.4856 72.5858 78.4797 72.6459 78.457 72.7005C78.4342 72.755 78.3957 72.8016 78.3463 72.8343C78.2969 72.8669 78.2389 72.8842 78.1797 72.8838V72.8789Z" fill="#C1B7E9"/>
<path d="M86.126 73.4181C90.9779 73.4181 94.9112 69.4973 94.9112 64.6607C94.9112 59.8241 90.9779 55.9033 86.126 55.9033C81.2741 55.9033 77.3408 59.8241 77.3408 64.6607C77.3408 69.4973 81.2741 73.4181 86.126 73.4181Z" fill="white"/>
<path d="M86.1314 73.7147C84.3348 73.7149 82.5784 73.1839 81.0845 72.1891C79.5906 71.1942 78.4262 69.78 77.7385 68.1254C77.0509 66.4708 76.8709 64.6501 77.2214 62.8936C77.5718 61.137 78.437 59.5235 79.7074 58.2571C80.9778 56.9907 82.5964 56.1283 84.3586 55.7789C86.1207 55.4296 87.9472 55.609 89.607 56.2944C91.2668 56.9799 92.6855 58.1406 93.6835 59.6298C94.6816 61.1191 95.2142 62.8699 95.214 64.6608C95.2111 67.0612 94.2532 69.3624 92.5505 71.0597C90.8479 72.757 88.5394 73.7118 86.1314 73.7147ZM86.1314 56.2008C84.4528 56.2006 82.8119 56.6966 81.4161 57.6261C80.0204 58.5556 78.9324 59.8768 78.2899 61.4226C77.6474 62.9685 77.4792 64.6695 77.8066 66.3107C78.1339 67.9518 78.9421 69.4593 80.129 70.6426C81.3159 71.8258 82.8281 72.6316 84.4744 72.9582C86.1207 73.2847 87.8271 73.1172 89.3779 72.4769C90.9288 71.8366 92.2543 70.7523 93.1869 69.361C94.1194 67.9698 94.6172 66.3341 94.6172 64.6608C94.6146 62.4181 93.7197 60.2679 92.1289 58.682C90.5381 57.096 88.3813 56.2037 86.1314 56.2008Z" fill="#B0A3E1"/>
<path fill-rule="evenodd" clip-rule="evenodd" d="M91.9818 71.1855C90.3711 72.6215 88.286 73.4154 86.1252 73.4154C83.9643 73.4154 81.8792 72.6215 80.2686 71.1855V68.351C81.8789 66.9144 83.9641 66.1201 86.1252 66.1201C88.2862 66.1201 90.3714 66.9144 91.9818 68.351V71.1855Z" fill="#B0A3E1"/>
<path d="M86.1311 73.7145C83.8963 73.716 81.7397 72.8948 80.075 71.4084C80.0438 71.3806 80.0188 71.3465 80.0017 71.3084C79.9846 71.2703 79.9757 71.2291 79.9756 71.1873V68.3508C79.9757 68.3091 79.9846 68.2678 80.0017 68.2297C80.0188 68.1916 80.0438 68.1576 80.075 68.1297C81.74 66.6441 83.8961 65.8228 86.1306 65.8228C88.3651 65.8228 90.5211 66.6441 92.1861 68.1297C92.2173 68.1576 92.2423 68.1916 92.2594 68.2297C92.2766 68.2678 92.2855 68.3091 92.2856 68.3508V71.1853C92.2855 71.2271 92.2766 71.2684 92.2594 71.3064C92.2423 71.3445 92.2173 71.3786 92.1861 71.4064C90.5221 72.8934 88.3658 73.7153 86.1311 73.7145ZM80.5723 71.0525C82.1152 72.3857 84.0887 73.1197 86.1306 73.1197C88.1725 73.1197 90.1459 72.3857 91.6888 71.0525V68.4856C90.1462 67.1518 88.1726 66.4175 86.1306 66.4175C84.0885 66.4175 82.115 67.1518 80.5723 68.4856V71.0525Z" fill="#B0A3E1"/>
<path d="M86.1263 64.174C87.7434 64.174 89.0544 62.8672 89.0544 61.2552C89.0544 59.6432 87.7434 58.3364 86.1263 58.3364C84.5092 58.3364 83.1982 59.6432 83.1982 61.2552C83.1982 62.8672 84.5092 64.174 86.1263 64.174Z" fill="#B0A3E1"/>
<path d="M86.1308 64.4723C85.4924 64.4725 84.8683 64.284 84.3374 63.9306C83.8066 63.5772 83.3927 63.0748 83.1483 62.4869C82.9039 61.8991 82.8398 61.2522 82.9642 60.628C83.0887 60.0039 83.396 59.4305 83.8473 58.9805C84.2986 58.5305 84.8737 58.224 85.4998 58.0997C86.1259 57.9755 86.7748 58.0392 87.3646 58.2826C87.9544 58.5261 88.4585 58.9385 88.8132 59.4676C89.1679 59.9967 89.3572 60.6187 89.3572 61.2551C89.3561 62.1078 89.0159 62.9254 88.4111 63.5285C87.8063 64.1316 86.9862 64.471 86.1308 64.4723ZM86.1308 58.6337C85.6104 58.6335 85.1016 58.7872 84.6689 59.0752C84.2361 59.3633 83.8988 59.7729 83.6995 60.2521C83.5003 60.7313 83.4481 61.2586 83.5496 61.7674C83.6511 62.2762 83.9016 62.7436 84.2696 63.1104C84.6376 63.4772 85.1064 63.7269 85.6168 63.8281C86.1272 63.9292 86.6562 63.8772 87.1369 63.6786C87.6177 63.48 88.0285 63.1437 88.3175 62.7124C88.6065 62.281 88.7606 61.7738 88.7604 61.2551C88.7594 60.5602 88.482 59.894 87.9891 59.4026C87.4961 58.9113 86.8279 58.6348 86.1308 58.6337Z" fill="#B0A3E1"/>
<path d="M117.772 44.16C118.448 42.5336 117.673 40.6691 116.041 39.9954C114.41 39.3217 112.539 40.094 111.863 41.7204C111.188 43.3468 111.962 45.2114 113.594 45.8851C115.225 46.5588 117.096 45.7864 117.772 44.16Z" fill="white"/>
<path d="M114.817 46.4252C114.126 46.4252 113.45 46.2208 112.875 45.8378C112.3 45.4549 111.852 44.9106 111.587 44.2739C111.323 43.6371 111.254 42.9364 111.388 42.2604C111.523 41.5844 111.856 40.9634 112.345 40.476C112.834 39.9887 113.457 39.6568 114.135 39.5223C114.813 39.3878 115.516 39.4568 116.155 39.7206C116.794 39.9844 117.34 40.431 117.724 41.0041C118.108 41.5772 118.313 42.251 118.313 42.9402C118.312 43.8642 117.943 44.75 117.288 45.4033C116.633 46.0566 115.744 46.4241 114.817 46.4252ZM114.817 40.0502C114.244 40.0502 113.683 40.2197 113.207 40.5372C112.73 40.8548 112.358 41.3062 112.139 41.8343C111.919 42.3624 111.862 42.9434 111.974 43.5041C112.086 44.0647 112.362 44.5796 112.767 44.9838C113.173 45.388 113.689 45.6632 114.252 45.7748C114.814 45.8863 115.397 45.829 115.927 45.6103C116.456 45.3916 116.909 45.0211 117.228 44.5459C117.546 44.0706 117.716 43.5118 117.716 42.9402C117.715 42.1747 117.408 41.4411 116.865 40.9001C116.322 40.3591 115.585 40.0549 114.817 40.0542V40.0502Z" fill="#C1B7E9"/>
<path d="M114.817 44.7537C114.738 44.7537 114.662 44.7223 114.606 44.6665C114.55 44.6108 114.519 44.5351 114.519 44.4562V41.4234C114.519 41.3445 114.55 41.2689 114.606 41.2131C114.662 41.1573 114.738 41.126 114.817 41.126C114.896 41.126 114.972 41.1573 115.028 41.2131C115.084 41.2689 115.115 41.3445 115.115 41.4234V44.4562C115.115 44.5351 115.084 44.6108 115.028 44.6665C114.972 44.7223 114.896 44.7537 114.817 44.7537Z" fill="#C1B7E9"/>
<path d="M116.339 43.2377H113.296C113.217 43.2377 113.141 43.2064 113.085 43.1506C113.029 43.0948 112.998 43.0191 112.998 42.9403C112.998 42.8614 113.029 42.7857 113.085 42.7299C113.141 42.6742 113.217 42.6428 113.296 42.6428H116.339C116.418 42.6428 116.494 42.6742 116.55 42.7299C116.606 42.7857 116.637 42.8614 116.637 42.9403C116.637 43.0191 116.606 43.0948 116.55 43.1506C116.494 43.2064 116.418 43.2377 116.339 43.2377Z" fill="#C1B7E9"/>
<path fill-rule="evenodd" clip-rule="evenodd" d="M122.107 64.2671C121.669 64.3171 121.262 64.5131 120.951 64.8233C120.64 65.1335 120.443 65.5395 120.393 65.9753C120.385 66.0364 120.355 66.0926 120.309 66.1333C120.263 66.1741 120.203 66.1965 120.141 66.1965C120.08 66.1965 120.02 66.1741 119.974 66.1333C119.927 66.0926 119.897 66.0364 119.89 65.9753C119.84 65.5395 119.643 65.1335 119.332 64.8233C119.021 64.5131 118.613 64.3171 118.176 64.2671C118.115 64.2594 118.058 64.2296 118.018 64.1835C117.977 64.1373 117.954 64.0778 117.954 64.0162C117.954 63.9547 117.977 63.8952 118.018 63.849C118.058 63.8028 118.115 63.7731 118.176 63.7654C118.613 63.7154 119.021 63.5194 119.332 63.2092C119.643 62.899 119.84 62.493 119.89 62.0572C119.897 61.9961 119.927 61.9399 119.974 61.8991C120.02 61.8584 120.08 61.8359 120.141 61.8359C120.203 61.8359 120.263 61.8584 120.309 61.8991C120.355 61.9399 120.385 61.9961 120.393 62.0572C120.443 62.493 120.64 62.899 120.951 63.2092C121.262 63.5194 121.669 63.7154 122.107 63.7654C122.168 63.7731 122.224 63.8028 122.265 63.849C122.306 63.8952 122.329 63.9547 122.329 64.0162C122.329 64.0778 122.306 64.1373 122.265 64.1835C122.224 64.2296 122.168 64.2594 122.107 64.2671Z" fill="white"/>
<path fill-rule="evenodd" clip-rule="evenodd" d="M212.059 90.6713C211.419 90.7437 210.822 91.0303 210.367 91.4842C209.912 91.9382 209.624 92.5327 209.551 93.1707C209.504 93.597 208.863 93.597 208.814 93.1707C208.742 92.5327 208.454 91.9382 207.999 91.4842C207.543 91.0303 206.947 90.7437 206.307 90.6713C205.879 90.6227 205.879 89.9842 206.307 89.9366C206.947 89.8642 207.543 89.5776 207.999 89.1236C208.454 88.6696 208.742 88.0751 208.814 87.4372C208.863 87.0109 209.504 87.0109 209.551 87.4372C209.624 88.0751 209.912 88.6696 210.367 89.1236C210.822 89.5776 211.419 89.8642 212.059 89.9366C212.486 89.9842 212.486 90.6227 212.059 90.6713Z" fill="white"/>
<path fill-rule="evenodd" clip-rule="evenodd" d="M57.9382 129.033C57.2388 129.113 56.5872 129.427 56.0897 129.924C55.5923 130.42 55.2783 131.07 55.1991 131.768C55.1464 132.234 54.4462 132.234 54.3935 131.768C54.3137 131.07 53.999 130.42 53.5008 129.923C53.0027 129.426 52.3504 129.113 51.6504 129.033C51.1829 128.981 51.1829 128.283 51.6504 128.23C52.3504 128.151 53.0027 127.837 53.5008 127.34C53.999 126.844 54.3137 126.193 54.3935 125.496C54.4462 125.03 55.1464 125.03 55.1991 125.496C55.2785 126.194 55.5931 126.844 56.0913 127.341C56.5895 127.837 57.242 128.151 57.9421 128.23C58.4056 128.283 58.4056 128.981 57.9382 129.033Z" fill="white"/>
<path fill-rule="evenodd" clip-rule="evenodd" d="M136.301 102.218L136.359 99.5566L145.433 101.044C146.626 101.169 147.47 101.667 147.398 102.876C147.363 103.455 147.106 103.998 146.68 104.393C146.254 104.787 145.692 105.003 145.111 104.996L136.043 104.87L136.301 102.218Z" fill="#FDAB91"/>
<path fill-rule="evenodd" clip-rule="evenodd" d="M124.176 97.4845L144.182 99.858C144.878 101.273 144.616 104.364 143.848 105.478H123.718C123.618 105.478 123.51 105.478 123.408 105.471C122.352 105.393 121.37 104.905 120.672 104.111C119.975 103.317 119.619 102.281 119.682 101.228C119.744 100.174 120.22 99.1876 121.007 98.4813C121.793 97.7749 122.827 97.4054 123.885 97.4528C123.98 97.4587 124.081 97.4726 124.176 97.4845Z" fill="#6C59AD"/>
<path d="M141.659 99.8561H141.623L125.921 97.9932C125.842 97.9838 125.77 97.9436 125.721 97.8812C125.671 97.8188 125.649 97.7394 125.658 97.6605C125.668 97.5817 125.708 97.5097 125.771 97.4605C125.833 97.4114 125.913 97.389 125.992 97.3983L141.694 99.2612C141.773 99.2658 141.847 99.3016 141.899 99.3606C141.952 99.4197 141.979 99.4971 141.974 99.576C141.97 99.6549 141.934 99.7287 141.875 99.7813C141.816 99.8338 141.738 99.8607 141.659 99.8561Z" fill="#4D3E82"/>
<path fill-rule="evenodd" clip-rule="evenodd" d="M123.351 104.05H96.9533C96.1576 104.05 95.3222 103.396 95.1074 102.598L90.9152 87.002C90.7013 86.2088 91.1807 85.5515 91.9814 85.5515H118.379C119.174 85.5515 120.01 86.2039 120.224 87.002L124.416 102.598C124.631 103.396 124.151 104.05 123.351 104.05Z" fill="#B0A3E1"/>
<path fill-rule="evenodd" clip-rule="evenodd" d="M122.756 104.05H96.359C95.5584 104.05 94.7279 103.396 94.513 102.598L90.3209 87.002C90.106 86.2088 90.5854 85.5515 91.3861 85.5515H117.783C118.579 85.5515 119.414 86.2039 119.629 87.002L123.825 102.598C124.036 103.396 123.557 104.05 122.756 104.05Z" fill="#C1B7E9"/>
<path fill-rule="evenodd" clip-rule="evenodd" d="M107.977 89.5381H103.338C103.295 89.5363 103.253 89.545 103.215 89.5634C103.176 89.5818 103.143 89.6093 103.118 89.6435C103.093 89.6778 103.077 89.7176 103.071 89.7596C103.065 89.8015 103.069 89.8443 103.084 89.8841L103.513 91.4793C103.542 91.575 103.599 91.6595 103.678 91.7214C103.756 91.7833 103.852 91.8196 103.952 91.8253H108.593C108.636 91.8272 108.678 91.8187 108.716 91.8003C108.755 91.782 108.788 91.7545 108.813 91.7203C108.839 91.686 108.855 91.6461 108.861 91.6041C108.867 91.5621 108.862 91.5192 108.848 91.4793L108.418 89.8841C108.389 89.7881 108.332 89.7033 108.253 89.6414C108.174 89.5794 108.078 89.5433 107.977 89.5381Z" fill="#E5E1F8"/>
<path fill-rule="evenodd" clip-rule="evenodd" d="M125.583 104.05H96.359C95.6568 104.05 94.9308 104.551 94.6185 105.214C94.6032 105.244 94.5961 105.278 94.5979 105.313C94.5997 105.347 94.6104 105.38 94.6288 105.409C94.6472 105.437 94.6728 105.461 94.703 105.477C94.7333 105.493 94.7672 105.501 94.8015 105.5H123.738C123.952 104.702 124.782 104.05 125.583 104.05Z" fill="#B0A3E1"/>
<path fill-rule="evenodd" clip-rule="evenodd" d="M122.756 104.05C122.054 104.05 121.328 104.551 121.016 105.214C121.001 105.244 120.994 105.278 120.995 105.313C120.997 105.347 121.008 105.38 121.026 105.409C121.045 105.437 121.07 105.461 121.1 105.477C121.131 105.493 121.165 105.501 121.199 105.5H137.743C137.777 105.501 137.811 105.493 137.841 105.477C137.871 105.461 137.896 105.437 137.915 105.408C137.933 105.379 137.944 105.346 137.945 105.312C137.947 105.278 137.94 105.244 137.925 105.214C137.613 104.551 136.888 104.05 136.185 104.05H122.756Z" fill="#C1B7E9"/>
<path d="M118.192 104.347H101.249C101.169 104.347 101.094 104.316 101.038 104.26C100.982 104.204 100.95 104.129 100.95 104.05C100.95 103.971 100.982 103.895 101.038 103.84C101.094 103.784 101.169 103.752 101.249 103.752H118.193C118.272 103.752 118.348 103.784 118.404 103.84C118.46 103.895 118.492 103.971 118.492 104.05C118.492 104.129 118.46 104.204 118.404 104.26C118.348 104.316 118.272 104.347 118.193 104.347H118.192Z" fill="#9E8ED6"/>
<defs>
<linearGradient id="paint0_linear_176_1615" x1="147.039" y1="40.0027" x2="147.039" y2="170.611" gradientUnits="userSpaceOnUse">
<stop stop-color="#E8E7F4"/>
<stop offset="1" stop-color="white"/>
</linearGradient>
</defs>
</svg>
