<svg width="120" height="120" viewBox="0 0 120 120" fill="none" xmlns="http://www.w3.org/2000/svg">
<g id="fi_10837758">
<path id="Vector" d="M108.881 33.8437V26.3062C108.881 23.8125 107.906 21.45 106.125 19.65C104.343 17.8875 101.981 16.9125 99.5059 16.9125C94.3309 16.9125 90.1309 21.1312 90.1309 26.3062V27.6937H84.7121C83.6809 27.6937 82.8371 28.5375 82.8371 29.5687C82.8371 30.6 83.6809 31.4437 84.7121 31.4437H90.1309V31.95C90.1309 36.1125 86.7746 39.4875 82.6309 39.4875H80.0434L79.7621 32.6437C79.4996 27.5437 77.3434 22.8375 73.6684 19.3687C72.7871 18.525 71.8496 17.8312 70.8746 17.1937C70.6684 14.7937 69.6934 12.45 67.8559 10.6125C63.6934 6.43123 57.1309 6.39373 52.7809 10.6125C51.0184 12.375 50.0621 14.625 49.7809 16.9312C44.2684 20.3437 40.7996 26.1187 40.4809 32.6625L39.5059 56.4187H37.3496C33.2059 56.4187 29.8496 53.0437 29.8496 48.8812V48.0562H35.1934C36.2246 48.0562 37.0684 47.2125 37.0684 46.1812C37.0684 45.15 36.2246 44.3062 35.1934 44.3062H29.8496V43.2187C29.8496 38.025 25.6496 33.8062 20.4746 33.8062C17.9996 33.8062 15.6371 34.7812 13.8371 36.5625C12.0746 38.3625 11.0996 40.7062 11.0996 43.2V50.7187C11.0996 58.425 14.6809 65.2875 20.2309 69.7687L16.8184 73.2C16.0871 73.9312 16.0871 75.1125 16.8184 75.8625C17.1746 76.2187 17.6621 76.4062 18.1496 76.4062C18.6371 76.4062 19.1059 76.2187 19.4809 75.8625L23.3996 71.925C26.9621 73.9875 31.0871 75.1687 35.4934 75.1687H38.7559L38.4559 82.6125C26.2121 86.3062 17.7559 97.575 17.7559 110.55C17.7559 111.581 18.5996 112.425 19.6309 112.425H100.612C101.193 112.425 101.756 112.144 102.112 111.675C102.468 111.206 102.581 110.606 102.412 110.025C99.6184 100.2 91.9309 92.625 82.1996 89.9062L80.8496 58.2H84.5059C89.3434 58.2 93.8621 56.7562 97.6496 54.3L102.168 58.8375C102.543 59.2125 103.012 59.3812 103.5 59.3812C103.987 59.3812 104.456 59.1937 104.831 58.8375C105.562 58.1062 105.562 56.925 104.831 56.1937L100.668 52.0125C105.693 47.5312 108.881 41.0062 108.881 33.75V33.8437ZM64.1059 23.9625C63.9934 24.0375 63.8809 24.075 63.7684 24.15C63.4871 24.3187 63.1871 24.4875 62.8871 24.6C62.8684 24.6 62.8309 24.6 62.8121 24.6187C61.3684 25.1812 59.7746 25.2 58.2934 24.75C58.0871 24.6937 57.8809 24.6375 57.6746 24.5625C57.6184 24.5437 57.5621 24.5062 57.5059 24.4687C57.3184 24.3937 57.1684 24.2812 56.9809 24.1875L66.3184 14.8125C66.9371 15.9375 67.2371 17.1937 67.1809 18.45C67.1809 18.825 67.1246 19.2 67.0496 19.575C67.0309 19.7062 66.9746 19.8375 66.9371 19.9687C66.8621 20.2687 66.7684 20.5875 66.6559 20.8687C66.5996 20.9812 66.5246 21.0937 66.4684 21.2062C66.3184 21.4875 66.1871 21.7875 65.9996 22.05C65.9246 22.1625 65.8121 22.275 65.7371 22.3687C65.4184 22.7812 65.0621 23.1375 64.6684 23.475C64.4809 23.6437 64.2934 23.8125 64.0871 23.9437L64.1059 23.9625ZM60.3371 11.2312C61.4996 11.2312 62.6434 11.55 63.6934 12.15L54.3559 21.525C53.8121 20.5312 53.4746 19.3875 53.4559 18.15C53.4559 16.3687 54.1684 14.5875 55.5371 13.2C56.8871 11.8875 58.6121 11.2312 60.3371 11.2312ZM50.1371 21.2437C50.1934 21.4312 50.2684 21.5812 50.3434 21.7687C50.4371 22.0125 50.5309 22.275 50.6246 22.5187C50.7746 22.875 50.9621 23.1937 51.1496 23.5125C51.2809 23.7562 51.4121 23.9812 51.5621 24.2062C51.8996 24.6937 52.2746 25.1625 52.6871 25.5937C52.7246 25.6312 52.7434 25.6875 52.7809 25.725C52.9309 25.875 53.1184 25.9875 53.2684 26.1375C53.5496 26.4 53.8496 26.6437 54.1496 26.8687C54.3746 27.0375 54.6184 27.1875 54.8621 27.3187C55.1996 27.525 55.5371 27.6937 55.8934 27.8625C56.0996 27.9562 56.3059 28.05 56.5121 28.125C56.9996 28.3125 57.5059 28.4625 58.0309 28.575C58.1246 28.5937 58.1996 28.6312 58.2934 28.65C58.9496 28.7812 59.6059 28.8562 60.2996 28.8562C61.6309 28.8562 62.8871 28.575 64.0684 28.125C64.2184 28.0687 64.3496 28.0125 64.4996 27.9375C64.9309 27.75 65.3434 27.5437 65.7371 27.3C65.9246 27.1875 66.1121 27.075 66.2996 26.9437C66.6746 26.6812 67.0121 26.4 67.3496 26.1C67.4809 25.9875 67.6121 25.9125 67.7434 25.7812L67.8184 25.7062C67.9309 25.5937 68.0059 25.4625 68.1184 25.3312C68.4371 24.9937 68.7184 24.6375 68.9996 24.2625C69.1684 24.0187 69.2996 23.775 69.4496 23.5312C69.6371 23.2125 69.8059 22.9125 69.9559 22.575C70.0684 22.3312 70.1809 22.0875 70.2746 21.825C70.3121 21.7125 70.3871 21.6 70.4246 21.4875C70.6496 21.675 70.8559 21.8812 71.0809 22.0687C74.0434 24.8812 75.8059 28.6875 76.0121 32.7937L78.4121 89.175C78.2809 89.175 78.1684 89.175 78.0371 89.1375C77.3809 89.0625 76.7059 88.9875 76.0496 88.9687C75.8621 88.9687 75.6746 88.95 75.5059 88.9312C74.7371 88.9125 73.9496 88.9312 73.1809 88.9312C72.9371 88.9312 72.6746 88.9687 72.4309 88.9875C71.7746 89.025 71.1371 89.1 70.4809 89.1937C70.2934 89.2125 70.1246 89.2312 69.9371 89.2687C69.1496 89.4 68.3621 89.55 67.5746 89.7375C67.4809 89.7562 67.4059 89.775 67.3121 89.7937C67.0684 89.55 66.8059 89.3437 66.5621 89.1187C66.2434 88.8187 65.9246 88.5187 65.5871 88.2375C65.1746 87.9 64.7621 87.5625 64.3309 87.2437C63.9934 86.9812 63.6371 86.7187 63.2809 86.475C62.8309 86.175 62.3809 85.8937 61.9121 85.6125C61.5559 85.3875 61.1809 85.1625 60.8059 84.9562C60.3184 84.6937 59.8309 84.4687 59.3434 84.225C58.9684 84.0375 58.5934 83.85 58.2184 83.7C57.6934 83.475 57.1684 83.3062 56.6434 83.1C56.2684 82.9687 55.8934 82.8187 55.4996 82.6875C54.9371 82.5187 54.3746 82.3875 53.7934 82.2375C53.4184 82.1437 53.0621 82.0312 52.6871 81.9562C52.0496 81.825 51.4121 81.75 50.7746 81.6562C50.4559 81.6187 50.1371 81.5437 49.8184 81.5062C48.8434 81.4125 47.8684 81.3562 46.8934 81.3562C46.1809 81.3562 45.4684 81.3937 44.7746 81.45C44.5684 81.45 44.3621 81.4875 44.1559 81.5062C43.6309 81.5625 43.1246 81.6187 42.5996 81.6937C42.4871 81.6937 42.3559 81.7125 42.2434 81.7312L44.2496 32.7937C44.4746 28.1812 46.6309 24.0187 50.1371 21.2062V21.2437ZM35.4934 71.475C24.1121 71.475 14.8684 62.175 14.8684 50.775V43.2562C14.8684 41.7562 15.4496 40.3312 16.4996 39.2625C17.5871 38.1937 18.9934 37.5937 20.4934 37.5937C23.5871 37.5937 26.1184 40.125 26.1184 43.2562V48.9C26.1184 55.125 31.1621 60.1875 37.3684 60.1875H39.3746L38.9059 71.4937H35.4934V71.475ZM40.7434 85.9125C42.7309 85.4062 44.7934 85.1437 46.8934 85.1437C47.7184 85.1437 48.5434 85.2 49.3496 85.275C49.6121 85.2937 49.8746 85.35 50.1371 85.3875C50.6809 85.4625 51.2246 85.5375 51.7684 85.6312C52.0684 85.6875 52.3684 85.7625 52.6684 85.8375C53.1559 85.95 53.6434 86.0812 54.1121 86.2125C54.4121 86.3062 54.7309 86.4 55.0309 86.4937C55.4996 86.6437 55.9684 86.8312 56.4184 87.0187C56.6996 87.1312 56.9996 87.2437 57.2809 87.375C57.7496 87.5812 58.2184 87.825 58.6871 88.0687C58.9309 88.2 59.1746 88.3125 59.4184 88.4625C60.0184 88.8 60.5809 89.175 61.1434 89.5687C61.2371 89.6437 61.3496 89.7 61.4434 89.7562C62.0621 90.1875 62.6434 90.675 63.2246 91.1625C63.1496 91.2 63.0746 91.2375 62.9996 91.275C62.7559 91.3875 62.5309 91.5 62.2871 91.6125C61.5371 91.9687 60.7871 92.325 60.0746 92.7375C59.7746 92.9062 59.4746 93.0937 59.1746 93.2812C58.5184 93.6937 57.8621 94.125 57.2434 94.5937C56.9809 94.7812 56.7184 94.9687 56.4746 95.175C55.6309 95.85 54.8059 96.5437 54.0371 97.3125C53.2684 98.0625 52.5746 98.85 51.8996 99.6562C51.8246 99.75 51.7496 99.8437 51.6746 99.9375C51.0371 100.725 50.4746 101.55 49.9309 102.394C49.8371 102.525 49.7434 102.675 49.6684 102.806C49.1434 103.65 48.6746 104.512 48.2434 105.394C48.1684 105.544 48.0934 105.694 48.0184 105.844C47.6059 106.744 47.2121 107.681 46.8934 108.619C46.8934 108.675 46.8559 108.712 46.8371 108.75H21.5809C22.3684 97.8375 30.0184 88.5937 40.7434 85.9312V85.9125ZM98.0059 108.731H50.8684C50.9246 108.6 50.9621 108.469 51.0184 108.337C51.1496 108.037 51.2996 107.737 51.4309 107.437C51.7121 106.819 52.0309 106.2 52.3684 105.619C52.5371 105.3 52.7246 105 52.9121 104.7C53.2871 104.1 53.6809 103.537 54.0934 102.975C54.2809 102.731 54.4684 102.469 54.6559 102.225C55.2934 101.437 55.9496 100.687 56.6809 99.975C58.1434 98.5125 59.7934 97.2562 61.5746 96.2062C63.3559 95.1562 65.2684 94.3125 67.2746 93.7312C69.3559 93.1125 71.5121 92.775 73.6496 92.7187C74.9621 92.6812 76.2746 92.775 77.5496 92.925C78.3559 93.0187 79.1809 93.1312 79.9684 93.3187C88.2184 95.175 94.9309 100.987 98.0059 108.769V108.731ZM80.6996 54.525L80.2121 43.2187H82.6309C88.8371 43.2187 93.8809 38.1562 93.8809 31.9312V26.2875C93.8809 23.175 96.4121 20.6437 99.5059 20.6437C100.987 20.6437 102.412 21.225 103.481 22.2937C104.55 23.3812 105.131 24.8062 105.131 26.3062V33.8437C105.131 45.2625 95.8871 54.5437 84.5059 54.5437H80.6809L80.6996 54.525Z" fill="#F3F2F2"/>
<path id="Vector_2" d="M54.6936 38.925C55.0686 39.3 55.5373 39.4687 56.0248 39.4687C56.5123 39.4687 56.9811 39.2812 57.3561 38.925C58.0873 38.1937 58.0873 37.0125 57.3561 36.2812L52.4998 31.4062C51.7686 30.675 50.5873 30.675 49.8561 31.4062C49.1248 32.1375 49.1248 33.3187 49.8561 34.05L54.7123 38.925H54.6936Z" fill="#F3F2F2"/>
<path id="Vector_3" d="M65.4371 47.775C65.9246 47.775 66.3934 47.5875 66.7684 47.2313L71.6246 42.3563C72.3559 41.625 72.3559 40.4438 71.6246 39.6938C70.8934 38.9625 69.7121 38.9625 68.9809 39.6938L64.1246 44.5688C63.3934 45.3 63.3934 46.4813 64.1246 47.2313C64.4809 47.5875 64.9684 47.775 65.4559 47.775H65.4371Z" fill="#F3F2F2"/>
<path id="Vector_4" d="M64.8561 62.5125C64.1248 63.2437 64.1248 64.425 64.8561 65.1562L69.7123 70.0312C70.0873 70.4062 70.5561 70.575 71.0436 70.575C71.5311 70.575 71.9998 70.3875 72.3748 70.0312C73.1061 69.3 73.1061 68.1187 72.3748 67.3875L67.5186 62.5125C66.7873 61.7812 65.6061 61.7812 64.8748 62.5125H64.8561Z" fill="#F3F2F2"/>
<path id="Vector_5" d="M51.1686 59.4C51.6561 59.4 52.1248 59.2125 52.4998 58.8563L57.3561 53.9813C58.0873 53.25 58.0873 52.0688 57.3561 51.3375C56.6248 50.6062 55.4436 50.6062 54.7123 51.3375L49.8561 56.2125C49.1248 56.9438 49.1248 58.125 49.8561 58.8563C50.2123 59.2313 50.6998 59.4 51.1873 59.4H51.1686Z" fill="#F3F2F2"/>
<path id="Vector_6" d="M51.1686 79.5562C51.6561 79.5562 52.1248 79.3687 52.4998 79.0125L57.3561 74.1375C58.0873 73.4062 58.0873 72.225 57.3561 71.4937C56.6248 70.7625 55.4436 70.7625 54.7123 71.4937L49.8561 76.3687C49.1248 77.1 49.1248 78.2812 49.8561 79.0125C50.2123 79.3875 50.6998 79.5562 51.1873 79.5562H51.1686Z" fill="#F3F2F2"/>
<path id="Vector_7" d="M30.9004 20.6625H32.7754C33.8066 20.6625 34.6504 19.8187 34.6504 18.7875C34.6504 17.7562 33.8066 16.9125 32.7754 16.9125H30.9004C29.8691 16.9125 29.0254 17.7562 29.0254 18.7875C29.0254 19.8187 29.8691 20.6625 30.9004 20.6625Z" fill="#F3F2F2"/>
<path id="Vector_8" d="M21.5254 20.6625H23.4004C24.4316 20.6625 25.2754 19.8187 25.2754 18.7875C25.2754 17.7562 24.4316 16.9125 23.4004 16.9125H21.5254C20.4941 16.9125 19.6504 17.7562 19.6504 18.7875C19.6504 19.8187 20.4941 20.6625 21.5254 20.6625Z" fill="#F3F2F2"/>
<path id="Vector_9" d="M27.1504 20.6625C26.1191 20.6625 25.2754 21.5062 25.2754 22.5375V24.4125C25.2754 25.4437 26.1191 26.2875 27.1504 26.2875C28.1816 26.2875 29.0254 25.4437 29.0254 24.4125V22.5375C29.0254 21.5062 28.1816 20.6625 27.1504 20.6625Z" fill="#F3F2F2"/>
<path id="Vector_10" d="M27.1504 16.9125C28.1816 16.9125 29.0254 16.0687 29.0254 15.0375V13.1625C29.0254 12.1312 28.1816 11.2875 27.1504 11.2875C26.1191 11.2875 25.2754 12.1312 25.2754 13.1625V15.0375C25.2754 16.0687 26.1191 16.9125 27.1504 16.9125Z" fill="#F3F2F2"/>
<path id="Vector_11" d="M101.25 76.875H99.375C98.3438 76.875 97.5 77.7188 97.5 78.75C97.5 79.7812 98.3438 80.625 99.375 80.625H101.25C102.281 80.625 103.125 79.7812 103.125 78.75C103.125 77.7188 102.281 76.875 101.25 76.875Z" fill="#F3F2F2"/>
<path id="Vector_12" d="M91.875 76.875H90C88.9688 76.875 88.125 77.7188 88.125 78.75C88.125 79.7812 88.9688 80.625 90 80.625H91.875C92.9062 80.625 93.75 79.7812 93.75 78.75C93.75 77.7188 92.9062 76.875 91.875 76.875Z" fill="#F3F2F2"/>
<path id="Vector_13" d="M95.625 86.25C96.6562 86.25 97.5 85.4062 97.5 84.375V82.5C97.5 81.4688 96.6562 80.625 95.625 80.625C94.5938 80.625 93.75 81.4688 93.75 82.5V84.375C93.75 85.4062 94.5938 86.25 95.625 86.25Z" fill="#F3F2F2"/>
<path id="Vector_14" d="M97.5 73.125C97.5 72.0938 96.6562 71.25 95.625 71.25C94.5938 71.25 93.75 72.0938 93.75 73.125V75C93.75 76.0312 94.5938 76.875 95.625 76.875C96.6562 76.875 97.5 76.0312 97.5 75V73.125Z" fill="#F3F2F2"/>
</g>
</svg>
