<svg width="276" height="160" viewBox="0 0 276 160" fill="none" xmlns="http://www.w3.org/2000/svg">
<path d="M23.0085 158.603L259.797 158.66C265.653 145.704 271.088 132.18 271.821 118.011C273.022 94.8389 261.923 75.6934 240.732 65.7744C231.027 61.2316 220.084 59.0819 211.338 52.6656C208.072 50.2685 205.515 47.1716 202.951 44.0861C188.855 27.1276 168.795 14.0216 146.477 10.3772C131.705 7.96478 116.129 9.62832 103.749 18.504C92.165 26.8083 85.9229 40.2777 79.1441 52.2811C77.2628 55.611 75.2415 58.9774 72.2628 61.4118C66.3466 66.2538 59.8361 64.7111 52.8609 64.5539C32.3827 64.0936 13.1465 78.6484 6.51342 97.653C-0.733071 118.413 2.16035 142.559 18.9612 155.999C20.3461 157.105 21.5211 157.634 23.0085 158.603Z" fill="#F7F7F7"/>
<path d="M271.906 100.917C271.906 100.917 255.598 122.88 257.696 140.77C257.696 140.77 258.489 107.51 255.446 95.6826C255.446 95.6826 246.054 117.602 247.971 130.992C247.971 130.992 240.002 111.52 226.845 104.031C226.845 104.031 231.055 135.059 242.288 144.483C242.288 144.483 228.504 126.809 208.596 120.87C208.596 120.87 209.914 138.346 230.016 146.236C230.016 146.236 216.04 141.134 190.543 143.221C190.543 143.221 199.119 156.083 215.346 158.697H273.295C273.295 158.697 278.867 111.717 271.906 100.917Z" fill="url(#paint0_linear_176_1509)"/>
<path d="M0 129.697C0 129.697 13.5576 137.674 22.9327 150.351C22.9327 150.351 11.6829 127.244 20.3364 108.774C20.3364 108.774 28.9908 133.448 29.2792 147.589C29.2792 147.589 27.3624 123.781 41.4452 113.392C41.4452 113.392 40.6277 133.815 37.7429 143.978C37.7429 143.978 43.2135 126.405 64.1556 123.504C64.1556 123.504 55.2271 142.987 46.3647 148.529C46.3647 148.529 53.2211 141.666 74.5676 139.934C74.5676 139.934 66.5477 152.762 51.0034 153.588C51.0034 153.588 70.6737 150.904 81.058 159.991H18.894C18.894 159.991 3.46175 140.664 0 129.697Z" fill="#D1D1D1"/>
<path d="M205.552 47.0172V152.413H100.346V16.0869H205.552V47.0172Z" fill="#D1D1D1"/>
<path d="M201.366 0H94.7129V148.788H201.366V0Z" fill="#E8E8E8"/>
<path d="M141.022 45.3251H103.3V9.44824H141.022V45.3251ZM106.829 41.7957H137.498V12.9786H106.829V41.7957Z" fill="white"/>
<path d="M124.309 26.4373L145.147 5.58984L150.889 11.3331L130.05 32.1815L124.309 37.9248L118.567 32.1815L110.614 24.2253L116.356 18.4811L124.309 26.4373Z" fill="#FE6D60"/>
<path d="M191.512 17.2644H150.983C150.931 17.2644 150.89 17.306 150.89 17.3574V22.8907C150.89 22.9421 150.931 22.9837 150.983 22.9837H191.512C191.563 22.9837 191.605 22.9421 191.605 22.8907V17.3574C191.605 17.306 191.563 17.2644 191.512 17.2644Z" fill="white"/>
<path d="M191.512 27.3865H150.983C150.931 27.3865 150.89 27.4281 150.89 27.4795V33.0128C150.89 33.0641 150.931 33.1058 150.983 33.1058H191.512C191.563 33.1058 191.605 33.0641 191.605 33.0128V27.4795C191.605 27.4281 191.563 27.3865 191.512 27.3865Z" fill="white"/>
<path d="M173.744 37.5088H150.96C150.921 37.5088 150.89 37.5401 150.89 37.5788V43.1581C150.89 43.1968 150.921 43.2281 150.96 43.2281H173.744C173.782 43.2281 173.814 43.1968 173.814 43.1581V37.5788C173.814 37.5401 173.782 37.5088 173.744 37.5088Z" fill="white"/>
<path d="M141.022 92.066H103.3V56.1863H141.022V92.066ZM106.829 88.5366H137.498V59.7195H106.829V88.5366Z" fill="white"/>
<path d="M191.512 64.0063H150.983C150.931 64.0063 150.89 64.048 150.89 64.0994V69.6327C150.89 69.684 150.931 69.7257 150.983 69.7257H191.512C191.563 69.7257 191.605 69.684 191.605 69.6327V64.0994C191.605 64.048 191.563 64.0063 191.512 64.0063Z" fill="white"/>
<path d="M191.512 74.1277H150.983C150.931 74.1277 150.89 74.1693 150.89 74.2207V79.754C150.89 79.8054 150.931 79.847 150.983 79.847H191.512C191.563 79.847 191.605 79.8054 191.605 79.754V74.2207C191.605 74.1693 191.563 74.1277 191.512 74.1277Z" fill="white"/>
<path d="M173.744 84.2498H150.96C150.921 84.2498 150.89 84.2811 150.89 84.3197V89.8991C150.89 89.9377 150.921 89.9691 150.96 89.9691H173.744C173.782 89.9691 173.814 89.9377 173.814 89.8991V84.3197C173.814 84.2811 173.782 84.2498 173.744 84.2498Z" fill="white"/>
<path d="M141.022 138.808H103.3V102.931H141.022V138.808ZM106.829 135.278H137.498V106.461H106.829V135.278Z" fill="white"/>
<path d="M191.512 110.748H150.983C150.931 110.748 150.89 110.789 150.89 110.841V116.374C150.89 116.425 150.931 116.467 150.983 116.467H191.512C191.563 116.467 191.605 116.425 191.605 116.374V110.841C191.605 110.789 191.563 110.748 191.512 110.748Z" fill="white"/>
<path d="M191.512 120.87H150.983C150.931 120.87 150.89 120.912 150.89 120.963V126.496C150.89 126.548 150.931 126.589 150.983 126.589H191.512C191.563 126.589 191.605 126.548 191.605 126.496V120.963C191.605 120.912 191.563 120.87 191.512 120.87Z" fill="white"/>
<path d="M173.744 130.992H150.96C150.921 130.992 150.89 131.023 150.89 131.062V136.641C150.89 136.68 150.921 136.711 150.96 136.711H173.744C173.782 136.711 173.814 136.68 173.814 136.641V131.062C173.814 131.023 173.782 130.992 173.744 130.992Z" fill="white"/>
<path d="M42.2094 144.996L41.3641 146.882L47.5506 153.232C48.0639 153.759 48.4071 154.428 48.5356 155.153C48.6641 155.877 48.572 156.624 48.2713 157.295L30.0693 149.134L33.6442 141.155L42.2094 144.996Z" fill="#4F5285"/>
<path d="M37.2517 148.16C37.1174 148.46 36.8974 148.713 36.6194 148.887C36.3414 149.062 36.018 149.15 35.69 149.14C35.362 149.13 35.0443 149.024 34.7768 148.834C34.5094 148.644 34.3044 148.378 34.1876 148.071C34.0709 147.765 34.0477 147.43 34.121 147.11C34.1943 146.79 34.3608 146.499 34.5994 146.274C34.838 146.049 35.1381 145.899 35.4616 145.845C35.7851 145.79 36.1176 145.832 36.417 145.967C36.6158 146.056 36.7951 146.183 36.9446 146.342C37.0942 146.5 37.211 146.687 37.2886 146.891C37.3661 147.094 37.4027 147.311 37.3964 147.529C37.3901 147.747 37.3409 147.961 37.2517 148.16Z" fill="#373660"/>
<path d="M42.1109 147.647L40.9407 148.616C40.8796 148.666 40.8293 148.729 40.7929 148.799C40.7565 148.869 40.7348 148.946 40.7291 149.026C40.7233 149.105 40.7337 149.184 40.7595 149.259C40.7854 149.334 40.8261 149.403 40.8794 149.462C40.9784 149.57 41.1147 149.638 41.2611 149.651C41.4075 149.664 41.5535 149.621 41.6701 149.532L42.9697 148.531L42.1109 147.647Z" fill="#373660"/>
<path d="M43.6197 149.201L42.4485 150.167C42.3876 150.218 42.3375 150.28 42.3013 150.351C42.265 150.421 42.2435 150.498 42.2378 150.577C42.2322 150.656 42.2426 150.735 42.2684 150.81C42.2943 150.885 42.335 150.954 42.3881 151.013C42.4872 151.122 42.6234 151.189 42.7699 151.202C42.9163 151.215 43.0622 151.172 43.1788 151.083L44.4775 150.082L43.6197 149.201Z" fill="#373660"/>
<path d="M45.3265 150.953L44.1554 151.919C44.0942 151.969 44.0439 152.032 44.0075 152.102C43.9712 152.172 43.9495 152.249 43.9439 152.329C43.9382 152.408 43.9487 152.487 43.9747 152.562C44.0007 152.637 44.0416 152.705 44.095 152.764C44.1935 152.873 44.3296 152.941 44.476 152.954C44.6224 152.967 44.7683 152.925 44.8847 152.835L46.1843 151.834L45.3265 150.953Z" fill="#373660"/>
<path d="M30.0724 149.121L29.4668 150.473L47.6688 158.634L48.2743 157.282L30.0724 149.121Z" fill="#373660"/>
<path d="M66.4634 87.3997H46.1778L43.0151 114.685C42.6562 117.782 41.7771 120.797 40.4149 123.602L31.75 141.435L44.8868 146.264L53.1042 125.831C53.6755 124.413 54.0147 122.912 54.1086 121.386L55.7513 94.4546L56.0733 148.414H69.1939L66.4634 87.3997Z" fill="#373660"/>
<path d="M67.0565 148.414V150.481L75.2988 153.741C75.9826 154.011 76.5693 154.482 76.9827 155.09C77.3961 155.699 77.6171 156.417 77.6172 157.153H57.6699V148.41L67.0565 148.414Z" fill="#4F5285"/>
<path d="M63.7807 153.7C63.9897 152.807 63.4358 151.915 62.5437 151.706C61.6516 151.497 60.7591 152.051 60.5501 152.943C60.3412 153.836 60.8951 154.729 61.7872 154.938C62.6793 155.147 63.5718 154.592 63.7807 153.7Z" fill="#373660"/>
<path d="M68.0534 150.874L67.3825 152.235C67.3473 152.306 67.3268 152.383 67.3223 152.462C67.3177 152.541 67.3292 152.62 67.3561 152.695C67.383 152.769 67.4247 152.837 67.4786 152.895C67.5326 152.953 67.5977 152.999 67.6701 153.031C67.8047 153.09 67.9564 153.096 68.0953 153.048C68.2341 153 68.3498 152.902 68.4195 152.772L69.1968 151.326L68.0534 150.874Z" fill="#373660"/>
<path d="M70.0662 151.675L69.3953 153.035C69.36 153.106 69.3395 153.183 69.335 153.262C69.3304 153.341 69.3419 153.421 69.3688 153.495C69.3957 153.569 69.4373 153.638 69.4913 153.696C69.5453 153.754 69.6104 153.8 69.6828 153.832C69.8177 153.891 69.9697 153.896 70.1087 153.848C70.2477 153.8 70.3635 153.702 70.4332 153.572L71.2095 152.127L70.0662 151.675Z" fill="#373660"/>
<path d="M72.3354 152.573L71.6645 153.935C71.6294 154.005 71.6089 154.083 71.6045 154.162C71.6 154.241 71.6115 154.32 71.6384 154.394C71.6652 154.469 71.7069 154.537 71.7608 154.595C71.8147 154.653 71.8797 154.699 71.952 154.731C72.0869 154.79 72.2389 154.796 72.3779 154.748C72.5168 154.7 72.6327 154.601 72.7024 154.471L73.4787 153.027L72.3354 152.573Z" fill="#373660"/>
<path d="M77.6162 157.157H57.6699V158.638H77.6162V157.157Z" fill="#373660"/>
<path d="M57.3889 45.7201C55.2804 46.1467 54.1092 49.1526 54.7724 52.4317L55.3561 55.3235C55.5886 56.4701 55.7169 57.6353 55.7395 58.805L55.819 63.0237L60.6877 62.0218L59.7935 57.6017C61.902 57.175 63.0732 54.1691 62.41 50.89C61.7467 47.6108 59.4974 45.2934 57.3889 45.7201Z" fill="#FFD1C1"/>
<path d="M62.5673 51.6743C62.5673 51.6743 59.4467 49.3195 56.8168 49.8526L56.582 48.1267L62.5347 48.8458C62.5347 48.8458 63.1097 51.1853 62.5625 51.6753" fill="#FFB2A0"/>
<path d="M59.7921 57.6016C59.7921 57.6016 58.2223 57.6802 56.8613 55.8489C56.8613 55.8489 57.7421 58.6141 59.9445 58.3543L59.7921 57.6016Z" fill="#FFB2A0"/>
<path d="M77.738 70.9779L68.9591 62.7916C66.7268 60.7092 63.7881 59.5514 60.736 59.5518H52.7505C52.6547 59.5518 52.5589 59.5518 52.463 59.5518C48.4377 59.6476 44.8437 62.1003 43.1751 65.7658L38.8623 75.2293L45.597 79.2774L44.607 87.3957H67.9575L66.9081 75.5927L70.3535 79.0713L77.738 70.9779Z" fill="#FFC967"/>
<path d="M40.465 68.8284C40.465 68.8284 45.4554 77.4193 45.9087 76.8747C46.362 76.3301 48.0862 69.2512 48.0862 69.2512L68.227 89.3096L66.5728 89.8513H38.8683L37.0176 74.6062L40.465 68.8284Z" fill="#FFA648"/>
<path d="M60.4633 43.7304C57.7712 42.3727 55.8735 45.3162 55.8735 45.3162C53.8436 45.4169 53.3222 46.6058 53.1469 47.8581C52.9715 49.1103 55.3723 55.3962 55.3723 55.3962L55.6847 52.5198C55.48 52.3125 55.3427 52.0481 55.2908 51.7614C55.1643 51.1391 55.4068 50.5648 55.8304 50.4785C56.254 50.3922 56.7006 50.8275 56.8262 51.4507C56.8366 51.502 56.8443 51.5539 56.8492 51.606L56.8798 51.5859C57.2872 51.3107 57.2076 48.7287 57.2076 48.7287L65.4403 48.9434C65.4403 48.9434 63.536 45.2798 60.4633 43.7304Z" fill="#373660"/>
<path d="M69.8208 74.1987L37.8772 42.2424L29.0771 51.0462L61.0198 83.0035L69.8208 91.8073L78.6209 83.0035L90.8118 70.8074L82.0108 62.0035L69.8208 74.1987Z" fill="#FE6D60"/>
<path d="M73.8223 87.8051C73.8223 87.8051 74.7126 83.5998 75.3097 83.107C75.9068 82.6141 79.635 81.499 79.635 81.499C79.635 81.499 77.3511 86.3123 76.7272 86.5606C76.1033 86.8089 73.8223 87.807 73.8223 87.807" fill="#E63E36"/>
<path d="M54.5879 77.4405C54.5879 77.4405 63.0286 77.4405 63.3774 77.289C63.7464 77.1336 65.9536 74.635 66.175 75.4471C66.312 75.9514 65.7121 76.823 66.474 76.7127C67.236 76.6025 70.437 75.775 70.437 75.775C70.437 75.775 67.7056 81.199 66.6168 81.595C65.5281 81.991 60.2262 83.9604 60.1227 83.8453C60.0192 83.7303 54.5879 77.4405 54.5879 77.4405Z" fill="#E63E36"/>
<path d="M45.5367 79.1623L39.2592 75.468L38.0248 79.6101C38.0248 79.6101 36.2814 85.3754 38.8682 87.3995C41.5047 89.4628 64.8783 81.1557 64.8783 81.1557L65.1831 77.9916L45.5367 79.1623Z" fill="#FFD1C1"/>
<path d="M45.5362 79.1624L37.4492 79.7684L39.4427 73.9705L45.5362 79.1624Z" fill="#FFB2A0"/>
<path d="M63.6259 78.1978C63.6259 78.1978 65.951 74.8927 66.1743 75.4469C66.3976 76.0011 65.8504 76.2025 65.9357 76.843C66.0775 77.9082 71.388 75.1315 71.5605 75.5006C71.7331 75.8698 70.929 80.1758 70.0606 80.636C67.8439 81.8192 63.0557 81.5747 63.0557 81.5747L63.6259 78.1978Z" fill="#FFD1C1"/>
<path d="M80.3488 81.2747C80.3488 81.2747 76.3916 82.4943 76.0082 82.9305C75.6249 83.3668 75.1236 86.5031 75.2051 86.4216C75.2866 86.3401 77.8273 85.2211 78.48 84.6765C79.1326 84.1319 80.3488 81.2747 80.3488 81.2747Z" fill="#FFD1C1"/>
<path d="M232.499 46.9818C232.499 46.9818 236.793 46.7411 237.679 52.2102C238.564 57.6793 238.563 60.387 238.563 60.387L226.694 60.1616C226.694 60.1616 226.589 52.4183 227.578 50.6473C228.567 48.8764 232.499 46.9818 232.499 46.9818Z" fill="#373660"/>
<path d="M247.433 147.614L248.113 149.133L243.13 154.249C242.716 154.673 242.44 155.212 242.336 155.796C242.233 156.379 242.307 156.981 242.55 157.521L257.213 150.947L254.333 144.523L247.433 147.614Z" fill="#4F5285"/>
<path d="M251.427 150.162C251.535 150.404 251.713 150.608 251.937 150.748C252.161 150.889 252.422 150.96 252.686 150.952C252.951 150.944 253.207 150.858 253.422 150.705C253.638 150.551 253.803 150.337 253.897 150.09C253.991 149.842 254.009 149.573 253.95 149.315C253.89 149.057 253.756 148.823 253.563 148.641C253.371 148.46 253.129 148.34 252.868 148.296C252.607 148.252 252.339 148.287 252.098 148.395C251.938 148.467 251.794 148.57 251.673 148.698C251.553 148.826 251.459 148.976 251.397 149.14C251.334 149.304 251.305 149.479 251.31 149.654C251.315 149.83 251.355 150.002 251.427 150.162Z" fill="#373660"/>
<path d="M247.512 149.749L248.455 150.529C248.505 150.569 248.545 150.619 248.574 150.676C248.604 150.733 248.621 150.795 248.626 150.859C248.63 150.922 248.622 150.986 248.601 151.047C248.58 151.107 248.547 151.162 248.504 151.21C248.425 151.297 248.315 151.351 248.197 151.362C248.079 151.372 247.962 151.338 247.868 151.266L246.821 150.46L247.512 149.749Z" fill="#373660"/>
<path d="M246.297 151L247.241 151.78C247.29 151.821 247.33 151.871 247.36 151.927C247.389 151.984 247.406 152.046 247.411 152.11C247.416 152.174 247.407 152.238 247.386 152.298C247.365 152.358 247.332 152.414 247.289 152.461C247.21 152.548 247.1 152.602 246.982 152.613C246.864 152.623 246.747 152.589 246.653 152.517L245.606 151.711L246.297 151Z" fill="#373660"/>
<path d="M244.921 152.412L245.865 153.19C245.914 153.231 245.954 153.281 245.984 153.338C246.013 153.395 246.03 153.457 246.035 153.52C246.04 153.584 246.031 153.648 246.01 153.708C245.989 153.769 245.956 153.824 245.913 153.871C245.834 153.959 245.724 154.014 245.606 154.024C245.488 154.035 245.371 154 245.277 153.928L244.229 153.121L244.921 152.412Z" fill="#373660"/>
<path d="M257.209 150.968L242.546 157.542L243.033 158.631L257.697 152.056L257.209 150.968Z" fill="#373660"/>
<path d="M227.417 150.367V152.032L220.778 154.661C220.227 154.879 219.754 155.258 219.421 155.748C219.088 156.238 218.91 156.817 218.91 157.41H234.979V150.367H227.417Z" fill="#4F5285"/>
<path d="M231.356 155.663C232.093 155.663 232.692 155.065 232.692 154.327C232.692 153.588 232.093 152.99 231.356 152.99C230.618 152.99 230.02 153.588 230.02 154.327C230.02 155.065 230.618 155.663 231.356 155.663Z" fill="#373660"/>
<path d="M226.616 152.349L227.159 153.446C227.187 153.503 227.203 153.565 227.207 153.629C227.21 153.693 227.201 153.756 227.179 153.816C227.157 153.876 227.123 153.931 227.08 153.978C227.036 154.024 226.983 154.061 226.925 154.087C226.816 154.134 226.694 154.139 226.582 154.1C226.47 154.062 226.377 153.982 226.321 153.878L225.695 152.714L226.616 152.349Z" fill="#373660"/>
<path d="M224.996 152.993L225.538 154.09C225.566 154.147 225.583 154.209 225.586 154.273C225.59 154.337 225.58 154.401 225.558 154.461C225.537 154.521 225.503 154.576 225.459 154.622C225.415 154.669 225.362 154.706 225.304 154.731C225.195 154.779 225.073 154.784 224.961 154.745C224.849 154.706 224.756 154.627 224.7 154.522L224.074 153.358L224.996 152.993Z" fill="#373660"/>
<path d="M223.164 153.718L223.707 154.815C223.735 154.872 223.751 154.934 223.754 154.998C223.758 155.062 223.748 155.125 223.727 155.185C223.705 155.245 223.671 155.3 223.627 155.347C223.584 155.393 223.531 155.43 223.473 155.456C223.364 155.503 223.242 155.508 223.13 155.469C223.018 155.43 222.925 155.351 222.869 155.247L222.243 154.083L223.164 153.718Z" fill="#373660"/>
<path d="M234.979 157.41H218.91V158.603H234.979V157.41Z" fill="#373660"/>
<path d="M233.102 48.3759C235.211 48.8026 236.382 51.8084 235.719 55.0876L235.135 57.9746C234.902 59.1214 234.774 60.287 234.752 61.457L234.672 65.6757L229.803 64.6738L230.697 60.2537C228.589 59.827 227.418 56.8211 228.081 53.542C228.744 50.2628 230.994 47.9492 233.102 48.3759Z" fill="#FFD1C1"/>
<path d="M227.5 54.9975C227.583 54.9351 234.613 53.9428 234.76 53.6877C234.907 53.4327 234.862 49.4757 234.862 49.4757C234.862 49.4757 233.828 49.0634 233.474 49.188C233.119 49.3127 231.97 52.5937 231.281 52.6148C230.592 52.6359 227.962 52.0961 227.898 52.4892C227.834 52.8823 227.5 54.9975 227.5 54.9975Z" fill="#FFB2A0"/>
<path d="M230.699 60.2585C230.699 60.2585 232.269 60.3362 233.63 58.5049C233.63 58.5049 232.749 61.2701 230.547 61.0103L230.699 60.2585Z" fill="#FFB2A0"/>
<path d="M235.017 48.5936L234.263 52.8833H226.049C226.049 52.8833 227.325 46.7172 232.922 46.9837C232.922 46.9818 234.705 47.3941 235.017 48.5936Z" fill="#373660"/>
<path d="M235.899 53.5697C235.899 53.5697 236.513 52.3232 236.89 53.3444C237.369 54.6522 235.473 55.3713 235.473 55.3713L235.899 53.5697Z" fill="#FFD1C1"/>
<path d="M253.655 144.823L250.125 134.246L242.291 137.04L248.146 147.294L253.655 144.823Z" fill="#FFD1C1"/>
<path d="M243.333 141.049C243.333 141.049 249.506 138.733 251.55 136.726L250.933 134.448L241.523 137.652L243.333 141.049Z" fill="#FFB2A0"/>
<path d="M234.076 150.368L235.202 139.273L226.913 138.6L228.038 150.354L234.076 150.368Z" fill="#FFD1C1"/>
<path d="M226.243 143.159C226.243 143.159 231.194 143.105 235.834 141.05L235.875 138.279L226.202 138.6L226.243 143.159Z" fill="#FFB2A0"/>
<path d="M244.751 91.2387L240.853 67.487C240.693 66.509 240.277 65.5908 239.648 64.8252C239.019 64.0596 238.199 63.4739 237.271 63.1273C236.556 64.8263 234.978 65.6749 233.678 66.0996C232.912 66.3533 232.1 66.43 231.301 66.3238C230.502 66.2177 229.737 65.9316 229.065 65.487C227.803 64.6384 227.389 63.576 227.258 63.0679C226.246 63.4119 225.352 64.0375 224.682 64.8715C224.013 65.7056 223.595 66.7133 223.477 67.7766L220.89 91.2359C220.89 91.2359 217.947 113.359 217.947 119.078C217.947 122.721 221.294 141.418 221.294 141.418C221.294 141.418 245.98 140.135 256.409 133.602C256.412 133.603 246.342 100.939 244.751 91.2387Z" fill="#FFC967"/>
<path d="M247.861 101.809C247.861 101.809 234.459 91.7094 233.849 91.6221C233.239 91.5349 227.766 104.532 226.853 104.031C224.271 102.621 219.231 99.981 219.231 99.7164C219.231 99.4518 227.935 81.5479 229.414 80.8374C230.894 80.1269 250.563 92.8935 250.212 94.302C249.861 95.7105 247.861 101.809 247.861 101.809Z" fill="#FFA648"/>
<path d="M229.065 65.4868C229.738 65.9301 230.503 66.215 231.302 66.3199C232.101 66.4249 232.913 66.3472 233.677 66.0927C234.978 65.6718 236.552 64.8233 237.27 63.1204C236.642 62.886 235.976 62.7662 235.306 62.7666H229.065C228.451 62.7662 227.841 62.8666 227.259 63.0638C227.394 63.5787 227.808 64.6411 229.065 65.4868Z" fill="#FFD1C1"/>
<path d="M227.897 62.7734C227.897 62.7734 228.639 65.7697 233.393 66.2875C233.393 66.2875 228.922 68.3202 226.691 63.0707L227.897 62.7734Z" fill="#FFB2A0"/>
<path d="M231.006 66.2759C231.006 66.2759 229.04 68.3929 227.897 67.8608C226.754 67.3286 226.329 63.4857 226.329 63.4857C226.621 63.3068 226.935 63.1672 227.263 63.0706C227.263 63.0706 228.597 65.8703 231.006 66.2759Z" fill="white"/>
<path d="M232.721 66.3143C232.721 66.3143 233.953 68.6289 235.391 68.4831C236.828 68.3374 238.458 63.737 238.458 63.737C238.098 63.4742 237.7 63.2685 237.277 63.1272C237.277 63.1272 236.427 65.5012 232.721 66.3143Z" fill="white"/>
<path d="M220.11 78.1289L218.871 83.969L211.89 100.917C211.89 100.917 208.445 103.602 208.609 103.88C208.773 104.158 210.519 103.061 210.901 103.88C211.284 104.699 208.488 108.139 208.601 108.357C208.714 108.576 212.482 109.176 213.137 108.357C213.793 107.539 214.823 102.245 214.823 102.245L221.903 90.1869L224.265 80.5269L220.11 78.1289Z" fill="#FFD1C1"/>
<path d="M218.865 79.8469L223.274 83.9698C223.274 83.9698 215.722 98.143 216.058 100.142C216.058 100.142 227.347 81.9304 226.907 81.1039C226.467 80.2774 219.75 75.3769 219.475 75.4872C219.2 75.5974 218.865 79.8469 218.865 79.8469Z" fill="#FFB2A0"/>
<path d="M254.331 84.9662L239.535 76.4279L248.069 61.6258L238.387 56.0378L229.852 70.84L215.056 62.3018L209.471 71.9886L224.267 80.5269L215.732 95.329L225.415 100.917L233.949 86.1148L248.745 94.653L254.331 84.9662Z" fill="#FE6C61"/>
<path d="M237.839 88.761L249.244 81.7137L247.093 80.1116L235.402 87.7102L237.839 88.761Z" fill="#E63E36"/>
<path d="M229.72 94.0538C229.72 94.0538 227.878 95.538 227.444 95.5131C227.01 95.4881 223.464 92.8955 223.464 92.8955L231.898 90.9578L229.72 94.0538Z" fill="#E63E36"/>
<path d="M248.21 77.0099L244.759 67.3757L240.926 74.0251L242.294 77.5928L229.85 88.5818C229.198 88.6153 224.594 88.8694 224.804 89.2884C225.032 89.7429 227.466 89.0612 227.362 89.9711C227.259 90.881 222.94 92.2905 223.077 92.6088C223.214 92.9271 226.714 94.4737 227.532 94.2915C228.351 94.1093 232.405 90.1283 232.405 90.1283H232.4C234.181 89.1063 239.008 86.3142 243.109 83.7561C243.412 83.5643 246.692 81.4741 246.692 81.4741C247.412 81.0119 247.955 80.3186 248.231 79.5076C248.507 78.6966 248.499 77.816 248.21 77.0099Z" fill="#FFD1C1"/>
<path d="M242.296 77.5928L245.296 75.6013C245.296 75.6013 243.188 75.8084 242.773 75.353C242.358 74.8975 240.498 71.6702 240.498 71.6702L239.795 72.4564L242.296 77.5928Z" fill="#FFB2A0"/>
<path d="M73.771 31.7074C79.2636 26.2126 79.2636 17.3036 73.771 11.8087C68.2785 6.31377 59.3733 6.31376 53.8807 11.8087C48.3881 17.3036 48.3881 26.2126 53.8807 31.7074C59.3733 37.2023 68.2785 37.2023 73.771 31.7074Z" fill="#FFC967"/>
<path d="M69.062 17.0171C68.4428 13.1933 63.8262 13.2422 63.8262 13.2422C63.8262 13.2422 59.2105 13.1933 58.5904 17.0171C57.9703 20.8408 61.2174 26.1047 61.2174 26.1047H66.4359C66.4359 26.1047 69.683 20.8398 69.062 17.0171Z" fill="white"/>
<path d="M65.3848 26.4709H62.1262C62.1132 26.4709 62.1004 26.4683 62.0884 26.4632C62.0765 26.4581 62.0657 26.4506 62.0567 26.4412C62.0477 26.4318 62.0408 26.4206 62.0363 26.4084C62.0317 26.3962 62.0297 26.3832 62.0304 26.3703V19.0219C62.0304 18.5629 62.2126 18.1227 62.5371 17.7982C62.8615 17.4736 63.3015 17.2913 63.7603 17.2913C64.2191 17.2913 64.6591 17.4736 64.9835 17.7982C65.308 18.1227 65.4902 18.5629 65.4902 19.0219V26.3674C65.4914 26.3814 65.4895 26.3956 65.4846 26.4089C65.4797 26.4221 65.472 26.4341 65.4619 26.444C65.4518 26.4539 65.4397 26.4614 65.4264 26.4661C65.413 26.4707 65.3988 26.4724 65.3848 26.4709ZM62.2269 26.2715H65.2842V19.0219C65.2537 18.6372 65.0794 18.2782 64.7961 18.0163C64.5128 17.7544 64.1412 17.609 63.7555 17.609C63.3698 17.609 62.9982 17.7544 62.7149 18.0163C62.4316 18.2782 62.2573 18.6372 62.2269 19.0219V26.2715Z" fill="#FE6D60"/>
<path d="M67.1257 27.2303H60.5079C60.3584 27.2303 60.2151 27.1709 60.1094 27.0652C60.0037 26.9595 59.9443 26.8161 59.9443 26.6665C59.9442 26.5924 59.9587 26.519 59.987 26.4505C60.0152 26.382 60.0567 26.3197 60.1091 26.2673C60.1614 26.2148 60.2236 26.1732 60.292 26.1448C60.3604 26.1164 60.4338 26.1018 60.5079 26.1018H67.1257C67.2754 26.1018 67.419 26.1613 67.5248 26.2672C67.6307 26.3731 67.6902 26.5168 67.6902 26.6665C67.6899 26.8162 67.6303 26.9596 67.5245 27.0653C67.4186 27.171 67.2752 27.2303 67.1257 27.2303Z" fill="#373660"/>
<path d="M67.1355 29.0367H60.5225C60.373 29.0367 60.2295 28.9774 60.1237 28.8717C60.0178 28.766 59.9583 28.6226 59.958 28.4729C59.958 28.3232 60.0175 28.1795 60.1233 28.0736C60.2292 27.9677 60.3728 27.9082 60.5225 27.9082H67.1355C67.2099 27.9083 67.2835 27.9232 67.3521 27.9518C67.4207 27.9805 67.483 28.0225 67.5354 28.0753C67.5878 28.1281 67.6292 28.1908 67.6573 28.2597C67.6853 28.3286 67.6995 28.4024 67.699 28.4768C67.698 28.6256 67.6382 28.7681 67.5326 28.873C67.4271 28.9779 67.2843 29.0367 67.1355 29.0367Z" fill="#373660"/>
<path d="M65.6301 27.2332H61.8799V27.9082H65.6301V27.2332Z" fill="#4F5285"/>
<path d="M64.3957 30.2725H63.1143C62.7868 30.2723 62.4729 30.142 62.2414 29.9102C62.0099 29.6785 61.8799 29.3642 61.8799 29.0366H65.6311C65.6311 29.3644 65.5009 29.6788 65.2692 29.9105C65.0376 30.1423 64.7233 30.2725 64.3957 30.2725Z" fill="#4F5285"/>
<path d="M260.394 21.7927H233.249C233.079 21.7926 232.91 21.826 232.753 21.8911C232.596 21.9561 232.453 22.0515 232.333 22.1718C232.212 22.2921 232.117 22.4349 232.052 22.5921C231.987 22.7494 231.953 22.9179 231.953 23.0881V35.9199C231.953 36.0901 231.987 36.2586 232.052 36.4158C232.117 36.573 232.212 36.7159 232.333 36.8362C232.453 36.9565 232.596 37.0518 232.753 37.1169C232.91 37.1819 233.079 37.2153 233.249 37.2152H238.627L237.811 42.4455C237.794 42.5558 237.811 42.6686 237.86 42.7688C237.909 42.869 237.987 42.9519 238.084 43.0063C238.182 43.0606 238.293 43.0839 238.404 43.073C238.515 43.0621 238.62 43.0174 238.705 42.9451C240.752 41.1952 244.913 37.6208 245.216 37.2152H260.394C260.564 37.2153 260.732 37.1819 260.89 37.1169C261.047 37.0518 261.19 36.9565 261.31 36.8362C261.43 36.7159 261.526 36.573 261.591 36.4158C261.656 36.2586 261.69 36.0901 261.69 35.9199V23.0881C261.69 22.9179 261.656 22.7494 261.591 22.5921C261.526 22.4349 261.43 22.2921 261.31 22.1718C261.19 22.0515 261.047 21.9561 260.89 21.8911C260.732 21.826 260.564 21.7926 260.394 21.7927Z" fill="#E8E8E8"/>
<path d="M259.368 24.5552H234.232C234.182 24.5552 234.142 24.5955 234.142 24.6453V26.1487C234.142 26.1985 234.182 26.2388 234.232 26.2388H259.368C259.418 26.2388 259.458 26.1985 259.458 26.1487V24.6453C259.458 24.5955 259.418 24.5552 259.368 24.5552Z" fill="white"/>
<path d="M259.389 28.6628H234.253C234.203 28.6628 234.163 28.7032 234.163 28.753V30.2564C234.163 30.3062 234.203 30.3465 234.253 30.3465H259.389C259.439 30.3465 259.479 30.3062 259.479 30.2564V28.753C259.479 28.7032 259.439 28.6628 259.389 28.6628Z" fill="white"/>
<path d="M248.495 32.7703H234.253C234.215 32.7703 234.185 32.8007 234.185 32.8383V34.3859C234.185 34.4235 234.215 34.4539 234.253 34.4539H248.495C248.533 34.4539 248.564 34.4235 248.564 34.3859V32.8383C248.564 32.8007 248.533 32.7703 248.495 32.7703Z" fill="white"/>
<path d="M269.659 158.4H12.2041V158.92H269.659V158.4Z" fill="#373660"/>
<defs>
<linearGradient id="paint0_linear_176_1509" x1="190.546" y1="127.77" x2="275.408" y2="127.77" gradientUnits="userSpaceOnUse">
<stop stop-color="white"/>
<stop offset="1" stop-color="#E8E8E8"/>
</linearGradient>
</defs>
</svg>
