<svg width="238" height="174" viewBox="0 0 238 174" fill="none" xmlns="http://www.w3.org/2000/svg">
<path d="M204.036 173.007C204.036 173.007 232.597 149.622 237.234 100.899C241.033 60.9725 225.329 31.0806 189.347 9.72827C163.264 -5.74621 96.6463 -3.33989 61.0963 21.1333C27.8544 44.0179 25.2304 72.5002 25.2304 72.5002C25.2304 72.5002 1.47383 84.5154 0.0795072 117.002C-1.48348 153.407 20.5159 172.891 20.5159 172.891L204.036 173.007Z" fill="#EAFCFC"/>
<path d="M120.715 81.0552C126.679 81.7503 127.175 83.5085 127.461 85.1369C127.748 86.7653 105.76 89.8044 100.592 89.3526L95.4238 88.8997C96.7405 83.6547 101.493 84.4203 101.493 84.4203C116.301 83.301 120.715 81.0552 120.715 81.0552Z" fill="#6EC2D9"/>
<path d="M222.36 171.729H4.50089C3.91036 171.729 3.43164 172.208 3.43164 172.798C3.43164 173.389 3.91036 173.867 4.50089 173.867H222.36C222.951 173.867 223.429 173.389 223.429 172.798C223.429 172.208 222.951 171.729 222.36 171.729Z" fill="#1D6E87"/>
<path d="M75.9765 125.75H73.1357V167.293H75.9765V125.75Z" fill="#13375B"/>
<path d="M60.2007 169.146H88.4224C89.0459 169.146 89.644 169.393 90.0849 169.834C90.5258 170.275 90.7735 170.873 90.7735 171.497C90.7735 171.605 90.7304 171.709 90.6537 171.786C90.5771 171.863 90.4731 171.906 90.3646 171.906H58.2585C58.1501 171.906 58.0461 171.863 57.9694 171.786C57.8927 171.709 57.8496 171.605 57.8496 171.497C57.8496 170.873 58.0973 170.275 58.5382 169.834C58.9792 169.393 59.5772 169.146 60.2007 169.146Z" fill="#13375B"/>
<path d="M72.8288 167.015H76.286C76.5296 167.015 76.7708 167.063 76.9958 167.157C77.2208 167.25 77.4252 167.387 77.5972 167.559C77.7693 167.732 77.9056 167.936 77.9985 168.162C78.0913 168.387 78.1388 168.628 78.1383 168.872C78.1383 169.363 77.9431 169.834 77.5958 170.181C77.2484 170.529 76.7773 170.724 76.286 170.724H72.8288C72.3376 170.724 71.8665 170.529 71.5191 170.181C71.1717 169.834 70.9766 169.363 70.9766 168.872C70.976 168.628 71.0235 168.387 71.1164 168.162C71.2092 167.936 71.3456 167.732 71.5176 167.559C71.6897 167.387 71.8941 167.25 72.1191 167.157C72.3441 167.063 72.5853 167.015 72.8288 167.015Z" fill="#13375B"/>
<path d="M88.9334 154.345C88.9334 154.345 83.352 160.947 83.3111 161.576C83.2702 162.205 83.5523 169.069 84.2761 169.698C84.9998 170.326 85.6428 170.883 85.4874 171.106C85.0632 171.72 82.2449 171.428 79.6127 171.285C78.844 171.243 77.9485 165.543 77.6439 164.65C77.2023 163.353 75.766 160.526 76.1678 159.623C76.364 159.182 77.3004 158.276 78.6211 157.432C80.0093 156.543 84.0676 150.839 84.0676 150.839L88.9334 154.345Z" fill="#F48C7F"/>
<path d="M78.7111 157.389C78.7111 157.389 82.7949 168.785 84.3937 169.335C84.8189 169.481 86.8552 169.852 87.2396 170.744C87.3561 171.013 87.2396 171.912 87.2396 171.912H78.7213C78.7213 171.912 77.6449 166.891 77.2187 164.685C77.2187 164.685 74.9698 159.293 75.2161 158.804C75.4625 158.314 78.7111 157.389 78.7111 157.389Z" fill="#8ACBE2"/>
<path d="M107.9 114.298C107.9 114.298 101.75 121.249 100.181 122.356C98.6133 123.463 83.5569 150.931 83.5569 150.931L88.9206 154.815C88.9206 154.815 102.376 138.19 108.695 129.297C114.038 121.778 112.068 122.255 115.211 117.677C116.051 116.461 116.418 114.98 116.245 113.513C116.071 112.045 115.368 110.691 114.268 109.704C113.985 109.451 113.676 109.185 113.341 108.908C108.69 105.066 76.8113 100.743 76.8113 100.743L56.4209 102.722C56.4209 102.722 73.0832 114.3 73.6965 114.608C74.3099 114.915 96.7028 118.151 97.1689 118.151C97.6351 118.151 107.9 114.298 107.9 114.298Z" fill="#8ACBE2"/>
<path d="M123.458 78.0713C123.561 74.9382 123.554 71.479 121.503 69.1084C120.211 67.615 118.311 66.8186 116.484 66.0724C114.479 65.2546 112.239 64.4277 110.21 65.18C109.384 65.4867 108.677 66.0326 107.994 66.5927C106.671 67.6834 105.401 68.8805 104.527 70.3545C103.109 72.7435 102.855 75.664 103.132 78.4301C103.377 80.8763 103.808 81.3394 104.8 83.5883C105.469 85.1073 108.88 86.5977 110.449 87.1415C112.941 88.0053 120.991 84.7035 122.378 82.2246C122.745 81.5694 123.022 80.726 123.233 79.8296C123.368 79.2509 123.471 78.6649 123.539 78.0744L123.458 78.0713Z" fill="#13375B"/>
<path d="M97.5406 80.3284C97.5406 80.3284 93.6357 73.3691 89.7227 73.2996C82.4209 73.1697 74.5569 80.4388 67.986 85.2811C55.8522 94.2246 53.3682 104.178 53.3682 104.178C53.3682 104.178 71.6875 103.283 78.0539 102.898C78.0539 102.898 85.7677 99.3694 88.0278 97.9833C93.2943 94.7541 97.6224 89.7431 98.1335 88.4224C98.6447 87.1017 97.5406 80.3284 97.5406 80.3284Z" fill="#94DCF0"/>
<path d="M106.091 76.0279C106.091 76.0279 105.896 76.0667 105.563 76.1301C103.964 76.4368 98.6024 77.2852 96.9597 77.089C94.9755 76.8518 91.2557 82.7797 93.3533 86.2696C93.9789 87.3082 97.7979 83.4513 98.3254 83.3583C99.3364 83.1814 100.715 82.9392 102.128 82.6897L104.492 82.2717L108.416 81.5776L106.091 76.0279Z" fill="#F7A491"/>
<path d="M93.166 84.4204C93.166 84.4204 93.3142 85.3813 94.407 85.9006L92.1826 88.0411L93.166 84.4204Z" fill="#8ACBE2"/>
<path d="M105.562 76.1291C105.895 76.0667 106.091 76.0269 106.091 76.0269L108.415 81.5735L104.492 82.2676L102.141 82.6836C101.929 81.7687 101.993 80.7025 102.423 79.4902C102.861 78.2539 103.616 77.1543 104.613 76.3008C104.99 76.2364 105.315 76.1761 105.562 76.1291Z" fill="#F47458"/>
<path d="M120.582 74.7164C120.582 74.7164 119.854 71.9564 117.09 71.1294C114.327 70.3024 107.083 71.0711 105.13 76.5728C103.178 82.0744 108.791 84.5655 113.298 83.5004C117.805 82.4352 123.076 80.6474 120.582 74.7164Z" fill="#F7A491"/>
<path d="M121.399 74.7389C121.399 74.7389 113.795 73.641 112.522 71.2296C111.249 68.8181 107.812 69.778 107.812 69.778C107.812 69.778 115.785 67.7039 118.233 69.6287C120.681 71.5536 121.399 74.7389 121.399 74.7389Z" fill="#13375B"/>
<path d="M125.867 157.564C125.867 157.564 130.834 164.494 130.398 166.686C130.164 167.861 129.498 169.183 130.096 170.288C130.694 171.393 131.62 171.235 131.62 171.235L145.253 171.482C146.096 171.496 146.786 171.606 146.101 171.111C144.987 170.301 144.088 169.765 140.53 168.063C140.298 167.953 139.454 167.421 139.149 167.237C138.376 166.77 137.6 166.036 136.932 165.301C135.82 164.074 130.927 154.093 130.927 154.093L125.867 157.564Z" fill="#F7A491"/>
<path d="M139.146 167.236C135.048 168.277 132.019 167.569 130.325 166.894C129.887 168.12 129.309 169.654 129.615 170.541C129.992 171.627 130.527 171.87 131 171.884C134.744 171.986 144.711 172.113 147.561 172.15C147.649 172.152 147.737 172.128 147.813 172.082C147.888 172.036 147.949 171.968 147.987 171.888C148.026 171.808 148.04 171.718 148.029 171.63C148.017 171.542 147.981 171.459 147.923 171.391C147.219 170.555 139.451 167.42 139.146 167.236Z" fill="#8ACBE2"/>
<path d="M54.3488 102.898C54.3488 102.898 50.8518 113.296 56.0979 118.149C61.3439 123.001 92.5116 122.463 102.771 122.463C102.771 122.463 106.968 133.862 107.434 135.711C107.9 137.559 128.264 161.436 128.264 161.436L133.86 157.893C133.86 157.893 111.942 115.685 110.232 113.835C108.522 111.985 84.1171 104.593 78.0543 102.897C71.9914 101.201 54.3488 102.898 54.3488 102.898Z" fill="#C5EFF9"/>
<path d="M92.8445 120.968L90.9023 112.883C90.2301 110.122 88.6794 107.654 86.4833 105.85C84.2873 104.046 81.5648 103.004 78.7255 102.881L54.1267 101.886L53.3682 99.3817L78.8216 100.411C82.1981 100.557 85.4358 101.796 88.0472 103.942C90.6586 106.087 92.5026 109.023 93.3015 112.307L95.3654 120.893C94.6702 120.929 93.8177 120.951 92.8445 120.968Z" fill="#355389"/>
<path d="M59.8489 116.662C59.8489 116.662 93.6448 117.241 97.1684 116.662C100.692 116.084 102.217 120.501 101.165 122.815C100.113 125.13 97.2216 126.023 92.962 126.234C88.7023 126.444 53.2576 127.443 52.2589 126.496C51.4411 125.723 40.6975 88.9887 36.7885 75.5546C36.4136 74.2656 36.5656 72.8805 37.2111 71.7035C37.8566 70.5265 38.9429 69.6538 40.2314 69.2771C41.5142 68.9011 42.8937 69.0468 44.0696 69.6825C45.2456 70.3183 46.123 71.3926 46.5109 72.6719L59.8489 116.662Z" fill="#F47458"/>
<path d="M143.353 87.9512C143.547 87.6547 143.059 87.1518 142.695 86.7735C142.286 86.3555 139.838 85.3056 139.423 85.1799C139.008 85.0542 135.437 85.553 134.067 85.9977C132.697 86.4423 131.799 86.2594 131.799 86.2594C131.44 86.1868 130.9 86.0897 130.482 86.0038L129.618 89.1635C132.829 89.1226 136.185 89.3598 136.49 89.3516C137.455 89.3281 139.221 88.3294 139.631 88.1801C140.041 88.0309 140.872 88.1495 141.43 88.4091C141.988 88.6688 143.612 89.2841 143.883 89.141C144.154 88.9979 143.353 87.9512 143.353 87.9512Z" fill="#F7A491"/>
<path d="M184.171 88.8998H23.9775V91.393H184.171V88.8998Z" fill="#355389"/>
<path d="M111.272 72.6985C110.263 73.3619 109.063 73.32 108.593 72.6045C108.122 71.8889 108.559 70.7716 109.568 70.1082C110.577 69.4448 111.776 69.4867 112.247 70.2022C112.718 70.9178 112.281 72.0351 111.272 72.6985Z" fill="#F7A491"/>
<path d="M109.818 81.9895C107.941 81.8392 91.7035 73.1513 88.9016 73.1697C85.5364 73.1922 81.4792 79.2693 83.3744 82.5221C84.1196 83.8009 106.28 88.8752 107.661 88.8997C109.043 88.9243 132.502 88.9396 132.502 88.9396L133.152 85.1574C133.152 85.1574 111.116 82.0927 109.818 81.9895Z" fill="#C5EFF9"/>
<path d="M95.2717 76.676L93.0811 75.1835L92.5362 81.1789L91.7031 80.9325L92.1825 88.0411L95.2717 76.676Z" fill="#C5EFF9"/>
<path d="M97.9183 82.5221L98.1187 84.678L96.8225 84.3887L97.1813 85.597L92.1826 88.0411L97.9183 82.5221Z" fill="#C5EFF9"/>
<path d="M179.408 171.771H182.256L176.118 91.2253H173.271L179.408 171.771Z" fill="#13375B"/>
<path d="M155.205 171.771H152.356L158.494 91.2253H161.342L155.205 171.771Z" fill="#13375B"/>
<path d="M51.824 171.771H54.6719L48.5345 91.2253H45.6865L51.824 171.771Z" fill="#13375B"/>
<path d="M27.6204 171.771H24.7725L30.9099 91.2253H33.7578L27.6204 171.771Z" fill="#13375B"/>
<path d="M172.832 63.1969H142.137C141.742 63.1957 141.355 63.3116 141.026 63.5299C140.696 63.7482 140.439 64.0592 140.286 64.4235L130.834 87.2673H113.912C113.687 87.267 113.47 87.3561 113.31 87.5152C113.15 87.6742 113.06 87.8901 113.059 88.1157C113.06 88.3419 113.151 88.5583 113.312 88.7174C113.473 88.8765 113.69 88.9653 113.916 88.9642H162.074C162.721 88.9651 163.353 88.78 163.897 88.4311C164.441 88.0821 164.873 87.5841 165.141 86.9964L174.657 65.9886C174.792 65.6855 174.849 65.3534 174.822 65.0227C174.796 64.692 174.687 64.3732 174.505 64.0954C174.324 63.8177 174.076 63.5899 173.783 63.433C173.491 63.276 173.164 63.1948 172.832 63.1969Z" fill="#13375B"/>
<path d="M156.305 76.4991C156.101 77.5214 155.195 78.2114 154.289 78.0325C153.382 77.8536 152.814 76.8712 153.027 75.849C153.24 74.8268 154.137 74.1368 155.044 74.3157C155.951 74.4945 156.513 75.4728 156.305 76.4991Z" fill="white"/>
<path d="M143.207 6.47148C130.06 6.72397 120.315 15.4773 119.028 27.5764C118.018 37.0606 122.46 57.3631 139.243 56.1671C149.778 55.4157 147.959 43.5671 154.711 36.7161C165.812 25.4532 161.921 6.11267 143.207 6.47148Z" fill="#B3D0FA"/>
<path d="M139.915 40.7068C139.647 40.8551 135.022 45.3426 133.363 47.2419C138.442 47.1182 140.779 46.7196 140.84 47.9095C140.869 48.4747 140.352 48.8059 139.761 48.8059C139.385 48.8059 138.86 48.7599 138.484 48.7599C136.528 48.7599 133.741 48.8622 131.785 48.8622C131.171 48.8622 130.66 48.5637 130.66 47.9851C130.66 47.2695 131.432 46.4773 131.951 45.8783C133.814 43.6621 135.288 41.7894 137.062 40.3501C134.884 40.4881 131.935 40.4421 131.882 40.4421C131.619 40.4506 131.361 40.3723 131.148 40.2192C131.041 40.1448 130.954 40.045 130.895 39.9286C130.836 39.8123 130.807 39.6831 130.81 39.5527C130.81 38.9551 131.307 38.6562 132.3 38.6562C132.637 38.6562 133.141 38.6747 133.812 38.7115C134.481 38.7493 140.892 38.4048 140.892 39.565C140.886 39.9255 140.561 40.3061 139.915 40.7068Z" fill="white"/>
<path d="M150.406 25.6464C150.172 25.7752 146.148 29.6801 144.704 31.333C149.124 31.2308 151.158 30.8792 151.21 31.9147C151.236 32.4064 150.786 32.6936 150.272 32.6936C149.945 32.6936 149.488 32.6538 149.161 32.6538C147.459 32.6538 145.034 32.7396 143.334 32.7396C142.799 32.7396 142.352 32.48 142.352 31.9771C142.352 31.3525 143.022 30.6645 143.476 30.1442C145.096 28.2142 146.379 26.5868 147.92 25.3336C146.025 25.4532 143.459 25.4133 143.412 25.4133C143.183 25.4204 142.959 25.3521 142.774 25.2191C142.68 25.1544 142.605 25.0674 142.553 24.966C142.502 24.8646 142.477 24.752 142.48 24.6385C142.48 24.1192 142.912 23.8592 143.777 23.8585C144.07 23.8585 144.508 23.8749 145.091 23.9076C145.675 23.9403 151.253 23.6367 151.253 24.6507C151.25 24.9656 150.968 25.2975 150.406 25.6464Z" fill="white"/>
<path d="M138.935 15.4834C138.731 15.5969 135.198 19.0244 133.926 20.476C137.811 20.3809 139.592 20.0773 139.638 20.9871C139.659 21.4185 139.264 21.671 138.814 21.671C138.525 21.671 138.126 21.6362 137.838 21.6362C136.344 21.6362 134.216 21.7108 132.721 21.7108C132.251 21.7108 131.858 21.4839 131.858 21.0413C131.858 20.4934 132.447 19.8892 132.845 19.4323C134.267 17.7395 135.392 16.3104 136.746 15.2095C135.082 15.3117 132.83 15.28 132.789 15.28C132.588 15.2862 132.391 15.2266 132.227 15.1103C132.145 15.0532 132.079 14.9766 132.034 14.8873C131.989 14.7981 131.967 14.6991 131.97 14.5992C131.97 14.1433 132.349 13.915 133.108 13.9143C133.365 13.9143 133.75 13.9286 134.263 13.9572C134.774 13.9859 139.671 13.7191 139.671 14.6094C139.674 14.8875 139.429 15.1788 138.935 15.4834Z" fill="white"/>
<path d="M120.836 49.9304C117.78 44.5883 113.833 51.6682 118.28 55.0416C122.728 58.4149 124.209 55.8246 120.836 49.9304Z" fill="#B3D0FA"/>
<path d="M113.22 58.8074C112.265 61.0666 116.594 61.5675 116.083 58.8074C115.571 56.0474 114.142 56.6311 113.22 58.8074Z" fill="#B3D0FA"/>
</svg>
