<svg
      width="36"
      height="36"
      viewBox="0 0 36 36"
      fill="none"
      xmlns="http://www.w3.org/2000/svg"
    >
      <rect width="36" height="36" rx="18" fill="#F3F2F2" />
      <path
        d="M21.3334 18.8334H19.6667C19.6667 19.7539 18.9206 20.5 18.0001 20.5C17.0796 20.5 16.3334 19.7539 16.3334 18.8334H14.6667C14.6667 20.6743 16.1591 22.1667 18.0001 22.1667C19.841 22.1667 21.3334 20.6743 21.3334 18.8334Z"
        fill="#696763"
      />
      <path
        d="M16.3334 16.3333C16.3334 16.7936 15.9603 17.1667 15.5001 17.1667C15.0398 17.1667 14.6667 16.7936 14.6667 16.3333C14.6667 15.8731 15.0398 15.5 15.5001 15.5C15.9603 15.5 16.3334 15.8731 16.3334 16.3333Z"
        fill="#696763"
      />
      <path
        d="M20.5001 17.1667C20.9603 17.1667 21.3334 16.7936 21.3334 16.3333C21.3334 15.8731 20.9603 15.5 20.5001 15.5C20.0398 15.5 19.6667 15.8731 19.6667 16.3333C19.6667 16.7936 20.0398 17.1667 20.5001 17.1667Z"
        fill="#696763"
      />
      <path
        fill-rule="evenodd"
        clip-rule="evenodd"
        d="M26.3334 18C26.3334 22.6023 22.6024 26.3333 18.0001 26.3333C13.3977 26.3333 9.66675 22.6023 9.66675 18C9.66675 13.3976 13.3977 9.66663 18.0001 9.66663C22.6024 9.66663 26.3334 13.3976 26.3334 18ZM24.6667 18C24.6667 21.6819 21.682 24.6666 18.0001 24.6666C14.3182 24.6666 11.3334 21.6819 11.3334 18C11.3334 14.3181 14.3182 11.3333 18.0001 11.3333C21.682 11.3333 24.6667 14.3181 24.6667 18Z"
        fill="#696763"
      />
    </svg>