<svg
      width="36"
      height="36"
      viewBox="0 0 36 36"
      fill="none"
      xmlns="http://www.w3.org/2000/svg"
    >
      <rect width="36" height="36" rx="18" fill="#F3F2F2" />
      <path
        d="M12.1667 17.25L13.8333 15.5833L18.4167 20.1667L21.3333 17.25L23.8333 19.75V12.1667H12.1667V17.25ZM11.3333 10.5H24.6667C24.8877 10.5 25.0996 10.5878 25.2559 10.7441C25.4122 10.9004 25.5 11.1123 25.5 11.3333V24.6667C25.5 24.8877 25.4122 25.0996 25.2559 25.2559C25.0996 25.4122 24.8877 25.5 24.6667 25.5H11.3333C11.1123 25.5 10.9004 25.4122 10.7441 25.2559C10.5878 25.0996 10.5 24.8877 10.5 24.6667V11.3333C10.5 11.1123 10.5878 10.9004 10.7441 10.7441C10.9004 10.5878 11.1123 10.5 11.3333 10.5ZM20.9167 16.3333C20.5851 16.3333 20.2672 16.2016 20.0328 15.9672C19.7984 15.7328 19.6667 15.4149 19.6667 15.0833C19.6667 14.7518 19.7984 14.4339 20.0328 14.1994C20.2672 13.965 20.5851 13.8333 20.9167 13.8333C21.2482 13.8333 21.5661 13.965 21.8005 14.1994C22.035 14.4339 22.1667 14.7518 22.1667 15.0833C22.1667 15.4149 22.035 15.7328 21.8005 15.9672C21.5661 16.2016 21.2482 16.3333 20.9167 16.3333Z"
        fill="#696763"
      />
    </svg>