    <svg
      width="36"
      height="36"
      viewBox="0 0 36 36"
      fill="none"
      xmlns="http://www.w3.org/2000/svg"
    >
      <rect width="36" height="36" rx="18" fill="#F3F2F2" />
      <path
        d="M14.6667 11.3333H25.5V13H14.6667V11.3333ZM11.75 13.4166C11.4185 13.4166 11.1005 13.2849 10.8661 13.0505C10.6317 12.8161 10.5 12.4981 10.5 12.1666C10.5 11.8351 10.6317 11.5172 10.8661 11.2827C11.1005 11.0483 11.4185 10.9166 11.75 10.9166C12.0815 10.9166 12.3995 11.0483 12.6339 11.2827C12.8683 11.5172 13 11.8351 13 12.1666C13 12.4981 12.8683 12.8161 12.6339 13.0505C12.3995 13.2849 12.0815 13.4166 11.75 13.4166ZM11.75 19.25C11.4185 19.25 11.1005 19.1183 10.8661 18.8838C10.6317 18.6494 10.5 18.3315 10.5 18C10.5 17.6684 10.6317 17.3505 10.8661 17.1161C11.1005 16.8817 11.4185 16.75 11.75 16.75C12.0815 16.75 12.3995 16.8817 12.6339 17.1161C12.8683 17.3505 13 17.6684 13 18C13 18.3315 12.8683 18.6494 12.6339 18.8838C12.3995 19.1183 12.0815 19.25 11.75 19.25ZM11.75 25C11.4185 25 11.1005 24.8683 10.8661 24.6338C10.6317 24.3994 10.5 24.0815 10.5 23.75C10.5 23.4184 10.6317 23.1005 10.8661 22.8661C11.1005 22.6317 11.4185 22.5 11.75 22.5C12.0815 22.5 12.3995 22.6317 12.6339 22.8661C12.8683 23.1005 13 23.4184 13 23.75C13 24.0815 12.8683 24.3994 12.6339 24.6338C12.3995 24.8683 12.0815 25 11.75 25ZM14.6667 17.1666H25.5V18.8333H14.6667V17.1666ZM14.6667 23H25.5V24.6666H14.6667V23Z"
        fill="#696763"
      />
    </svg>