<svg width="61" height="60" viewBox="0 0 61 60" fill="none" xmlns="http://www.w3.org/2000/svg">
<g filter="url(#filter0_d_3737_268)">
<path d="M30.4287 45C41.4744 45 50.4287 36.0457 50.4287 25C50.4287 13.9543 41.4744 5 30.4287 5C19.383 5 10.4287 13.9543 10.4287 25C10.4287 36.0457 19.383 45 30.4287 45Z" fill="#EDD486"/>
<g style="mix-blend-mode:soft-light" opacity="0.58">
<g style="mix-blend-mode:overlay" opacity="0.58">
<path d="M14.6475 24.5897L15.0259 24.9571L16.441 23.583" stroke="white" stroke-miterlimit="10" stroke-linecap="round"/>
</g>
<g style="mix-blend-mode:overlay" opacity="0.58">
<path d="M18.292 24.8248L18.5314 25.0555L19.4273 24.1855" stroke="white" stroke-miterlimit="10" stroke-linecap="round"/>
</g>
<g style="mix-blend-mode:overlay" opacity="0.58">
<path d="M35.4717 20.7401L35.8483 21.1075L37.2635 19.7334" stroke="white" stroke-miterlimit="10" stroke-linecap="round"/>
</g>
<g style="mix-blend-mode:overlay" opacity="0.58">
<path d="M36.3672 39.5806L36.7438 39.9464L38.159 38.5723" stroke="white" stroke-miterlimit="10" stroke-linecap="round"/>
</g>
<g style="mix-blend-mode:overlay" opacity="0.58">
<path d="M44.1201 32.191L44.4968 32.5567L45.9119 31.1826" stroke="white" stroke-miterlimit="10" stroke-linecap="round"/>
</g>
<g style="mix-blend-mode:overlay" opacity="0.58">
<path d="M40.0664 16.6902L40.2776 16.8953L41.0679 16.1279" stroke="white" stroke-miterlimit="10" stroke-linecap="round"/>
</g>
<g style="mix-blend-mode:overlay" opacity="0.58">
<path d="M40.1396 23.7361L40.3192 23.9104L40.9933 23.2559" stroke="white" stroke-miterlimit="10" stroke-linecap="round"/>
</g>
<g style="mix-blend-mode:overlay" opacity="0.58">
<path d="M32.0273 37.4949L32.2069 37.6692L32.881 37.0146" stroke="white" stroke-miterlimit="10" stroke-linecap="round"/>
</g>
<g style="mix-blend-mode:overlay" opacity="0.58">
<path d="M27.5889 7.49784L27.7702 7.67217L28.4425 7.01758" stroke="white" stroke-miterlimit="10" stroke-linecap="round"/>
</g>
<g style="mix-blend-mode:overlay" opacity="0.58">
<path d="M38.7168 21.7096L39.2114 22.1898L41.0683 20.3867" stroke="white" stroke-miterlimit="10" stroke-linecap="round"/>
</g>
<g style="mix-blend-mode:overlay" opacity="0.58">
<path d="M45.0156 24.1412L45.5102 24.6215L47.3671 22.8184" stroke="white" stroke-miterlimit="10" stroke-linecap="round"/>
</g>
<g style="mix-blend-mode:overlay" opacity="0.58">
<path d="M42.9258 27.2061L43.0824 27.3582L43.6668 26.7891" stroke="white" stroke-miterlimit="10" stroke-linecap="round"/>
</g>
<g style="mix-blend-mode:overlay" opacity="0.58">
<path d="M32.9805 41.6553L33.1371 41.8074L33.7215 41.2383" stroke="white" stroke-miterlimit="10" stroke-linecap="round"/>
</g>
<g style="mix-blend-mode:overlay" opacity="0.58">
<path d="M39.2773 26.2027L39.654 26.5685L41.0691 25.1943" stroke="white" stroke-miterlimit="10" stroke-linecap="round"/>
</g>
<g style="mix-blend-mode:overlay" opacity="0.58">
<path d="M31.5596 9.52107L31.9362 9.88682L33.3531 8.5127" stroke="white" stroke-miterlimit="10" stroke-linecap="round"/>
</g>
<g style="mix-blend-mode:overlay" opacity="0.58">
<path d="M17.9541 28.6793L18.5737 29.2826L20.9023 27.0215" stroke="white" stroke-miterlimit="10" stroke-linecap="round"/>
</g>
<g style="mix-blend-mode:overlay" opacity="0.58">
<path d="M28.8486 40.653L29.4682 41.2546L31.7968 38.9951" stroke="white" stroke-miterlimit="10" stroke-linecap="round"/>
</g>
<g style="mix-blend-mode:overlay" opacity="0.58">
<path d="M35.9395 11.5446L36.559 12.1462L38.8876 9.88672" stroke="white" stroke-miterlimit="10" stroke-linecap="round"/>
</g>
<g style="mix-blend-mode:overlay" opacity="0.58">
<path d="M19.4111 33.6927L19.5572 33.8345L20.1046 33.3047" stroke="white" stroke-miterlimit="10" stroke-linecap="round"/>
</g>
<g style="mix-blend-mode:overlay" opacity="0.58">
<path d="M23.8232 41.3819L23.9693 41.5237L24.5167 40.9922" stroke="white" stroke-miterlimit="10" stroke-linecap="round"/>
</g>
<g style="mix-blend-mode:overlay" opacity="0.58">
<path d="M17.0195 31.3716L17.2431 31.5887L18.0809 30.7734" stroke="white" stroke-miterlimit="10" stroke-linecap="round"/>
</g>
<g style="mix-blend-mode:overlay" opacity="0.58">
<path d="M19.5723 37.3377L19.7958 37.5547L20.6336 36.7412" stroke="white" stroke-miterlimit="10" stroke-linecap="round"/>
</g>
<g style="mix-blend-mode:overlay" opacity="0.58">
<path d="M21.7598 15.8345L22.1364 16.2003L23.5516 14.8262" stroke="white" stroke-miterlimit="10" stroke-linecap="round"/>
</g>
<g style="mix-blend-mode:overlay" opacity="0.58">
<path d="M21.1895 10.651L21.5661 11.0167L22.9812 9.64258" stroke="white" stroke-miterlimit="10" stroke-linecap="round"/>
</g>
<g style="mix-blend-mode:overlay" opacity="0.58">
<path d="M25.2139 13.2261L25.4444 13.4517L26.3157 12.6074" stroke="white" stroke-miterlimit="10" stroke-linecap="round"/>
</g>
<g style="mix-blend-mode:overlay" opacity="0.58">
<path d="M17.7422 15.0228L17.9745 15.2484L18.844 14.4023" stroke="white" stroke-miterlimit="10" stroke-linecap="round"/>
</g>
</g>
<g style="mix-blend-mode:soft-light" opacity="0.24">
<g style="mix-blend-mode:overlay" opacity="0.24">
<path d="M13.1924 23.5953L13.569 23.961L14.9842 22.5869" stroke="white" stroke-miterlimit="10" stroke-linecap="round"/>
</g>
<g style="mix-blend-mode:overlay" opacity="0.24">
<path d="M16.8369 23.8279L17.0763 24.0604L17.9739 23.1904" stroke="white" stroke-miterlimit="10" stroke-linecap="round"/>
</g>
<g style="mix-blend-mode:overlay" opacity="0.24">
<path d="M34.0166 19.7437L34.3933 20.1112L35.8084 18.7354" stroke="white" stroke-miterlimit="10" stroke-linecap="round"/>
</g>
<g style="mix-blend-mode:overlay" opacity="0.24">
<path d="M34.9102 38.5836L35.2868 38.9493L36.7037 37.5752" stroke="white" stroke-miterlimit="10" stroke-linecap="round"/>
</g>
<g style="mix-blend-mode:overlay" opacity="0.24">
<path d="M42.6631 31.1959L43.0415 31.5616L44.4566 30.1875" stroke="white" stroke-miterlimit="10" stroke-linecap="round"/>
</g>
<g style="mix-blend-mode:overlay" opacity="0.24">
<path d="M38.6104 15.6939L38.8216 15.899L39.6119 15.1299" stroke="white" stroke-miterlimit="10" stroke-linecap="round"/>
</g>
<g style="mix-blend-mode:overlay" opacity="0.24">
<path d="M38.6836 22.741L38.8631 22.9153L39.5372 22.2607" stroke="white" stroke-miterlimit="10" stroke-linecap="round"/>
</g>
<g style="mix-blend-mode:overlay" opacity="0.24">
<path d="M30.5723 36.4998L30.7518 36.6724L31.4259 36.0195" stroke="white" stroke-miterlimit="10" stroke-linecap="round"/>
</g>
<g style="mix-blend-mode:overlay" opacity="0.24">
<path d="M26.1338 6.50272L26.3133 6.67705L26.9857 6.02246" stroke="white" stroke-miterlimit="10" stroke-linecap="round"/>
</g>
<g style="mix-blend-mode:overlay" opacity="0.24">
<path d="M37.2617 20.7145L37.7563 21.1947L39.6115 19.3916" stroke="white" stroke-miterlimit="10" stroke-linecap="round"/>
</g>
<g style="mix-blend-mode:overlay" opacity="0.24">
<path d="M43.5625 23.1444L44.0571 23.6246L45.9122 21.8232" stroke="white" stroke-miterlimit="10" stroke-linecap="round"/>
</g>
<g style="mix-blend-mode:overlay" opacity="0.24">
<path d="M41.4707 26.211L41.6274 26.3631L42.2117 25.7939" stroke="white" stroke-miterlimit="10" stroke-linecap="round"/>
</g>
<g style="mix-blend-mode:overlay" opacity="0.24">
<path d="M31.5244 40.6602L31.6811 40.8123L32.2654 40.2432" stroke="white" stroke-miterlimit="10" stroke-linecap="round"/>
</g>
<g style="mix-blend-mode:overlay" opacity="0.24">
<path d="M37.8203 25.202L38.197 25.5694L39.6121 24.1953" stroke="white" stroke-miterlimit="10" stroke-linecap="round"/>
</g>
<g style="mix-blend-mode:overlay" opacity="0.24">
<path d="M30.1025 8.52595L30.481 8.89341L31.8961 7.51758" stroke="white" stroke-miterlimit="10" stroke-linecap="round"/>
</g>
<g style="mix-blend-mode:overlay" opacity="0.24">
<path d="M16.498 27.6842L17.1194 28.2858L19.4462 26.0264" stroke="white" stroke-miterlimit="10" stroke-linecap="round"/>
</g>
<g style="mix-blend-mode:overlay" opacity="0.24">
<path d="M27.3936 39.6578L28.0149 40.2594L30.3417 38" stroke="white" stroke-miterlimit="10" stroke-linecap="round"/>
</g>
<g style="mix-blend-mode:overlay" opacity="0.24">
<path d="M34.4834 10.5494L35.103 11.151L37.4316 8.8916" stroke="white" stroke-miterlimit="10" stroke-linecap="round"/>
</g>
<g style="mix-blend-mode:overlay" opacity="0.24">
<path d="M17.957 32.6973L18.1014 32.8392L18.6488 32.3076" stroke="white" stroke-miterlimit="10" stroke-linecap="round"/>
</g>
<g style="mix-blend-mode:overlay" opacity="0.24">
<path d="M22.3652 40.3848L22.5113 40.5249L23.0587 39.9951" stroke="white" stroke-miterlimit="10" stroke-linecap="round"/>
</g>
<g style="mix-blend-mode:overlay" opacity="0.24">
<path d="M15.5635 30.3765L15.787 30.5936L16.6266 29.7783" stroke="white" stroke-miterlimit="10" stroke-linecap="round"/>
</g>
<g style="mix-blend-mode:overlay" opacity="0.24">
<path d="M18.1162 36.3423L18.3397 36.5594L19.1793 35.7441" stroke="white" stroke-miterlimit="10" stroke-linecap="round"/>
</g>
<g style="mix-blend-mode:overlay" opacity="0.24">
<path d="M20.3047 14.8375L20.6813 15.2049L22.0965 13.8291" stroke="white" stroke-miterlimit="10" stroke-linecap="round"/>
</g>
<g style="mix-blend-mode:overlay" opacity="0.24">
<path d="M19.7334 9.65583L20.1101 10.0216L21.5252 8.64746" stroke="white" stroke-miterlimit="10" stroke-linecap="round"/>
</g>
<g style="mix-blend-mode:overlay" opacity="0.24">
<path d="M23.7588 12.2298L23.9911 12.4554L24.8606 11.6094" stroke="white" stroke-miterlimit="10" stroke-linecap="round"/>
</g>
<g style="mix-blend-mode:overlay" opacity="0.24">
<path d="M16.2842 14.0276L16.5165 14.2515L17.386 13.4072" stroke="white" stroke-miterlimit="10" stroke-linecap="round"/>
</g>
</g>
<g style="mix-blend-mode:soft-light" opacity="0.12">
<g style="mix-blend-mode:overlay" opacity="0.12">
<path d="M12.5088 25.776L12.8855 26.1417L14.3006 24.7676" stroke="white" stroke-miterlimit="10" stroke-linecap="round"/>
</g>
<g style="mix-blend-mode:overlay" opacity="0.12">
<path d="M16.1533 26.0083L16.3909 26.2408L17.2886 25.3691" stroke="white" stroke-miterlimit="10" stroke-linecap="round"/>
</g>
<g style="mix-blend-mode:overlay" opacity="0.12">
<path d="M33.3291 21.9254L33.7058 22.2911L35.1226 20.917" stroke="white" stroke-miterlimit="10" stroke-linecap="round"/>
</g>
<g style="mix-blend-mode:overlay" opacity="0.12">
<path d="M34.2256 40.7642L34.604 41.13L36.0191 39.7559" stroke="white" stroke-miterlimit="10" stroke-linecap="round"/>
</g>
<g style="mix-blend-mode:overlay" opacity="0.12">
<path d="M41.9814 33.3746L42.3581 33.7403L43.7732 32.3662" stroke="white" stroke-miterlimit="10" stroke-linecap="round"/>
</g>
<g style="mix-blend-mode:overlay" opacity="0.12">
<path d="M37.9268 17.8755L38.1362 18.0789L38.9282 17.3115" stroke="white" stroke-miterlimit="10" stroke-linecap="round"/>
</g>
<g style="mix-blend-mode:overlay" opacity="0.12">
<path d="M38.001 24.9217L38.1805 25.096L38.8529 24.4414" stroke="white" stroke-miterlimit="10" stroke-linecap="round"/>
</g>
<g style="mix-blend-mode:overlay" opacity="0.12">
<path d="M29.8877 38.6785L30.0672 38.8528L30.7413 38.1982" stroke="white" stroke-miterlimit="10" stroke-linecap="round"/>
</g>
<g style="mix-blend-mode:overlay" opacity="0.12">
<path d="M25.4492 8.68143L25.6287 8.85576L26.3029 8.20117" stroke="white" stroke-miterlimit="10" stroke-linecap="round"/>
</g>
<g style="mix-blend-mode:overlay" opacity="0.12">
<path d="M36.5762 22.8932L37.0708 23.3734L38.9277 21.5703" stroke="white" stroke-miterlimit="10" stroke-linecap="round"/>
</g>
<g style="mix-blend-mode:overlay" opacity="0.12">
<path d="M42.876 25.3248L43.3706 25.8051L45.2275 24.002" stroke="white" stroke-miterlimit="10" stroke-linecap="round"/>
</g>
<g style="mix-blend-mode:overlay" opacity="0.12">
<path d="M40.7852 28.3929L40.94 28.545L41.5261 27.9775" stroke="white" stroke-miterlimit="10" stroke-linecap="round"/>
</g>
<g style="mix-blend-mode:overlay" opacity="0.12">
<path d="M30.8408 42.8382L30.9957 42.9903L31.5818 42.4229" stroke="white" stroke-miterlimit="10" stroke-linecap="round"/>
</g>
<g style="mix-blend-mode:overlay" opacity="0.12">
<path d="M37.1348 27.3844L37.5132 27.7501L38.9283 26.376" stroke="white" stroke-miterlimit="10" stroke-linecap="round"/>
</g>
<g style="mix-blend-mode:overlay" opacity="0.12">
<path d="M29.4189 10.7047L29.7956 11.0704L31.2107 9.69629" stroke="white" stroke-miterlimit="10" stroke-linecap="round"/>
</g>
<g style="mix-blend-mode:overlay" opacity="0.12">
<path d="M15.8145 29.8629L16.4358 30.4662L18.7626 28.2051" stroke="white" stroke-miterlimit="10" stroke-linecap="round"/>
</g>
<g style="mix-blend-mode:overlay" opacity="0.12">
<path d="M26.71 41.8385L27.3295 42.4401L29.6564 40.1807" stroke="white" stroke-miterlimit="10" stroke-linecap="round"/>
</g>
<g style="mix-blend-mode:overlay" opacity="0.12">
<path d="M33.7988 12.7281L34.4201 13.3298L36.747 11.0703" stroke="white" stroke-miterlimit="10" stroke-linecap="round"/>
</g>
<g style="mix-blend-mode:overlay" opacity="0.12">
<path d="M17.2715 34.8762L17.4158 35.0181L17.9632 34.4883" stroke="white" stroke-miterlimit="10" stroke-linecap="round"/>
</g>
<g style="mix-blend-mode:overlay" opacity="0.12">
<path d="M21.6846 42.5655L21.8307 42.7073L22.3763 42.1758" stroke="white" stroke-miterlimit="10" stroke-linecap="round"/>
</g>
<g style="mix-blend-mode:overlay" opacity="0.12">
<path d="M14.8789 32.5574L15.1024 32.7745L15.942 31.9609" stroke="white" stroke-miterlimit="10" stroke-linecap="round"/>
</g>
<g style="mix-blend-mode:overlay" opacity="0.12">
<path d="M17.4307 38.5213L17.6542 38.7401L18.4938 37.9248" stroke="white" stroke-miterlimit="10" stroke-linecap="round"/>
</g>
<g style="mix-blend-mode:overlay" opacity="0.12">
<path d="M19.6201 17.0164L19.9968 17.3839L21.4137 16.0098" stroke="white" stroke-miterlimit="10" stroke-linecap="round"/>
</g>
<g style="mix-blend-mode:overlay" opacity="0.12">
<path d="M19.0488 11.8345L19.4272 12.2003L20.8424 10.8262" stroke="white" stroke-miterlimit="10" stroke-linecap="round"/>
</g>
<g style="mix-blend-mode:overlay" opacity="0.12">
<path d="M23.0732 14.4078L23.3056 14.6334L24.1751 13.7891" stroke="white" stroke-miterlimit="10" stroke-linecap="round"/>
</g>
<g style="mix-blend-mode:overlay" opacity="0.12">
<path d="M15.6016 16.2076L15.8321 16.4332L16.7034 15.5889" stroke="white" stroke-miterlimit="10" stroke-linecap="round"/>
</g>
</g>
<path d="M31.4287 11.501L28.8009 16.9787L25.7207 17.676L31.4287 11.501Z" fill="url(#paint0_linear_3737_268)"/>
<path d="M31.0993 11.9869L28.7337 16.9057L25.9739 17.5329C27.6812 15.6837 29.3897 13.835 31.0993 11.9869ZM31.7576 11.0178L25.4688 17.8167L28.8622 17.0476L31.7576 11.0127V11.0178Z" fill="#1D1D38"/>
<path d="M32.271 17.0949L31.8662 11.3096C32.7387 12.4855 33.5228 13.721 34.2124 15.0064C34.6736 15.8609 35.0925 16.7582 35.4656 17.6555L35.4375 17.7905L32.271 17.0949Z" fill="url(#paint1_linear_3737_268)"/>
<path d="M31.9768 11.6038C32.7748 12.7027 33.4962 13.852 34.1365 15.0442C34.5924 15.8988 35.0077 16.7756 35.3686 17.6609V17.6865L32.3535 17.0234L31.9751 11.6038H31.9768ZM31.7568 11.0176L32.1863 17.1704L35.5041 17.8984L35.5569 17.6523C35.2049 16.808 34.7912 15.909 34.2914 14.9725C33.5522 13.5952 32.7048 12.2753 31.7568 11.0244V11.0176Z" fill="#1D1D38"/>
<path d="M28.4043 34.0979L32.2554 17.2666L35.4025 17.9502L34.1704 23.6245C33.2727 27.748 32.3751 31.8726 31.4774 35.9984L28.4043 34.0979Z" fill="url(#paint2_linear_3737_268)"/>
<path d="M32.3193 17.3662L35.2956 18.0191L33.972 24.095L31.4111 35.8639L28.4999 34.0523L32.3193 17.3645V17.3662ZM32.1855 17.1611L28.3027 34.1326L31.5308 36.1391C32.8544 30.0558 34.1785 23.9725 35.5033 17.8892L32.1855 17.1611Z" fill="#1D1D38"/>
<path d="M21.5586 33.9719C22.8857 28.6167 24.2134 23.2575 25.5417 17.8943L28.7451 17.168L24.9714 33.4182L21.5586 33.9719Z" fill="url(#paint3_linear_3737_268)"/>
<path d="M28.6279 17.2818L24.9 33.3474L21.6755 33.8652L25.6146 17.9705L28.6279 17.2869V17.2818ZM28.862 17.0579L25.4685 17.8167C24.125 23.238 22.7826 28.6582 21.4414 34.0772L25.0461 33.4909L28.862 17.0527V17.0579Z" fill="#1D1D38"/>
<path d="M21.585 34.1407L24.9485 33.5938L24.4979 38.733L21.585 34.1407Z" fill="url(#paint4_linear_3737_268)"/>
<path d="M24.8507 33.6963L24.4336 38.4664L23.1522 36.4463L21.7301 34.2022L24.8507 33.6895V33.6963ZM25.0461 33.4844L21.4414 34.0706C22.4834 35.7091 23.5242 37.3492 24.5638 38.9911L25.0461 33.4844Z" fill="#1D1D38"/>
<path d="M28.3245 34.249L31.343 36.1256L24.8271 38.7952L28.3245 34.249Z" fill="url(#paint5_linear_3737_268)"/>
<path d="M28.3459 34.3638L31.1621 36.1105L28.932 37.0232L25.1003 38.5938L28.353 34.3638H28.3459ZM28.3107 34.1348L24.5635 38.9972L31.5317 36.1413L28.3037 34.1348H28.3107Z" fill="#1D1D38"/>
<path d="M28.9971 16.9723L31.6918 11.3545L32.0931 17.0749L28.9971 16.9723Z" fill="url(#paint6_linear_3737_268)"/>
<path d="M31.6302 11.6917L31.9998 16.9899L29.1361 16.8942L31.6302 11.6968V11.6917ZM31.7586 11.0132L28.8633 17.0515L32.1881 17.1626L31.7586 11.0098V11.0132Z" fill="#1D1D38"/>
<path d="M25.1514 33.4253L28.9321 17.1426L32.0774 17.2468L28.2351 34.0354L25.1514 33.4253Z" fill="url(#paint7_linear_3737_268)"/>
<path d="M29.0018 17.2288L31.9711 17.3262L28.1693 33.9336L25.2581 33.3593L29.0018 17.2288ZM28.8628 17.0579L25.0469 33.491L28.3048 34.1353L32.1876 17.1638L28.8628 17.0527V17.0579Z" fill="#1D1D38"/>
<path d="M25.1248 33.5957L28.1487 34.1922L24.6777 38.7076L25.1248 33.5957Z" fill="url(#paint8_linear_3737_268)"/>
<path d="M25.2139 33.698L28.0054 34.2483L24.7915 38.4169L25.2139 33.698ZM25.0555 33.4912L24.5732 38.998L28.3135 34.1355L25.0555 33.4912Z" fill="#1D1D38"/>
<path d="M18.0107 19.2362L18.875 18.2773L19.5473 19.4071L18.0107 19.2362Z" fill="url(#paint9_linear_3737_268)"/>
<path d="M18.8595 18.4221L19.3876 19.3023L18.1907 19.169L18.4987 18.8272L18.8631 18.4221H18.8595ZM18.893 18.1299C18.541 18.5218 18.1889 18.9127 17.8369 19.3023L19.7132 19.5108L18.8912 18.1299H18.893Z" fill="#1D1D38"/>
<path d="M19.7745 19.4442L19.0723 18.2666L27.1036 20.3756L24.4546 21.5293L19.7745 19.4442Z" fill="url(#paint10_linear_3737_268)"/>
<path d="M19.2557 18.4031L22.5735 19.2747L26.8418 20.3959L24.4551 21.4351L19.8366 19.3841L19.2557 18.4099V18.4031ZM18.8896 18.1365L19.7116 19.5174L24.4551 21.6231L27.3645 20.3566L18.8896 18.1348V18.1365Z" fill="#1D1D38"/>
<path d="M17.9873 19.4033L19.6629 19.5896L22.8452 24.0555L22.0866 27.2806L17.9873 19.4033Z" fill="url(#paint11_linear_3737_268)"/>
<path d="M18.1387 19.5059L19.6136 19.6768L22.7501 24.0726L22.0461 27.0294L18.1299 19.5093L18.1387 19.5059ZM17.8271 19.3042L22.1165 27.5301L22.9402 24.0367L19.7122 19.5093L17.8359 19.3008L17.8271 19.3042Z" fill="#1D1D38"/>
<path d="M24.6289 21.6405L27.3518 20.4561L40.3624 30.4988L40.1055 32.6471L24.6289 21.6405Z" fill="url(#paint12_linear_3737_268)"/>
<path d="M27.3399 20.5518L40.2696 30.5313L40.0372 32.4882L24.8036 21.6593L27.3399 20.5518ZM27.3645 20.3535L24.4551 21.6234L40.1745 32.8027L40.4561 30.4646L27.3645 20.3569V20.3535Z" fill="#1D1D38"/>
<path d="M22.2227 27.498L23.0024 24.1875L38.4156 35.7018L34.6754 37.24L22.2227 27.498Z" fill="url(#paint13_linear_3737_268)"/>
<path d="M23.0481 24.3372L38.2465 35.6822L34.6929 37.1452L22.3124 27.4648L23.0481 24.3372ZM22.939 24.0381L22.1152 27.5315L34.6647 37.3418L38.5898 35.725L22.939 24.0381Z" fill="#1D1D38"/>
<path d="M34.9854 37.3014L38.59 35.8213L42.7263 38.4311L34.9854 37.3014Z" fill="url(#paint14_linear_3737_268)"/>
<path d="M38.576 35.9185L42.332 38.2873L35.3075 37.2618L38.576 35.9168V35.9185ZM38.5936 35.7236L34.665 37.3404L43.1135 38.571L38.5901 35.7253L38.5936 35.7236Z" fill="#1D1D38"/>
<path d="M40.2686 32.788L40.4974 30.8652L42.6746 37.5205L40.2686 32.788Z" fill="url(#paint15_linear_3737_268)"/>
<path d="M40.5374 31.2706L42.2376 36.4697L40.3508 32.7729L40.5268 31.2706H40.5374ZM40.4564 30.4639L40.1748 32.8019L43.1071 38.5719L40.4564 30.4639Z" fill="#1D1D38"/>
<path d="M23.003 23.9803L19.9668 19.7178L24.4093 21.6969L40.0636 32.8284L38.564 35.5954L23.003 23.9803Z" fill="url(#paint16_linear_3737_268)"/>
<path d="M20.2233 19.9261L24.3666 21.7702L39.9523 32.8572L38.5442 35.4687L23.0694 23.9202L20.2233 19.9261ZM19.7129 19.5107L22.9409 24.0382L38.5917 35.7251L40.1758 32.8025L24.4564 21.6232L19.7129 19.5107Z" fill="#1D1D38"/>
<path d="M38.708 35.6958L40.1742 32.9902L42.8882 38.3312L38.708 35.6958Z" fill="url(#paint17_linear_3737_268)"/>
<path d="M40.1739 33.1814L42.6715 38.0917L38.8275 35.6682L40.1739 33.1814ZM40.1739 32.8037L38.5898 35.7263L43.1045 38.5737L40.1739 32.8037Z" fill="#1D1D38"/>
</g>
<defs>
<filter id="filter0_d_3737_268" x="0.428711" y="0" width="60" height="60" filterUnits="userSpaceOnUse" color-interpolation-filters="sRGB">
<feFlood flood-opacity="0" result="BackgroundImageFix"/>
<feColorMatrix in="SourceAlpha" type="matrix" values="0 0 0 0 0 0 0 0 0 0 0 0 0 0 0 0 0 0 127 0" result="hardAlpha"/>
<feOffset dy="5"/>
<feGaussianBlur stdDeviation="5"/>
<feColorMatrix type="matrix" values="0 0 0 0 0 0 0 0 0 0 0 0 0 0 0 0 0 0 0.1 0"/>
<feBlend mode="normal" in2="BackgroundImageFix" result="effect1_dropShadow_3737_268"/>
<feBlend mode="normal" in="SourceGraphic" in2="effect1_dropShadow_3737_268" result="shape"/>
</filter>
<linearGradient id="paint0_linear_3737_268" x1="25.7207" y1="14.5893" x2="31.4287" y2="14.5893" gradientUnits="userSpaceOnUse">
<stop stop-color="#FFBC00"/>
<stop offset="1" stop-color="#BA7507"/>
</linearGradient>
<linearGradient id="paint1_linear_3737_268" x1="31.8662" y1="14.55" x2="35.4656" y2="14.55" gradientUnits="userSpaceOnUse">
<stop stop-color="#FFBC00"/>
<stop offset="1" stop-color="#BA7507"/>
</linearGradient>
<linearGradient id="paint2_linear_3737_268" x1="28.4043" y1="26.6359" x2="35.4025" y2="26.6359" gradientUnits="userSpaceOnUse">
<stop stop-color="#FFBC00"/>
<stop offset="1" stop-color="#BA7507"/>
</linearGradient>
<linearGradient id="paint3_linear_3737_268" x1="21.5586" y1="25.57" x2="28.7451" y2="25.57" gradientUnits="userSpaceOnUse">
<stop stop-color="#FFBC00"/>
<stop offset="1" stop-color="#BA7507"/>
</linearGradient>
<linearGradient id="paint4_linear_3737_268" x1="21.585" y1="36.1625" x2="24.9485" y2="36.1625" gradientUnits="userSpaceOnUse">
<stop stop-color="#FFBC00"/>
<stop offset="1" stop-color="#BA7507"/>
</linearGradient>
<linearGradient id="paint5_linear_3737_268" x1="24.8271" y1="36.5221" x2="31.343" y2="36.5221" gradientUnits="userSpaceOnUse">
<stop stop-color="#FFBC00"/>
<stop offset="1" stop-color="#BA7507"/>
</linearGradient>
<linearGradient id="paint6_linear_3737_268" x1="28.9971" y1="14.2155" x2="32.0931" y2="14.2155" gradientUnits="userSpaceOnUse">
<stop stop-color="#FFBC00"/>
<stop offset="1" stop-color="#BA7507"/>
</linearGradient>
<linearGradient id="paint7_linear_3737_268" x1="25.1514" y1="25.589" x2="32.0774" y2="25.589" gradientUnits="userSpaceOnUse">
<stop stop-color="#FFBC00"/>
<stop offset="1" stop-color="#BA7507"/>
</linearGradient>
<linearGradient id="paint8_linear_3737_268" x1="24.6777" y1="36.1508" x2="28.1487" y2="36.1508" gradientUnits="userSpaceOnUse">
<stop stop-color="#FFBC00"/>
<stop offset="1" stop-color="#BA7507"/>
</linearGradient>
<linearGradient id="paint9_linear_3737_268" x1="18.0107" y1="18.8413" x2="19.5473" y2="18.8413" gradientUnits="userSpaceOnUse">
<stop stop-color="#FFBC00"/>
<stop offset="1" stop-color="#BA7507"/>
</linearGradient>
<linearGradient id="paint10_linear_3737_268" x1="19.0723" y1="19.8971" x2="27.1036" y2="19.8971" gradientUnits="userSpaceOnUse">
<stop stop-color="#FFBC00"/>
<stop offset="1" stop-color="#BA7507"/>
</linearGradient>
<linearGradient id="paint11_linear_3737_268" x1="17.9873" y1="23.3411" x2="22.8452" y2="23.3411" gradientUnits="userSpaceOnUse">
<stop stop-color="#FFBC00"/>
<stop offset="1" stop-color="#BA7507"/>
</linearGradient>
<linearGradient id="paint12_linear_3737_268" x1="24.6289" y1="26.5525" x2="40.3624" y2="26.5525" gradientUnits="userSpaceOnUse">
<stop stop-color="#FFBC00"/>
<stop offset="1" stop-color="#BA7507"/>
</linearGradient>
<linearGradient id="paint13_linear_3737_268" x1="22.2156" y1="30.7146" x2="38.4208" y2="30.7146" gradientUnits="userSpaceOnUse">
<stop stop-color="#FFBC00"/>
<stop offset="1" stop-color="#BA7507"/>
</linearGradient>
<linearGradient id="paint14_linear_3737_268" x1="34.9854" y1="37.1253" x2="42.721" y2="37.1253" gradientUnits="userSpaceOnUse">
<stop stop-color="#FFBC00"/>
<stop offset="1" stop-color="#BA7507"/>
</linearGradient>
<linearGradient id="paint15_linear_3737_268" x1="40.2686" y1="34.1929" x2="42.6746" y2="34.1929" gradientUnits="userSpaceOnUse">
<stop stop-color="#FFBC00"/>
<stop offset="1" stop-color="#BA7507"/>
</linearGradient>
<linearGradient id="paint16_linear_3737_268" x1="19.9668" y1="27.6566" x2="40.0636" y2="27.6566" gradientUnits="userSpaceOnUse">
<stop stop-color="#FFBC00"/>
<stop offset="1" stop-color="#BA7507"/>
</linearGradient>
<linearGradient id="paint17_linear_3737_268" x1="38.708" y1="35.6616" x2="42.8882" y2="35.6616" gradientUnits="userSpaceOnUse">
<stop stop-color="#FFBC00"/>
<stop offset="1" stop-color="#BA7507"/>
</linearGradient>
</defs>
</svg>
