<svg width="20" height="20" viewBox="0 0 20 20" fill="none" xmlns="http://www.w3.org/2000/svg">
<path d="M14.4783 13.637C14.523 13.8037 14.4241 13.9751 14.2574 14.0197L8.49495 15.5637C8.46788 15.571 8.44065 15.5745 8.41389 15.5745C8.27589 15.5745 8.14964 15.4824 8.11222 15.3427C8.06753 15.176 8.16647 15.0047 8.33319 14.96L14.0956 13.416C14.2624 13.3714 14.4337 13.4703 14.4783 13.637ZM7.30616 10.1941C7.15616 10.1075 7.04897 9.96793 7.00425 9.80105L5.99565 6.03707C5.90327 5.69203 6.10874 5.33621 6.45366 5.24379L10.8652 4.06172C11.0321 4.01703 11.2066 4.04008 11.3566 4.12672C11.5065 4.21332 11.6137 4.35289 11.6584 4.51972L12.667 8.28375C12.7594 8.62875 12.5539 8.98457 12.209 9.07699L7.79749 10.259C7.74186 10.2739 7.68542 10.2813 7.62929 10.2813C7.51702 10.2813 7.40616 10.2518 7.30616 10.1941ZM12.0633 8.44551L11.8121 7.50781L10.6317 6.57722L9.31682 8.63187C9.25718 8.72508 9.15632 8.77597 9.05331 8.77597C8.99565 8.77597 8.93733 8.76004 8.88515 8.72664C8.73975 8.63359 8.69733 8.44035 8.79038 8.295L8.96909 8.01578L8.28999 7.56722L7.36999 8.75136L7.60792 9.63933C7.60948 9.64511 7.61304 9.64965 7.61858 9.65285C7.62413 9.65605 7.62991 9.65687 7.63565 9.65535L12.0472 8.47328C12.0589 8.47011 12.0664 8.45715 12.0633 8.44551ZM6.59936 5.87535L7.16702 7.99386L7.97397 6.95523C8.07413 6.82625 8.25671 6.79621 8.393 6.88621L9.30604 7.48925L10.2912 5.94988C10.3387 5.87558 10.4155 5.8248 10.5025 5.81015C10.5894 5.79547 10.6786 5.81828 10.7479 5.87289L11.5417 6.49871L11.0547 4.68148C11.0532 4.67574 11.0496 4.67117 11.044 4.66797C11.0403 4.66578 11.0364 4.66472 11.0325 4.66472C11.0307 4.66472 11.0288 4.66496 11.0269 4.6655L6.61538 5.84758C6.60374 5.85066 6.59624 5.86363 6.59936 5.87535ZM9.11706 6.75797C9.31374 6.70527 9.43046 6.50308 9.37776 6.3064C9.32507 6.10972 9.12288 5.993 8.9262 6.0457C8.72952 6.09839 8.6128 6.30058 8.6655 6.49726C8.71819 6.69394 8.92034 6.81066 9.11706 6.75797ZM18.6376 10.5664C18.7635 10.7844 18.7608 11.0431 18.6305 11.2585C18.5001 11.4739 18.2723 11.5962 18.0206 11.586C17.6152 11.5693 17.2137 11.558 16.8172 11.5703C17.0376 12.2766 17.1406 12.9139 17.1301 13.5079C17.1131 14.4759 16.4733 15.2946 15.5381 15.5452L5.54608 18.2225C5.54604 18.2225 5.546 18.2225 5.546 18.2225C5.3569 18.2732 5.16663 18.2977 4.97932 18.2977C4.24018 18.2977 3.54655 17.9161 3.1487 17.2542C2.27561 15.8017 2.11975 14.2068 1.95471 12.5182C1.7728 10.6565 1.58464 8.73148 0.366121 6.92957C0.309519 6.84586 0.296902 6.73992 0.332214 6.64523C0.367566 6.55054 0.446511 6.47882 0.544128 6.45265L1.77011 6.12414C1.74093 5.89949 1.72311 5.67707 1.71905 5.45754C1.71639 5.31398 1.8119 5.18707 1.95061 5.14988L2.73374 4.94004C2.73636 4.84793 2.74022 4.75566 2.74678 4.66297C2.75624 4.53007 2.84893 4.41777 2.97764 4.38328L12.9696 1.70593C13.0672 1.67984 13.1715 1.70246 13.2494 1.76679C13.3274 1.83113 13.3694 1.92918 13.3623 2.03C13.2343 3.82843 13.9586 5.56586 14.8433 7.32429C14.8898 7.24453 14.9356 7.16527 14.9806 7.08726C15.0635 6.94375 15.1417 6.80816 15.2207 6.67492C15.3446 6.46593 15.563 6.34152 15.8056 6.34152H15.8097C16.0539 6.34293 16.2727 6.47004 16.3948 6.6816L17.0414 7.80148C17.4768 7.69054 17.9507 7.87578 18.1859 8.28312C18.4212 8.69066 18.3445 9.1939 18.0308 9.51523L18.6376 10.5664ZM17.3903 8.40597L17.6817 8.91066C17.7117 8.80859 17.7019 8.69488 17.6446 8.59558C17.5873 8.49636 17.4938 8.43105 17.3903 8.40597ZM13.5529 11.9768L14.3841 11.497L13.4859 9.94121L12.6548 10.4211C12.5026 10.5089 12.386 10.635 12.3098 10.7801C12.3051 10.7908 12.2999 10.8014 12.294 10.8115C12.1709 11.0696 12.1725 11.3821 12.326 11.648C12.4453 11.8546 12.6391 12.0027 12.8717 12.0651C13.1044 12.1275 13.3463 12.0961 13.5529 11.9768ZM14.4599 12.1748L15.0757 13.2414C15.1593 13.3862 15.3307 13.4494 15.4842 13.4025L14.6965 12.0382L14.4599 12.1748ZM16.9914 10.942L15.2325 7.89547C14.885 8.47902 14.4905 9.07914 13.9942 9.5716L14.953 11.2325C15.6254 11.0206 16.3137 10.9522 16.9914 10.942ZM3.55292 16.7006C3.73358 16.7528 3.92608 16.7546 4.11573 16.7037C4.56421 16.5836 4.86729 16.1928 4.88788 15.7084C4.94776 14.3001 4.1885 12.6021 3.38468 10.8045C2.78034 9.45285 2.16061 8.06668 1.87718 6.74258L1.11811 6.94597C2.21593 8.76543 2.39917 10.6405 2.57675 12.4575C2.72569 13.9809 2.86702 15.4247 3.55292 16.7006ZM6.51331 16.1743C6.54061 14.624 5.6855 12.9761 4.78018 11.2314C3.84284 9.425 2.87843 7.56515 2.74632 5.58375L2.35448 5.68875C2.45553 7.19523 3.21733 8.8989 3.9553 10.5493C4.79003 12.4161 5.5785 14.1794 5.51237 15.7349C5.47995 16.4978 4.99526 17.1151 4.27757 17.3075C4.20186 17.3277 4.12577 17.3425 4.04964 17.3523C4.41573 17.6449 4.89839 17.749 5.3844 17.6188L5.38718 17.618C6.05909 17.4368 6.501 16.8704 6.51331 16.1743ZM16.1752 11.6152C15.8714 11.6495 15.5709 11.7043 15.2742 11.7888L16.1862 13.3685C16.2725 13.5179 16.2213 13.7091 16.0719 13.7953L15.8702 13.9118C15.7166 14.0005 15.5487 14.0426 15.3829 14.0426C15.0447 14.0426 14.7154 13.8672 14.5344 13.5539L13.9187 12.4873L13.8654 12.518C13.632 12.6528 13.3723 12.7217 13.1088 12.7217C12.9759 12.7217 12.842 12.7042 12.71 12.6688C12.6778 12.6602 12.6463 12.6502 12.615 12.6397L8.03995 13.8656C8.01288 13.8728 7.98565 13.8763 7.95889 13.8763C7.82089 13.8763 7.69464 13.7842 7.65722 13.6446C7.61253 13.4778 7.71147 13.3065 7.87819 13.2618L11.9347 12.1749C11.8793 12.1084 11.8288 12.0369 11.7847 11.9605C11.6276 11.6884 11.5644 11.3876 11.5846 11.0956L7.58491 12.1673C7.55784 12.1746 7.53061 12.178 7.50386 12.178C7.36585 12.178 7.2396 12.086 7.20218 11.9463C7.15749 11.7796 7.25643 11.6083 7.42315 11.5636L11.8159 10.3866C11.9435 10.1836 12.1206 10.0077 12.3423 9.87972L13.4159 9.25988C13.8192 8.8955 14.1596 8.43218 14.4627 7.95508C13.529 6.13316 12.7132 4.33183 12.7225 2.41925L3.35882 4.92824C3.29069 7.00375 4.32936 9.00558 5.33499 10.9436C6.2778 12.7605 7.16835 14.4767 7.13823 16.1853C7.13159 16.5629 7.03014 16.9178 6.85331 17.2252L15.3764 14.9414C16.05 14.761 16.4931 14.1939 16.5054 13.4969C16.5152 12.932 16.4068 12.3143 16.1752 11.6152ZM18.0964 10.8789L15.8535 6.99406C15.8418 6.97382 15.8294 6.96664 15.806 6.96648C15.8058 6.96648 15.8056 6.96648 15.8054 6.96648C15.7825 6.96648 15.7701 6.97359 15.7583 6.99351C15.7044 7.08433 15.6504 7.17726 15.5949 7.2732L17.7174 10.9495C17.8276 10.9529 17.9373 10.957 18.0463 10.9614C18.0699 10.9626 18.0834 10.9553 18.0957 10.9349C18.1081 10.9146 18.1082 10.8994 18.0964 10.8789ZM17.6456 7.44027C17.6727 7.44754 17.6999 7.45101 17.7267 7.45101C17.8646 7.45101 17.9909 7.35894 18.0283 7.21933L18.159 6.73172C18.2036 6.565 18.1047 6.39367 17.938 6.34898C17.7712 6.30441 17.6 6.40324 17.5553 6.56996L17.4246 7.05754C17.38 7.22422 17.4789 7.39558 17.6456 7.44027ZM18.7585 8.26519C18.8115 8.26519 18.8653 8.25168 18.9145 8.22328L19.3517 7.97086C19.5011 7.88457 19.5523 7.69343 19.466 7.54398C19.3798 7.39453 19.1886 7.34336 19.0392 7.42961L18.602 7.68203C18.4525 7.76832 18.4013 7.95945 18.4876 8.1089C18.5455 8.20914 18.6505 8.26519 18.7585 8.26519ZM19.4559 9.09L18.9682 8.95933C18.8016 8.91472 18.6301 9.01363 18.5855 9.18031C18.5408 9.34703 18.6398 9.51836 18.8065 9.56304L19.2941 9.69367C19.3212 9.70093 19.3484 9.70441 19.3752 9.70441C19.5132 9.70441 19.6394 9.61234 19.6768 9.47273C19.7215 9.30601 19.6226 9.13465 19.4559 9.09Z" fill="#ED4C41"/>
</svg>
