<svg width="25" height="24" viewBox="0 0 25 24" fill="none" xmlns="http://www.w3.org/2000/svg">
<g id="fi_2914633">
<g id="planning">
<path id="Vector" d="M14.6499 9.375H10.1499C9.85153 9.375 9.56539 9.49353 9.35441 9.7045C9.14343 9.91548 9.0249 10.2016 9.0249 10.5V11.625H6.7749C5.78034 11.625 4.82651 12.0201 4.12325 12.7233C3.41999 13.4266 3.0249 14.3804 3.0249 15.375C3.0249 17.28 4.47615 19.125 6.99615 19.125L6.69615 19.4213C6.64327 19.4737 6.6072 19.5407 6.59255 19.6137C6.5779 19.6868 6.58533 19.7625 6.61389 19.8313C6.64245 19.9001 6.69085 19.9588 6.75292 20C6.81499 20.0412 6.88792 20.0629 6.9624 20.0625C7.1724 20.0625 7.1649 20.0138 8.16615 19.0162C8.21819 18.9635 8.25343 18.8966 8.26745 18.8238C8.28147 18.7511 8.27362 18.6758 8.2449 18.6075C8.2074 18.51 8.2449 18.5625 7.22865 17.5463C7.19369 17.5113 7.15218 17.4836 7.1065 17.4646C7.06081 17.4457 7.01185 17.436 6.9624 17.436C6.91296 17.436 6.86399 17.4457 6.81831 17.4646C6.77263 17.4836 6.73112 17.5113 6.69615 17.5463C6.66119 17.5812 6.63345 17.6227 6.61453 17.6684C6.59561 17.7141 6.58587 17.7631 6.58587 17.8125C6.58587 17.8619 6.59561 17.9109 6.61453 17.9566C6.63345 18.0023 6.66119 18.0438 6.69615 18.0787L6.99615 18.375C4.93365 18.375 3.7749 16.9125 3.7749 15.375C3.7749 14.5794 4.09097 13.8163 4.65358 13.2537C5.21619 12.6911 5.97925 12.375 6.7749 12.375H9.0249V13.5C9.0249 13.7984 9.14343 14.0845 9.35441 14.2955C9.56539 14.5065 9.85153 14.625 10.1499 14.625H14.6499C14.9483 14.625 15.2344 14.5065 15.4454 14.2955C15.6564 14.0845 15.7749 13.7984 15.7749 13.5V10.5C15.7749 10.2016 15.6564 9.91548 15.4454 9.7045C15.2344 9.49353 14.9483 9.375 14.6499 9.375ZM15.0249 13.5C15.0249 13.5995 14.9854 13.6948 14.9151 13.7652C14.8447 13.8355 14.7494 13.875 14.6499 13.875H10.1499C10.0504 13.875 9.95506 13.8355 9.88474 13.7652C9.81441 13.6948 9.7749 13.5995 9.7749 13.5V10.5C9.7749 10.4005 9.81441 10.3052 9.88474 10.2348C9.95506 10.1645 10.0504 10.125 10.1499 10.125H14.6499C14.7494 10.125 14.8447 10.1645 14.9151 10.2348C14.9854 10.3052 15.0249 10.4005 15.0249 10.5V13.5Z" fill="#696763"/>
<path id="Vector_2" d="M14.6499 16.125H10.1499C9.85153 16.125 9.56539 16.2435 9.35441 16.4545C9.14343 16.6655 9.0249 16.9516 9.0249 17.25V20.25C9.0249 20.5484 9.14343 20.8345 9.35441 21.0455C9.56539 21.2565 9.85153 21.375 10.1499 21.375H14.6499C14.9483 21.375 15.2344 21.2565 15.4454 21.0455C15.6564 20.8345 15.7749 20.5484 15.7749 20.25V17.25C15.7749 16.9516 15.6564 16.6655 15.4454 16.4545C15.2344 16.2435 14.9483 16.125 14.6499 16.125ZM15.0249 20.25C15.0249 20.3495 14.9854 20.4448 14.9151 20.5152C14.8447 20.5855 14.7494 20.625 14.6499 20.625H10.1499C10.0504 20.625 9.95506 20.5855 9.88474 20.5152C9.81441 20.4448 9.7749 20.3495 9.7749 20.25V17.25C9.7749 17.1505 9.81441 17.0552 9.88474 16.9848C9.95506 16.9145 10.0504 16.875 10.1499 16.875H14.6499C14.7494 16.875 14.8447 16.9145 14.9151 16.9848C14.9854 17.0552 15.0249 17.1505 15.0249 17.25V20.25Z" fill="#696763"/>
<path id="Vector_3" d="M13.8999 4.125H12.3999C12.3004 4.125 12.2051 4.16451 12.1347 4.23484C12.0644 4.30516 12.0249 4.40054 12.0249 4.5C12.0249 4.59946 12.0644 4.69484 12.1347 4.76516C12.2051 4.83549 12.3004 4.875 12.3999 4.875H13.8999C13.9994 4.875 14.0947 4.83549 14.1651 4.76516C14.2354 4.69484 14.2749 4.59946 14.2749 4.5C14.2749 4.40054 14.2354 4.30516 14.1651 4.23484C14.0947 4.16451 13.9994 4.125 13.8999 4.125Z" fill="#696763"/>
<path id="Vector_4" d="M10.8999 4.875C10.9994 4.875 11.0947 4.83549 11.1651 4.76516C11.2354 4.69484 11.2749 4.59946 11.2749 4.5C11.2749 4.40054 11.2354 4.30516 11.1651 4.23484C11.0947 4.16451 10.9994 4.125 10.8999 4.125C10.8004 4.125 10.7051 4.16451 10.6347 4.23484C10.5644 4.30516 10.5249 4.40054 10.5249 4.5C10.5249 4.59946 10.5644 4.69484 10.6347 4.76516C10.7051 4.83549 10.8004 4.875 10.8999 4.875Z" fill="#696763"/>
<path id="Vector_5" d="M13.8999 10.875H12.3999C12.3004 10.875 12.2051 10.9145 12.1347 10.9848C12.0644 11.0552 12.0249 11.1505 12.0249 11.25C12.0249 11.3495 12.0644 11.4448 12.1347 11.5152C12.2051 11.5855 12.3004 11.625 12.3999 11.625H13.8999C13.9994 11.625 14.0947 11.5855 14.1651 11.5152C14.2354 11.4448 14.2749 11.3495 14.2749 11.25C14.2749 11.1505 14.2354 11.0552 14.1651 10.9848C14.0947 10.9145 13.9994 10.875 13.8999 10.875Z" fill="#696763"/>
<path id="Vector_6" d="M10.8999 11.625C10.9994 11.625 11.0947 11.5855 11.1651 11.5152C11.2354 11.4448 11.2749 11.3495 11.2749 11.25C11.2749 11.1505 11.2354 11.0552 11.1651 10.9848C11.0947 10.9145 10.9994 10.875 10.8999 10.875C10.8004 10.875 10.7051 10.9145 10.6347 10.9848C10.5644 11.0552 10.5249 11.1505 10.5249 11.25C10.5249 11.3495 10.5644 11.4448 10.6347 11.5152C10.7051 11.5855 10.8004 11.625 10.8999 11.625Z" fill="#696763"/>
<path id="Vector_7" d="M13.4462 17.625L12.025 19.065L11.3537 18.375C11.3188 18.34 11.2772 18.3123 11.2316 18.2934C11.1859 18.2744 11.1369 18.2647 11.0875 18.2647C11.038 18.2647 10.9891 18.2744 10.9434 18.2934C10.8977 18.3123 10.8562 18.34 10.8212 18.375C10.7863 18.41 10.7585 18.4515 10.7396 18.4972C10.7207 18.5428 10.7109 18.5918 10.7109 18.6412C10.7109 18.6907 10.7207 18.7397 10.7396 18.7853C10.7585 18.831 10.7863 18.8725 10.8212 18.9075C11.8337 19.92 11.8187 19.9537 12.025 19.9537C12.2312 19.9537 12.175 19.9537 13.9787 18.1575C14.0137 18.1225 14.0414 18.081 14.0603 18.0353C14.0793 17.9897 14.089 17.9407 14.089 17.8912C14.089 17.8418 14.0793 17.7928 14.0603 17.7472C14.0414 17.7015 14.0137 17.66 13.9787 17.625C13.9438 17.59 13.9022 17.5623 13.8566 17.5434C13.8109 17.5244 13.7619 17.5147 13.7125 17.5147C13.663 17.5147 13.6141 17.5244 13.5684 17.5434C13.5227 17.5623 13.4812 17.59 13.4462 17.625Z" fill="#696763"/>
<path id="Vector_8" d="M21.7749 8.625C21.7749 7.63044 21.3798 6.67661 20.6766 5.97335C19.9733 5.27009 19.0195 4.875 18.0249 4.875H15.7749V3.75C15.7749 3.45163 15.6564 3.16548 15.4454 2.9545C15.2344 2.74353 14.9483 2.625 14.6499 2.625H10.1499C9.85153 2.625 9.56539 2.74353 9.35441 2.9545C9.14343 3.16548 9.0249 3.45163 9.0249 3.75V6.75C9.0249 7.04837 9.14343 7.33452 9.35441 7.5455C9.56539 7.75647 9.85153 7.875 10.1499 7.875H14.6499C14.9483 7.875 15.2344 7.75647 15.4454 7.5455C15.6564 7.33452 15.7749 7.04837 15.7749 6.75V5.625H18.0249C18.8206 5.625 19.5836 5.94107 20.1462 6.50368C20.7088 7.06629 21.0249 7.82935 21.0249 8.625C21.0249 10.125 19.8999 11.625 17.8037 11.625L18.1037 11.3287C18.1386 11.2938 18.1664 11.2523 18.1853 11.2066C18.2042 11.1609 18.2139 11.1119 18.2139 11.0625C18.2139 11.0131 18.2042 10.9641 18.1853 10.9184C18.1664 10.8727 18.1386 10.8312 18.1037 10.7963C18.0687 10.7613 18.0272 10.7336 17.9815 10.7146C17.9358 10.6957 17.8868 10.686 17.8374 10.686C17.788 10.686 17.739 10.6957 17.6933 10.7146C17.6476 10.7336 17.6061 10.7613 17.5712 10.7963C16.5549 11.8125 16.5924 11.76 16.5549 11.8575C16.5262 11.9258 16.5183 12.0011 16.5324 12.0738C16.5464 12.1466 16.5816 12.2135 16.6337 12.2662C17.6499 13.2787 17.6499 13.3125 17.8374 13.3125C17.9119 13.3129 17.9848 13.2912 18.0469 13.25C18.109 13.2088 18.1574 13.1501 18.1859 13.0813C18.2145 13.0125 18.2219 12.9368 18.2073 12.8637C18.1926 12.7907 18.1565 12.7237 18.1037 12.6713L17.8037 12.375C20.3312 12.375 21.7749 10.5262 21.7749 8.625ZM15.0249 6.75C15.0249 6.84946 14.9854 6.94484 14.9151 7.01517C14.8447 7.08549 14.7494 7.125 14.6499 7.125H10.1499C10.0504 7.125 9.95506 7.08549 9.88474 7.01517C9.81441 6.94484 9.7749 6.84946 9.7749 6.75V3.75C9.7749 3.65054 9.81441 3.55516 9.88474 3.48484C9.95506 3.41451 10.0504 3.375 10.1499 3.375H14.6499C14.7494 3.375 14.8447 3.41451 14.9151 3.48484C14.9854 3.55516 15.0249 3.65054 15.0249 3.75V6.75Z" fill="#696763"/>
<path id="Vector_9" d="M3.3999 5.62501H6.99615L6.69615 5.92126C6.64327 5.97371 6.6072 6.04072 6.59255 6.11375C6.5779 6.18678 6.58533 6.26252 6.61389 6.33131C6.64245 6.40011 6.69085 6.45883 6.75292 6.50001C6.81499 6.54118 6.88792 6.56294 6.9624 6.56251C7.1724 6.56251 7.1649 6.51376 8.16615 5.51626C8.21819 5.46352 8.25344 5.39656 8.26745 5.32381C8.28147 5.25107 8.27362 5.1758 8.2449 5.10751C8.2074 5.01001 8.2449 5.06251 7.22865 4.04626C7.19369 4.01129 7.15218 3.98356 7.1065 3.96464C7.06081 3.94571 7.01185 3.93597 6.9624 3.93597C6.86254 3.93597 6.76677 3.97564 6.69615 4.04626C6.66119 4.08122 6.63345 4.12273 6.61453 4.16841C6.59561 4.2141 6.58587 4.26306 6.58587 4.31251C6.58587 4.41237 6.62554 4.50814 6.69615 4.57876L6.99615 4.87501H3.3999C3.30045 4.87501 3.20506 4.91452 3.13474 4.98484C3.06441 5.05517 3.0249 5.15055 3.0249 5.25001C3.0249 5.34946 3.06441 5.44485 3.13474 5.51517C3.20506 5.5855 3.30045 5.62501 3.3999 5.62501Z" fill="#696763"/>
<path id="Vector_10" d="M13.8999 5.625H10.8999C10.8004 5.625 10.7051 5.66451 10.6347 5.73484C10.5644 5.80516 10.5249 5.90054 10.5249 6C10.5249 6.09946 10.5644 6.19484 10.6347 6.26517C10.7051 6.33549 10.8004 6.375 10.8999 6.375H13.8999C13.9994 6.375 14.0947 6.33549 14.1651 6.26517C14.2354 6.19484 14.2749 6.09946 14.2749 6C14.2749 5.90054 14.2354 5.80516 14.1651 5.73484C14.0947 5.66451 13.9994 5.625 13.8999 5.625Z" fill="#696763"/>
<path id="Vector_11" d="M13.8999 12.375H10.8999C10.8004 12.375 10.7051 12.4145 10.6347 12.4848C10.5644 12.5552 10.5249 12.6505 10.5249 12.75C10.5249 12.8495 10.5644 12.9448 10.6347 13.0152C10.7051 13.0855 10.8004 13.125 10.8999 13.125H13.8999C13.9994 13.125 14.0947 13.0855 14.1651 13.0152C14.2354 12.9448 14.2749 12.8495 14.2749 12.75C14.2749 12.6505 14.2354 12.5552 14.1651 12.4848C14.0947 12.4145 13.9994 12.375 13.8999 12.375Z" fill="#696763"/>
</g>
</g>
</svg>
