<svg width="25" height="24" viewBox="0 0 25 24" fill="none" xmlns="http://www.w3.org/2000/svg">
<g id="fi_7554749" clip-path="url(#clip0_2808_19257)">
<g id="line_cp">
<path id="Vector" d="M13.5498 22.5H2.6748C2.57535 22.5 2.47997 22.4605 2.40964 22.3902C2.33931 22.3198 2.2998 22.2245 2.2998 22.125V2.625C2.2998 2.52554 2.33931 2.43016 2.40964 2.35984C2.47997 2.28951 2.57535 2.25 2.6748 2.25H4.9248C5.02426 2.25 5.11964 2.21049 5.18997 2.14016C5.2603 2.06984 5.2998 1.97446 5.2998 1.875C5.2998 1.77554 5.2603 1.68016 5.18997 1.60984C5.11964 1.53951 5.02426 1.5 4.9248 1.5H2.6748C2.37644 1.5 2.09029 1.61853 1.87931 1.8295C1.66833 2.04048 1.5498 2.32663 1.5498 2.625V22.125C1.5498 22.4234 1.66833 22.7095 1.87931 22.9205C2.09029 23.1315 2.37644 23.25 2.6748 23.25H13.5498C13.6493 23.25 13.7446 23.2105 13.815 23.1402C13.8853 23.0698 13.9248 22.9745 13.9248 22.875C13.9248 22.7755 13.8853 22.6802 13.815 22.6098C13.7446 22.5395 13.6493 22.5 13.5498 22.5Z" fill="#BA7507"/>
<path id="Vector_2" d="M14.6748 2.25H16.9248C17.0243 2.25 17.1196 2.28951 17.19 2.35984C17.2603 2.43016 17.2998 2.52554 17.2998 2.625V10.125C17.2998 10.2245 17.3393 10.3198 17.4096 10.3902C17.48 10.4605 17.5753 10.5 17.6748 10.5C17.7743 10.5 17.8696 10.4605 17.94 10.3902C18.0103 10.3198 18.0498 10.2245 18.0498 10.125V2.625C18.0498 2.32663 17.9313 2.04048 17.7203 1.8295C17.5093 1.61853 17.2232 1.5 16.9248 1.5H14.6748C14.5753 1.5 14.48 1.53951 14.4096 1.60984C14.3393 1.68016 14.2998 1.77554 14.2998 1.875C14.2998 1.97446 14.3393 2.06984 14.4096 2.14016C14.48 2.21049 14.5753 2.25 14.6748 2.25Z" fill="#BA7507"/>
<path id="Vector_3" d="M7.1748 3.75H12.4248C12.7232 3.75 13.0093 3.63147 13.2203 3.4205C13.4313 3.20952 13.5498 2.92337 13.5498 2.625V1.875C13.5498 1.57663 13.4313 1.29048 13.2203 1.0795C13.0093 0.868526 12.7232 0.75 12.4248 0.75H7.1748C6.87644 0.75 6.59029 0.868526 6.37931 1.0795C6.16833 1.29048 6.0498 1.57663 6.0498 1.875V2.625C6.0498 2.92337 6.16833 3.20952 6.37931 3.4205C6.59029 3.63147 6.87644 3.75 7.1748 3.75ZM6.7998 1.875C6.7998 1.77554 6.83931 1.68016 6.90964 1.60984C6.97997 1.53951 7.07535 1.5 7.1748 1.5H12.4248C12.5243 1.5 12.6196 1.53951 12.69 1.60984C12.7603 1.68016 12.7998 1.77554 12.7998 1.875V2.625C12.7998 2.72446 12.7603 2.81984 12.69 2.89016C12.6196 2.96049 12.5243 3 12.4248 3H7.1748C7.07535 3 6.97997 2.96049 6.90964 2.89016C6.83931 2.81984 6.7998 2.72446 6.7998 2.625V1.875Z" fill="#BA7507"/>
<path id="Vector_4" d="M6.7998 4.875C6.7998 4.77554 6.7603 4.68016 6.68997 4.60984C6.61964 4.53951 6.52426 4.5 6.4248 4.5H3.4248C3.32535 4.5 3.22997 4.53951 3.15964 4.60984C3.08931 4.68016 3.0498 4.77554 3.0498 4.875V7.875C3.0498 7.97446 3.08931 8.06984 3.15964 8.14017C3.22997 8.21049 3.32535 8.25 3.4248 8.25H6.4248C6.52426 8.25 6.61964 8.21049 6.68997 8.14017C6.7603 8.06984 6.7998 7.97446 6.7998 7.875V4.875ZM6.0498 7.5H3.7998V5.25H6.0498V7.5Z" fill="#BA7507"/>
<path id="Vector_5" d="M6.7998 9.375C6.7998 9.27554 6.7603 9.18016 6.68997 9.10983C6.61964 9.03951 6.52426 9 6.4248 9H3.4248C3.32535 9 3.22997 9.03951 3.15964 9.10983C3.08931 9.18016 3.0498 9.27554 3.0498 9.375V12.375C3.0498 12.4745 3.08931 12.5698 3.15964 12.6402C3.22997 12.7105 3.32535 12.75 3.4248 12.75H6.4248C6.52426 12.75 6.61964 12.7105 6.68997 12.6402C6.7603 12.5698 6.7998 12.4745 6.7998 12.375V9.375ZM6.0498 12H3.7998V9.75H6.0498V12Z" fill="#BA7507"/>
<path id="Vector_6" d="M6.7998 13.875C6.7998 13.7755 6.7603 13.6802 6.68997 13.6098C6.61964 13.5395 6.52426 13.5 6.4248 13.5H3.4248C3.32535 13.5 3.22997 13.5395 3.15964 13.6098C3.08931 13.6802 3.0498 13.7755 3.0498 13.875V16.875C3.0498 16.9745 3.08931 17.0698 3.15964 17.1402C3.22997 17.2105 3.32535 17.25 3.4248 17.25H6.4248C6.52426 17.25 6.61964 17.2105 6.68997 17.1402C6.7603 17.0698 6.7998 16.9745 6.7998 16.875V13.875ZM6.0498 16.5H3.7998V14.25H6.0498V16.5Z" fill="#BA7507"/>
<path id="Vector_7" d="M6.4248 18H3.4248C3.32535 18 3.22997 18.0395 3.15964 18.1098C3.08931 18.1802 3.0498 18.2755 3.0498 18.375V21.375C3.0498 21.4745 3.08931 21.5698 3.15964 21.6402C3.22997 21.7105 3.32535 21.75 3.4248 21.75H6.4248C6.52426 21.75 6.61964 21.7105 6.68997 21.6402C6.7603 21.5698 6.7998 21.4745 6.7998 21.375V18.375C6.7998 18.2755 6.7603 18.1802 6.68997 18.1098C6.61964 18.0395 6.52426 18 6.4248 18ZM6.0498 21H3.7998V18.75H6.0498V21Z" fill="#BA7507"/>
<path id="Vector_8" d="M16.1748 5.25H9.4248C9.32535 5.25 9.22997 5.28951 9.15964 5.35984C9.08931 5.43016 9.0498 5.52554 9.0498 5.625C9.0498 5.72446 9.08931 5.81984 9.15964 5.89016C9.22997 5.96049 9.32535 6 9.4248 6H16.1748C16.2743 6 16.3696 5.96049 16.44 5.89016C16.5103 5.81984 16.5498 5.72446 16.5498 5.625C16.5498 5.52554 16.5103 5.43016 16.44 5.35984C16.3696 5.28951 16.2743 5.25 16.1748 5.25Z" fill="#BA7507"/>
<path id="Vector_9" d="M16.1748 6.75H7.9248C7.82535 6.75 7.72997 6.78951 7.65964 6.85983C7.58931 6.93016 7.5498 7.02554 7.5498 7.125C7.5498 7.22446 7.58931 7.31984 7.65964 7.39017C7.72997 7.46049 7.82535 7.5 7.9248 7.5H16.1748C16.2743 7.5 16.3696 7.46049 16.44 7.39017C16.5103 7.31984 16.5498 7.22446 16.5498 7.125C16.5498 7.02554 16.5103 6.93016 16.44 6.85983C16.3696 6.78951 16.2743 6.75 16.1748 6.75Z" fill="#BA7507"/>
<path id="Vector_10" d="M16.5498 10.125C16.5498 10.0255 16.5103 9.93016 16.44 9.85983C16.3696 9.78951 16.2743 9.75 16.1748 9.75H9.4248C9.32535 9.75 9.22997 9.78951 9.15964 9.85983C9.08931 9.93016 9.0498 10.0255 9.0498 10.125C9.0498 10.2245 9.08931 10.3198 9.15964 10.3902C9.22997 10.4605 9.32535 10.5 9.4248 10.5H16.1748C16.2743 10.5 16.3696 10.4605 16.44 10.3902C16.5103 10.3198 16.5498 10.2245 16.5498 10.125Z" fill="#BA7507"/>
<path id="Vector_11" d="M13.5498 11.625C13.5498 11.5255 13.5103 11.4302 13.44 11.3598C13.3696 11.2895 13.2743 11.25 13.1748 11.25H7.9248C7.82535 11.25 7.72997 11.2895 7.65964 11.3598C7.58931 11.4302 7.5498 11.5255 7.5498 11.625C7.5498 11.7245 7.58931 11.8198 7.65964 11.8902C7.72997 11.9605 7.82535 12 7.9248 12H13.1748C13.2743 12 13.3696 11.9605 13.44 11.8902C13.5103 11.8198 13.5498 11.7245 13.5498 11.625Z" fill="#BA7507"/>
<path id="Vector_12" d="M10.9248 14.25H9.4248C9.32535 14.25 9.22997 14.2895 9.15964 14.3598C9.08931 14.4302 9.0498 14.5255 9.0498 14.625C9.0498 14.7245 9.08931 14.8198 9.15964 14.8902C9.22997 14.9605 9.32535 15 9.4248 15H10.9248C11.0243 15 11.1196 14.9605 11.19 14.8902C11.2603 14.8198 11.2998 14.7245 11.2998 14.625C11.2998 14.5255 11.2603 14.4302 11.19 14.3598C11.1196 14.2895 11.0243 14.25 10.9248 14.25Z" fill="#BA7507"/>
<path id="Vector_13" d="M10.5498 15.75H7.9248C7.82535 15.75 7.72997 15.7895 7.65964 15.8598C7.58931 15.9302 7.5498 16.0255 7.5498 16.125C7.5498 16.2245 7.58931 16.3198 7.65964 16.3902C7.72997 16.4605 7.82535 16.5 7.9248 16.5H10.5498C10.6493 16.5 10.7446 16.4605 10.815 16.3902C10.8853 16.3198 10.9248 16.2245 10.9248 16.125C10.9248 16.0255 10.8853 15.9302 10.815 15.8598C10.7446 15.7895 10.6493 15.75 10.5498 15.75Z" fill="#BA7507"/>
<path id="Vector_14" d="M10.5498 18.75H9.4248C9.32535 18.75 9.22997 18.7895 9.15964 18.8598C9.08931 18.9302 9.0498 19.0255 9.0498 19.125C9.0498 19.2245 9.08931 19.3198 9.15964 19.3902C9.22997 19.4605 9.32535 19.5 9.4248 19.5H10.5498C10.6493 19.5 10.7446 19.4605 10.815 19.3902C10.8853 19.3198 10.9248 19.2245 10.9248 19.125C10.9248 19.0255 10.8853 18.9302 10.815 18.8598C10.7446 18.7895 10.6493 18.75 10.5498 18.75Z" fill="#BA7507"/>
<path id="Vector_15" d="M7.9248 21H11.2998C11.3993 21 11.4946 20.9605 11.565 20.8902C11.6353 20.8198 11.6748 20.7245 11.6748 20.625C11.6748 20.5255 11.6353 20.4302 11.565 20.3598C11.4946 20.2895 11.3993 20.25 11.2998 20.25H7.9248C7.82535 20.25 7.72997 20.2895 7.65964 20.3598C7.58931 20.4302 7.5498 20.5255 7.5498 20.625C7.5498 20.7245 7.58931 20.8198 7.65964 20.8902C7.72997 20.9605 7.82535 21 7.9248 21Z" fill="#BA7507"/>
<path id="Vector_16" d="M22.3069 14.6561C22.2617 14.6758 22.2209 14.7042 22.1867 14.7397C22.1525 14.7751 22.1256 14.817 22.1076 14.8629C22.0896 14.9087 22.0808 14.9577 22.0817 15.007C22.0827 15.0562 22.0933 15.1048 22.113 15.15C22.6012 16.2701 22.683 17.5256 22.3444 18.6996C22.0058 19.8737 21.268 20.8927 20.2582 21.5808C19.2485 22.2689 18.0303 22.583 16.8137 22.4688C15.5971 22.3546 14.4586 21.8193 13.5946 20.9553C12.7306 20.0912 12.1953 18.9527 12.0811 17.7362C11.9669 16.5196 12.2809 15.3013 12.9691 14.2916C13.6572 13.2819 14.6762 12.5441 15.8503 12.2054C17.0243 11.8668 18.2797 11.9487 19.3999 12.4369C19.4451 12.4569 19.4937 12.4677 19.5431 12.4689C19.5925 12.47 19.6417 12.4613 19.6877 12.4434C19.7338 12.4255 19.7758 12.3986 19.8115 12.3644C19.8471 12.3302 19.8756 12.2893 19.8954 12.244C19.9151 12.1987 19.9258 12.1499 19.9266 12.1005C19.9275 12.0511 19.9186 12.002 19.9004 11.9561C19.8822 11.9101 19.8552 11.8682 19.8208 11.8328C19.7863 11.7973 19.7453 11.769 19.6999 11.7495C18.4196 11.1914 16.9846 11.0978 15.6427 11.4847C14.3007 11.8717 13.136 12.715 12.3494 13.8691C11.5628 15.0232 11.2038 16.4156 11.3344 17.8062C11.4649 19.1967 12.0767 20.498 13.0643 21.4856C14.0518 22.4732 15.3532 23.085 16.7437 23.2155C18.1342 23.346 19.5267 22.987 20.6808 22.2005C21.8349 21.4139 22.6781 20.2491 23.0651 18.9072C23.4521 17.5652 23.3585 16.1303 22.8004 14.85C22.7606 14.7589 22.6863 14.6872 22.5938 14.6509C22.5012 14.6145 22.398 14.6164 22.3069 14.6561Z" fill="#BA7507"/>
<path id="Vector_17" d="M18.6749 14.583C18.7187 14.6056 18.7665 14.6193 18.8155 14.6235C18.8646 14.6276 18.914 14.6221 18.9609 14.6071C19.0079 14.5921 19.0514 14.5681 19.089 14.5363C19.1266 14.5045 19.1576 14.4657 19.1802 14.4219C19.2029 14.3782 19.2166 14.3304 19.2208 14.2813C19.2249 14.2322 19.2193 14.1828 19.2044 14.1359C19.1894 14.089 19.1654 14.0455 19.1336 14.0078C19.1018 13.9702 19.0629 13.9392 19.0192 13.9166C18.2923 13.5416 17.4628 13.4145 16.657 13.5547C15.8513 13.6949 15.1134 14.0947 14.5559 14.6931C13.9984 15.2916 13.6519 16.0559 13.5691 16.8695C13.4863 17.6832 13.6718 18.5017 14.0973 19.2001C14.5228 19.8986 15.1649 20.4388 15.926 20.7385C16.687 21.0381 17.5251 21.0807 18.3126 20.8599C19.1001 20.639 19.7938 20.1667 20.2879 19.515C20.7821 18.8633 21.0496 18.0679 21.0498 17.25C21.0514 16.6716 20.9178 16.1008 20.6598 15.5831C20.6381 15.5386 20.6078 15.4989 20.5707 15.4662C20.5336 15.4335 20.4904 15.4084 20.4435 15.3925C20.3967 15.3765 20.3472 15.37 20.2978 15.3733C20.2484 15.3766 20.2002 15.3897 20.1559 15.4117C20.1116 15.4337 20.0721 15.4643 20.0396 15.5016C20.0072 15.539 19.9824 15.5824 19.9669 15.6294C19.9513 15.6763 19.9451 15.7259 19.9488 15.7752C19.9524 15.8246 19.9658 15.8727 19.9882 15.9169C20.1944 16.3309 20.3011 16.7874 20.2998 17.25C20.2998 17.8433 20.1239 18.4233 19.7942 18.9167C19.4646 19.41 18.996 19.7946 18.4479 20.0216C17.8997 20.2487 17.2965 20.3081 16.7145 20.1923C16.1326 20.0766 15.598 19.7909 15.1785 19.3713C14.7589 18.9517 14.4732 18.4172 14.3575 17.8353C14.2417 17.2533 14.3011 16.6501 14.5282 16.1019C14.7552 15.5538 15.1398 15.0852 15.6331 14.7556C16.1264 14.4259 16.7065 14.25 17.2998 14.25C17.7783 14.2485 18.2501 14.3627 18.6749 14.583Z" fill="#BA7507"/>
<path id="Vector_18" d="M17.0498 16.5427C17.1435 16.5096 17.2203 16.4406 17.2632 16.3509C17.3061 16.2611 17.3116 16.158 17.2785 16.0642C17.2454 15.9705 17.1764 15.8937 17.0866 15.8508C16.9969 15.8079 16.8938 15.8024 16.8 15.8355C16.5607 15.9196 16.3467 16.063 16.1779 16.2523C16.0091 16.4415 15.891 16.6705 15.8347 16.9179C15.7785 17.1652 15.7858 17.4227 15.8561 17.6664C15.9264 17.9101 16.0574 18.132 16.2367 18.3113C16.416 18.4906 16.6379 18.6216 16.8816 18.6919C17.1253 18.7622 17.3828 18.7695 17.6301 18.7133C17.8775 18.657 18.1064 18.5389 18.2957 18.3701C18.485 18.2013 18.6284 17.9873 18.7125 17.748C18.7456 17.6542 18.7401 17.5511 18.6972 17.4614C18.6543 17.3716 18.5775 17.3026 18.4838 17.2695C18.39 17.2364 18.2869 17.2419 18.1971 17.2848C18.1074 17.3277 18.0384 17.4045 18.0053 17.4982C17.963 17.6176 17.8911 17.7244 17.7965 17.8085C17.7018 17.8926 17.5873 17.9514 17.4638 17.9793C17.3403 18.0073 17.2117 18.0035 17.09 17.9683C16.9683 17.9331 16.8575 17.8677 16.768 17.7782C16.6784 17.6886 16.613 17.5778 16.5778 17.4561C16.5426 17.3345 16.5388 17.2059 16.5668 17.0823C16.5947 16.9588 16.6535 16.8444 16.7376 16.7497C16.8218 16.655 16.9285 16.5832 17.0479 16.5409L17.0498 16.5427Z" fill="#BA7507"/>
<path id="Vector_19" d="M24.0213 12.2314C23.9929 12.1628 23.9448 12.1043 23.8831 12.0631C23.8214 12.0219 23.7489 12 23.6748 12H22.5498V10.875C22.5498 10.8008 22.5278 10.7283 22.4865 10.6667C22.4453 10.605 22.3868 10.557 22.3183 10.5286C22.2498 10.5002 22.1744 10.4928 22.1016 10.5073C22.0289 10.5217 21.9621 10.5574 21.9096 10.6099L20.4096 12.1099C20.3393 12.1802 20.2998 12.2755 20.2998 12.375V13.7197L17.0346 16.9849C16.9988 17.0194 16.9703 17.0608 16.9506 17.1066C16.931 17.1523 16.9206 17.2015 16.9202 17.2513C16.9197 17.3011 16.9292 17.3505 16.9481 17.3966C16.9669 17.4427 16.9948 17.4845 17.03 17.5198C17.0652 17.555 17.1071 17.5828 17.1532 17.6017C17.1993 17.6205 17.2486 17.63 17.2984 17.6296C17.3482 17.6291 17.3974 17.6188 17.4432 17.5991C17.4889 17.5795 17.5303 17.5509 17.5649 17.5151L20.83 14.25H22.1748C22.2742 14.25 22.3696 14.2104 22.4399 14.1401L23.9399 12.6401C23.9924 12.5877 24.0281 12.5208 24.0426 12.4481C24.0571 12.3753 24.0497 12.2999 24.0213 12.2314ZM21.0498 12.5314L21.7998 11.7814V12.2209L21.0498 12.9709V12.5314ZM22.0195 13.5H21.58L22.33 12.75H22.7695L22.0195 13.5Z" fill="#BA7507"/>
</g>
</g>
<defs>
<clipPath id="clip0_2808_19257">
<rect width="24" height="24" fill="white" transform="translate(0.799805)"/>
</clipPath>
</defs>
</svg>
