<svg width="25" height="24" viewBox="0 0 25 24" fill="none" xmlns="http://www.w3.org/2000/svg">
<g id="fi_2816977" clip-path="url(#clip0_2808_19238)">
<g id="Group">
<path id="Vector" d="M24.0895 15.7564C24.0335 15.5705 23.8373 15.4651 23.6515 15.5212C23.4656 15.5772 23.3603 15.7733 23.4162 15.9592C23.4697 16.1366 23.4968 16.3216 23.4968 16.509C23.4968 17.5583 22.6431 18.412 21.5938 18.412C20.5445 18.412 19.6908 17.5583 19.6908 16.509C19.6908 15.4597 20.5445 14.6061 21.5938 14.6061C21.9508 14.6061 22.2987 14.7054 22.5998 14.8934C22.7645 14.9962 22.9814 14.946 23.0842 14.7813C23.187 14.6166 23.1369 14.3998 22.9722 14.297C22.5593 14.0392 22.0826 13.9029 21.5938 13.9029C20.6862 13.9029 19.8859 14.3696 19.4191 15.0752L15.7027 13.2914C15.8517 12.8887 15.9332 12.4537 15.9332 12C15.9332 11.097 15.6109 10.268 15.0754 9.62166L15.9096 8.78738C16.0286 8.92509 16.1411 9.06984 16.244 9.21975C16.3067 9.31102 16.4048 9.36347 16.5072 9.3713C16.5844 9.3772 16.664 9.35775 16.7329 9.31055C16.8929 9.20067 16.9336 8.98177 16.8237 8.82173C16.6964 8.63644 16.5565 8.45784 16.408 8.28909L18.3007 6.39637C18.5972 6.59756 18.9547 6.71522 19.3392 6.71522C20.3619 6.71522 21.1938 5.88323 21.1938 4.86061C21.1938 3.83798 20.3618 3.00605 19.3392 3.00605C18.3166 3.00605 17.4846 3.83803 17.4846 4.86061C17.4846 5.24512 17.6023 5.60269 17.8035 5.89917L14.5782 9.12445C13.9319 8.58895 13.1029 8.26659 12.1999 8.26659C11.2969 8.26659 10.4679 8.58895 9.82151 9.12445L8.9854 8.28839C9.00354 8.27273 9.0214 8.25666 9.03973 8.24123C9.18847 8.11645 9.20792 7.89469 9.08309 7.74595C8.95831 7.59722 8.73654 7.57781 8.58781 7.70259C8.55378 7.73114 8.52045 7.76062 8.48703 7.79002L5.52256 4.82555C5.92339 4.31775 6.16353 3.67748 6.16353 2.98181C6.16353 2.76253 6.13958 2.54367 6.09228 2.33133C6.05009 2.14181 5.8624 2.02242 5.67275 2.06456C5.48323 2.10675 5.36379 2.29458 5.40598 2.48409C5.44212 2.64637 5.4604 2.81386 5.4604 2.98181C5.4604 4.2383 4.43815 5.26055 3.18167 5.26055C1.92519 5.26055 0.903076 4.23834 0.903076 2.98186C0.903076 1.72537 1.92533 0.703125 3.18181 0.703125C3.73479 0.703125 4.26804 0.903609 4.68326 1.26769C4.82923 1.39566 5.05137 1.38108 5.17939 1.23511C5.30736 1.08909 5.29278 0.867 5.14681 0.738984C4.60325 0.262453 3.90542 0 3.18181 0C1.53762 0 0.199951 1.33767 0.199951 2.98186C0.199951 4.62605 1.53762 5.96372 3.18181 5.96372C3.87748 5.96372 4.51775 5.72358 5.02555 5.32275L7.99845 8.29566C7.9309 8.43234 7.95809 8.60241 8.07617 8.71055C8.13645 8.76572 8.21084 8.79595 8.2865 8.80177C8.34884 8.80655 8.41198 8.79436 8.46898 8.76623L9.32445 9.6217C8.78895 10.2681 8.46659 11.097 8.46659 12C8.46659 12.903 8.78895 13.732 9.32445 14.3784L2.44564 21.2571C2.2219 21.1209 1.95936 21.0423 1.67876 21.0423C0.863326 21.0423 0.199951 21.7057 0.199951 22.5212C0.199951 23.3366 0.863326 24 1.67876 24C2.4942 24 3.15758 23.3366 3.15758 22.5212C3.15758 22.2406 3.07901 21.978 2.94279 21.7543L8.48698 16.2101C8.59794 16.3081 8.71231 16.4023 8.83001 16.4906C8.88556 16.5323 8.94945 16.5551 9.01395 16.56C9.12969 16.5689 9.24739 16.5202 9.32225 16.4205C9.43883 16.2652 9.40747 16.0448 9.25217 15.9283C9.1609 15.8597 9.07175 15.7874 8.98498 15.7121L9.82165 14.8755C10.3831 15.3406 11.0825 15.6443 11.8484 15.7162V18.8216C10.9934 18.9864 10.3454 19.74 10.3454 20.6423C10.3454 21.665 11.1774 22.4969 12.2 22.4969C13.2225 22.4969 14.0545 21.6649 14.0545 20.6423C14.0545 19.74 13.4065 18.9864 12.5515 18.8216V17.6019C12.7886 17.587 13.0269 17.557 13.2603 17.5119C13.4509 17.475 13.5756 17.2906 13.5387 17.1C13.5019 16.9094 13.3175 16.7847 13.1269 16.8215C12.9373 16.8581 12.7441 16.883 12.5515 16.8968V15.7162C13.7586 15.603 14.8005 14.9129 15.3976 13.9248L16.4594 14.4345C16.3532 14.6462 16.1501 14.9216 16.0209 15.0816C15.899 15.2326 15.9225 15.454 16.0736 15.576C16.1311 15.6224 16.1988 15.6477 16.2673 15.653C16.3788 15.6615 16.4925 15.6168 16.568 15.5233C16.7096 15.348 16.958 14.9957 17.0888 14.7366L19.1141 15.7087C19.0324 15.961 18.9878 16.2299 18.9878 16.509C18.9878 17.946 20.1569 19.1151 21.5939 19.1151C23.031 19.1151 24.2 17.9461 24.2 16.509C24.2 16.2529 24.1628 15.9997 24.0895 15.7564ZM19.3393 3.70917C19.9743 3.70917 20.4908 4.22573 20.4908 4.86061C20.4908 5.49548 19.9742 6.01209 19.3393 6.01209C18.7045 6.01209 18.1879 5.49553 18.1879 4.86061C18.1879 4.22569 18.7044 3.70917 19.3393 3.70917ZM1.67876 23.2969C1.25103 23.2969 0.903076 22.9489 0.903076 22.5212C0.903076 22.0935 1.25103 21.7455 1.67876 21.7455C2.1065 21.7455 2.45445 22.0935 2.45445 22.5212C2.45445 22.9489 2.1065 23.2969 1.67876 23.2969ZM13.3514 20.6424C13.3514 21.2773 12.8348 21.7938 12.2 21.7938C11.5651 21.7938 11.0485 21.2773 11.0485 20.6424C11.0485 20.0075 11.5651 19.491 12.2 19.491C12.8348 19.491 13.3514 20.0075 13.3514 20.6424ZM12.2 15.0302C10.529 15.0302 9.16972 13.6709 9.16972 12C9.16972 10.3291 10.5291 8.96977 12.2 8.96977C13.8708 8.96977 15.2302 10.3291 15.2302 12C15.2302 13.6709 13.8709 15.0302 12.2 15.0302Z" fill="#C63434 "/>
<path id="Vector_2" d="M14.9995 16.0313C14.8228 16.154 14.6363 16.2661 14.445 16.3647C14.2724 16.4537 14.2046 16.6657 14.2935 16.8382C14.3515 16.9508 14.4619 17.0188 14.5796 17.0278C14.6423 17.0326 14.7071 17.0206 14.7671 16.9897C14.9856 16.8771 15.1987 16.7489 15.4005 16.6088C15.56 16.4981 15.5995 16.279 15.4888 16.1195C15.378 15.96 15.159 15.9205 14.9995 16.0313Z" fill="#C63434 "/>
<path id="Vector_3" d="M14.2011 7.51698C14.3976 7.60454 14.59 7.70603 14.7728 7.81853C14.8221 7.84886 14.876 7.86559 14.93 7.86972C15.0571 7.87947 15.1851 7.81947 15.2565 7.70345C15.3583 7.53808 15.3068 7.32156 15.1414 7.21979C14.9322 7.09098 14.712 6.97487 14.4871 6.8747C14.3098 6.79581 14.102 6.8754 14.0229 7.05278C13.9439 7.23011 14.0237 7.438 14.2011 7.51698Z" fill="#C63434 "/>
<path id="Vector_4" d="M12.1879 7.08862C12.1964 7.08928 12.205 7.0896 12.2136 7.08965C12.4282 7.09054 12.645 7.10582 12.8588 7.13507C13.0516 7.16104 13.2284 7.02684 13.2548 6.83446C13.2812 6.64209 13.1466 6.46481 12.9542 6.43842C12.71 6.40499 12.4619 6.38756 12.2165 6.38648C12.0224 6.38563 11.8643 6.54238 11.8635 6.73654C11.8627 6.92217 12.0058 7.0747 12.1879 7.08862Z" fill="#C63434 "/>
<path id="Vector_5" d="M10.9371 17.4685C10.9547 17.4726 10.9723 17.4752 10.9899 17.4766C11.1602 17.4896 11.3192 17.3766 11.3588 17.2051C11.4025 17.0159 11.2846 16.8271 11.0954 16.7834L11.0703 16.7776C10.8684 16.7299 10.6683 16.6692 10.4753 16.5972C10.2933 16.5294 10.0909 16.6218 10.023 16.8037C9.95513 16.9856 10.0476 17.1881 10.2295 17.256C10.4499 17.3383 10.6784 17.4075 10.9087 17.4619L10.9371 17.4685Z" fill="#C63434 "/>
<path id="Vector_6" d="M10.0568 7.53344C10.1125 7.5377 10.1701 7.5287 10.2249 7.50461C10.4221 7.41784 10.6266 7.3435 10.833 7.28355C11.0194 7.22941 11.1267 7.03436 11.0725 6.84789C11.0184 6.66138 10.8232 6.55417 10.6368 6.60836C10.401 6.67689 10.1671 6.76188 9.94178 6.86102C9.76403 6.9392 9.68336 7.14667 9.76155 7.32438C9.81559 7.44733 9.93156 7.52388 10.0568 7.53344Z" fill="#C63434 "/>
<path id="Vector_7" d="M7.62664 9.37056C7.45217 9.28539 7.24166 9.35772 7.15644 9.53219C7.04872 9.75274 6.95455 9.98298 6.87659 10.2167C6.81509 10.4008 6.91456 10.6 7.09873 10.6615C7.12681 10.6708 7.15526 10.6765 7.18348 10.6787C7.34042 10.6907 7.4914 10.5954 7.54353 10.4393C7.61173 10.2349 7.69409 10.0336 7.78826 9.84081C7.87344 9.6663 7.80111 9.45578 7.62664 9.37056Z" fill="#C63434 "/>
<path id="Vector_8" d="M7.17967 13.6182C6.99929 13.6901 6.91145 13.8946 6.98335 14.075C7.07438 14.3032 7.18154 14.5278 7.30173 14.7422C7.36149 14.8489 7.46851 14.9123 7.5819 14.921C7.64865 14.9261 7.71756 14.9122 7.78027 14.877C7.94963 14.7821 8.01001 14.5678 7.91504 14.3985C7.80981 14.2108 7.71606 14.0143 7.63637 13.8145C7.56451 13.6341 7.36004 13.5462 7.17967 13.6182Z" fill="#C63434 "/>
<path id="Vector_9" d="M17.3433 11.3822C17.3733 11.3845 17.4042 11.383 17.4352 11.3772C17.626 11.3413 17.7517 11.1576 17.7159 10.9668C17.6705 10.7252 17.6085 10.4841 17.5315 10.2503C17.4709 10.0658 17.2721 9.96552 17.0877 10.0262C16.9033 10.0868 16.803 10.2856 16.8637 10.47C16.931 10.6745 16.9852 10.8853 17.0248 11.0965C17.0549 11.2563 17.1886 11.3704 17.3433 11.3822Z" fill="#C63434 "/>
<path id="Vector_10" d="M17.1885 13.7013C17.21 13.7071 17.2315 13.7107 17.2529 13.7124C17.4184 13.725 17.5746 13.6187 17.619 13.4526C17.6334 13.3986 17.6472 13.3442 17.6601 13.2894C17.7167 13.0495 17.758 12.8043 17.7828 12.5605C17.8024 12.3674 17.6617 12.1949 17.4686 12.1752C17.275 12.1545 17.1029 12.2963 17.0833 12.4894C17.0616 12.7029 17.0254 12.9176 16.9758 13.1279C16.9645 13.1759 16.9524 13.2235 16.9398 13.2709C16.8896 13.4584 17.0009 13.6512 17.1885 13.7013Z" fill="#C63434 "/>
<path id="Vector_11" d="M6.58926 11.7844C6.57956 12.0304 6.58631 12.2794 6.60927 12.5244C6.62545 12.6974 6.76443 12.8293 6.93206 12.8422C6.9517 12.8437 6.97176 12.8436 6.9921 12.8417C7.18542 12.8236 7.32745 12.6522 7.30935 12.4588C7.28929 12.2447 7.28343 12.0271 7.29192 11.8121C7.29951 11.6181 7.14857 11.4534 6.95446 11.447C6.76035 11.4393 6.5969 11.5904 6.58926 11.7844Z" fill="#C63434 "/>
</g>
</g>
<defs>
<clipPath id="clip0_2808_19238">
<rect width="24" height="24" fill="white" transform="translate(0.199951)"/>
</clipPath>
</defs>
</svg>
