<svg width="25" height="24" viewBox="0 0 25 24" fill="none" xmlns="http://www.w3.org/2000/svg">
<g id="fi_2708777" clip-path="url(#clip0_2808_19280)">
<g id="Group">
<path id="Vector" d="M21.7876 3.87723V2.85939C21.7876 2.72223 21.7276 2.59197 21.6232 2.5029C21.5189 2.41384 21.3808 2.37494 21.2453 2.39645L15.2971 3.34108C14.1151 3.53805 13.1427 4.26104 12.6 5.24762C12.057 4.261 11.0838 3.53781 9.89954 3.34051L3.95485 2.39645C3.81933 2.37489 3.68129 2.4138 3.57694 2.5029C3.47269 2.59197 3.4126 2.72223 3.4126 2.85939V5.20314H1.06885C0.809957 5.20314 0.600098 5.41305 0.600098 5.67189V19.7344C0.600098 19.9932 0.809957 20.2031 1.06885 20.2031H9.20494C10.3623 20.2031 11.4503 20.6538 12.2686 21.4721C12.3527 21.5561 12.4731 21.6094 12.6001 21.6094C12.7176 21.6094 12.8415 21.562 12.9316 21.4721C13.7498 20.6538 14.8379 20.2031 15.9953 20.2031H17.83C18.0888 20.2031 18.2987 19.9932 18.2987 19.7344C18.2987 19.4755 18.0888 19.2656 17.83 19.2656H15.9953C15.0324 19.2656 14.1094 19.5229 13.3035 20.0035C13.6773 19.1393 14.4672 18.4923 15.4477 18.3289L21.3923 17.3848C21.62 17.3487 21.7876 17.1524 21.7876 16.9219V9.09011C22.512 8.3658 22.9385 7.93933 23.6626 7.21515V19.2656H21.8078C21.5489 19.2656 21.339 19.4755 21.339 19.7344C21.339 19.9932 21.5489 20.2031 21.8078 20.2031H24.1313C24.3902 20.2031 24.6001 19.9932 24.6001 19.7344V5.50126C24.6001 4.99998 24.4049 4.52908 24.0509 4.17578C23.4271 3.55136 22.4915 3.46914 21.7876 3.87723ZM18.7121 10.8397L17.3866 9.51423L20.7367 6.16464L22.062 7.48998L18.7121 10.8397ZM16.8702 10.3237L17.9026 11.3561L16.0071 12.2192L16.8702 10.3237ZM4.3501 3.40844L9.74897 4.26583C11.1294 4.49584 12.1313 5.67859 12.1313 7.07814V18.6405C11.5717 18.0026 10.7958 17.5523 9.89954 17.403L4.3501 16.5217V3.40844ZM1.5376 19.2656V6.14064H3.4126V16.9219C3.4126 17.1524 3.58018 17.3487 3.80785 17.3848L9.74902 18.3283C10.732 18.4921 11.5226 19.1392 11.8967 20.0035C11.0907 19.5229 10.1678 19.2656 9.20494 19.2656H1.5376ZM20.8501 16.5217L15.2971 17.4036C14.4025 17.5527 13.6281 18.0034 13.0688 18.6413V7.07814C13.0688 5.67859 14.0708 4.49584 15.4477 4.26639L20.8501 3.40844V4.72492L16.3927 9.18231C16.3926 9.18245 16.3924 9.18259 16.3922 9.18273C16.3561 9.21892 16.3201 9.26959 16.2971 9.31998L14.6349 12.9706C14.5539 13.1485 14.5918 13.3581 14.7301 13.4963C14.8671 13.6333 15.0763 13.6732 15.2558 13.5914L18.9064 11.9292C18.9576 11.9059 19.0077 11.87 19.0436 11.8341C19.0438 11.834 19.0439 11.8338 19.0441 11.8337L20.8501 10.0276V16.5217ZM23.3878 6.16412L22.7249 6.82703L21.3996 5.50173C22.3081 4.59264 21.9947 4.90619 22.0625 4.83836C22.4259 4.47465 23.019 4.46926 23.3882 4.83883C23.7541 5.20408 23.7548 5.79775 23.3878 6.16412Z" fill="#BA7507"/>
<path id="Vector_2" d="M19.8188 19.5C20.0777 19.5 20.2876 19.2901 20.2876 19.0312C20.2876 18.7724 20.0777 18.5625 19.8188 18.5625C19.56 18.5625 19.3501 18.7724 19.3501 19.0312C19.3501 19.2901 19.56 19.5 19.8188 19.5Z" fill="#BA7507"/>
</g>
</g>
<defs>
<clipPath id="clip0_2808_19280">
<rect width="24" height="24" fill="white" transform="translate(0.600098)"/>
</clipPath>
</defs>
</svg>
