<svg width="25" height="24" viewBox="0 0 25 24" fill="none" xmlns="http://www.w3.org/2000/svg">
<g id="Auto focus" clip-path="url(#clip0_3518_36018)">
<g id="Group">
<path id="Vector" d="M12.3984 4.41816C12.7868 4.41816 13.1016 4.10334 13.1016 3.71503V0.703125C13.1016 0.314812 12.7868 0 12.3984 0C12.0101 0 11.6953 0.314812 11.6953 0.703125V3.71503C11.6953 4.10334 12.0101 4.41816 12.3984 4.41816Z" fill="#C63434 "/>
<path id="Vector_2" d="M12.3984 19.5818C12.0101 19.5818 11.6953 19.8967 11.6953 20.285V23.2969C11.6953 23.6852 12.0101 24 12.3984 24C12.7868 24 13.1016 23.6852 13.1016 23.2969V20.285C13.1016 19.8967 12.7868 19.5818 12.3984 19.5818Z" fill="#C63434 "/>
<path id="Vector_3" d="M23.6955 11.2969H20.6836C20.2953 11.2969 19.9805 11.6117 19.9805 12C19.9805 12.3883 20.2953 12.7031 20.6836 12.7031H23.6955C24.0838 12.7031 24.3986 12.3883 24.3986 12C24.3986 11.6117 24.0838 11.2969 23.6955 11.2969Z" fill="#C63434 "/>
<path id="Vector_4" d="M4.81655 12C4.81655 11.6117 4.50173 11.2969 4.11342 11.2969H1.10156C0.71325 11.2969 0.398438 11.6117 0.398438 12C0.398438 12.3883 0.71325 12.7031 1.10156 12.7031H4.11342C4.50178 12.7031 4.81655 12.3883 4.81655 12Z" fill="#C63434 "/>
<path id="Vector_5" d="M9.46978 20.9506C6.62953 20.0212 4.37902 17.7706 3.44972 14.9303C3.32897 14.5612 2.9318 14.3599 2.5628 14.4807C2.19371 14.6014 1.99242 14.9985 2.11317 15.3676C3.18131 18.6321 5.76792 21.2189 9.03244 22.2871C9.10505 22.3109 9.17878 22.3222 9.25125 22.3222C9.54708 22.3222 9.82238 22.1339 9.91936 21.8375C10.0402 21.4685 9.83888 21.0713 9.46978 20.9506Z" fill="#C63434 "/>
<path id="Vector_6" d="M22.2354 14.4807C21.8664 14.36 21.4692 14.5612 21.3485 14.9303C20.4192 17.7706 18.1687 20.0212 15.3284 20.9506C14.9593 21.0714 14.758 21.4685 14.8788 21.8375C14.9759 22.134 15.2511 22.3222 15.5469 22.3222C15.6194 22.3222 15.6931 22.3109 15.7657 22.2871C19.0302 21.2189 21.6169 18.6321 22.685 15.3676C22.8058 14.9986 22.6045 14.6015 22.2354 14.4807Z" fill="#C63434 "/>
<path id="Vector_7" d="M15.3284 3.0494C18.1686 3.97879 20.4191 6.2294 21.3484 9.06969C21.4454 9.36618 21.7207 9.55438 22.0165 9.55438C22.089 9.55438 22.1628 9.54308 22.2354 9.51932C22.6045 9.39857 22.8057 9.00149 22.685 8.6324C21.6168 5.36784 19.0302 2.78113 15.7658 1.7129C15.3967 1.5921 14.9996 1.79338 14.8788 2.16248C14.758 2.53152 14.9593 2.92865 15.3284 3.0494Z" fill="#C63434 "/>
<path id="Vector_8" d="M2.56279 9.51933C2.6354 9.5431 2.70909 9.55439 2.78156 9.55439C3.07739 9.55439 3.35269 9.36619 3.44967 9.06971C4.37897 6.22941 6.62948 3.97885 9.46973 3.04941C9.83883 2.92866 10.0401 2.53154 9.91931 2.16249C9.79851 1.79339 9.40134 1.59216 9.03239 1.71291C5.76797 2.78114 3.18131 5.36785 2.11317 8.63241C1.99242 9.00146 2.19375 9.39853 2.56279 9.51933Z" fill="#C63434 "/>
<path id="Vector_9" d="M15.2634 12C15.2634 10.4196 13.9777 9.13391 12.3973 9.13391C10.8169 9.13391 9.53125 10.4196 9.53125 12C9.53125 13.5803 10.817 14.8661 12.3973 14.8661C13.9777 14.8661 15.2634 13.5803 15.2634 12ZM10.9375 12C10.9375 11.1951 11.5924 10.5402 12.3973 10.5402C13.2023 10.5402 13.8572 11.1951 13.8572 12C13.8572 12.8049 13.2023 13.4598 12.3973 13.4598C11.5924 13.4598 10.9375 12.8049 10.9375 12Z" fill="#C63434 "/>
<path id="Vector_10" d="M7.81611 13.2245C7.71571 12.8494 7.3303 12.6266 6.95511 12.727C6.58002 12.8274 6.35727 13.2129 6.45767 13.588C7.17608 16.2725 9.61827 18.1473 12.3966 18.1473C15.1749 18.1473 17.6171 16.2725 18.3355 13.588C18.4359 13.2129 18.2132 12.8274 17.8381 12.727C17.4628 12.6266 17.0774 12.8494 16.9771 13.2245C16.423 15.295 14.5394 16.7411 12.3966 16.7411C10.2538 16.7411 8.37022 15.295 7.81611 13.2245Z" fill="#C63434 "/>
<path id="Vector_11" d="M18.3355 10.412C17.6171 7.72752 15.175 5.85266 12.3966 5.85266C9.61827 5.85266 7.17608 7.72752 6.45767 10.412C6.35727 10.7871 6.58002 11.1726 6.95511 11.273C7.3303 11.3734 7.71571 11.1506 7.81611 10.7755C8.37022 8.705 10.2538 7.25896 12.3966 7.25896C14.5394 7.25896 16.4229 8.70505 16.977 10.7755C17.0611 11.0898 17.3453 11.2971 17.6558 11.2971C17.716 11.2971 17.7771 11.2893 17.838 11.273C18.2132 11.1726 18.4359 10.7871 18.3355 10.412Z" fill="#C63434 "/>
</g>
</g>
<defs>
<clipPath id="clip0_3518_36018">
<rect width="24" height="24" fill="white" transform="translate(0.398438)"/>
</clipPath>
</defs>
</svg>
