<svg xmlns="http://www.w3.org/2000/svg" width="25" height="24" viewBox="0 0 25 24" fill="none">
  <g clip-path="url(#clip0_33_9753)">
    <path d="M4.06969 12.898C3.87755 11.073 4.26282 9.27221 5.18382 7.69046C5.28802 7.51153 5.51748 7.45088 5.69654 7.55508C5.87551 7.65928 5.93612 7.88888 5.83191 8.06785C4.99168 9.51094 4.64026 11.154 4.81557 12.8195C5.03443 14.8988 6.04993 16.7684 7.67504 18.0839C9.0819 19.2228 10.8001 19.8283 12.5852 19.8284C12.8621 19.8284 13.1403 19.8138 13.4195 19.7844C14.7477 19.6446 16.0008 19.1743 17.0822 18.4171L16.5816 18.3991C16.3747 18.3916 16.2129 18.2178 16.2203 18.0108C16.2278 17.8039 16.4006 17.641 16.6085 17.6495L18.1208 17.7038C18.236 17.708 18.3429 17.7649 18.4107 17.8582C18.4785 17.9514 18.4996 18.0706 18.468 18.1815L18.0528 19.6367C18.0058 19.8015 17.8556 19.9089 17.6924 19.9089C17.6583 19.9089 17.6237 19.9042 17.5893 19.8944C17.3902 19.8376 17.2748 19.6301 17.3316 19.4309L17.4288 19.0904C16.2628 19.8864 14.9193 20.3807 13.4981 20.5303C13.1923 20.5625 12.8872 20.5784 12.5839 20.5784C10.6276 20.5784 8.74501 19.9148 7.20324 18.6668C5.42232 17.2253 4.30955 15.1765 4.06969 12.898ZM17.9969 5.33316C16.2162 3.89161 13.9809 3.23002 11.702 3.46964C10.28 3.61932 8.93738 4.11343 7.77137 4.90964L7.86854 4.569C7.92535 4.36983 7.80994 4.16236 7.61082 4.1055C7.41132 4.04864 7.20413 4.1641 7.14727 4.36322L6.7321 5.81836C6.70046 5.92922 6.7216 6.04847 6.78938 6.14171C6.85716 6.23499 6.96409 6.29185 7.0793 6.29602L8.59159 6.35035C8.59618 6.35053 8.60073 6.35058 8.60527 6.35058C8.80613 6.35058 8.97254 6.19139 8.9798 5.98903C8.98721 5.78208 8.82549 5.60827 8.61849 5.60082L8.11609 5.58277C9.19777 4.82485 10.4512 4.35539 11.7806 4.21547C13.8596 3.99671 15.9 4.6005 17.5251 5.916C19.1502 7.2315 20.1657 9.10116 20.3845 11.1804C20.5599 12.8457 20.2084 14.4888 19.3682 15.9321C19.264 16.1111 19.3246 16.3406 19.5037 16.4448C19.563 16.4794 19.6279 16.4958 19.692 16.4958C19.8211 16.4958 19.9468 16.429 20.0164 16.3094C20.9373 14.7274 21.3225 12.9266 21.1305 11.1019C20.8905 8.82347 19.7777 6.77475 17.9969 5.33316ZM22.9747 5.9715C22.8705 5.79253 22.641 5.73193 22.4619 5.83613C22.283 5.94033 22.2224 6.16992 22.3266 6.34889C23.5342 8.42288 24.0392 10.7842 23.7873 13.1777C23.138 19.3464 17.5912 23.8367 11.4224 23.1873C9.36076 22.9703 7.42416 22.2005 5.78949 20.9539L6.95194 20.9121C7.1589 20.9047 7.32066 20.7309 7.31326 20.5239C7.3058 20.3169 7.13293 20.1543 6.92504 20.1626L4.78191 20.2396C4.66669 20.2437 4.55982 20.3006 4.49199 20.3939C4.42426 20.4871 4.40312 20.6063 4.43471 20.7172L5.02309 22.7794C5.0701 22.9442 5.22029 23.0516 5.38351 23.0516C5.41759 23.0516 5.45223 23.0469 5.48659 23.0371C5.68571 22.9803 5.80112 22.7728 5.7443 22.5736L5.48438 21.6627C7.19649 22.9267 9.20729 23.7083 11.3438 23.9332C11.7718 23.9782 12.1982 24.0005 12.6226 24.0005C15.3592 24.0004 17.9931 23.0721 20.1497 21.3263C22.6409 19.3097 24.1975 16.4437 24.5331 13.2562C24.8019 10.7031 24.263 8.1841 22.9747 5.9715ZM1.41273 10.8223C1.7273 7.83408 3.18671 5.14721 5.52212 3.25664C7.85757 1.36603 10.7898 0.498097 13.7776 0.812722C15.8404 1.02985 17.7757 1.79916 19.4107 3.04613L18.2481 3.08789C18.0411 3.09535 17.8794 3.26916 17.8868 3.47611C17.894 3.67852 18.0604 3.83766 18.2613 3.83766C18.2658 3.83766 18.2704 3.83761 18.275 3.83743L20.4181 3.76041C20.5333 3.75628 20.6402 3.69938 20.708 3.6061C20.7758 3.51286 20.7969 3.39361 20.7653 3.28275L20.1769 1.22053C20.1201 1.02132 19.9125 0.90591 19.7134 0.962816C19.5143 1.01963 19.3988 1.22714 19.4557 1.42632L19.7156 2.33747C18.0033 1.07316 15.9939 0.291847 13.8562 0.0668471C10.6687 -0.268637 7.54135 0.657097 5.05027 2.67371C2.5591 4.69036 1.00238 7.55635 0.666851 10.7438C0.398163 13.2966 0.937038 15.8155 2.22521 18.0285C2.29487 18.1482 2.42054 18.2149 2.54968 18.2149C2.61371 18.2149 2.67863 18.1985 2.73798 18.164C2.91694 18.0598 2.9776 17.8302 2.87344 17.6513C1.6659 15.5769 1.16082 13.2155 1.41273 10.8223ZM16.6325 13.2912C16.5612 13.5137 16.4715 13.73 16.3642 13.9381L17.1366 15.0049C17.2447 15.1542 17.2283 15.3598 17.0981 15.49L16.09 16.4981C15.9597 16.6284 15.7541 16.6448 15.6049 16.5367L14.538 15.7643C14.33 15.8715 14.1137 15.9612 13.8912 16.0325L13.6831 17.3328C13.6539 17.5147 13.497 17.6485 13.3128 17.6485H11.8872C11.703 17.6485 11.546 17.5147 11.5169 17.3328L11.3088 16.0326C11.0863 15.9613 10.87 15.8716 10.662 15.7643L9.59509 16.5368C9.44593 16.6447 9.24038 16.6285 9.10998 16.4982L8.10188 15.4901C7.97166 15.3598 7.9553 15.1542 8.06335 15.005L8.8358 13.9381C8.72855 13.7301 8.63888 13.5138 8.56759 13.2913L7.26732 13.0832C7.0854 13.0541 6.95162 12.8971 6.95162 12.7129V11.2873C6.95162 11.1031 7.0854 10.9462 7.26732 10.9171L8.56763 10.7089C8.63888 10.4864 8.72851 10.2701 8.8358 10.0621L8.06335 8.99522C7.9553 8.84602 7.97166 8.64042 8.10188 8.51016L9.10998 7.50207C9.24034 7.37175 9.44584 7.35549 9.59509 7.46349L10.6619 8.23589C10.8699 8.1286 11.0863 8.03888 11.3088 7.96768L11.5169 6.66746C11.546 6.48558 11.703 6.35175 11.8872 6.35175H13.3128C13.497 6.35175 13.6539 6.48558 13.6831 6.66746L13.8912 7.96768C14.1137 8.03893 14.3299 8.1286 14.538 8.23594L15.6049 7.46349C15.754 7.35553 15.9596 7.37175 16.09 7.50207L17.0981 8.51016C17.2283 8.64042 17.2447 8.84602 17.1366 8.99522L16.3642 10.0621C16.4714 10.27 16.5611 10.4864 16.6324 10.7089L17.9326 10.917C18.1146 10.9461 18.2484 11.1031 18.2484 11.2873V12.7129C18.2484 12.8971 18.1146 13.054 17.9326 13.0831L16.6325 13.2912ZM15.5982 13.7737C15.7667 13.4897 15.8934 13.1842 15.9748 12.8657C16.0118 12.7209 16.1312 12.6119 16.2788 12.5883L17.4984 12.3931V11.6069L16.2788 11.4117C16.1312 11.3881 16.0118 11.2791 15.9748 11.1343C15.8932 10.8155 15.7665 10.51 15.5982 10.2262C15.522 10.0976 15.5294 9.9361 15.617 9.81502L16.3416 8.81419L15.7858 8.2583L14.7849 8.98294C14.6638 9.07055 14.5022 9.07796 14.3737 9.00174C14.0897 8.83332 13.7843 8.70661 13.4656 8.62514C13.3209 8.58811 13.2119 8.46867 13.1883 8.32111L12.9931 7.10157H12.2069L12.0117 8.32111C11.9881 8.46867 11.8791 8.58811 11.7343 8.62514C11.4156 8.70661 11.1101 8.83332 10.8262 9.00169C10.6977 9.07791 10.5361 9.07055 10.415 8.98289L9.41424 8.2583L8.85835 8.81419L9.58294 9.81502C9.6706 9.9361 9.67801 10.0976 9.60174 10.2262C9.43341 10.5101 9.30676 10.8156 9.22529 11.1342C9.18826 11.279 9.06877 11.388 8.92126 11.4116L7.70157 11.6069V12.393L8.92121 12.5882C9.06873 12.6119 9.18816 12.7208 9.22519 12.8656C9.30671 13.1843 9.43341 13.4898 9.60179 13.7738C9.67801 13.9023 9.6706 14.0638 9.58294 14.1849L8.85835 15.1857L9.41419 15.7416L10.4151 15.017C10.5361 14.9293 10.6977 14.9219 10.8263 14.9982C11.1102 15.1666 11.4157 15.2933 11.7343 15.3748C11.8791 15.4118 11.9881 15.5312 12.0117 15.6788L12.2069 16.8984H12.9931L13.1883 15.6788C13.2119 15.5312 13.3209 15.4118 13.4656 15.3747C13.7844 15.2932 14.0899 15.1665 14.3737 14.9982C14.5022 14.9219 14.6638 14.9293 14.7849 15.017L15.7858 15.7416L16.3416 15.1857L15.617 14.1849C15.5294 14.0639 15.522 13.9023 15.5982 13.7737ZM15.0814 12C15.0814 13.3683 13.9683 14.4815 12.6 14.4815C11.2317 14.4815 10.1186 13.3683 10.1186 12C10.1186 10.6317 11.2318 9.51853 12.6001 9.51853C13.9683 9.51853 15.0814 10.6317 15.0814 12ZM14.3314 12C14.3314 11.0453 13.5548 10.2685 12.6 10.2685C11.6453 10.2685 10.8685 11.0453 10.8685 12C10.8685 12.9548 11.6453 13.7315 12.6 13.7315C13.5548 13.7315 14.3314 12.9548 14.3314 12Z" fill="#9C9A96"/>
    <path d="M4.06969 12.898C3.87755 11.073 4.26282 9.27221 5.18382 7.69046C5.28802 7.51153 5.51748 7.45088 5.69654 7.55508C5.87551 7.65928 5.93612 7.88888 5.83191 8.06785C4.99168 9.51094 4.64026 11.154 4.81557 12.8195C5.03443 14.8988 6.04993 16.7684 7.67504 18.0839C9.0819 19.2228 10.8001 19.8283 12.5852 19.8284C12.8621 19.8284 13.1403 19.8138 13.4195 19.7844C14.7477 19.6446 16.0008 19.1743 17.0822 18.4171L16.5816 18.3991C16.3747 18.3916 16.2129 18.2178 16.2203 18.0108C16.2278 17.8039 16.4006 17.641 16.6085 17.6495L18.1208 17.7038C18.236 17.708 18.3429 17.7649 18.4107 17.8582C18.4785 17.9514 18.4996 18.0706 18.468 18.1815L18.0528 19.6367C18.0058 19.8015 17.8556 19.9089 17.6924 19.9089C17.6583 19.9089 17.6237 19.9042 17.5893 19.8944C17.3902 19.8376 17.2748 19.6301 17.3316 19.4309L17.4288 19.0904C16.2628 19.8864 14.9193 20.3807 13.4981 20.5303C13.1923 20.5625 12.8872 20.5784 12.5839 20.5784C10.6276 20.5784 8.74501 19.9148 7.20324 18.6668C5.42232 17.2253 4.30955 15.1765 4.06969 12.898ZM17.9969 5.33316C16.2162 3.89161 13.9809 3.23002 11.702 3.46964C10.28 3.61932 8.93738 4.11343 7.77137 4.90964L7.86854 4.569C7.92535 4.36983 7.80994 4.16236 7.61082 4.1055C7.41132 4.04864 7.20413 4.1641 7.14727 4.36322L6.7321 5.81836C6.70046 5.92922 6.7216 6.04847 6.78938 6.14171C6.85716 6.23499 6.96409 6.29185 7.0793 6.29602L8.59159 6.35035C8.59618 6.35053 8.60073 6.35058 8.60527 6.35058C8.80613 6.35058 8.97254 6.19139 8.9798 5.98903C8.98721 5.78208 8.82549 5.60827 8.61849 5.60082L8.11609 5.58277C9.19777 4.82485 10.4512 4.35539 11.7806 4.21547C13.8596 3.99671 15.9 4.6005 17.5251 5.916C19.1502 7.2315 20.1657 9.10116 20.3845 11.1804C20.5599 12.8457 20.2084 14.4888 19.3682 15.9321C19.264 16.1111 19.3246 16.3406 19.5037 16.4448C19.563 16.4794 19.6279 16.4958 19.692 16.4958C19.8211 16.4958 19.9468 16.429 20.0164 16.3094C20.9373 14.7274 21.3225 12.9266 21.1305 11.1019C20.8905 8.82347 19.7777 6.77475 17.9969 5.33316ZM22.9747 5.9715C22.8705 5.79253 22.641 5.73193 22.4619 5.83613C22.283 5.94033 22.2224 6.16992 22.3266 6.34889C23.5342 8.42288 24.0392 10.7842 23.7873 13.1777C23.138 19.3464 17.5912 23.8367 11.4224 23.1873C9.36076 22.9703 7.42416 22.2005 5.78949 20.9539L6.95194 20.9121C7.1589 20.9047 7.32066 20.7309 7.31326 20.5239C7.3058 20.3169 7.13293 20.1543 6.92504 20.1626L4.78191 20.2396C4.66669 20.2437 4.55982 20.3006 4.49199 20.3939C4.42426 20.4871 4.40312 20.6063 4.43471 20.7172L5.02309 22.7794C5.0701 22.9442 5.22029 23.0516 5.38351 23.0516C5.41759 23.0516 5.45223 23.0469 5.48659 23.0371C5.68571 22.9803 5.80112 22.7728 5.7443 22.5736L5.48438 21.6627C7.19649 22.9267 9.20729 23.7083 11.3438 23.9332C11.7718 23.9782 12.1982 24.0005 12.6226 24.0005C15.3592 24.0004 17.9931 23.0721 20.1497 21.3263C22.6409 19.3097 24.1975 16.4437 24.5331 13.2562C24.8019 10.7031 24.263 8.1841 22.9747 5.9715ZM1.41273 10.8223C1.7273 7.83408 3.18671 5.14721 5.52212 3.25664C7.85757 1.36603 10.7898 0.498097 13.7776 0.812722C15.8404 1.02985 17.7757 1.79916 19.4107 3.04613L18.2481 3.08789C18.0411 3.09535 17.8794 3.26916 17.8868 3.47611C17.894 3.67852 18.0604 3.83766 18.2613 3.83766C18.2658 3.83766 18.2704 3.83761 18.275 3.83743L20.4181 3.76041C20.5333 3.75628 20.6402 3.69938 20.708 3.6061C20.7758 3.51286 20.7969 3.39361 20.7653 3.28275L20.1769 1.22053C20.1201 1.02132 19.9125 0.90591 19.7134 0.962816C19.5143 1.01963 19.3988 1.22714 19.4557 1.42632L19.7156 2.33747C18.0033 1.07316 15.9939 0.291847 13.8562 0.0668471C10.6687 -0.268637 7.54135 0.657097 5.05027 2.67371C2.5591 4.69036 1.00238 7.55635 0.666851 10.7438C0.398163 13.2966 0.937038 15.8155 2.22521 18.0285C2.29487 18.1482 2.42054 18.2149 2.54968 18.2149C2.61371 18.2149 2.67863 18.1985 2.73798 18.164C2.91694 18.0598 2.9776 17.8302 2.87344 17.6513C1.6659 15.5769 1.16082 13.2155 1.41273 10.8223ZM16.6325 13.2912C16.5612 13.5137 16.4715 13.73 16.3642 13.9381L17.1366 15.0049C17.2447 15.1542 17.2283 15.3598 17.0981 15.49L16.09 16.4981C15.9597 16.6284 15.7541 16.6448 15.6049 16.5367L14.538 15.7643C14.33 15.8715 14.1137 15.9612 13.8912 16.0325L13.6831 17.3328C13.6539 17.5147 13.497 17.6485 13.3128 17.6485H11.8872C11.703 17.6485 11.546 17.5147 11.5169 17.3328L11.3088 16.0326C11.0863 15.9613 10.87 15.8716 10.662 15.7643L9.59509 16.5368C9.44593 16.6447 9.24038 16.6285 9.10998 16.4982L8.10188 15.4901C7.97166 15.3598 7.9553 15.1542 8.06335 15.005L8.8358 13.9381C8.72855 13.7301 8.63888 13.5138 8.56759 13.2913L7.26732 13.0832C7.0854 13.0541 6.95162 12.8971 6.95162 12.7129V11.2873C6.95162 11.1031 7.0854 10.9462 7.26732 10.9171L8.56763 10.7089C8.63888 10.4864 8.72851 10.2701 8.8358 10.0621L8.06335 8.99522C7.9553 8.84602 7.97166 8.64042 8.10188 8.51016L9.10998 7.50207C9.24034 7.37175 9.44584 7.35549 9.59509 7.46349L10.6619 8.23589C10.8699 8.1286 11.0863 8.03888 11.3088 7.96768L11.5169 6.66746C11.546 6.48558 11.703 6.35175 11.8872 6.35175H13.3128C13.497 6.35175 13.6539 6.48558 13.6831 6.66746L13.8912 7.96768C14.1137 8.03893 14.3299 8.1286 14.538 8.23594L15.6049 7.46349C15.754 7.35553 15.9596 7.37175 16.09 7.50207L17.0981 8.51016C17.2283 8.64042 17.2447 8.84602 17.1366 8.99522L16.3642 10.0621C16.4714 10.27 16.5611 10.4864 16.6324 10.7089L17.9326 10.917C18.1146 10.9461 18.2484 11.1031 18.2484 11.2873V12.7129C18.2484 12.8971 18.1146 13.054 17.9326 13.0831L16.6325 13.2912ZM15.5982 13.7737C15.7667 13.4897 15.8934 13.1842 15.9748 12.8657C16.0118 12.7209 16.1312 12.6119 16.2788 12.5883L17.4984 12.3931V11.6069L16.2788 11.4117C16.1312 11.3881 16.0118 11.2791 15.9748 11.1343C15.8932 10.8155 15.7665 10.51 15.5982 10.2262C15.522 10.0976 15.5294 9.9361 15.617 9.81502L16.3416 8.81419L15.7858 8.2583L14.7849 8.98294C14.6638 9.07055 14.5022 9.07796 14.3737 9.00174C14.0897 8.83332 13.7843 8.70661 13.4656 8.62514C13.3209 8.58811 13.2119 8.46867 13.1883 8.32111L12.9931 7.10157H12.2069L12.0117 8.32111C11.9881 8.46867 11.8791 8.58811 11.7343 8.62514C11.4156 8.70661 11.1101 8.83332 10.8262 9.00169C10.6977 9.07791 10.5361 9.07055 10.415 8.98289L9.41424 8.2583L8.85835 8.81419L9.58294 9.81502C9.6706 9.9361 9.67801 10.0976 9.60174 10.2262C9.43341 10.5101 9.30676 10.8156 9.22529 11.1342C9.18826 11.279 9.06877 11.388 8.92126 11.4116L7.70157 11.6069V12.393L8.92121 12.5882C9.06873 12.6119 9.18816 12.7208 9.22519 12.8656C9.30671 13.1843 9.43341 13.4898 9.60179 13.7738C9.67801 13.9023 9.6706 14.0638 9.58294 14.1849L8.85835 15.1857L9.41419 15.7416L10.4151 15.017C10.5361 14.9293 10.6977 14.9219 10.8263 14.9982C11.1102 15.1666 11.4157 15.2933 11.7343 15.3748C11.8791 15.4118 11.9881 15.5312 12.0117 15.6788L12.2069 16.8984H12.9931L13.1883 15.6788C13.2119 15.5312 13.3209 15.4118 13.4656 15.3747C13.7844 15.2932 14.0899 15.1665 14.3737 14.9982C14.5022 14.9219 14.6638 14.9293 14.7849 15.017L15.7858 15.7416L16.3416 15.1857L15.617 14.1849C15.5294 14.0639 15.522 13.9023 15.5982 13.7737ZM15.0814 12C15.0814 13.3683 13.9683 14.4815 12.6 14.4815C11.2317 14.4815 10.1186 13.3683 10.1186 12C10.1186 10.6317 11.2318 9.51853 12.6001 9.51853C13.9683 9.51853 15.0814 10.6317 15.0814 12ZM14.3314 12C14.3314 11.0453 13.5548 10.2685 12.6 10.2685C11.6453 10.2685 10.8685 11.0453 10.8685 12C10.8685 12.9548 11.6453 13.7315 12.6 13.7315C13.5548 13.7315 14.3314 12.9548 14.3314 12Z" fill="url(#paint0_linear_33_9753)"/>
  </g>
  <defs>
    <linearGradient id="paint0_linear_33_9753" x1="12.6" y1="-0.000488281" x2="12.6" y2="24.0005" gradientUnits="userSpaceOnUse">
      <stop stop-color="#FF7E6E"/>
      <stop offset="1" stop-color="#C63434"/>
    </linearGradient>
    <clipPath id="clip0_33_9753">
      <rect width="24" height="24" fill="white" transform="translate(0.600006)"/>
    </clipPath>
  </defs>
</svg>