<svg width="20" height="20" viewBox="0 0 20 20" fill="none" xmlns="http://www.w3.org/2000/svg">
<path d="M8.95441 11.0325C8.80869 11.0325 8.67169 11.0893 8.56863 11.1923L8.42515 11.3358C8.24213 11.5188 7.94535 11.5188 7.76228 11.3358L7.61885 11.1923C7.51578 11.0893 7.37878 11.0325 7.23306 11.0325C7.08731 11.0325 6.95035 11.0893 6.84728 11.1923C6.74425 11.2954 6.6875 11.4324 6.6875 11.5781C6.6875 11.7238 6.74425 11.8608 6.84728 11.9639L8.09372 13.2103L9.34019 11.9639C9.44322 11.8608 9.49997 11.7238 9.49997 11.5781C9.49997 11.4323 9.44322 11.2953 9.34019 11.1923C9.23713 11.0893 9.10013 11.0325 8.95441 11.0325Z" fill="#ED4C41"/>
<path d="M11.2188 5.8125H4.96875C4.19334 5.8125 3.5625 6.44335 3.5625 7.21875V16.5937C3.5625 17.3691 4.19334 18 4.96875 18H11.2188C11.9942 18 12.625 17.3691 12.625 16.5937V7.21875C12.625 6.44335 11.9942 5.8125 11.2188 5.8125ZM6.84375 16.125H5.90625C5.64737 16.125 5.4375 15.9151 5.4375 15.6563C5.4375 15.3974 5.64737 15.1875 5.90625 15.1875H6.84375C7.10263 15.1875 7.3125 15.3974 7.3125 15.6563C7.3125 15.9151 7.10263 16.125 6.84375 16.125ZM10.0031 12.627L8.42522 14.2049C8.33369 14.2965 8.21372 14.3422 8.09378 14.3422C7.97385 14.3422 7.85385 14.2965 7.76235 14.2049L6.18437 12.627C5.60613 12.0487 5.60613 11.1079 6.18437 10.5297C6.70347 10.0105 7.51485 9.95747 8.09375 10.3704C8.67263 9.9574 9.484 10.0105 10.0031 10.5297C10.5814 11.1079 10.5814 12.0488 10.0031 12.627ZM10.2812 8.625H9.34375C9.08487 8.625 8.875 8.41513 8.875 8.15625C8.875 7.89737 9.08487 7.6875 9.34375 7.6875H10.2812C10.5401 7.6875 10.75 7.89737 10.75 8.15625C10.75 8.41513 10.5401 8.625 10.2812 8.625Z" fill="#ED4C41"/>
<path d="M13.1253 3.90625H6.87528C6.25259 3.90625 5.72347 4.31319 5.53906 4.875H11.219C12.5114 4.875 13.5628 5.92641 13.5628 7.21875V16.0237C14.1246 15.8393 14.5315 15.3102 14.5315 14.6875V5.3125C14.5315 4.53709 13.9007 3.90625 13.1253 3.90625Z" fill="#ED4C41"/>
<path d="M15.0315 2H8.78153C8.15885 2 7.62972 2.40694 7.44531 2.96875H13.1253C14.4176 2.96875 15.469 4.02015 15.469 5.3125V14.1175C16.0308 13.9331 16.4378 13.4039 16.4378 12.7813V3.40625C16.4378 2.63084 15.807 2 15.0315 2Z" fill="#ED4C41"/>
</svg>
