<svg width="24" height="24" viewBox="0 0 24 24" fill="none" xmlns="http://www.w3.org/2000/svg">
<g id="fi_2914633">
<g id="planning">
<path id="Vector" d="M14.25 9.375H9.75C9.45163 9.375 9.16548 9.49353 8.9545 9.7045C8.74353 9.91548 8.625 10.2016 8.625 10.5V11.625H6.375C5.38044 11.625 4.42661 12.0201 3.72335 12.7233C3.02009 13.4266 2.625 14.3804 2.625 15.375C2.625 17.28 4.07625 19.125 6.59625 19.125L6.29625 19.4213C6.24336 19.4737 6.2073 19.5407 6.19264 19.6137C6.17799 19.6868 6.18542 19.7625 6.21399 19.8313C6.24255 19.9001 6.29095 19.9588 6.35302 20C6.41509 20.0412 6.48802 20.0629 6.5625 20.0625C6.7725 20.0625 6.765 20.0138 7.76625 19.0162C7.81828 18.9635 7.85353 18.8966 7.86755 18.8238C7.88156 18.7511 7.87372 18.6758 7.845 18.6075C7.8075 18.51 7.845 18.5625 6.82875 17.5463C6.79379 17.5113 6.75228 17.4836 6.70659 17.4646C6.66091 17.4457 6.61195 17.436 6.5625 17.436C6.51305 17.436 6.46409 17.4457 6.41841 17.4646C6.37272 17.4836 6.33121 17.5113 6.29625 17.5463C6.26129 17.5812 6.23355 17.6227 6.21463 17.6684C6.1957 17.7141 6.18597 17.7631 6.18597 17.8125C6.18597 17.8619 6.1957 17.9109 6.21463 17.9566C6.23355 18.0023 6.26129 18.0438 6.29625 18.0787L6.59625 18.375C4.53375 18.375 3.375 16.9125 3.375 15.375C3.375 14.5794 3.69107 13.8163 4.25368 13.2537C4.81629 12.6911 5.57935 12.375 6.375 12.375H8.625V13.5C8.625 13.7984 8.74353 14.0845 8.9545 14.2955C9.16548 14.5065 9.45163 14.625 9.75 14.625H14.25C14.5484 14.625 14.8345 14.5065 15.0455 14.2955C15.2565 14.0845 15.375 13.7984 15.375 13.5V10.5C15.375 10.2016 15.2565 9.91548 15.0455 9.7045C14.8345 9.49353 14.5484 9.375 14.25 9.375ZM14.625 13.5C14.625 13.5995 14.5855 13.6948 14.5152 13.7652C14.4448 13.8355 14.3495 13.875 14.25 13.875H9.75C9.65054 13.875 9.55516 13.8355 9.48483 13.7652C9.41451 13.6948 9.375 13.5995 9.375 13.5V10.5C9.375 10.4005 9.41451 10.3052 9.48483 10.2348C9.55516 10.1645 9.65054 10.125 9.75 10.125H14.25C14.3495 10.125 14.4448 10.1645 14.5152 10.2348C14.5855 10.3052 14.625 10.4005 14.625 10.5V13.5Z" fill="#696763"/>
<path id="Vector_2" d="M14.25 16.125H9.75C9.45163 16.125 9.16548 16.2435 8.9545 16.4545C8.74353 16.6655 8.625 16.9516 8.625 17.25V20.25C8.625 20.5484 8.74353 20.8345 8.9545 21.0455C9.16548 21.2565 9.45163 21.375 9.75 21.375H14.25C14.5484 21.375 14.8345 21.2565 15.0455 21.0455C15.2565 20.8345 15.375 20.5484 15.375 20.25V17.25C15.375 16.9516 15.2565 16.6655 15.0455 16.4545C14.8345 16.2435 14.5484 16.125 14.25 16.125ZM14.625 20.25C14.625 20.3495 14.5855 20.4448 14.5152 20.5152C14.4448 20.5855 14.3495 20.625 14.25 20.625H9.75C9.65054 20.625 9.55516 20.5855 9.48483 20.5152C9.41451 20.4448 9.375 20.3495 9.375 20.25V17.25C9.375 17.1505 9.41451 17.0552 9.48483 16.9848C9.55516 16.9145 9.65054 16.875 9.75 16.875H14.25C14.3495 16.875 14.4448 16.9145 14.5152 16.9848C14.5855 17.0552 14.625 17.1505 14.625 17.25V20.25Z" fill="#696763"/>
<path id="Vector_3" d="M13.5 4.125H12C11.9005 4.125 11.8052 4.16451 11.7348 4.23484C11.6645 4.30516 11.625 4.40054 11.625 4.5C11.625 4.59946 11.6645 4.69484 11.7348 4.76516C11.8052 4.83549 11.9005 4.875 12 4.875H13.5C13.5995 4.875 13.6948 4.83549 13.7652 4.76516C13.8355 4.69484 13.875 4.59946 13.875 4.5C13.875 4.40054 13.8355 4.30516 13.7652 4.23484C13.6948 4.16451 13.5995 4.125 13.5 4.125Z" fill="#696763"/>
<path id="Vector_4" d="M10.5 4.875C10.5995 4.875 10.6948 4.83549 10.7652 4.76516C10.8355 4.69484 10.875 4.59946 10.875 4.5C10.875 4.40054 10.8355 4.30516 10.7652 4.23484C10.6948 4.16451 10.5995 4.125 10.5 4.125C10.4005 4.125 10.3052 4.16451 10.2348 4.23484C10.1645 4.30516 10.125 4.40054 10.125 4.5C10.125 4.59946 10.1645 4.69484 10.2348 4.76516C10.3052 4.83549 10.4005 4.875 10.5 4.875Z" fill="#696763"/>
<path id="Vector_5" d="M13.5 10.875H12C11.9005 10.875 11.8052 10.9145 11.7348 10.9848C11.6645 11.0552 11.625 11.1505 11.625 11.25C11.625 11.3495 11.6645 11.4448 11.7348 11.5152C11.8052 11.5855 11.9005 11.625 12 11.625H13.5C13.5995 11.625 13.6948 11.5855 13.7652 11.5152C13.8355 11.4448 13.875 11.3495 13.875 11.25C13.875 11.1505 13.8355 11.0552 13.7652 10.9848C13.6948 10.9145 13.5995 10.875 13.5 10.875Z" fill="#696763"/>
<path id="Vector_6" d="M10.5 11.625C10.5995 11.625 10.6948 11.5855 10.7652 11.5152C10.8355 11.4448 10.875 11.3495 10.875 11.25C10.875 11.1505 10.8355 11.0552 10.7652 10.9848C10.6948 10.9145 10.5995 10.875 10.5 10.875C10.4005 10.875 10.3052 10.9145 10.2348 10.9848C10.1645 11.0552 10.125 11.1505 10.125 11.25C10.125 11.3495 10.1645 11.4448 10.2348 11.5152C10.3052 11.5855 10.4005 11.625 10.5 11.625Z" fill="#696763"/>
<path id="Vector_7" d="M13.0458 17.6259L11.6246 19.0659L10.9533 18.3759C10.9184 18.3409 10.8769 18.3132 10.8312 18.2943C10.7855 18.2754 10.7365 18.2656 10.6871 18.2656C10.6376 18.2656 10.5887 18.2754 10.543 18.2943C10.4973 18.3132 10.4558 18.3409 10.4208 18.3759C10.3859 18.4109 10.3581 18.4524 10.3392 18.4981C10.3203 18.5437 10.3105 18.5927 10.3105 18.6422C10.3105 18.6916 10.3203 18.7406 10.3392 18.7863C10.3581 18.8319 10.3859 18.8734 10.4208 18.9084C11.4333 19.9209 11.4183 19.9547 11.6246 19.9547C11.8308 19.9547 11.7746 19.9547 13.5783 18.1584C13.6133 18.1234 13.641 18.0819 13.66 18.0363C13.6789 17.9906 13.6886 17.9416 13.6886 17.8922C13.6886 17.8427 13.6789 17.7937 13.66 17.7481C13.641 17.7024 13.6133 17.6609 13.5783 17.6259C13.5434 17.5909 13.5019 17.5632 13.4562 17.5443C13.4105 17.5254 13.3615 17.5156 13.3121 17.5156C13.2626 17.5156 13.2137 17.5254 13.168 17.5443C13.1223 17.5632 13.0808 17.5909 13.0458 17.6259Z" fill="#696763"/>
<path id="Vector_8" d="M21.375 8.625C21.375 7.63044 20.9799 6.67661 20.2767 5.97335C19.5734 5.27009 18.6196 4.875 17.625 4.875H15.375V3.75C15.375 3.45163 15.2565 3.16548 15.0455 2.9545C14.8345 2.74353 14.5484 2.625 14.25 2.625H9.75C9.45163 2.625 9.16548 2.74353 8.9545 2.9545C8.74353 3.16548 8.625 3.45163 8.625 3.75V6.75C8.625 7.04837 8.74353 7.33452 8.9545 7.5455C9.16548 7.75647 9.45163 7.875 9.75 7.875H14.25C14.5484 7.875 14.8345 7.75647 15.0455 7.5455C15.2565 7.33452 15.375 7.04837 15.375 6.75V5.625H17.625C18.4206 5.625 19.1837 5.94107 19.7463 6.50368C20.3089 7.06629 20.625 7.82935 20.625 8.625C20.625 10.125 19.5 11.625 17.4037 11.625L17.7037 11.3287C17.7387 11.2938 17.7664 11.2523 17.7854 11.2066C17.8043 11.1609 17.814 11.1119 17.814 11.0625C17.814 11.0131 17.8043 10.9641 17.7854 10.9184C17.7664 10.8727 17.7387 10.8312 17.7037 10.7963C17.6688 10.7613 17.6273 10.7336 17.5816 10.7146C17.5359 10.6957 17.4869 10.686 17.4375 10.686C17.3881 10.686 17.3391 10.6957 17.2934 10.7146C17.2477 10.7336 17.2062 10.7613 17.1713 10.7963C16.155 11.8125 16.1925 11.76 16.155 11.8575C16.1263 11.9258 16.1184 12.0011 16.1325 12.0738C16.1465 12.1466 16.1817 12.2135 16.2338 12.2662C17.25 13.2787 17.25 13.3125 17.4375 13.3125C17.512 13.3129 17.5849 13.2912 17.647 13.25C17.709 13.2088 17.7575 13.1501 17.786 13.0813C17.8146 13.0125 17.822 12.9368 17.8074 12.8637C17.7927 12.7907 17.7566 12.7237 17.7037 12.6713L17.4037 12.375C19.9312 12.375 21.375 10.5262 21.375 8.625ZM14.625 6.75C14.625 6.84946 14.5855 6.94484 14.5152 7.01517C14.4448 7.08549 14.3495 7.125 14.25 7.125H9.75C9.65054 7.125 9.55516 7.08549 9.48483 7.01517C9.41451 6.94484 9.375 6.84946 9.375 6.75V3.75C9.375 3.65054 9.41451 3.55516 9.48483 3.48484C9.55516 3.41451 9.65054 3.375 9.75 3.375H14.25C14.3495 3.375 14.4448 3.41451 14.5152 3.48484C14.5855 3.55516 14.625 3.65054 14.625 3.75V6.75Z" fill="#696763"/>
<path id="Vector_9" d="M3 5.62653H6.59625L6.29625 5.92278C6.24336 5.97524 6.2073 6.04225 6.19265 6.11528C6.17799 6.18831 6.18542 6.26405 6.21399 6.33284C6.24255 6.40163 6.29095 6.46036 6.35302 6.50153C6.41509 6.54271 6.48802 6.56447 6.5625 6.56403C6.7725 6.56403 6.765 6.51528 7.76625 5.51778C7.81828 5.46505 7.85353 5.39809 7.86755 5.32534C7.88156 5.25259 7.87372 5.17733 7.845 5.10903C7.8075 5.01153 7.845 5.06403 6.82875 4.04778C6.79379 4.01282 6.75228 3.98508 6.70659 3.96616C6.66091 3.94724 6.61195 3.9375 6.5625 3.9375C6.46264 3.9375 6.36686 3.97717 6.29625 4.04778C6.26129 4.08275 6.23355 4.12426 6.21463 4.16994C6.19571 4.21562 6.18597 4.26459 6.18597 4.31403C6.18597 4.4139 6.22564 4.50967 6.29625 4.58028L6.59625 4.87653H3C2.90054 4.87653 2.80516 4.91604 2.73484 4.98637C2.66451 5.0567 2.625 5.15208 2.625 5.25153C2.625 5.35099 2.66451 5.44637 2.73484 5.5167C2.80516 5.58703 2.90054 5.62653 3 5.62653Z" fill="#696763"/>
<path id="Vector_10" d="M13.5 5.625H10.5C10.4005 5.625 10.3052 5.66451 10.2348 5.73484C10.1645 5.80516 10.125 5.90054 10.125 6C10.125 6.09946 10.1645 6.19484 10.2348 6.26517C10.3052 6.33549 10.4005 6.375 10.5 6.375H13.5C13.5995 6.375 13.6948 6.33549 13.7652 6.26517C13.8355 6.19484 13.875 6.09946 13.875 6C13.875 5.90054 13.8355 5.80516 13.7652 5.73484C13.6948 5.66451 13.5995 5.625 13.5 5.625Z" fill="#696763"/>
<path id="Vector_11" d="M13.5 12.375H10.5C10.4005 12.375 10.3052 12.4145 10.2348 12.4848C10.1645 12.5552 10.125 12.6505 10.125 12.75C10.125 12.8495 10.1645 12.9448 10.2348 13.0152C10.3052 13.0855 10.4005 13.125 10.5 13.125H13.5C13.5995 13.125 13.6948 13.0855 13.7652 13.0152C13.8355 12.9448 13.875 12.8495 13.875 12.75C13.875 12.6505 13.8355 12.5552 13.7652 12.4848C13.6948 12.4145 13.5995 12.375 13.5 12.375Z" fill="#696763"/>
</g>
</g>
</svg>
