<svg width="32" height="32" viewBox="0 0 32 32" fill="none" xmlns="http://www.w3.org/2000/svg">
<g id="fi_3976555" clip-path="url(#clip0_2808_19116)">
<path id="Vector" d="M31.9016 14.9259L30.8612 12.3612C31.1426 12.0292 31.313 11.5991 31.313 11.1294C31.313 10.2444 30.7092 9.49877 29.8947 9.28833C29.8946 9.16502 29.8948 6.07609 29.8947 5.94509C29.8947 5.51927 29.6347 5.15414 29.2323 5.01482L16.0535 0.452554C15.5098 0.264238 14.911 0.2643 14.3673 0.452554L11.086 1.58845C10.8414 1.67308 10.7117 1.94008 10.7964 2.18471C10.8811 2.42946 11.148 2.55897 11.3927 2.47434L14.6739 1.33844C15.0198 1.21863 15.4008 1.21863 15.7468 1.33844L28.9256 5.90065C28.9396 5.90552 28.9571 5.91165 28.9571 5.94502C28.9571 5.9784 28.9396 5.98453 28.9256 5.9894L24.3888 7.55999V7.41961C24.3888 6.85167 23.983 6.36666 23.424 6.26647C17.9738 5.28895 12.4468 5.28895 6.99669 6.26647C6.43768 6.36672 6.03186 6.85167 6.03186 7.41961V7.55999L1.49515 5.9894C1.48109 5.98453 1.46359 5.9784 1.46359 5.94502C1.46359 5.91165 1.48109 5.90552 1.49515 5.90065L9.28754 3.2031C9.53217 3.11848 9.66186 2.85147 9.57717 2.60684C9.49248 2.36215 9.22547 2.23258 8.98084 2.31721L1.18846 5.01482C0.786076 5.15414 0.526072 5.51921 0.526072 5.94509C0.526072 6.37097 0.786076 6.73604 1.18846 6.87535L6.03192 8.55207V13.1913C3.57656 13.4357 1.65265 15.5132 1.65265 18.0318C1.65265 19.7148 2.51204 21.2007 3.81475 22.0744C1.63553 22.5559 0 24.5019 0 26.8238C0 29.5063 2.18235 31.6886 4.86477 31.6886H28.9604C29.7656 31.6886 30.4207 31.0335 30.4207 30.2283C30.4207 29.4329 29.7816 28.7845 28.99 28.7687C28.5002 27.51 28.4965 26.1397 28.9787 24.8793C29.7755 24.8694 30.4207 24.2185 30.4207 23.4194C30.4207 22.6141 29.7656 21.9591 28.9604 21.9591H28.6709C28.7334 21.7966 28.7681 21.6204 28.7681 21.4362C28.7681 20.631 28.113 19.9759 27.3077 19.9759H27.2951C26.841 18.7984 26.8115 17.5243 27.2067 16.3342C27.4547 16.6027 27.8037 16.7588 28.1745 16.7588H30.6773C31.1165 16.7588 31.5257 16.5405 31.772 16.1747C32.0207 15.8055 32.0691 15.3386 31.9016 14.9259ZM30.3755 11.1294C30.3755 11.6604 29.9495 12.0923 29.426 12.0923C28.9024 12.0923 28.4764 11.6604 28.4764 11.1294C28.4764 10.5985 28.9024 10.1665 29.426 10.1665C29.9495 10.1665 30.3755 10.5984 30.3755 11.1294ZM28.9572 6.97054V9.28833C28.1427 9.49877 27.5389 10.2444 27.5389 11.1294C27.5389 11.5991 27.7093 12.0292 27.9907 12.3612L27.6638 13.1669H24.3889V8.55207L28.9572 6.97054ZM7.16219 7.18923C12.5025 6.23159 17.9182 6.23159 23.2585 7.18923C23.3702 7.2093 23.4513 7.30617 23.4513 7.41968V10.6145H20.5629C20.304 10.6145 20.0941 10.8244 20.0941 11.0833C20.0941 11.3422 20.304 11.5521 20.5629 11.5521H23.4513V13.167H6.96943V11.5521H18.3753C18.6342 11.5521 18.8441 11.3422 18.8441 11.0833C18.8441 10.8244 18.6342 10.6145 18.3753 10.6145H6.96943V7.41968C6.96943 7.30617 7.0505 7.2093 7.16219 7.18923ZM29.4833 23.4193C29.4833 23.7076 29.2488 23.9422 28.9604 23.9422H4.86477C3.27587 23.9422 1.98316 25.2349 1.98316 26.8238C1.98316 28.4127 3.27587 29.7053 4.86477 29.7053H23.3754C23.6343 29.7053 23.8442 29.4955 23.8442 29.2366C23.8442 28.9776 23.6343 28.7678 23.3754 28.7678H4.86477C3.79282 28.7678 2.92068 27.8957 2.92068 26.8238C2.92068 25.7518 3.79282 24.8797 4.86477 24.8797H19.6485V27.5073C19.6485 27.6623 19.725 27.8072 19.853 27.8945C19.981 27.9818 20.1439 28.0004 20.2882 27.9438L21.5538 27.4482L22.8193 27.9438C22.8746 27.9655 22.9325 27.9761 22.9902 27.9761C23.0832 27.9761 23.1755 27.9485 23.2545 27.8945C23.3825 27.8072 23.459 27.6623 23.459 27.5073V24.8797H27.9839C27.5765 26.1498 27.5795 27.499 27.9932 28.7679H25.5629C25.3041 28.7679 25.0942 28.9777 25.0942 29.2366C25.0942 29.4956 25.3041 29.7054 25.5629 29.7054H28.9604C29.2487 29.7054 29.4832 29.9399 29.4832 30.2282C29.4832 30.5165 29.2487 30.751 28.9604 30.751H4.86477C2.6993 30.7511 0.937516 28.9893 0.937516 26.8238C0.937516 24.6582 2.6993 22.8965 4.86477 22.8965H28.9604C29.2487 22.8965 29.4833 23.1311 29.4833 23.4193ZM20.586 24.8797H22.5215V26.8205L21.7247 26.5084C21.6148 26.4654 21.4928 26.4654 21.3828 26.5084L20.586 26.8205V24.8797ZM12.5627 20.9133H27.3078C27.5961 20.9133 27.8306 21.1479 27.8306 21.4362C27.8306 21.7244 27.5961 21.959 27.3078 21.959H6.51743C4.35195 21.959 2.59017 20.1972 2.59017 18.0317C2.59017 15.8661 4.35195 14.1044 6.51743 14.1044H27.2834C27.1676 14.4153 26.9536 14.856 26.8816 15.1501H6.51743C4.92852 15.1501 3.63581 16.4428 3.63581 18.0317C3.63581 19.6206 4.92852 20.9132 6.51743 20.9132H10.3752C10.6341 20.9132 10.8439 20.7034 10.8439 20.4445C10.8439 20.1855 10.6341 19.9757 10.3752 19.9757H6.51743C5.44547 19.9757 4.57333 19.1036 4.57333 18.0317C4.57333 16.9597 5.44547 16.0876 6.51743 16.0876H8.23127V18.6927C8.23127 18.8477 8.30783 18.9926 8.43583 19.0799C8.56378 19.1673 8.72672 19.1858 8.87097 19.1292L10.1366 18.6336L11.4021 19.1292C11.4574 19.1509 11.5153 19.1615 11.573 19.1615C11.666 19.1615 11.7583 19.1339 11.8373 19.0799C11.9653 18.9926 12.0418 18.8477 12.0418 18.6927V16.0876H26.2995C25.889 17.357 25.889 18.7063 26.2995 19.9758H12.5627C12.3038 19.9758 12.094 20.1856 12.094 20.4445C12.094 20.7035 12.3038 20.9133 12.5627 20.9133ZM9.16879 16.0876H11.1043V18.0058L10.3075 17.6938C10.1976 17.6507 10.0756 17.6507 9.96561 17.6938L9.16879 18.0058V16.0876ZM30.9944 15.6509C30.96 15.7021 30.86 15.8212 30.6773 15.8212H28.1745C27.9917 15.8212 27.8919 15.7021 27.8574 15.6509C27.7821 15.5393 27.7681 15.4034 27.8189 15.2783L28.7779 12.9143C28.9801 12.989 29.1983 13.0298 29.4259 13.0298C29.6535 13.0298 29.8717 12.989 30.0739 12.9143L31.0329 15.2783C31.0837 15.4034 31.0697 15.5393 30.9944 15.6509Z" fill="#FBA804"/>
</g>
<defs>
<clipPath id="clip0_2808_19116">
<rect width="32" height="32" fill="white"/>
</clipPath>
</defs>
</svg>
