<svg width="32" height="32" viewBox="0 0 32 32" fill="none" xmlns="http://www.w3.org/2000/svg">
<g id="fi_9009672" clip-path="url(#clip0_2808_19096)">
<path id="Vector" d="M31.5 29.625H30.375V28.335C31.1545 28.1785 31.875 27.5095 31.875 26C31.875 24.6205 31.2075 22.625 30 22.625C29.3225 22.625 28.815 23.2535 28.5 24.049C28.185 23.2535 27.6775 22.625 27 22.625C26.9581 22.6268 26.9164 22.6311 26.875 22.638V7C26.875 6.91636 26.847 6.83514 26.7956 6.7692C26.7441 6.70326 26.6721 6.65638 26.591 6.636L22.875 5.707V2.5C22.875 2.40054 22.8355 2.30516 22.7652 2.23483C22.6948 2.16451 22.5995 2.125 22.5 2.125H20.875V0.5C20.875 0.400544 20.8355 0.305161 20.7652 0.234835C20.6948 0.164509 20.5995 0.125 20.5 0.125H6.5C6.40054 0.125 6.30516 0.164509 6.23484 0.234835C6.16451 0.305161 6.125 0.400544 6.125 0.5V2.125H4.5C4.40054 2.125 4.30516 2.16451 4.23484 2.23483C4.16451 2.30516 4.125 2.40054 4.125 2.5V5.707L0.409 6.636C0.327885 6.65638 0.255896 6.70326 0.204449 6.7692C0.153001 6.83514 0.12504 6.91636 0.125 7V31.5C0.125 31.5995 0.164509 31.6948 0.234835 31.7652C0.305161 31.8355 0.400544 31.875 0.5 31.875H31.5C31.5995 31.875 31.6948 31.8355 31.7652 31.7652C31.8355 31.6948 31.875 31.5995 31.875 31.5V30C31.875 29.9005 31.8355 29.8052 31.7652 29.7348C31.6948 29.6645 31.5995 29.625 31.5 29.625ZM30 23.375C30.4805 23.375 31.125 24.675 31.125 26C31.125 27.0325 30.715 27.625 30 27.625C29.285 27.625 28.875 27.0325 28.875 26C28.875 24.673 29.5195 23.375 30 23.375ZM28.5 27.55C28.622 27.7525 28.7852 27.9272 28.979 28.0627C29.1728 28.1981 29.3929 28.2914 29.625 28.3365V29.6265H27.375V28.335C27.607 28.2901 27.827 28.197 28.0208 28.0618C28.2145 27.9266 28.3778 27.7522 28.5 27.55ZM27 23.375C27.4805 23.375 28.125 24.675 28.125 26C28.125 27.0325 27.715 27.625 27 27.625C26.285 27.625 25.875 27.0325 25.875 26C25.875 24.673 26.5195 23.375 27 23.375ZM22.875 9.375H24.125V10.625H22.875V9.375ZM22.875 13.375H24.125V14.625H22.875V13.375ZM22.875 17.375H24.125V18.625H22.875V17.375ZM22.875 21.375H24.125V22.625H22.875V21.375ZM22.875 23.375H24.5C24.5995 23.375 24.6948 23.3355 24.7652 23.2652C24.8355 23.1948 24.875 23.0995 24.875 23V21C24.875 20.9005 24.8355 20.8052 24.7652 20.7348C24.6948 20.6645 24.5995 20.625 24.5 20.625H22.875V19.375H24.5C24.5995 19.375 24.6948 19.3355 24.7652 19.2652C24.8355 19.1948 24.875 19.0995 24.875 19V17C24.875 16.9005 24.8355 16.8052 24.7652 16.7348C24.6948 16.6645 24.5995 16.625 24.5 16.625H22.875V15.375H24.5C24.5995 15.375 24.6948 15.3355 24.7652 15.2652C24.8355 15.1948 24.875 15.0995 24.875 15V13C24.875 12.9005 24.8355 12.8052 24.7652 12.7348C24.6948 12.6645 24.5995 12.625 24.5 12.625H22.875V11.375H24.5C24.5995 11.375 24.6948 11.3355 24.7652 11.2652C24.8355 11.1948 24.875 11.0995 24.875 11V9C24.875 8.90054 24.8355 8.80516 24.7652 8.73483C24.6948 8.66451 24.5995 8.625 24.5 8.625H22.875V6.4805L26.125 7.2925V23.033C25.475 23.6875 25.125 25.003 25.125 26C25.125 27.5095 25.8455 28.1785 26.625 28.335V29.625H22.875V23.375ZM6.875 0.875H20.125V2.125H6.875V0.875ZM4.875 2.875H22.125V29.625H17.375V24.5C17.375 24.4005 17.3355 24.3052 17.2652 24.2348C17.1948 24.1645 17.0995 24.125 17 24.125H10C9.90054 24.125 9.80516 24.1645 9.73483 24.2348C9.66451 24.3052 9.625 24.4005 9.625 24.5V29.625H4.875V2.875ZM15.5 25.625H11.5C11.4005 25.625 11.3052 25.6645 11.2348 25.7348C11.1645 25.8052 11.125 25.9005 11.125 26V29.625H10.375V24.875H16.625V29.625H15.875V26C15.875 25.9005 15.8355 25.8052 15.7652 25.7348C15.6948 25.6645 15.5995 25.625 15.5 25.625ZM15.125 26.375V29.625H13.875V26.375H15.125ZM13.125 26.375V29.625H11.875V26.375H13.125ZM0.875 7.2925L4.125 6.4805V8.625H2.5C2.40054 8.625 2.30516 8.66451 2.23483 8.73483C2.16451 8.80516 2.125 8.90054 2.125 9V11C2.125 11.0995 2.16451 11.1948 2.23483 11.2652C2.30516 11.3355 2.40054 11.375 2.5 11.375H4.125V12.625H2.5C2.40054 12.625 2.30516 12.6645 2.23483 12.7348C2.16451 12.8052 2.125 12.9005 2.125 13V15C2.125 15.0995 2.16451 15.1948 2.23483 15.2652C2.30516 15.3355 2.40054 15.375 2.5 15.375H4.125V16.625H2.5C2.40054 16.625 2.30516 16.6645 2.23483 16.7348C2.16451 16.8052 2.125 16.9005 2.125 17V19C2.125 19.0995 2.16451 19.1948 2.23483 19.2652C2.30516 19.3355 2.40054 19.375 2.5 19.375H4.125V20.625H2.5C2.40054 20.625 2.30516 20.6645 2.23483 20.7348C2.16451 20.8052 2.125 20.9005 2.125 21V23C2.125 23.0995 2.16451 23.1948 2.23483 23.2652C2.30516 23.3355 2.40054 23.375 2.5 23.375H4.125V29.625H0.875V7.2925ZM4.125 9.375V10.625H2.875V9.375H4.125ZM4.125 13.375V14.625H2.875V13.375H4.125ZM4.125 17.375V18.625H2.875V17.375H4.125ZM4.125 21.375V22.625H2.875V21.375H4.125ZM31.125 31.125H0.875V30.375H31.125V31.125Z" fill="#E72113"/>
<path id="Vector_2" d="M6.5 6.875H9.8335C9.93296 6.875 10.0283 6.83549 10.0987 6.76516C10.169 6.69484 10.2085 6.59946 10.2085 6.5V4.5C10.2085 4.40054 10.169 4.30516 10.0987 4.23484C10.0283 4.16451 9.93296 4.125 9.8335 4.125H6.5C6.40054 4.125 6.30516 4.16451 6.23484 4.23484C6.16451 4.30516 6.125 4.40054 6.125 4.5V6.5C6.125 6.59946 6.16451 6.69484 6.23484 6.76516C6.30516 6.83549 6.40054 6.875 6.5 6.875ZM6.875 4.875H9.4585V6.125H6.875V4.875Z" fill="#E72113"/>
<path id="Vector_3" d="M17.1665 6.875H20.5C20.5995 6.875 20.6948 6.83549 20.7652 6.76516C20.8355 6.69484 20.875 6.59946 20.875 6.5V4.5C20.875 4.40054 20.8355 4.30516 20.7652 4.23484C20.6948 4.16451 20.5995 4.125 20.5 4.125H17.1665C17.067 4.125 16.9717 4.16451 16.9013 4.23484C16.831 4.30516 16.7915 4.40054 16.7915 4.5V6.5C16.7915 6.59946 16.831 6.69484 16.9013 6.76516C16.9717 6.83549 17.067 6.875 17.1665 6.875ZM17.5415 4.875H20.125V6.125H17.5415V4.875Z" fill="#E72113"/>
<path id="Vector_4" d="M11.8335 6.875H15.1665C15.266 6.875 15.3613 6.83549 15.4317 6.76516C15.502 6.69484 15.5415 6.59946 15.5415 6.5V4.5C15.5415 4.40054 15.502 4.30516 15.4317 4.23484C15.3613 4.16451 15.266 4.125 15.1665 4.125H11.8335C11.734 4.125 11.6387 4.16451 11.5683 4.23484C11.498 4.30516 11.4585 4.40054 11.4585 4.5V6.5C11.4585 6.59946 11.498 6.69484 11.5683 6.76516C11.6387 6.83549 11.734 6.875 11.8335 6.875ZM12.2085 4.875H14.7915V6.125H12.2085V4.875Z" fill="#E72113"/>
<path id="Vector_5" d="M6.5 10.875H9.8335C9.93296 10.875 10.0283 10.8355 10.0987 10.7652C10.169 10.6948 10.2085 10.5995 10.2085 10.5V8.5C10.2085 8.40054 10.169 8.30516 10.0987 8.23483C10.0283 8.16451 9.93296 8.125 9.8335 8.125H6.5C6.40054 8.125 6.30516 8.16451 6.23484 8.23483C6.16451 8.30516 6.125 8.40054 6.125 8.5V10.5C6.125 10.5995 6.16451 10.6948 6.23484 10.7652C6.30516 10.8355 6.40054 10.875 6.5 10.875ZM6.875 8.875H9.4585V10.125H6.875V8.875Z" fill="#E72113"/>
<path id="Vector_6" d="M17.1665 10.875H20.5C20.5995 10.875 20.6948 10.8355 20.7652 10.7652C20.8355 10.6948 20.875 10.5995 20.875 10.5V8.5C20.875 8.40054 20.8355 8.30516 20.7652 8.23483C20.6948 8.16451 20.5995 8.125 20.5 8.125H17.1665C17.067 8.125 16.9717 8.16451 16.9013 8.23483C16.831 8.30516 16.7915 8.40054 16.7915 8.5V10.5C16.7915 10.5995 16.831 10.6948 16.9013 10.7652C16.9717 10.8355 17.067 10.875 17.1665 10.875ZM17.5415 8.875H20.125V10.125H17.5415V8.875Z" fill="#E72113"/>
<path id="Vector_7" d="M11.8335 10.875H15.1665C15.266 10.875 15.3613 10.8355 15.4317 10.7652C15.502 10.6948 15.5415 10.5995 15.5415 10.5V8.5C15.5415 8.40054 15.502 8.30516 15.4317 8.23483C15.3613 8.16451 15.266 8.125 15.1665 8.125H11.8335C11.734 8.125 11.6387 8.16451 11.5683 8.23483C11.498 8.30516 11.4585 8.40054 11.4585 8.5V10.5C11.4585 10.5995 11.498 10.6948 11.5683 10.7652C11.6387 10.8355 11.734 10.875 11.8335 10.875ZM12.2085 8.875H14.7915V10.125H12.2085V8.875Z" fill="#E72113"/>
<path id="Vector_8" d="M6.5 14.875H9.8335C9.93296 14.875 10.0283 14.8355 10.0987 14.7652C10.169 14.6948 10.2085 14.5995 10.2085 14.5V12.5C10.2085 12.4005 10.169 12.3052 10.0987 12.2348C10.0283 12.1645 9.93296 12.125 9.8335 12.125H6.5C6.40054 12.125 6.30516 12.1645 6.23484 12.2348C6.16451 12.3052 6.125 12.4005 6.125 12.5V14.5C6.125 14.5995 6.16451 14.6948 6.23484 14.7652C6.30516 14.8355 6.40054 14.875 6.5 14.875ZM6.875 12.875H9.4585V14.125H6.875V12.875Z" fill="#E72113"/>
<path id="Vector_9" d="M17.1665 14.875H20.5C20.5995 14.875 20.6948 14.8355 20.7652 14.7652C20.8355 14.6948 20.875 14.5995 20.875 14.5V12.5C20.875 12.4005 20.8355 12.3052 20.7652 12.2348C20.6948 12.1645 20.5995 12.125 20.5 12.125H17.1665C17.067 12.125 16.9717 12.1645 16.9013 12.2348C16.831 12.3052 16.7915 12.4005 16.7915 12.5V14.5C16.7915 14.5995 16.831 14.6948 16.9013 14.7652C16.9717 14.8355 17.067 14.875 17.1665 14.875ZM17.5415 12.875H20.125V14.125H17.5415V12.875Z" fill="#E72113"/>
<path id="Vector_10" d="M11.8335 14.875H15.1665C15.266 14.875 15.3613 14.8355 15.4317 14.7652C15.502 14.6948 15.5415 14.5995 15.5415 14.5V12.5C15.5415 12.4005 15.502 12.3052 15.4317 12.2348C15.3613 12.1645 15.266 12.125 15.1665 12.125H11.8335C11.734 12.125 11.6387 12.1645 11.5683 12.2348C11.498 12.3052 11.4585 12.4005 11.4585 12.5V14.5C11.4585 14.5995 11.498 14.6948 11.5683 14.7652C11.6387 14.8355 11.734 14.875 11.8335 14.875ZM12.2085 12.875H14.7915V14.125H12.2085V12.875Z" fill="#E72113"/>
<path id="Vector_11" d="M6.5 18.875H9.8335C9.93296 18.875 10.0283 18.8355 10.0987 18.7652C10.169 18.6948 10.2085 18.5995 10.2085 18.5V16.5C10.2085 16.4005 10.169 16.3052 10.0987 16.2348C10.0283 16.1645 9.93296 16.125 9.8335 16.125H6.5C6.40054 16.125 6.30516 16.1645 6.23484 16.2348C6.16451 16.3052 6.125 16.4005 6.125 16.5V18.5C6.125 18.5995 6.16451 18.6948 6.23484 18.7652C6.30516 18.8355 6.40054 18.875 6.5 18.875ZM6.875 16.875H9.4585V18.125H6.875V16.875Z" fill="#E72113"/>
<path id="Vector_12" d="M17.1665 18.875H20.5C20.5995 18.875 20.6948 18.8355 20.7652 18.7652C20.8355 18.6948 20.875 18.5995 20.875 18.5V16.5C20.875 16.4005 20.8355 16.3052 20.7652 16.2348C20.6948 16.1645 20.5995 16.125 20.5 16.125H17.1665C17.067 16.125 16.9717 16.1645 16.9013 16.2348C16.831 16.3052 16.7915 16.4005 16.7915 16.5V18.5C16.7915 18.5995 16.831 18.6948 16.9013 18.7652C16.9717 18.8355 17.067 18.875 17.1665 18.875ZM17.5415 16.875H20.125V18.125H17.5415V16.875Z" fill="#E72113"/>
<path id="Vector_13" d="M11.8335 18.875H15.1665C15.266 18.875 15.3613 18.8355 15.4317 18.7652C15.502 18.6948 15.5415 18.5995 15.5415 18.5V16.5C15.5415 16.4005 15.502 16.3052 15.4317 16.2348C15.3613 16.1645 15.266 16.125 15.1665 16.125H11.8335C11.734 16.125 11.6387 16.1645 11.5683 16.2348C11.498 16.3052 11.4585 16.4005 11.4585 16.5V18.5C11.4585 18.5995 11.498 18.6948 11.5683 18.7652C11.6387 18.8355 11.734 18.875 11.8335 18.875ZM12.2085 16.875H14.7915V18.125H12.2085V16.875Z" fill="#E72113"/>
<path id="Vector_14" d="M10.2085 22.5V20.5C10.2085 20.4005 10.169 20.3052 10.0987 20.2348C10.0283 20.1645 9.93296 20.125 9.8335 20.125H6.5C6.40054 20.125 6.30516 20.1645 6.23484 20.2348C6.16451 20.3052 6.125 20.4005 6.125 20.5V22.5C6.125 22.5995 6.16451 22.6948 6.23484 22.7652C6.30516 22.8355 6.40054 22.875 6.5 22.875H9.8335C9.93296 22.875 10.0283 22.8355 10.0987 22.7652C10.169 22.6948 10.2085 22.5995 10.2085 22.5ZM9.4585 22.125H6.875V20.875H9.4585V22.125Z" fill="#E72113"/>
<path id="Vector_15" d="M17.1665 22.875H20.5C20.5995 22.875 20.6948 22.8355 20.7652 22.7652C20.8355 22.6948 20.875 22.5995 20.875 22.5V20.5C20.875 20.4005 20.8355 20.3052 20.7652 20.2348C20.6948 20.1645 20.5995 20.125 20.5 20.125H17.1665C17.067 20.125 16.9717 20.1645 16.9013 20.2348C16.831 20.3052 16.7915 20.4005 16.7915 20.5V22.5C16.7915 22.5995 16.831 22.6948 16.9013 22.7652C16.9717 22.8355 17.067 22.875 17.1665 22.875ZM17.5415 20.875H20.125V22.125H17.5415V20.875Z" fill="#E72113"/>
<path id="Vector_16" d="M11.8335 22.875H15.1665C15.266 22.875 15.3613 22.8355 15.4317 22.7652C15.502 22.6948 15.5415 22.5995 15.5415 22.5V20.5C15.5415 20.4005 15.502 20.3052 15.4317 20.2348C15.3613 20.1645 15.266 20.125 15.1665 20.125H11.8335C11.734 20.125 11.6387 20.1645 11.5683 20.2348C11.498 20.3052 11.4585 20.4005 11.4585 20.5V22.5C11.4585 22.5995 11.498 22.6948 11.5683 22.7652C11.6387 22.8355 11.734 22.875 11.8335 22.875ZM12.2085 20.875H14.7915V22.125H12.2085V20.875Z" fill="#E72113"/>
</g>
<defs>
<clipPath id="clip0_2808_19096">
<rect width="32" height="32" fill="white"/>
</clipPath>
</defs>
</svg>
