<svg width="27" height="25" viewBox="0 0 27 25" fill="none" xmlns="http://www.w3.org/2000/svg">
<path d="M23.5057 24.4102H21.1234V22.0278C21.1234 21.5513 20.7263 21.2337 20.3292 21.2337C19.9322 21.2337 19.5351 21.5513 19.5351 22.0278V24.4102H6.82924V22.0278C6.82924 21.5513 6.43218 21.2337 6.03512 21.2337C5.63806 21.2337 5.241 21.5513 5.241 22.0278V24.4102H2.85865C1.66747 24.4102 0.793945 23.3778 0.793945 22.0278V19.169H26.2057V22.0278C26.2057 23.3778 24.7763 24.4102 23.5057 24.4102ZM0.793945 17.5013V2.96898C0.793945 1.53957 1.66747 0.586626 2.93806 0.586626H23.5851C24.8557 0.586626 26.2851 1.61898 26.2851 2.96898V17.5013H0.793945ZM7.86159 4.16016H5.95571C5.63806 4.16016 5.32042 4.39839 5.32042 4.79545V6.78074C5.32042 7.09839 5.55865 7.41604 5.95571 7.41604H7.941C8.25865 7.41604 8.5763 7.1778 8.5763 6.78074V4.79545C8.49689 4.39839 8.25865 4.16016 7.86159 4.16016ZM7.86159 11.3072H5.95571C5.63806 11.3072 5.32042 11.5454 5.32042 11.9425V13.9278C5.32042 14.2454 5.55865 14.5631 5.95571 14.5631H7.941C8.25865 14.5631 8.5763 14.3249 8.5763 13.9278V11.9425C8.49689 11.5454 8.25865 11.3072 7.86159 11.3072ZM14.2145 4.16016H12.2292C11.9116 4.16016 11.5939 4.39839 11.5939 4.79545V6.78074C11.5939 7.09839 11.8322 7.41604 12.2292 7.41604H14.2145C14.5322 7.41604 14.8498 7.1778 14.8498 6.78074V4.79545C14.8498 4.39839 14.6116 4.16016 14.2145 4.16016ZM14.2145 11.3072H12.2292C11.9116 11.3072 11.5939 11.5454 11.5939 11.9425V13.9278C11.5939 14.2454 11.8322 14.5631 12.2292 14.5631H14.2145C14.5322 14.5631 14.8498 14.3249 14.8498 13.9278V11.9425C14.8498 11.5454 14.6116 11.3072 14.2145 11.3072ZM20.5675 4.16016H18.5822C18.2645 4.16016 17.9469 4.39839 17.9469 4.79545V6.78074C17.9469 7.09839 18.1851 7.41604 18.5822 7.41604H20.5675C20.8851 7.41604 21.2028 7.1778 21.2028 6.78074V4.79545C21.2028 4.39839 20.9645 4.16016 20.5675 4.16016ZM20.5675 11.3072H18.5822C18.2645 11.3072 17.9469 11.5454 17.9469 11.9425V13.9278C17.9469 14.2454 18.1851 14.5631 18.5822 14.5631H20.5675C20.8851 14.5631 21.2028 14.3249 21.2028 13.9278V11.9425C21.2028 11.5454 20.9645 11.3072 20.5675 11.3072Z" fill="white"/>
</svg>
