<svg width="10" height="10" viewBox="0 0 10 10" fill="none" xmlns="http://www.w3.org/2000/svg">
<path d="M8.70571 9.41162H7.82336V8.52927C7.82336 8.3528 7.6763 8.23515 7.52924 8.23515C7.38218 8.23515 7.23512 8.3528 7.23512 8.52927V9.41162H2.52924V8.52927C2.52924 8.3528 2.38218 8.23515 2.23512 8.23515C2.08806 8.23515 1.941 8.3528 1.941 8.52927V9.41162H1.05865C0.617475 9.41162 0.293945 9.02927 0.293945 8.52927V7.47044H9.70571V8.52927C9.70571 9.02927 9.1763 9.41162 8.70571 9.41162ZM0.293945 6.8528V1.47045C0.293945 0.941033 0.617475 0.588092 1.08806 0.588092H8.73512C9.20571 0.588092 9.73512 0.970445 9.73512 1.47045V6.8528H0.293945ZM2.91159 1.91162H2.20571C2.08806 1.91162 1.97042 1.99986 1.97042 2.14692V2.88221C1.97042 2.99986 2.05865 3.1175 2.20571 3.1175H2.941C3.05865 3.1175 3.1763 3.02927 3.1763 2.88221V2.14692C3.14689 1.99986 3.05865 1.91162 2.91159 1.91162ZM2.91159 4.55868H2.20571C2.08806 4.55868 1.97042 4.64692 1.97042 4.79397V5.52927C1.97042 5.64692 2.05865 5.76456 2.20571 5.76456H2.941C3.05865 5.76456 3.1763 5.67633 3.1763 5.52927V4.79397C3.14689 4.64692 3.05865 4.55868 2.91159 4.55868ZM5.26453 1.91162H4.52924C4.41159 1.91162 4.29395 1.99986 4.29395 2.14692V2.88221C4.29395 2.99986 4.38218 3.1175 4.52924 3.1175H5.26453C5.38218 3.1175 5.49983 3.02927 5.49983 2.88221V2.14692C5.49983 1.99986 5.41159 1.91162 5.26453 1.91162ZM5.26453 4.55868H4.52924C4.41159 4.55868 4.29395 4.64692 4.29395 4.79397V5.52927C4.29395 5.64692 4.38218 5.76456 4.52924 5.76456H5.26453C5.38218 5.76456 5.49983 5.67633 5.49983 5.52927V4.79397C5.49983 4.64692 5.41159 4.55868 5.26453 4.55868ZM7.61747 1.91162H6.88218C6.76453 1.91162 6.64689 1.99986 6.64689 2.14692V2.88221C6.64689 2.99986 6.73512 3.1175 6.88218 3.1175H7.61747C7.73512 3.1175 7.85277 3.02927 7.85277 2.88221V2.14692C7.85277 1.99986 7.76453 1.91162 7.61747 1.91162ZM7.61747 4.55868H6.88218C6.76453 4.55868 6.64689 4.64692 6.64689 4.79397V5.52927C6.64689 5.64692 6.73512 5.76456 6.88218 5.76456H7.61747C7.73512 5.76456 7.85277 5.67633 7.85277 5.52927V4.79397C7.85277 4.64692 7.76453 4.55868 7.61747 4.55868Z" fill="#A4A2A5"/>
</svg>
