<svg width="27" height="25" viewBox="0 0 27 25" fill="none" xmlns="http://www.w3.org/2000/svg">
<path d="M23.5057 24.4117H21.1234V22.0294C21.1234 21.5529 20.7263 21.2353 20.3292 21.2353C19.9322 21.2353 19.5351 21.5529 19.5351 22.0294V24.4117H6.82924V22.0294C6.82924 21.5529 6.43218 21.2353 6.03512 21.2353C5.63806 21.2353 5.241 21.5529 5.241 22.0294V24.4117H2.85865C1.66747 24.4117 0.793945 23.3794 0.793945 22.0294V19.1706H26.2057V22.0294C26.2057 23.3794 24.7763 24.4117 23.5057 24.4117ZM0.793945 17.5029V2.97057C0.793945 1.54115 1.66747 0.588213 2.93806 0.588213H23.5851C24.8557 0.588213 26.2851 1.62057 26.2851 2.97057V17.5029H0.793945ZM7.86159 4.16174H5.95571C5.63806 4.16174 5.32042 4.39998 5.32042 4.79704V6.78233C5.32042 7.09998 5.55865 7.41763 5.95571 7.41763H7.941C8.25865 7.41763 8.5763 7.17939 8.5763 6.78233V4.79704C8.49689 4.39998 8.25865 4.16174 7.86159 4.16174ZM7.86159 11.3088H5.95571C5.63806 11.3088 5.32042 11.547 5.32042 11.9441V13.9294C5.32042 14.247 5.55865 14.5647 5.95571 14.5647H7.941C8.25865 14.5647 8.5763 14.3264 8.5763 13.9294V11.9441C8.49689 11.547 8.25865 11.3088 7.86159 11.3088ZM14.2145 4.16174H12.2292C11.9116 4.16174 11.5939 4.39998 11.5939 4.79704V6.78233C11.5939 7.09998 11.8322 7.41763 12.2292 7.41763H14.2145C14.5322 7.41763 14.8498 7.17939 14.8498 6.78233V4.79704C14.8498 4.39998 14.6116 4.16174 14.2145 4.16174ZM14.2145 11.3088H12.2292C11.9116 11.3088 11.5939 11.547 11.5939 11.9441V13.9294C11.5939 14.247 11.8322 14.5647 12.2292 14.5647H14.2145C14.5322 14.5647 14.8498 14.3264 14.8498 13.9294V11.9441C14.8498 11.547 14.6116 11.3088 14.2145 11.3088ZM20.5675 4.16174H18.5822C18.2645 4.16174 17.9469 4.39998 17.9469 4.79704V6.78233C17.9469 7.09998 18.1851 7.41763 18.5822 7.41763H20.5675C20.8851 7.41763 21.2028 7.17939 21.2028 6.78233V4.79704C21.2028 4.39998 20.9645 4.16174 20.5675 4.16174ZM20.5675 11.3088H18.5822C18.2645 11.3088 17.9469 11.547 17.9469 11.9441V13.9294C17.9469 14.247 18.1851 14.5647 18.5822 14.5647H20.5675C20.8851 14.5647 21.2028 14.3264 21.2028 13.9294V11.9441C21.2028 11.547 20.9645 11.3088 20.5675 11.3088Z" fill="#1E2447"/>
</svg>
