<svg width="12" height="12" viewBox="0 0 12 12" fill="none" xmlns="http://www.w3.org/2000/svg">
<g clip-path="url(#clip0_4158_8557)">
<path d="M9.49997 6.02298C9.22348 6.02298 9 6.24701 9 6.52295V10.523C9 10.7985 8.77597 11.0229 8.50003 11.0229H1.5C1.22397 11.0229 1.00003 10.7985 1.00003 10.523V3.52295C1.00003 3.24747 1.22397 3.02298 1.5 3.02298H5.50003C5.77652 3.02298 6 2.79895 6 2.52301C6 2.24698 5.77652 2.02295 5.50003 2.02295H1.5C0.673004 2.02295 0 2.69595 0 3.52295V10.523C0 11.35 0.673004 12.023 1.5 12.023H8.50003C9.32703 12.023 10 11.35 10 10.523V6.52295C10 6.24646 9.77646 6.02298 9.49997 6.02298Z" fill="#DB2B39"/>
<path d="M4.68806 5.56781C4.65309 5.60278 4.62956 5.64728 4.61958 5.69525L4.2661 7.46332C4.24962 7.54526 4.27562 7.62976 4.33458 7.68927C4.38209 7.73679 4.44609 7.76224 4.51164 7.76224C4.52757 7.76224 4.54414 7.76077 4.56062 7.75729L6.32814 7.40381C6.37712 7.39374 6.42161 7.3703 6.45613 7.33524L10.4121 3.37924L8.64461 1.61182L4.68806 5.56781Z" fill="#DB2B39"/>
<path d="M11.6338 0.389076C11.1464 -0.0984421 10.3533 -0.0984421 9.86627 0.389076L9.17432 1.08103L10.9418 2.84855L11.6338 2.1565C11.8698 1.92103 11.9998 1.607 11.9998 1.27302C11.9998 0.939034 11.8698 0.625008 11.6338 0.389076Z" fill="#DB2B39"/>
</g>
<defs>
<clipPath id="clip0_4158_8557">
<rect width="12" height="12" fill="white"/>
</clipPath>
</defs>
</svg>
