<svg width="32" height="32" viewBox="0 0 32 32" fill="none" xmlns="http://www.w3.org/2000/svg">
<g id="fi_1719695" clip-path="url(#clip0_2808_19136)">
<path id="Vector" d="M13.6148 16.4043C13.4087 16.4043 13.2268 16.2695 13.1668 16.0723L11.7439 11.3984H7.48218C7.22339 11.3984 7.01367 11.1887 7.01367 10.9299C7.01367 10.6714 7.22339 10.4617 7.48218 10.4617H12.0908C12.2971 10.4617 12.479 10.5964 12.5391 10.7937L13.6148 14.3276L15.186 9.1665C15.2459 8.96924 15.428 8.83447 15.634 8.83447C15.8401 8.83447 16.022 8.96924 16.082 9.1665L16.762 11.4002H20.8811C21.1397 11.4002 21.3494 11.6099 21.3494 11.8687C21.3494 12.1272 21.1397 12.3369 20.8811 12.3369H16.4151C16.209 12.3369 16.0269 12.2022 15.9671 12.0051L15.634 10.9111L14.0628 16.0723C14.0029 16.2695 13.8211 16.4043 13.6148 16.4043Z" fill="#33A329"/>
<path id="Vector_2" d="M30.9495 7.50486C30.8223 7.27927 30.5367 7.19968 30.3113 7.32688C30.0862 7.45383 30.0064 7.73948 30.1336 7.96482C30.6988 8.96726 30.9988 10.1057 31.0008 11.2571C31.0066 14.3266 29.2427 17.7414 25.7586 21.4065C22.9219 24.3904 19.7388 26.6692 18.502 27.5103C18.2952 27.6511 18.0279 27.6511 17.8208 27.5103C16.7244 26.7647 14.0591 24.8618 11.4778 22.3333H15.8477V24.2312C15.8477 24.8337 16.3379 25.324 16.9405 25.324H17.9607C18.5635 25.324 19.0537 24.8337 19.0537 24.2312V24.1917C19.1048 24.199 19.1568 24.2041 19.2097 24.2041H20.23C20.8326 24.2041 21.3228 23.7139 21.3228 23.1113V17.7661C21.3228 17.1636 20.8326 16.6733 20.23 16.6733H19.2097C19.1568 16.6733 19.1048 16.6785 19.0537 16.686V16.6462C19.0537 16.0437 18.5635 15.5535 17.9607 15.5535H16.9405C16.3379 15.5535 15.8477 16.0437 15.8477 16.6462V18.498H14.3711C14.1123 18.498 13.9026 18.7078 13.9026 18.9663C13.9026 19.2251 14.1123 19.4348 14.3711 19.4348H15.8477V21.3967H5.41285V19.4348H12.2527C12.5115 19.4348 12.7212 19.2251 12.7212 18.9663C12.7212 18.7078 12.5115 18.498 12.2527 18.498H8.12648C6.26148 15.9182 5.31788 13.4829 5.32203 11.2573C5.32887 7.52878 8.36622 4.49924 12.0947 4.49924H12.1043C14.1643 4.50192 16.0867 5.42722 17.3784 7.03757C17.5699 7.27634 17.8553 7.41306 18.1614 7.41306C18.4676 7.41306 18.753 7.2761 18.9444 7.03757C20.2361 5.42722 22.1585 4.50217 24.2185 4.49924H24.2281C25.9593 4.49924 27.6092 5.15842 28.8755 6.35617C29.0633 6.53391 29.3599 6.52561 29.5376 6.33786C29.7154 6.14988 29.7071 5.85349 29.5191 5.67575C28.0782 4.31247 26.1997 3.56247 24.2281 3.56247C24.2246 3.56247 24.2207 3.56247 24.2171 3.56247C21.8721 3.56564 19.6839 4.61862 18.2137 6.45163C18.187 6.48459 18.1355 6.48459 18.1092 6.45163C16.6389 4.61887 14.4507 3.56589 12.1057 3.56247C12.1018 3.56247 12.0987 3.56247 12.0947 3.56247C7.85084 3.56247 4.39307 7.01145 4.38526 11.2556C4.38111 13.5205 5.2544 15.9536 6.98243 18.498H5.41285V16.646C5.41285 16.0434 4.92262 15.5532 4.32008 15.5532H3.29957C2.69703 15.5532 2.20679 16.0434 2.20679 16.646V16.6858C2.15577 16.6785 2.10376 16.6733 2.05078 16.6733H1.03028C0.427735 16.6733 -0.0625 17.1636 -0.0625 17.7661V23.1111C-0.0625 23.7136 0.427735 24.2039 1.03028 24.2039H2.05078C2.10376 24.2039 2.15577 24.1987 2.20679 24.1914V24.2312C2.20679 24.8337 2.69703 25.324 3.29957 25.324H4.32008C4.92262 25.324 5.41285 24.8337 5.41285 24.2312V22.3333H10.1563C12.9868 25.2468 16.0811 27.46 17.294 28.2849C17.5574 28.4641 17.8594 28.5537 18.1612 28.5537C18.4632 28.5537 18.7652 28.4641 19.0286 28.2849C20.2906 27.4268 23.5384 25.1013 26.4373 22.0518C30.0931 18.2063 31.9437 14.5737 31.9375 11.2554C31.9351 9.94358 31.5933 8.64671 30.9495 7.50486ZM19.2097 17.6101H20.2303C20.3162 17.6101 20.3863 17.6802 20.3863 17.7661V23.1111C20.3863 23.1973 20.3162 23.2673 20.2303 23.2673H19.2097C19.1238 23.2673 19.0537 23.1973 19.0537 23.1111V17.7661C19.0537 17.6802 19.1238 17.6101 19.2097 17.6101ZM16.7845 16.646C16.7845 16.56 16.8543 16.49 16.9405 16.49H17.9607C18.0469 16.49 18.117 16.56 18.117 16.646V24.2312C18.117 24.3171 18.0469 24.3872 17.9607 24.3872H16.9405C16.8543 24.3872 16.7845 24.3171 16.7845 24.2312V16.646ZM4.47608 24.2312C4.47608 24.3174 4.40601 24.3875 4.32008 24.3875H3.29957C3.21363 24.3875 3.14356 24.3174 3.14356 24.2312V20.5278C3.14356 20.2693 2.93384 20.0596 2.67505 20.0596C2.41651 20.0596 2.20679 20.2693 2.20679 20.5278V23.1111C2.20679 23.1973 2.13672 23.2673 2.05054 23.2673H1.03028C0.944337 23.2673 0.874269 23.1973 0.874269 23.1111V17.7661C0.874269 17.6802 0.944337 17.6101 1.03028 17.6101H2.05078C2.13672 17.6101 2.20679 17.6802 2.20679 17.7661V18.3415C2.20679 18.6003 2.41651 18.8098 2.6753 18.8098C2.93384 18.8098 3.14356 18.6003 3.14356 18.3415V16.646C3.14356 16.56 3.21363 16.49 3.29981 16.49H4.32008C4.40601 16.49 4.47608 16.56 4.47608 16.646V24.2312Z" fill="#33A329"/>
</g>
<defs>
<clipPath id="clip0_2808_19136">
<rect width="32" height="32" fill="white"/>
</clipPath>
</defs>
</svg>
