<svg width="22" height="24" viewBox="0 0 22 24" fill="none" xmlns="http://www.w3.org/2000/svg">
<path d="M9.95295 12C9.95295 11.5467 10.32 11.1797 10.7733 11.1797H14.8322V3.15797C14.8322 1.41656 13.4156 0 11.6742 0H3.68482C1.94342 0 0.526855 1.41656 0.526855 3.15797V20.842C0.526855 22.5834 1.94342 24 3.68482 24H11.6742C13.4156 24 14.8322 22.5834 14.8322 20.842V12.8203H10.7733C10.3204 12.8203 9.95295 12.4533 9.95295 12Z" fill="#301709"/>
<path d="M21.0641 11.058L17.9108 8.11473C17.5794 7.80536 17.0605 7.82364 16.7516 8.15458C16.4427 8.48598 16.4605 9.00489 16.7914 9.3138L18.7906 11.1799H14.8325V12.8205H18.7906L16.7914 14.6866C16.46 14.9955 16.4422 15.5149 16.7516 15.8458C16.9133 16.0188 17.1322 16.1065 17.3516 16.1065C17.5522 16.1065 17.7528 16.0333 17.9113 15.8857L21.0645 12.9424C21.3247 12.6996 21.4738 12.356 21.4738 12.0002C21.4733 11.644 21.3242 11.3008 21.0641 11.058Z" fill="#301709"/>
</svg>
