<svg width="32" height="32" viewBox="0 0 32 32" fill="none" xmlns="http://www.w3.org/2000/svg">
<g id="fi_3495988">
<path id="Vector" d="M26.25 10.07C26.174 10.0261 26.0878 10.003 26 10.003C25.9122 10.003 25.826 10.0261 25.75 10.07L19.4 13.665C19.464 13.449 19.4976 13.2252 19.5 13C19.5021 12.5335 19.3736 12.0757 19.1291 11.6784C18.8846 11.2811 18.5338 10.9601 18.1164 10.7518C17.6989 10.5435 17.2315 10.4561 16.767 10.4996C16.3025 10.5431 15.8595 10.7157 15.488 10.9978C15.1164 11.28 14.8313 11.6605 14.6647 12.0963C14.4982 12.5321 14.4569 13.0057 14.5456 13.4638C14.6342 13.9218 14.8493 14.3459 15.1664 14.688C15.4835 15.0302 15.89 15.2768 16.34 15.4L10.755 18.565C10.6778 18.6084 10.6135 18.6716 10.5687 18.748C10.5238 18.8244 10.5002 18.9114 10.5 19V21C10.5 21.0883 10.5234 21.1749 10.5677 21.2512C10.6121 21.3275 10.6759 21.3907 10.7526 21.4344C10.8292 21.4781 10.9161 21.5007 11.0044 21.4999C11.0926 21.4991 11.1791 21.475 11.255 21.43L15.415 18.93L15 23.235L11.2 26.1C11.1379 26.1466 11.0875 26.207 11.0528 26.2764C11.0181 26.3458 11 26.4224 11 26.5V28.5C11.0003 28.5923 11.0261 28.6828 11.0747 28.7613C11.1232 28.8399 11.1925 28.9035 11.275 28.945C11.3447 28.9807 11.4217 28.9995 11.5 29C11.6065 28.9989 11.7098 28.9639 11.795 28.9L22.295 21.135L22 22.92C21.9744 23.0417 21.9951 23.1685 22.058 23.2757C22.1208 23.3829 22.2214 23.4629 22.34 23.5L23.84 24C23.9118 24.0246 23.9883 24.0325 24.0636 24.0231C24.139 24.0137 24.2112 23.9873 24.2748 23.9459C24.3384 23.9044 24.3917 23.849 24.4308 23.7839C24.4698 23.7188 24.4935 23.6456 24.5 23.57L25 20.07C25.0574 19.6799 24.9982 19.2816 24.8299 18.925C24.6615 18.5684 24.3916 18.2696 24.0539 18.066C23.7162 17.8625 23.3259 17.7632 22.932 17.7809C22.5381 17.7985 22.1582 17.9321 21.84 18.165L20.125 19.415L20.475 16.29L26.25 12.93C26.3256 12.8864 26.3884 12.8237 26.4323 12.7483C26.4761 12.6729 26.4995 12.5873 26.5 12.5V10.5C26.4995 10.4128 26.4761 10.3272 26.4323 10.2517C26.3884 10.1763 26.3256 10.1136 26.25 10.07ZM15.5 13C15.5 12.7033 15.588 12.4133 15.7528 12.1667C15.9176 11.92 16.1519 11.7277 16.426 11.6142C16.7001 11.5007 17.0017 11.471 17.2926 11.5288C17.5836 11.5867 17.8509 11.7296 18.0607 11.9393C18.2704 12.1491 18.4133 12.4164 18.4712 12.7074C18.5291 12.9983 18.4994 13.2999 18.3858 13.574C18.2723 13.8481 18.08 14.0824 17.8334 14.2472C17.5867 14.412 17.2967 14.5 17 14.5C16.6022 14.5 16.2206 14.342 15.9393 14.0607C15.658 13.7794 15.5 13.3978 15.5 13ZM25.5 12.215L19.75 15.57C19.6828 15.6092 19.6257 15.6634 19.5832 15.7285C19.5406 15.7936 19.5139 15.8678 19.505 15.945L19.005 20.445C18.9917 20.5433 19.0078 20.6432 19.0515 20.7323C19.0951 20.8213 19.1642 20.8953 19.25 20.945C19.3311 20.9977 19.4258 21.0258 19.5225 21.0258C19.6192 21.0258 19.7139 20.9977 19.795 20.945L22.425 19C22.5833 18.8864 22.7713 18.8215 22.9659 18.8132C23.1606 18.805 23.3534 18.8538 23.5207 18.9537C23.688 19.0535 23.8224 19.2 23.9076 19.3753C23.9928 19.5505 24.0249 19.7468 24 19.94L23.585 22.835L23.085 22.66L23.5 20.08C23.5143 19.9828 23.4996 19.8835 23.4578 19.7946C23.416 19.7057 23.349 19.631 23.265 19.58C23.1804 19.5288 23.0825 19.5039 22.9837 19.5083C22.8849 19.5128 22.7897 19.5464 22.71 19.605L12 27.5V26.75L15.8 23.9C15.8564 23.8582 15.9033 23.805 15.9378 23.7438C15.9723 23.6826 15.9935 23.6149 16 23.545L16.5 18.045C16.5083 17.9526 16.4907 17.8597 16.4492 17.7766C16.4077 17.6936 16.3439 17.6238 16.265 17.575C16.189 17.5311 16.1028 17.508 16.015 17.508C15.9272 17.508 15.841 17.5311 15.765 17.575L11.5 20.115V19.29L25.5 11.36V12.215Z" fill="#4CA6E5"/>
<path id="Vector_2" d="M28.5551 5.415L27.0901 5.19L26.4301 3.79C26.3918 3.70696 26.3315 3.63602 26.2556 3.58489C26.1798 3.53375 26.0914 3.50439 26.0001 3.5C25.9053 3.50071 25.8127 3.52836 25.733 3.5797C25.6533 3.63105 25.5899 3.70398 25.5501 3.79L24.8901 5.19L23.4251 5.415C23.3349 5.42945 23.2505 5.46831 23.1808 5.52737C23.1112 5.58642 23.0591 5.66342 23.0301 5.75C23.0023 5.83596 22.9983 5.92784 23.0186 6.01587C23.0388 6.10391 23.0826 6.18482 23.1451 6.25L24.2201 7.35L23.9651 8.91C23.9478 9.00422 23.9579 9.10144 23.9942 9.19008C24.0306 9.27872 24.0916 9.35506 24.1701 9.41C24.2537 9.46836 24.3531 9.49976 24.4551 9.5C24.5406 9.50127 24.6249 9.48061 24.7001 9.44L26.0001 8.715L27.3051 9.44C27.3858 9.48384 27.477 9.50461 27.5687 9.50003C27.6604 9.49546 27.7491 9.46571 27.825 9.41406C27.901 9.36241 27.9612 9.29085 27.9991 9.20723C28.0371 9.12361 28.0512 9.03115 28.0401 8.94L27.7851 7.38L28.8601 6.28C28.9247 6.21441 28.9699 6.13226 28.9908 6.04261C29.0117 5.95295 29.0074 5.85927 28.9785 5.77188C28.9495 5.6845 28.897 5.6068 28.8267 5.54736C28.7564 5.48792 28.6711 5.44904 28.5801 5.435L28.5551 5.415ZM26.8701 6.84C26.8155 6.8961 26.7749 6.96424 26.7514 7.03893C26.728 7.11361 26.7224 7.19276 26.7351 7.27L26.8651 8.065L26.2201 7.71C26.1454 7.66765 26.061 7.64526 25.9751 7.645C25.8907 7.64473 25.8078 7.66718 25.7351 7.71L25.0901 8.065L25.2201 7.27C25.2328 7.19276 25.2272 7.11361 25.2038 7.03893C25.1804 6.96424 25.1397 6.8961 25.0851 6.84L24.5001 6.255L25.2651 6.14C25.3457 6.12746 25.422 6.09539 25.4874 6.04658C25.5527 5.99778 25.6052 5.93372 25.6401 5.86L26.0001 5.175L26.3201 5.86C26.3555 5.93435 26.4087 5.99882 26.475 6.04766C26.5413 6.09651 26.6186 6.12823 26.7001 6.14L27.4651 6.255L26.8701 6.84Z" fill="#4CA6E5"/>
<path id="Vector_3" d="M25.5 1H26.5V2.5H25.5V1Z" fill="#4CA6E5"/>
<path id="Vector_4" d="M28.0146 3.51581L29.099 2.47942L29.79 3.20234L28.7056 4.23873L28.0146 3.51581Z" fill="#4CA6E5"/>
<path id="Vector_5" d="M22.2161 3.17267L22.907 2.44974L23.9914 3.48614L23.3005 4.20906L22.2161 3.17267Z" fill="#4CA6E5"/>
<path id="Vector_6" d="M16.1396 27.6091L20.6915 24.1134L21.3005 24.9064L16.7486 28.4021L16.1396 27.6091Z" fill="#4CA6E5"/>
<path id="Vector_7" d="M14.187 29.1104L15.1863 28.3429L15.7954 29.136L14.7961 29.9035L14.187 29.1104Z" fill="#4CA6E5"/>
<path id="Vector_8" d="M7.78296 30.259L9.78296 28.759L10.383 29.559L8.38296 31.059L7.78296 30.259Z" fill="#4CA6E5"/>
<path id="Vector_9" d="M4.23096 28.2485L11.2322 23.5782L11.7872 24.4102L4.78596 29.0805L4.23096 28.2485Z" fill="#4CA6E5"/>
<path id="Vector_10" d="M2.2334 29.5783L3.23167 28.9124L3.7866 29.7443L2.78833 30.4102L2.2334 29.5783Z" fill="#4CA6E5"/>
<path id="Vector_11" d="M3.24609 24.6261L7.70236 21.5887L8.26536 22.4147L3.80909 25.4521L3.24609 24.6261Z" fill="#4CA6E5"/>
</g>
</svg>
