<svg width="20" height="21" viewBox="0 0 20 21" fill="none" xmlns="http://www.w3.org/2000/svg">
<g opacity="0.25">
<path d="M14.9449 2.27532C15.1722 2.27532 15.3564 2.45957 15.3564 2.68686L15.3564 5.15611C15.3564 5.3834 15.1722 5.56766 14.9449 5.56766L4.65635 5.56766C4.42906 5.56766 4.24481 5.3834 4.24481 5.15611L4.24481 2.68686C4.24481 2.45957 4.42906 2.27532 4.65635 2.27532L14.9449 2.27532Z" fill="#0355B6"/>
<path fill-rule="evenodd" clip-rule="evenodd" d="M15.7678 2.68686L15.7678 5.15611C15.7678 5.61069 15.3993 5.9792 14.9447 5.9792L4.65618 5.9792C4.20161 5.9792 3.8331 5.61069 3.8331 5.15611L3.8331 2.68686C3.8331 2.23228 4.20161 1.86378 4.65618 1.86378L14.9447 1.86378C15.3993 1.86378 15.7678 2.23228 15.7678 2.68686ZM15.3563 2.68686C15.3563 2.45957 15.172 2.27532 14.9447 2.27532L4.65618 2.27532C4.42889 2.27532 4.24464 2.45957 4.24464 2.68686L4.24464 5.15611C4.24464 5.3834 4.42889 5.56766 4.65618 5.56766L14.9447 5.56766C15.172 5.56766 15.3563 5.3834 15.3563 5.15611L15.3563 2.68686Z" fill="#023E84"/>
<path fill-rule="evenodd" clip-rule="evenodd" d="M4.61865 2.48109C4.61865 2.36744 4.71078 2.27532 4.82442 2.27532H14.8934C15.007 2.27532 15.0991 2.36744 15.0991 2.48109C15.0991 2.59473 15.007 2.68686 14.8934 2.68686H4.82442C4.71078 2.68686 4.61865 2.59473 4.61865 2.48109Z" fill="#1871DA"/>
<path fill-rule="evenodd" clip-rule="evenodd" d="M4.54053 3.67713C4.54053 3.56349 4.63265 3.47136 4.7463 3.47136H14.8152C14.9289 3.47136 15.021 3.56349 15.021 3.67713C15.021 3.79078 14.9289 3.88291 14.8152 3.88291H4.7463C4.63265 3.88291 4.54053 3.79078 4.54053 3.67713Z" fill="#034492"/>
<path fill-rule="evenodd" clip-rule="evenodd" d="M4.54053 2.91835C4.54053 2.80471 4.63265 2.71258 4.7463 2.71258H14.8152C14.9289 2.71258 15.021 2.80471 15.021 2.91835C15.021 3.032 14.9289 3.12412 14.8152 3.12412H4.7463C4.63265 3.12412 4.54053 3.032 4.54053 2.91835Z" fill="#034492"/>
<path fill-rule="evenodd" clip-rule="evenodd" d="M4.54053 4.42306C4.54053 4.30941 4.63265 4.21729 4.7463 4.21729H14.8152C14.9289 4.21729 15.021 4.30941 15.021 4.42306C15.021 4.5367 14.9289 4.62883 14.8152 4.62883H4.7463C4.63265 4.62883 4.54053 4.5367 4.54053 4.42306Z" fill="#034492"/>
<path fill-rule="evenodd" clip-rule="evenodd" d="M4.61865 5.10467C4.61865 4.99103 4.71078 4.8989 4.82442 4.8989H14.8934C15.007 4.8989 15.0991 4.99103 15.0991 5.10467C15.0991 5.21831 15.007 5.31044 14.8934 5.31044H4.82442C4.71078 5.31044 4.61865 5.21831 4.61865 5.10467Z" fill="#034492"/>
<path d="M4.88231 2.43718C4.7216 2.27646 4.46102 2.27646 4.3003 2.43718L2.55428 4.1832C2.39356 4.34392 2.39356 4.60449 2.55428 4.76521L9.57369 11.7846C9.7344 11.9453 9.99498 11.9453 10.1557 11.7846L11.9017 10.0386C12.0624 9.87787 12.0624 9.6173 11.9017 9.45658L4.88231 2.43718Z" fill="#086FE9"/>
<path fill-rule="evenodd" clip-rule="evenodd" d="M4.0093 2.14618L2.26327 3.89221C1.94184 4.21364 1.94184 4.73479 2.26327 5.05623L9.28268 12.0756C9.60412 12.3971 10.1253 12.3971 10.4467 12.0756L12.1927 10.3296C12.5142 10.0082 12.5142 9.48703 12.1927 9.16559L5.17332 2.14618C4.85188 1.82475 4.33073 1.82475 4.0093 2.14618ZM4.3003 2.43719C4.46102 2.27647 4.7216 2.27647 4.88231 2.43719L11.9017 9.45659C12.0624 9.61731 12.0624 9.87789 11.9017 10.0386L10.1557 11.7846C9.99498 11.9453 9.7344 11.9453 9.57369 11.7846L2.55428 4.76522C2.39356 4.6045 2.39356 4.34393 2.55428 4.18321L4.3003 2.43719Z" fill="#023E84"/>
<path d="M14.7182 2.44522C14.8783 2.28073 15.1419 2.27892 15.3042 2.4412L17.0502 4.18717C17.2093 4.34633 17.2111 4.60383 17.0541 4.76516L10.2325 11.7766C10.0725 11.9411 9.80881 11.9429 9.64653 11.7806L7.90056 10.0346C7.7414 9.87547 7.73963 9.61797 7.89659 9.45664L14.7182 2.44522Z" fill="#086FE9"/>
<path fill-rule="evenodd" clip-rule="evenodd" d="M15.5952 2.1502L17.3412 3.89618C17.6595 4.2145 17.663 4.7295 17.3491 5.05215L10.5275 12.0636C10.2074 12.3926 9.68008 12.3962 9.35552 12.0716L7.60955 10.3256C7.29123 10.0073 7.2877 9.49232 7.60162 9.16967L14.4232 2.15824C14.7433 1.82927 15.2706 1.82565 15.5952 2.1502ZM15.3042 2.44121C15.1419 2.27893 14.8783 2.28074 14.7182 2.44523L7.89659 9.45665C7.73963 9.61798 7.7414 9.87548 7.90056 10.0346L9.64653 11.7806C9.80881 11.9429 10.0725 11.9411 10.2325 11.7766L17.0541 4.76517C17.2111 4.60384 17.2093 4.34634 17.0502 4.18718L15.3042 2.44121Z" fill="#023E84"/>
<path fill-rule="evenodd" clip-rule="evenodd" d="M15.0507 2.61782C15.1314 2.69781 15.132 2.8281 15.052 2.90882L10.8466 7.15285C10.7666 7.23358 10.6363 7.23417 10.5556 7.15418C10.4748 7.07419 10.4742 6.9439 10.5542 6.86318L14.7597 2.61915C14.8397 2.53843 14.97 2.53783 15.0507 2.61782Z" fill="#3D96FF"/>
<path fill-rule="evenodd" clip-rule="evenodd" d="M2.60714 4.34182C2.6875 4.26146 2.81779 4.26146 2.89815 4.34182L5.57317 7.01684C5.65353 7.0972 5.65353 7.22749 5.57317 7.30785C5.49281 7.3882 5.36253 7.3882 5.28217 7.30785L2.60714 4.63282C2.52679 4.55246 2.52679 4.42218 2.60714 4.34182Z" fill="#3D96FF"/>
<path d="M15.8878 3.79792C15.8054 3.88031 15.6734 3.88194 15.593 3.80156C15.5126 3.72118 15.5143 3.58922 15.5967 3.50683C15.6791 3.42444 15.811 3.42281 15.8914 3.50319C15.9718 3.58357 15.9701 3.71553 15.8878 3.79792Z" fill="#055EC8"/>
<path d="M15.262 4.3073C15.1595 4.40979 14.9953 4.41182 14.8954 4.31183C14.7954 4.21184 14.7974 4.0477 14.8999 3.94521C15.0024 3.84272 15.1665 3.8407 15.2665 3.94068C15.3665 4.04067 15.3645 4.20481 15.262 4.3073Z" fill="#055EC8"/>
<path d="M15.9288 4.46832C15.8776 4.51957 15.7955 4.52058 15.7455 4.47059C15.6955 4.42059 15.6965 4.33852 15.7478 4.28728C15.799 4.23603 15.8811 4.23502 15.9311 4.28501C15.9811 4.33501 15.9801 4.41708 15.9288 4.46832Z" fill="#055EC8"/>
<path d="M14.4464 6.20673C14.3952 6.25797 14.3131 6.25898 14.2631 6.20899C14.2131 6.159 14.2141 6.07693 14.2654 6.02568C14.3166 5.97444 14.3987 5.97342 14.4487 6.02342C14.4987 6.07341 14.4977 6.15548 14.4464 6.20673Z" fill="#055EC8"/>
<path d="M15.1906 5.0255C15.1393 5.07675 15.0572 5.07776 15.0072 5.02776C14.9573 4.97777 14.9583 4.8957 15.0095 4.84446C15.0608 4.79321 15.1428 4.7922 15.1928 4.84219C15.2428 4.89219 15.2418 4.97426 15.1906 5.0255Z" fill="#055EC8"/>
<path d="M14.4442 6.91532C14.393 6.96657 14.3109 6.96758 14.2609 6.91758C14.2109 6.86759 14.2119 6.78552 14.2632 6.73428C14.3144 6.68303 14.3965 6.68202 14.4465 6.73201C14.4965 6.78201 14.4955 6.86408 14.4442 6.91532Z" fill="#055EC8"/>
<path d="M14.632 4.86906C14.5807 4.92031 14.4986 4.92132 14.4487 4.87133C14.3987 4.82133 14.3997 4.73926 14.4509 4.68802C14.5022 4.63678 14.5842 4.63576 14.6342 4.68576C14.6842 4.73575 14.6832 4.81782 14.632 4.86906Z" fill="#055EC8"/>
<path d="M15.0494 6.33518C14.9982 6.38643 14.9161 6.38744 14.8661 6.33745C14.8161 6.28745 14.8172 6.20538 14.8684 6.15414C14.9196 6.10289 15.0017 6.10188 15.0517 6.15187C15.1017 6.20187 15.1007 6.28394 15.0494 6.33518Z" fill="#055EC8"/>
<path d="M16.5499 4.14354C16.4987 4.19478 16.4166 4.1958 16.3666 4.1458C16.3166 4.09581 16.3176 4.01374 16.3689 3.96249C16.4201 3.91125 16.5022 3.91024 16.5522 3.96023C16.6022 4.01023 16.6012 4.0923 16.5499 4.14354Z" fill="#055EC8"/>
<path d="M15.8714 5.21872C15.788 5.30211 15.6545 5.30376 15.5731 5.2224C15.4917 5.14104 15.4934 5.00747 15.5768 4.92408C15.6602 4.84068 15.7937 4.83903 15.8751 4.92039C15.9565 5.00176 15.9548 5.13532 15.8714 5.21872Z" fill="#055EC8"/>
<path d="M16.6663 4.71835C16.5829 4.80175 16.4494 4.8034 16.368 4.72204C16.2867 4.64067 16.2883 4.50711 16.3717 4.42371C16.4551 4.34032 16.5887 4.33867 16.67 4.42003C16.7514 4.50139 16.7497 4.63496 16.6663 4.71835Z" fill="#055EC8"/>
<path d="M15.0557 5.74952C14.9724 5.83292 14.8388 5.83457 14.7574 5.7532C14.6761 5.67184 14.6777 5.53828 14.7611 5.45488C14.8445 5.37148 14.9781 5.36983 15.0594 5.4512C15.1408 5.53256 15.1391 5.66612 15.0557 5.74952Z" fill="#055EC8"/>
<path d="M15.6339 5.8401C15.5827 5.89134 15.5006 5.89235 15.4506 5.84236C15.4006 5.79236 15.4016 5.71029 15.4529 5.65905C15.5041 5.60781 15.5862 5.60679 15.6362 5.65679C15.6862 5.70678 15.6852 5.78885 15.6339 5.8401Z" fill="#055EC8"/>
<path d="M15.4327 13.0521C15.4327 16.1205 12.9453 18.6079 9.87686 18.6079C6.80847 18.6079 4.32104 16.1205 4.32104 13.0521C4.32104 9.98373 6.80847 7.4963 9.87686 7.4963C12.9453 7.4963 15.4327 9.98373 15.4327 13.0521Z" fill="#FFBB0D"/>
<path fill-rule="evenodd" clip-rule="evenodd" d="M15.8441 13.052C15.8441 16.3477 13.1725 19.0194 9.87679 19.0194C6.5811 19.0194 3.90942 16.3477 3.90942 13.052C3.90942 9.75636 6.5811 7.08468 9.87679 7.08468C13.1725 7.08468 15.8441 9.75636 15.8441 13.052ZM9.87679 18.6079C12.9452 18.6079 15.4326 16.1204 15.4326 13.052C15.4326 9.98365 12.9452 7.49622 9.87679 7.49622C6.80839 7.49622 4.32097 9.98365 4.32097 13.052C4.32097 16.1204 6.80839 18.6079 9.87679 18.6079Z" fill="#E89B05"/>
<path fill-rule="evenodd" clip-rule="evenodd" d="M4.73247 13.2579C4.61883 13.2579 4.5267 13.1658 4.5267 13.0521C4.5267 10.0974 6.922 7.70207 9.87675 7.70207C9.99039 7.70207 10.0825 7.7942 10.0825 7.90784C10.0825 8.02149 9.99039 8.11362 9.87675 8.11362C7.14929 8.11362 4.93824 10.3247 4.93824 13.0521C4.93824 13.1658 4.84612 13.2579 4.73247 13.2579Z" fill="#E8AA0A"/>
<path fill-rule="evenodd" clip-rule="evenodd" d="M15.0212 12.8464C15.1348 12.8464 15.227 12.9385 15.227 13.0521C15.227 16.0069 12.8317 18.4022 9.87691 18.4022C9.76327 18.4022 9.67114 18.31 9.67114 18.1964C9.67114 18.0828 9.76327 17.9906 9.87691 17.9906C12.6044 17.9906 14.8154 15.7796 14.8154 13.0521C14.8154 12.9385 14.9075 12.8464 15.0212 12.8464Z" fill="#E8AA0A"/>
<path d="M13.9923 13.0521C13.9923 15.325 12.1498 17.1675 9.8769 17.1675C7.60401 17.1675 5.76147 15.325 5.76147 13.0521C5.76147 10.7792 7.60401 8.9367 9.8769 8.9367C12.1498 8.9367 13.9923 10.7792 13.9923 13.0521Z" fill="#FFDD28"/>
<path fill-rule="evenodd" clip-rule="evenodd" d="M14.4038 13.0521C14.4038 15.5523 12.377 17.5791 9.87682 17.5791C7.37664 17.5791 5.34985 15.5523 5.34985 13.0521C5.34985 10.5519 7.37664 8.52516 9.87682 8.52516C12.377 8.52516 14.4038 10.5519 14.4038 13.0521ZM9.87682 17.1675C12.1497 17.1675 13.9922 15.325 13.9922 13.0521C13.9922 10.7792 12.1497 8.9367 9.87682 8.9367C7.60393 8.9367 5.7614 10.7792 5.7614 13.0521C5.7614 15.325 7.60393 17.1675 9.87682 17.1675Z" fill="#E89B05"/>
<path fill-rule="evenodd" clip-rule="evenodd" d="M9.87697 16.5502C11.8089 16.5502 13.3751 14.9841 13.3751 13.0521C13.3751 12.9385 13.4672 12.8464 13.5809 12.8464C13.6945 12.8464 13.7866 12.9385 13.7866 13.0521C13.7866 15.2114 12.0362 16.9618 9.87697 16.9618C9.76333 16.9618 9.6712 16.8696 9.6712 16.756C9.6712 16.6424 9.76333 16.5502 9.87697 16.5502Z" fill="#ECC704"/>
<path fill-rule="evenodd" clip-rule="evenodd" d="M9.87694 9.55401C7.94498 9.55401 6.37883 11.1202 6.37883 13.0521C6.37883 13.1658 6.2867 13.2579 6.17306 13.2579C6.05941 13.2579 5.96729 13.1658 5.96729 13.0521C5.96729 10.8929 7.7177 9.14247 9.87694 9.14247C9.99058 9.14247 10.0827 9.2346 10.0827 9.34824C10.0827 9.46189 9.99058 9.55401 9.87694 9.55401Z" fill="#FFEF9C"/>
</g>
</svg>
