<svg width="53" height="53" viewBox="0 0 53 53" fill="none" xmlns="http://www.w3.org/2000/svg">
<g clip-path="url(#clip0_4158_8494)">
<path d="M26.5 0C11.8645 0 0 11.8645 0 26.5C0 41.136 11.8645 53 26.5 53C41.1349 53 53 41.136 53 26.5C53 11.8645 41.1349 0 26.5 0Z" fill="#324D5B"/>
<path d="M28.617 24.8989C30.0247 26.3087 30.0247 28.5957 28.617 30.0055C27.2092 31.4163 23.107 33.2405 21.6994 31.8297C20.2917 30.4189 22.1122 26.3087 23.5199 24.8989C24.9277 23.4881 27.2093 23.4881 28.617 24.8989Z" fill="#EFC75E"/>
<path d="M24.3862 24.2578L24.3799 24.3798C24.3799 27.0138 26.5158 29.1498 29.1499 29.1498L29.2522 29.1445C29.9756 27.7798 29.7647 26.0477 28.6167 24.8982C27.4709 23.7507 25.7473 23.5371 24.3862 24.2578Z" fill="#DEB957"/>
<path d="M0.776855 32.8736C3.29705 43.0777 11.7261 50.9487 22.2281 52.6516C21.6339 41.6213 12.5036 32.8599 1.32487 32.8599C1.14092 32.8599 0.959664 32.8694 0.776855 32.8736Z" fill="#26A6D1"/>
<path d="M6.56901 43.9541C8.247 43.7225 9.54022 42.2866 9.54022 40.5451C9.54022 38.6419 7.99794 37.1001 6.09522 37.1001C4.79299 37.1001 3.65991 37.8231 3.07422 38.8894C4.04199 40.7153 5.21803 42.4123 6.56901 43.9541Z" fill="#1795BF"/>
<path d="M15.37 46.6399C16.5408 46.6399 17.49 45.6907 17.49 44.5199C17.49 43.3491 16.5408 42.3999 15.37 42.3999C14.1992 42.3999 13.25 43.3491 13.25 44.5199C13.25 45.6907 14.1992 46.6399 15.37 46.6399Z" fill="#1795BF"/>
<path d="M7.95066 3.18115C7.63266 6.04212 6.04266 7.63263 3.18066 7.95115C6.04266 8.26915 7.63266 9.85967 7.95066 12.7212C8.26866 9.85967 9.85918 8.26915 12.7212 7.95115C9.85918 7.63263 8.26866 6.04212 7.95066 3.18115ZM38.1601 39.2212C37.9126 41.4461 36.6767 42.6831 34.4501 42.9312C36.6767 43.1781 37.9126 44.4152 38.1601 46.6412C38.4076 44.4152 39.6447 43.1781 41.8712 42.9312C39.6447 42.6831 38.4076 41.4461 38.1601 39.2212Z" fill="#EFC75E"/>
<path d="M47.1702 23.8506C46.9942 25.44 46.1102 26.3241 44.5202 26.5011C46.1102 26.6771 46.9942 27.5611 47.1702 29.1506C47.3472 27.5611 48.2302 26.6771 49.8202 26.5011C48.2302 26.3241 47.3472 25.44 47.1702 23.8506ZM10.0702 22.79C9.92869 24.0615 9.2222 24.7691 7.9502 24.91C9.2222 25.0515 9.92869 25.7586 10.0702 27.03C10.2117 25.7591 10.9182 25.0521 12.1902 24.91C10.9187 24.7691 10.2117 24.0615 10.0702 22.79ZM24.9102 37.63C24.7337 39.22 23.8502 40.1041 22.2602 40.2806C23.8502 40.457 24.7337 41.3411 24.9102 42.9306C25.0867 41.3411 25.9702 40.457 27.5602 40.2806C25.9702 40.1041 25.0872 39.22 24.9102 37.63Z" fill="#5B717C"/>
<path d="M36.0173 16.9821C40.3331 21.2984 41.1971 27.4321 37.0959 31.5338L35.1593 33.471C31.0581 37.5715 33.8985 27.7337 29.5821 23.4174C25.2663 19.1012 15.4279 21.9414 19.5296 17.8402L21.4668 15.903C25.5678 11.8024 31.7004 12.6663 36.0173 16.9821Z" fill="#F26C4F"/>
<path d="M50.3326 2.66745C51.6443 3.9792 51.0677 12.296 43.0038 20.3604C37.752 25.6117 34.4348 27.4487 34.4348 27.4487C30.9225 29.8072 29.2238 28.1965 27.0137 25.9864C24.7877 23.7599 23.1595 22.0756 25.5515 18.5654C25.5515 18.5654 27.4134 15.2237 32.6402 9.99687C40.6972 1.9387 49.0156 1.35094 50.3326 2.66745Z" fill="#F4F0D3"/>
<path d="M39.7387 16.0274C38.9957 16.0274 38.2966 15.738 37.7708 15.2122C36.6859 14.1273 36.687 12.3619 37.7708 11.277C38.2966 10.7517 38.9956 10.4624 39.7387 10.4624C40.4819 10.4624 41.1809 10.7518 41.7067 11.277C42.2324 11.8027 42.5212 12.5018 42.5212 13.2449C42.5212 13.9879 42.2324 14.6871 41.7067 15.2122C41.1809 15.7375 40.4819 16.0274 39.7387 16.0274Z" fill="#8BA0AB"/>
<path d="M39.7391 10.8599C40.3756 10.8599 40.975 11.108 41.4255 11.5579C41.8771 12.009 42.1241 12.6074 42.1241 13.2449C42.1241 13.882 41.8765 14.4809 41.4255 14.9314C40.975 15.3819 40.3761 15.6299 39.7391 15.6299C39.1015 15.6299 38.5031 15.3819 38.0526 14.9314C37.123 14.0018 37.123 12.4881 38.0526 11.5579C38.5026 11.108 39.101 10.8599 39.7391 10.8599ZM39.7391 10.0649C38.9255 10.0649 38.1109 10.375 37.4908 10.9962C36.2485 12.2385 36.2485 14.2519 37.4908 15.4937C38.1109 16.1144 38.9255 16.4249 39.7391 16.4249C40.5526 16.4249 41.3661 16.1144 41.9873 15.4937C43.2296 14.2519 43.2296 12.2385 41.9873 10.9962C41.3662 10.3755 40.5527 10.0649 39.7391 10.0649Z" fill="#324D5B"/>
<path d="M14.8398 43.4601C16.0106 43.4601 16.9598 44.4093 16.9598 45.5801C16.9598 45.7084 16.9439 45.8329 16.9221 45.9548C17.2714 45.5764 17.4898 45.0756 17.4898 44.5201C17.4898 43.3493 16.5406 42.4001 15.3698 42.4001C14.3273 42.4001 13.465 43.1543 13.2875 44.1454C13.6748 43.7267 14.2245 43.4601 14.8398 43.4601ZM6.09479 37.1001C4.7905 37.1001 3.66425 37.8309 3.07959 38.9L3.1919 39.1195C3.80937 38.5285 4.64195 38.1602 5.56469 38.1602C7.46741 38.1602 9.00969 39.702 9.00969 41.6052C9.00969 41.946 8.95824 42.2746 8.86601 42.5852C9.28732 42.0139 9.53969 41.3095 9.53969 40.5452C9.53979 38.6419 7.99751 37.1001 6.09479 37.1001Z" fill="#1483A8"/>
<path d="M43.0977 3.12233C43.4485 4.72351 44.3411 6.37914 45.7402 7.77629C46.9523 8.98681 48.3579 9.81628 49.7544 10.2456C51.2099 6.36331 51.0699 3.40586 50.3322 2.66759C49.614 1.9494 46.8077 1.80158 43.0977 3.12233Z" fill="#F26C4F"/>
<path d="M36.052 26.3706C32.3525 28.8553 30.5628 27.1587 28.2355 24.8304C25.8903 22.4857 24.1747 20.7112 26.6943 17.0129C26.6943 17.0129 26.9413 16.5725 27.4908 15.7754C26.1176 17.5514 25.55 18.5653 25.55 18.5653C23.1581 22.0761 24.7863 23.7604 27.0123 25.9864C29.2223 28.1964 30.921 29.8071 34.4333 27.4486C34.4333 27.4486 35.0449 27.1084 36.1526 26.3112L36.052 26.3706Z" fill="#DAD3AF"/>
<path d="M34.8193 18.7101C35.4526 19.3429 34.2501 21.5721 31.1899 24.6318C28.1301 27.6915 26.2836 28.5125 25.6498 27.8796C25.017 27.2468 25.838 25.3992 28.8976 22.3395C31.9572 19.2799 34.1869 18.0768 34.8193 18.7101Z" fill="#F26C4F"/>
</g>
<defs>
<clipPath id="clip0_4158_8494">
<rect width="53" height="53" fill="white"/>
</clipPath>
</defs>
</svg>
