<svg width="23" height="23" viewBox="0 0 23 23" fill="none" xmlns="http://www.w3.org/2000/svg">
<path d="M11.5003 0.0429688C9.23409 0.0429687 7.01873 0.714988 5.13442 1.97405C3.25011 3.2331 1.78147 5.02265 0.914211 7.11639C0.0469569 9.21012 -0.179956 11.514 0.262166 13.7367C0.704288 15.9594 1.79559 18.0011 3.39807 19.6036C5.00054 21.206 7.04222 22.2973 9.26492 22.7395C11.4876 23.1816 13.7915 22.9547 15.8852 22.0874C17.979 21.2202 19.7685 19.7515 21.0276 17.8672C22.2866 15.9829 22.9587 13.7675 22.9587 11.5013C22.9551 8.46346 21.7467 5.55107 19.5986 3.403C17.4506 1.25492 14.5382 0.0465526 11.5003 0.0429688V0.0429688ZM15.3618 15.3628C15.1664 15.558 14.9015 15.6677 14.6253 15.6677C14.3491 15.6677 14.0842 15.558 13.8889 15.3628L10.7639 12.2378C10.5685 12.0425 10.4587 11.7775 10.4587 11.5013V5.2513C10.4587 4.97504 10.5684 4.71008 10.7638 4.51473C10.9591 4.31938 11.2241 4.20964 11.5003 4.20964C11.7766 4.20964 12.0415 4.31938 12.2369 4.51473C12.4322 4.71008 12.542 4.97504 12.542 5.2513V11.0701L15.3618 13.8898C15.5571 14.0852 15.6668 14.3501 15.6668 14.6263C15.6668 14.9025 15.5571 15.1674 15.3618 15.3628V15.3628Z" fill="white"/>
</svg>
