<svg width="23" height="23" viewBox="0 0 23 23" fill="none" xmlns="http://www.w3.org/2000/svg">
<path d="M11.5003 0.041626C9.23409 0.041626 7.01873 0.713645 5.13442 1.9727C3.25011 3.23176 1.78147 5.02131 0.914211 7.11505C0.0469569 9.20878 -0.179956 11.5127 0.262166 13.7354C0.704288 15.9581 1.79559 17.9998 3.39807 19.6022C5.00054 21.2047 7.04222 22.296 9.26492 22.7381C11.4876 23.1802 13.7915 22.9533 15.8852 22.0861C17.979 21.2188 19.7685 19.7502 21.0276 17.8659C22.2866 15.9816 22.9587 13.7662 22.9587 11.5C22.9551 8.46212 21.7467 5.54973 19.5986 3.40165C17.4506 1.25357 14.5382 0.0452098 11.5003 0.041626ZM15.3618 15.3614C15.1664 15.5567 14.9015 15.6664 14.6253 15.6664C14.3491 15.6664 14.0842 15.5567 13.8889 15.3614L10.7639 12.2364C10.5685 12.0411 10.4587 11.7762 10.4587 11.5V5.24996C10.4587 4.97369 10.5684 4.70874 10.7638 4.51339C10.9591 4.31804 11.2241 4.20829 11.5003 4.20829C11.7766 4.20829 12.0415 4.31804 12.2369 4.51339C12.4323 4.70874 12.542 4.97369 12.542 5.24996V11.0687L15.3618 13.8885C15.5571 14.0838 15.6668 14.3487 15.6668 14.625C15.6668 14.9012 15.5571 15.1661 15.3618 15.3614Z" fill="#1E2447"/>
</svg>
