<svg width="20" height="20" viewBox="0 0 20 20" fill="none" xmlns="http://www.w3.org/2000/svg">
<g id="fi_4727769" clip-path="url(#clip0_3148_7302)">
<path id="Vector" d="M19.025 0.975021C18.7164 0.664615 18.3491 0.41859 17.9447 0.251219C17.5402 0.0838487 17.1065 -0.00153535 16.6688 2.08964e-05H3.33125C2.44775 2.08964e-05 1.60043 0.350991 0.975701 0.975721C0.35097 1.60045 0 2.44777 0 3.33127L0 12.6688C0 13.1062 0.0861653 13.5394 0.253576 13.9436C0.420987 14.3478 0.666365 14.715 0.975701 15.0243C1.28504 15.3337 1.65227 15.579 2.05644 15.7464C2.4606 15.9139 2.89378 16 3.33125 16H7.5875L6.06875 19.0375C5.99059 19.1959 5.97827 19.3788 6.03448 19.5462C6.09068 19.7137 6.21085 19.8521 6.36875 19.9313C6.52741 20.0078 6.70969 20.0192 6.87668 19.9632C7.04366 19.9071 7.18212 19.788 7.2625 19.6313L9.08125 16H10.925L12.7437 19.6313C12.8241 19.788 12.9626 19.9071 13.1296 19.9632C13.2966 20.0192 13.4788 20.0078 13.6375 19.9313C13.7954 19.8521 13.9156 19.7137 13.9718 19.5462C14.028 19.3788 14.0157 19.1959 13.9375 19.0375L12.4125 16H16.6688C17.5523 16 18.3996 15.6491 19.0243 15.0243C19.649 14.3996 20 13.5523 20 12.6688V3.33127C20.0016 2.89353 19.9162 2.45985 19.7488 2.05537C19.5814 1.65089 19.3354 1.28367 19.025 0.975021ZM18.6688 12.6625C18.6688 13.193 18.458 13.7017 18.083 14.0767C17.7079 14.4518 17.1992 14.6625 16.6688 14.6625H3.33125C2.80082 14.6625 2.29211 14.4518 1.91704 14.0767C1.54196 13.7017 1.33125 13.193 1.33125 12.6625V3.33127C1.33125 2.80084 1.54196 2.29213 1.91704 1.91706C2.29211 1.54198 2.80082 1.33127 3.33125 1.33127H16.6688C17.1992 1.33127 17.7079 1.54198 18.083 1.91706C18.458 2.29213 18.6688 2.80084 18.6688 3.33127V12.6625Z" fill="#CFCDC9"/>
<path id="Vector_2" d="M12.6688 5.33125C12.1383 5.33125 11.6296 5.54196 11.2545 5.91704C10.8795 6.29211 10.6687 6.80082 10.6687 7.33125V10C10.6687 10.1774 10.5983 10.3475 10.4729 10.4729C10.3475 10.5983 10.1774 10.6687 10 10.6687C9.82314 10.6671 9.65399 10.5961 9.52892 10.4711C9.40386 10.346 9.33288 10.1769 9.33125 10V6C9.33064 5.47108 9.12184 4.96366 8.75 4.5875C8.36823 4.22664 7.86283 4.02557 7.3375 4.02557C6.81217 4.02557 6.30677 4.22664 5.925 4.5875C5.54858 4.96162 5.33518 5.46929 5.33125 6V10.6687C5.32224 10.7616 5.33276 10.8553 5.36211 10.9438C5.39146 11.0323 5.43901 11.1137 5.50169 11.1828C5.56438 11.2519 5.64081 11.307 5.72609 11.3448C5.81137 11.3826 5.90361 11.4021 5.99688 11.4021C6.09014 11.4021 6.18238 11.3826 6.26766 11.3448C6.35294 11.307 6.42937 11.2519 6.49206 11.1828C6.55474 11.1137 6.60229 11.0323 6.63164 10.9438C6.66099 10.8553 6.67151 10.7616 6.6625 10.6687V6C6.66865 5.82182 6.74504 5.6533 6.875 5.53125C7.0026 5.41082 7.17142 5.34374 7.34688 5.34374C7.52233 5.34374 7.69115 5.41082 7.81875 5.53125C7.94182 5.65637 8.01131 5.8245 8.0125 6V10C8.0125 10.5304 8.22321 11.0391 8.59829 11.4142C8.97336 11.7893 9.48207 12 10.0125 12C10.5429 12 11.0516 11.7893 11.4267 11.4142C11.8018 11.0391 12.0125 10.5304 12.0125 10V7.33125C12.0035 7.23842 12.014 7.14473 12.0434 7.0562C12.0727 6.96767 12.1203 6.88627 12.1829 6.81721C12.2456 6.74815 12.3221 6.69296 12.4073 6.6552C12.4926 6.61743 12.5849 6.59792 12.6781 6.59792C12.7714 6.59792 12.8636 6.61743 12.9489 6.6552C13.0342 6.69296 13.1106 6.74815 13.1733 6.81721C13.236 6.88627 13.2835 6.96767 13.3129 7.0562C13.3422 7.14473 13.3528 7.23842 13.3438 7.33125V8.6625C13.3598 8.82791 13.4369 8.98141 13.5599 9.09311C13.683 9.2048 13.8432 9.26667 14.0094 9.26667C14.1756 9.26667 14.3358 9.2048 14.4588 9.09311C14.5819 8.98141 14.659 8.82791 14.675 8.6625V7.33125C14.675 7.06808 14.6231 6.80749 14.5222 6.56444C14.4213 6.32138 14.2734 6.10062 14.087 5.91482C13.9006 5.72902 13.6794 5.58183 13.436 5.48169C13.1927 5.38155 12.9319 5.33043 12.6688 5.33125Z" fill="#CFCDC9"/>
</g>
<defs>
<clipPath id="clip0_3148_7302">
<rect width="20" height="20" fill="white"/>
</clipPath>
</defs>
</svg>
