<svg width="20" height="20" viewBox="0 0 20 20" fill="none" xmlns="http://www.w3.org/2000/svg">
<g id="fi_8922187">
<path id="Vector" d="M18.0224 1.97778C17.4665 1.42306 16.7133 1.11139 15.928 1.11111H4.07244C3.2871 1.11111 2.53393 1.42309 1.97862 1.9784C1.4233 2.53372 1.11133 3.28689 1.11133 4.07223V15.9278C1.11133 16.7131 1.4233 17.4663 1.97862 18.0216C2.53393 18.5769 3.2871 18.8889 4.07244 18.8889H15.928C16.7133 18.8889 17.4665 18.5769 18.0218 18.0216C18.5771 17.4663 18.8891 16.7131 18.8891 15.9278V4.07223C18.8888 3.28688 18.5772 2.5337 18.0224 1.97778ZM2.81688 2.81667C3.15 2.4836 3.60137 2.29586 4.07244 2.29445H15.928C16.399 2.29591 16.8504 2.48368 17.1835 2.81677C17.5165 3.14985 17.7043 3.60118 17.7058 4.07223V5.85H2.29466V4.07223C2.29608 3.60116 2.48381 3.14979 2.81688 2.81667ZM17.1836 17.1833C16.8504 17.5164 16.3991 17.7041 15.928 17.7056H4.07244C3.60139 17.7041 3.15006 17.5163 2.81698 17.1832C2.4839 16.8502 2.29613 16.3988 2.29466 15.9278V7.03889H17.7058V15.9278C17.7044 16.3988 17.5166 16.8502 17.1836 17.1833Z" fill="#CFCDC9"/>
<path id="Vector_2" d="M4.66671 4.66667C4.78428 4.66667 4.89921 4.63181 4.99697 4.56649C5.09472 4.50117 5.17091 4.40833 5.2159 4.29971C5.2609 4.19109 5.27267 4.07157 5.24973 3.95626C5.2268 3.84095 5.17018 3.73503 5.08705 3.65189C5.00391 3.56876 4.89799 3.51214 4.78268 3.48921C4.66737 3.46627 4.54785 3.47804 4.43923 3.52303C4.33061 3.56802 4.23777 3.64422 4.17245 3.74197C4.10713 3.83973 4.07227 3.95466 4.07227 4.07223C4.07227 4.22988 4.13489 4.38108 4.24637 4.49256C4.35785 4.60404 4.50905 4.66667 4.66671 4.66667Z" fill="#CFCDC9"/>
<path id="Vector_3" d="M7.03978 4.66667C7.15735 4.66667 7.27228 4.63181 7.37004 4.56649C7.4678 4.50117 7.54399 4.40833 7.58898 4.29971C7.63397 4.19109 7.64574 4.07157 7.62281 3.95626C7.59987 3.84095 7.54325 3.73503 7.46012 3.65189C7.37698 3.56876 7.27106 3.51214 7.15575 3.48921C7.04044 3.46627 6.92092 3.47804 6.8123 3.52303C6.70368 3.56802 6.61084 3.64422 6.54552 3.74197C6.4802 3.83973 6.44534 3.95466 6.44534 4.07223C6.4446 4.1505 6.45947 4.22813 6.48908 4.30059C6.51869 4.37304 6.56245 4.43887 6.61779 4.49422C6.67314 4.54956 6.73897 4.59332 6.81142 4.62293C6.88388 4.65255 6.96151 4.66741 7.03978 4.66667Z" fill="#CFCDC9"/>
<path id="Vector_4" d="M7.77822 8.93334C7.65178 8.83959 7.49356 8.79928 7.33767 8.8211C7.18179 8.84293 7.04072 8.92514 6.94489 9.05001L5.83378 10.5333C5.75539 10.6353 5.71289 10.7603 5.71289 10.8889C5.71289 11.0175 5.75539 11.1425 5.83378 11.2445L6.94489 12.7278C7.03992 12.8538 7.18111 12.9368 7.33739 12.9587C7.49367 12.9806 7.65224 12.9395 7.77822 12.8445C7.9042 12.7494 7.98726 12.6082 8.00914 12.4519C8.03102 12.2957 7.98992 12.1371 7.89489 12.0111L7.04489 10.9L7.89489 9.7889C7.94478 9.72561 7.98142 9.65292 8.00261 9.57517C8.0238 9.49742 8.0291 9.41619 8.01822 9.33634C8.00733 9.2565 7.98046 9.17966 7.93923 9.11042C7.898 9.04118 7.84324 8.98095 7.77822 8.93334Z" fill="#CFCDC9"/>
<path id="Vector_5" d="M12.2221 12.8444C12.3485 12.9382 12.5067 12.9785 12.6626 12.9567C12.8185 12.9348 12.9596 12.8526 13.0554 12.7278L14.1665 11.2444C14.2449 11.1425 14.2874 11.0175 14.2874 10.8889C14.2874 10.7603 14.2449 10.6353 14.1665 10.5333L13.0554 9.05C12.9604 8.92402 12.8192 8.84095 12.6629 8.81907C12.5066 8.79719 12.348 8.83829 12.2221 8.93333C12.0961 9.02836 12.013 9.16955 11.9911 9.32583C11.9693 9.48211 12.0104 9.64068 12.1054 9.76666L12.9554 10.8778L12.1054 11.9889C12.0555 12.0522 12.0189 12.1249 11.9977 12.2026C11.9765 12.2804 11.9712 12.3616 11.9821 12.4414C11.993 12.5213 12.0198 12.5981 12.061 12.6674C12.1023 12.7366 12.157 12.7968 12.2221 12.8444Z" fill="#CFCDC9"/>
<path id="Vector_6" d="M9.27258 12.9222C9.34515 12.9498 9.42246 12.9628 9.50007 12.9604C9.57768 12.9581 9.65405 12.9403 9.72479 12.9083C9.79553 12.8763 9.85923 12.8306 9.91225 12.7739C9.96526 12.7172 10.0065 12.6505 10.0337 12.5778L11.1448 9.61667C11.1722 9.54371 11.1849 9.46608 11.1822 9.38821C11.1796 9.31034 11.1616 9.23375 11.1294 9.16281C11.0972 9.09188 11.0513 9.02799 10.9943 8.9748C10.9374 8.9216 10.8705 8.88014 10.7976 8.85278C10.7246 8.82542 10.647 8.8127 10.5691 8.81534C10.4912 8.81799 10.4147 8.83594 10.3437 8.86819C10.2728 8.90043 10.2089 8.94633 10.1557 9.00326C10.1025 9.06019 10.061 9.12705 10.0337 9.2L8.92258 12.1611C8.89511 12.234 8.88238 12.3117 8.88513 12.3895C8.88789 12.4674 8.90607 12.544 8.93863 12.6148C8.97118 12.6856 9.01746 12.7492 9.07479 12.802C9.13211 12.8547 9.19934 12.8956 9.27258 12.9222Z" fill="#CFCDC9"/>
<path id="Vector_7" d="M7.06671 14.7389H4.66671C4.50905 14.7389 4.35785 14.8015 4.24637 14.913C4.13489 15.0245 4.07227 15.1757 4.07227 15.3333C4.07227 15.491 4.13489 15.6422 4.24637 15.7537C4.35785 15.8652 4.50905 15.9278 4.66671 15.9278H7.06671C7.22437 15.9278 7.37557 15.8652 7.48705 15.7537C7.59853 15.6422 7.66115 15.491 7.66115 15.3333C7.66115 15.1757 7.59853 15.0245 7.48705 14.913C7.37557 14.8015 7.22437 14.7389 7.06671 14.7389Z" fill="#CFCDC9"/>
<path id="Vector_8" d="M15.3328 14.7389H9.40499C9.24734 14.7389 9.09614 14.8015 8.98466 14.913C8.87318 15.0245 8.81055 15.1757 8.81055 15.3333C8.81055 15.491 8.87318 15.6422 8.98466 15.7537C9.09614 15.8652 9.24734 15.9278 9.40499 15.9278H15.3328C15.4904 15.9278 15.6416 15.8652 15.7531 15.7537C15.8646 15.6422 15.9272 15.491 15.9272 15.3333C15.9272 15.1757 15.8646 15.0245 15.7531 14.913C15.6416 14.8015 15.4904 14.7389 15.3328 14.7389Z" fill="#CFCDC9"/>
</g>
</svg>
