<svg width="20" height="20" viewBox="0 0 20 20" fill="none" xmlns="http://www.w3.org/2000/svg">
<g id="Danger" clip-path="url(#clip0_3148_7335)">
<g id="Group">
<g id="Group_2">
<path id="Vector" d="M19.7423 15.8748L11.5386 2.26961C11.2154 1.73363 10.6259 1.40067 9.99998 1.40067C9.37408 1.40067 8.78451 1.73363 8.46127 2.26965L0.257634 15.8748C-0.076389 16.4288 -0.0862718 17.1228 0.231814 17.6861C0.549978 18.2494 1.14943 18.5993 1.79631 18.5993H18.2036C18.8505 18.5993 19.45 18.2494 19.7682 17.6861C20.0863 17.1227 20.0764 16.4287 19.7423 15.8748ZM18.6344 17.0458C18.5468 17.2008 18.3817 17.2972 18.2036 17.2972H1.79631C1.61822 17.2972 1.45318 17.2009 1.36564 17.0458C1.27806 16.8907 1.2808 16.6996 1.37271 16.5472L9.57642 2.94203C9.66541 2.79449 9.82771 2.70281 10 2.70281C10.1723 2.70281 10.3346 2.79449 10.4236 2.94203L18.6272 16.5472C18.7192 16.6997 18.7219 16.8907 18.6344 17.0458Z" fill="#CFCDC9"/>
</g>
</g>
<g id="Group_3">
<g id="Group_4">
<path id="Vector_2" d="M10.0069 6.758C9.51156 6.758 9.125 7.02378 9.125 7.49495C9.125 8.93253 9.2941 10.9983 9.2941 12.4359C9.29414 12.8104 9.62035 12.9674 10.0069 12.9674C10.2968 12.9674 10.7076 12.8104 10.7076 12.4359C10.7076 10.9983 10.8767 8.93257 10.8767 7.49495C10.8767 7.02382 10.478 6.758 10.0069 6.758Z" fill="#CFCDC9"/>
</g>
</g>
<g id="Group_5">
<g id="Group_6">
<path id="Vector_3" d="M10.0181 13.801C9.4866 13.801 9.08789 14.2238 9.08789 14.7313C9.08789 15.2266 9.48656 15.6615 10.0181 15.6615C10.5134 15.6615 10.9363 15.2266 10.9363 14.7313C10.9363 14.2238 10.5134 13.801 10.0181 13.801Z" fill="#CFCDC9"/>
</g>
</g>
</g>
<defs>
<clipPath id="clip0_3148_7335">
<rect width="20" height="20" fill="white"/>
</clipPath>
</defs>
</svg>
