<svg width="20" height="20" viewBox="0 0 20 20" fill="none" xmlns="http://www.w3.org/2000/svg">
<g id="Deal" clip-path="url(#clip0_3148_7327)">
<g id="Group">
<g id="Group_2">
<path id="Vector" d="M19.9939 14.5913L19.3746 8.34801C19.3418 8.01794 19.1822 7.72032 18.9251 7.50997C18.67 7.30134 18.3504 7.20435 18.0245 7.23728L16.9461 7.34603C16.4048 7.40063 15.9798 7.80181 15.8663 8.30852L15.2673 8.36891L13.624 7.38712C13.4547 7.28599 13.3215 7.21228 13.2008 7.16021C13.8819 6.39966 14.2968 5.39588 14.2968 4.29686C14.2968 1.92757 12.3693 0 9.99999 0C7.63066 0 5.70313 1.92757 5.70313 4.29686C5.70313 5.39584 6.11805 6.39962 6.79922 7.16024C6.67851 7.21228 6.54527 7.28603 6.37594 7.38716L4.73274 8.36891L4.13376 8.30852C4.02028 7.80181 3.59525 7.40063 3.05388 7.34603L1.97552 7.23728C1.64959 7.20438 1.33006 7.3013 1.07494 7.50997C0.817834 7.72036 0.658225 8.01794 0.625491 8.34801L0.404515 10.5759C0.383226 10.7906 0.539984 10.9819 0.75467 11.0032C0.969708 11.0246 1.16068 10.8677 1.18193 10.653L1.40291 8.42512C1.41506 8.30301 1.47424 8.19274 1.56967 8.11469C1.66306 8.03829 1.77951 8.00274 1.89713 8.01462L2.97548 8.12337C3.22376 8.14841 3.4054 8.37379 3.38036 8.62582L2.76107 14.8691C2.74892 14.9913 2.68974 15.1015 2.59431 15.1796C2.50091 15.256 2.38459 15.2916 2.26685 15.2797L1.18846 15.1709C0.940216 15.1459 0.758576 14.9205 0.783615 14.6684L0.834865 14.1516C0.856154 13.9369 0.699358 13.7456 0.484671 13.7243C0.270336 13.7031 0.0786962 13.8598 0.0574072 14.0745L0.00615742 14.5913C-0.0613423 15.2713 0.43389 15.8801 1.1101 15.9482L2.18849 16.057C2.23006 16.0611 2.27154 16.0632 2.31283 16.0632C2.59474 16.0632 2.86654 15.9663 3.08904 15.7842C3.2415 15.6595 3.35931 15.5039 3.43708 15.3292L3.67196 15.3529C3.33993 15.8354 3.38661 16.5044 3.81263 16.934C4.04497 17.1683 4.35505 17.2973 4.68567 17.2973C4.78614 17.2973 4.88473 17.2854 4.97977 17.2622C5.03196 17.4722 5.13934 17.671 5.30188 17.8349C5.53422 18.0691 5.84426 18.1982 6.17488 18.1982H6.17492C6.27539 18.1982 6.37398 18.1863 6.46902 18.1631C6.52121 18.3731 6.62859 18.5718 6.79113 18.7357C7.02347 18.97 7.33355 19.0991 7.66417 19.0991C7.76464 19.0991 7.86324 19.0871 7.95827 19.064C8.01046 19.274 8.11784 19.4728 8.28038 19.6367C8.51273 19.871 8.8228 20 9.15343 20C9.48405 20 9.79409 19.8709 10.0265 19.6367L10.5382 19.1207C10.7766 19.2718 11.0424 19.3503 11.3107 19.3503C11.4966 19.3503 11.6838 19.3126 11.8637 19.2355C12.1983 19.0922 12.4539 18.8354 12.5936 18.5225C12.9661 18.6502 13.3481 18.6115 13.6786 18.3998C13.9628 18.2179 14.1659 17.9323 14.2542 17.6229C14.7911 17.6835 15.3009 17.4229 15.5842 17.055C15.9747 16.548 15.9426 15.9035 15.512 15.4352L16.5629 15.3293C16.6406 15.5039 16.7585 15.6595 16.9109 15.7842C17.1334 15.9663 17.4052 16.0633 17.6871 16.0633C17.7284 16.0633 17.7699 16.0612 17.8115 16.057L18.8899 15.9483C19.5661 15.8801 20.0614 15.2714 19.9939 14.5913ZM14.9775 9.1059C15.0383 9.14223 15.1075 9.16121 15.1779 9.16121C15.1909 9.16121 15.204 9.16055 15.217 9.15926L15.8808 9.09235L16.423 14.5582L14.8109 14.7207L12.4352 12.3037C12.535 12.2845 12.634 12.2606 12.7315 12.2315C12.9383 12.1699 13.0559 11.9523 12.9943 11.7456C12.9326 11.5388 12.715 11.4212 12.5083 11.4828C11.6815 11.7294 10.6935 11.4876 10.1056 10.895C10.0284 10.8171 9.92151 10.7755 9.81241 10.7798C9.7028 10.7842 9.60014 10.8345 9.52952 10.9184L8.98335 11.5668C8.56382 12.0649 8.35323 12.3148 7.01113 12.3148C6.92672 12.3148 6.86515 12.2888 6.83777 12.2416C6.8089 12.1918 6.81758 12.1167 6.86105 12.0409C7.20507 11.4401 7.51718 10.923 7.81902 10.423C8.15316 9.86949 8.49862 9.29707 8.88698 8.61192C8.91737 8.55832 8.94624 8.51122 8.97413 8.46965C9.303 8.55051 9.64651 8.59372 9.99999 8.59372C10.8935 8.59372 11.7241 8.31946 12.4123 7.85083C12.8049 7.81341 12.8195 7.81661 13.2234 8.05786L14.9775 9.1059ZM9.99999 0.781247C11.9385 0.781247 13.5156 2.35835 13.5156 4.29686C13.5156 6.23537 11.9385 7.81247 9.99999 7.81247C8.06148 7.81247 6.48437 6.23537 6.48437 4.29686C6.48437 2.35835 8.06148 0.781247 9.99999 0.781247ZM4.68567 16.5161C4.56493 16.5161 4.45192 16.4691 4.36735 16.3839C4.18931 16.2044 4.18931 15.9124 4.36739 15.7328L4.96305 15.1322C5.04762 15.047 5.16071 15 5.28141 15C5.40211 15 5.5152 15.047 5.59977 15.1322C5.77778 15.3117 5.77778 15.6038 5.59973 15.7833L5.30188 16.0836C5.30176 16.0837 5.30168 16.0838 5.30157 16.0839C5.30118 16.0843 5.30078 16.0847 5.30035 16.0851L5.00399 16.3839C4.9195 16.4691 4.80645 16.5161 4.68567 16.5161ZM6.17492 17.417C6.05418 17.417 5.94117 17.37 5.8566 17.2847C5.67867 17.1053 5.67864 16.8134 5.85645 16.6339C5.85652 16.6338 5.8566 16.6338 5.85664 16.6337L6.15449 16.3334C6.15457 16.3333 6.15461 16.3333 6.15465 16.3332L6.4523 16.0331C6.53687 15.9479 6.64996 15.9009 6.77062 15.9009C6.89136 15.9009 7.00445 15.9479 7.08898 16.0331C7.26703 16.2126 7.26703 16.5046 7.08898 16.6842L6.79113 16.9845C6.79105 16.9845 6.79101 16.9846 6.79097 16.9847L6.49324 17.2848C6.40875 17.37 6.29566 17.417 6.17492 17.417ZM7.66417 18.3179C7.54347 18.3179 7.43043 18.2709 7.34586 18.1856C7.16793 18.0062 7.16789 17.7143 7.3457 17.5348C7.34578 17.5347 7.34585 17.5347 7.34589 17.5346L7.64374 17.2343C7.64382 17.2342 7.64386 17.2341 7.6439 17.2341L7.94156 16.934C8.02613 16.8487 8.13921 16.8018 8.25991 16.8018C8.38062 16.8018 8.49366 16.8487 8.57823 16.934C8.75624 17.1134 8.75628 17.4054 8.57831 17.5849C8.57827 17.5849 8.57823 17.585 8.57819 17.585L8.28034 17.8853C8.28027 17.8854 8.28023 17.8854 8.28019 17.8855L7.98249 18.1856C7.898 18.2709 7.78492 18.3179 7.66417 18.3179ZM9.47182 19.0865C9.38725 19.1718 9.27417 19.2187 9.15347 19.2187C9.03276 19.2187 8.91968 19.1718 8.83515 19.0865C8.65741 18.9073 8.6571 18.616 8.83425 18.4364L8.83487 18.4358C8.83495 18.4357 8.83507 18.4356 8.83519 18.4355L9.13304 18.1352C9.13311 18.1351 9.13315 18.1351 9.13323 18.135L9.43093 17.8349C9.51546 17.7497 9.6285 17.7027 9.74921 17.7027C9.86991 17.7027 9.98299 17.7497 10.0676 17.835C10.2456 18.0145 10.2456 18.3065 10.0676 18.486L9.47182 19.0865ZM14.9652 16.5784C14.7823 16.8159 14.4219 16.9543 14.0872 16.7595C13.9511 16.6803 13.7808 16.6906 13.6551 16.7855C13.5295 16.8804 13.4732 17.0415 13.5122 17.194C13.5589 17.3763 13.4445 17.6221 13.2574 17.742C13.0069 17.9024 12.7442 17.7654 12.568 17.6222C12.4491 17.5257 12.2848 17.5074 12.1477 17.5756C12.0106 17.6438 11.926 17.7858 11.9313 17.9388C11.9399 18.189 11.7926 18.4162 11.5561 18.5175C11.453 18.5616 11.2099 18.6304 10.9462 18.4556C11.0445 18.049 10.9365 17.6017 10.6221 17.2848C10.3898 17.0505 10.0797 16.9215 9.74905 16.9215C9.64862 16.9215 9.55007 16.9334 9.45503 16.9566C9.40284 16.7466 9.29546 16.5478 9.13292 16.3839C8.90058 16.1496 8.59054 16.0206 8.25991 16.0206C8.15945 16.0206 8.06085 16.0325 7.96581 16.0556C7.91359 15.8457 7.8062 15.6469 7.64367 15.4829C7.41128 15.2486 7.10121 15.1197 6.77058 15.1197C6.67015 15.1197 6.57156 15.1316 6.47656 15.1547C6.42434 14.9447 6.31699 14.746 6.15445 14.5821C6.15445 14.5821 6.15445 14.5821 6.15441 14.5821C5.92207 14.3478 5.61199 14.2188 5.28137 14.2188C4.95075 14.2188 4.64071 14.3478 4.40829 14.5821L4.35427 14.6365L3.57692 14.5581L4.11911 9.09227L4.78286 9.15918C4.79594 9.16051 4.80903 9.16114 4.82208 9.16114C4.89239 9.16114 4.96165 9.14215 5.02243 9.10582L6.77652 8.05778C7.18031 7.81657 7.1948 7.81333 7.58761 7.85075C7.78671 7.98633 7.99777 8.10559 8.21878 8.20669C8.21491 8.2134 8.21113 8.21966 8.20722 8.22653C7.82417 8.90239 7.48148 9.47012 7.15007 10.0191C6.84597 10.523 6.53148 11.0439 6.18301 11.6525C5.99949 11.973 5.99156 12.3396 6.1618 12.6333C6.32977 12.923 6.64722 13.096 7.01105 13.096C8.54831 13.096 8.99331 12.7674 9.58077 12.0701L9.87233 11.7239C10.3023 12.045 10.8228 12.2519 11.3638 12.328L14.9138 15.9399C15.1807 16.2069 15.0606 16.4545 14.9652 16.5784ZM18.8116 15.1709L17.7332 15.2797C17.6155 15.2916 17.4991 15.256 17.4057 15.1795C17.3103 15.1015 17.2511 14.9913 17.2389 14.8691L16.6196 8.62586C16.5946 8.37379 16.7763 8.14837 17.0246 8.12337L18.103 8.01462C18.2206 8.0027 18.337 8.03825 18.4304 8.11465C18.5258 8.19274 18.585 8.30297 18.5972 8.42512L19.2165 14.6685C19.2414 14.9205 19.0598 15.1459 18.8116 15.1709Z" fill="#CFCDC9"/>
<path id="Vector_2" d="M8.7241 6.07883C8.94543 6.30016 9.23969 6.42204 9.5527 6.42204C9.86574 6.42204 10.16 6.30012 10.3813 6.07883L12.288 4.17211C12.7449 3.71524 12.7449 2.9718 12.288 2.51493C12.0667 2.2936 11.7725 2.17172 11.4595 2.17172C11.1464 2.17172 10.8521 2.2936 10.6309 2.51493L9.5527 3.59309L9.36953 3.40989C9.1482 3.18856 8.85395 3.06668 8.54094 3.06668C8.22793 3.06668 7.93367 3.1886 7.71234 3.40989C7.49102 3.63121 7.36914 3.92547 7.36914 4.23848C7.36914 4.55149 7.49102 4.84575 7.71234 5.06703L8.7241 6.07883ZM8.2648 3.96231C8.33855 3.88852 8.4366 3.84793 8.54094 3.84793C8.64527 3.84793 8.74336 3.88856 8.81707 3.96231L9.27648 4.42172C9.34973 4.49496 9.4491 4.53614 9.5527 4.53614C9.65629 4.53614 9.75563 4.495 9.82891 4.42172L11.1833 3.06735C11.257 2.9936 11.3551 2.95297 11.4594 2.95297C11.5637 2.95297 11.6618 2.9936 11.7355 3.06735C11.8093 3.1411 11.85 3.23918 11.85 3.34348C11.85 3.44778 11.8093 3.54586 11.7355 3.61961L9.82879 5.52637C9.75504 5.60012 9.65699 5.64075 9.55266 5.64075C9.44832 5.64075 9.35023 5.60012 9.27652 5.52637L8.26477 4.51457C8.1125 4.36231 8.1125 4.11457 8.2648 3.96231Z" fill="#CFCDC9"/>
<path id="Vector_3" d="M0.619258 12.7544C0.834961 12.7544 1.00988 12.5795 1.00988 12.3638C1.00988 12.148 0.834961 11.9731 0.619258 11.9731H0.618984C0.403281 11.9731 0.228516 12.148 0.228516 12.3638C0.228516 12.5795 0.403516 12.7544 0.619258 12.7544Z" fill="#CFCDC9"/>
<path id="Vector_4" d="M13.9982 11.1572C14.2139 11.1572 14.3888 10.9823 14.3888 10.7666C14.3888 10.5509 14.2139 10.376 13.9982 10.376H13.9979C13.7822 10.376 13.6074 10.5509 13.6074 10.7666C13.6074 10.9823 13.7825 11.1572 13.9982 11.1572Z" fill="#CFCDC9"/>
</g>
</g>
</g>
<defs>
<clipPath id="clip0_3148_7327">
<rect width="20" height="20" fill="white"/>
</clipPath>
</defs>
</svg>
