<svg width="20" height="20" viewBox="0 0 20 20" fill="none" xmlns="http://www.w3.org/2000/svg">
<g id="Flag" clip-path="url(#clip0_3148_7299)">
<path id="Vector" d="M16.7199 10.001L19.8743 5.97073C20.1743 5.58757 19.9012 5.0237 19.4129 5.0237H13.1245V3.4446C13.1245 3.12101 12.8622 2.8587 12.5386 2.8587H3.84462C3.96458 2.59796 4.0281 2.3121 4.0281 2.01624C4.0281 0.231436 1.85716 -0.676611 0.589037 0.591436C-0.475768 1.65624 -0.0379942 3.50058 1.4279 3.94355V18.8282H0.656654C0.333061 18.8282 0.0707168 19.0905 0.0707168 19.4141C0.0707168 19.7376 0.333061 20 0.656654 20H3.37095C3.69454 20 3.95689 19.7377 3.95689 19.4141C3.95689 19.0905 3.69454 18.8282 3.37095 18.8282H2.59974V12.8132H11.9527V14.3923C11.9527 14.7159 12.2151 14.9783 12.5386 14.9783H19.4129C19.8996 14.9783 20.1753 14.4157 19.8743 14.0312L16.7199 10.001ZM1.17138 2.01624C1.17138 1.79062 1.25884 1.57886 1.41763 1.42011C1.7463 1.09144 2.28126 1.09128 2.60997 1.42011C2.93865 1.7487 2.93861 2.28378 2.60997 2.61237C2.08337 3.13913 1.17138 2.76655 1.17138 2.01624ZM2.59974 11.6414V4.03054H11.9527V11.6414H2.59974ZM13.1245 13.8064C13.1245 13.5267 13.1245 6.53983 13.1245 6.19554H18.2103L15.5144 9.63987C15.3484 9.85198 15.3484 10.15 15.5144 10.3621L18.2103 13.8065H13.1245V13.8064Z" fill="#CFCDC9"/>
</g>
<defs>
<clipPath id="clip0_3148_7299">
<rect width="20" height="20" fill="white"/>
</clipPath>
</defs>
</svg>
