<svg width="20" height="20" viewBox="0 0 20 20" fill="none" xmlns="http://www.w3.org/2000/svg">
<g id="fi_6042748">
<path id="Vector" d="M16.2895 9.13334C16.244 9.02377 16.1668 8.9303 16.0678 8.86495C15.9688 8.79961 15.8525 8.76538 15.7339 8.76667H12.7395L14.7728 2.65556C14.8325 2.47839 14.8494 2.2896 14.822 2.10466C14.7947 1.91971 14.7239 1.74388 14.6155 1.59157C14.5071 1.43925 14.3641 1.31479 14.1983 1.22838C14.0325 1.14197 13.8486 1.09608 13.6617 1.09445H7.2228C6.97616 1.09699 6.73648 1.17653 6.53727 1.32196C6.33805 1.46739 6.18926 1.67143 6.11169 1.90556L3.69502 9.17779C3.66634 9.2662 3.65879 9.36011 3.67299 9.45197C3.68718 9.54383 3.72272 9.63108 3.77674 9.70671C3.83077 9.78235 3.90178 9.84426 3.98407 9.88748C4.06636 9.9307 4.15764 9.95402 4.25058 9.95556H7.1728L6.2228 18.2278C6.20904 18.3494 6.23313 18.4722 6.2918 18.5796C6.35046 18.687 6.44083 18.7737 6.55058 18.8278C6.66084 18.8788 6.78391 18.8956 6.9038 18.8757C7.02368 18.8559 7.13483 18.8005 7.2228 18.7167L16.1617 9.78334C16.2451 9.6999 16.3018 9.59354 16.3245 9.47779C16.3473 9.36204 16.3351 9.24214 16.2895 9.13334ZM7.59502 16.6667L8.43391 9.44445C8.44328 9.36144 8.43505 9.27739 8.40975 9.19777C8.38445 9.11816 8.34266 9.04477 8.2871 8.98239C8.23153 8.92001 8.16344 8.87005 8.08727 8.83575C8.0111 8.80145 7.92856 8.7836 7.84502 8.78334H5.06724L7.2228 2.29445H13.645L11.3561 9.17779C11.3275 9.2662 11.3199 9.36011 11.3341 9.45197C11.3483 9.54383 11.3838 9.63108 11.4379 9.70671C11.4919 9.78235 11.5629 9.84426 11.6452 9.88748C11.7275 9.9307 11.8188 9.95402 11.9117 9.95556H14.3117L7.59502 16.6667Z" fill="#CFCDC9"/>
</g>
</svg>
