<svg width="20" height="20" viewBox="0 0 20 20" fill="none" xmlns="http://www.w3.org/2000/svg">
<g id="Housekeeping" clip-path="url(#clip0_3148_7285)">
<g id="Group">
<path id="Vector" d="M19.2993 18.1754L18.8521 17.0609C18.7595 16.8301 18.5389 16.681 18.2903 16.681H15.9828L15.9827 15.8111C15.983 15.6908 15.9362 15.5778 15.8511 15.4928C15.7663 15.4081 15.6537 15.3615 15.5348 15.3615C15.5344 15.3615 15.534 15.3615 15.5336 15.3615H15.4387L15.4062 3.74398C15.4057 3.58246 15.2747 3.45184 15.1132 3.45184C15.113 3.45184 15.1127 3.45184 15.1124 3.45184C14.9506 3.4523 14.8198 3.58383 14.8203 3.74563L14.8528 15.3614L14.0722 15.3614L14.0309 0.607422C14.0309 0.60543 14.0309 0.599336 14.0365 0.593672C14.0422 0.588008 14.0482 0.587969 14.0502 0.587969L14.7921 0.585938H14.7921C14.8028 0.585938 14.8115 0.594609 14.8115 0.605273L14.8165 2.37906C14.817 2.54059 14.948 2.67121 15.1094 2.67121H15.1102C15.2721 2.67074 15.4029 2.53922 15.4024 2.37742L15.3974 0.603633C15.3965 0.270391 15.1251 0 14.7921 0C14.7916 0 14.791 0 14.7904 0L14.0486 0.00207031C13.8869 0.00253906 13.7351 0.0658985 13.6211 0.180547C13.5071 0.295195 13.4445 0.447383 13.445 0.609102L13.4863 15.3612H13.3962C13.1484 15.3619 12.9473 15.5638 12.9479 15.8104L12.948 16.681H11.4506L11.5021 15.9316C11.5263 15.9336 11.5506 15.9348 11.5752 15.9348C11.8181 15.9348 12.0465 15.8402 12.2183 15.6684C12.3901 15.4966 12.4847 15.2682 12.4847 15.0252C12.4847 14.7822 12.3901 14.5538 12.2183 14.382L11.6477 13.8114L11.772 12.007H11.9487C12.2825 12.007 12.554 11.7354 12.554 11.4016V10.6141C12.554 10.3334 12.3616 10.0973 12.1019 10.0292C12.0029 9.07918 11.2113 8.31645 10.2464 8.2682C9.8418 8.24801 9.45043 8.34938 9.11004 8.56113C8.73902 8.16766 8.22047 7.94301 7.67887 7.94301C7.4341 7.94301 7.19496 7.98785 6.96785 8.07617C6.60508 7.74602 6.13711 7.56469 5.64543 7.56469C4.83461 7.56469 4.10414 8.06699 3.81176 8.82031C3.6577 8.80016 3.50031 8.79848 3.34301 8.81543C2.62586 8.89328 2.01918 9.35313 1.7441 10.0094C1.41543 10.0154 1.14977 10.2841 1.14977 10.6142V11.4017C1.14977 11.7355 1.42133 12.007 1.75508 12.007H1.93137L1.98367 12.7669C1.69102 12.8093 1.46523 13.0611 1.46523 13.3652V14.4274C0.9775 14.7571 0.65625 15.3153 0.65625 15.947V19.6584C0.65625 19.8468 0.809492 20.0001 0.997891 20.0001H3.98063H3.98078H18.7377C19.0714 20.0001 19.343 19.7285 19.343 19.3948V18.4009C19.3429 18.3233 19.3282 18.2474 19.2993 18.1754ZM18.3083 17.2791L18.6086 18.0274L10.3217 18.0506L10.6313 17.2791C10.6343 17.2717 10.6413 17.2669 10.6493 17.2669H18.2903C18.2983 17.2669 18.3054 17.2717 18.3083 17.2791ZM10.1827 19.3947V18.6369L11.1261 18.6343L11.1253 19.4141H10.2021C10.1914 19.4141 10.1827 19.4054 10.1827 19.3947ZM11.712 18.6326L12.6531 18.63L12.6523 19.4141H11.7113L11.712 18.6326ZM13.239 18.6284L14.1801 18.6257L14.1793 19.4141H13.2382L13.239 18.6284ZM14.766 18.6241L15.7071 18.6214L15.7063 19.4141H14.7653L14.766 18.6241ZM16.293 18.6198L17.2341 18.6172L17.2334 19.4141H16.2923L16.293 18.6198ZM13.5339 15.9472L15.3968 15.9474L15.3968 16.681H13.5339L13.5339 15.9472ZM11.8987 15.0252C11.8987 15.1116 11.8651 15.1929 11.8039 15.254H11.8039C11.7428 15.3151 11.6615 15.3488 11.5751 15.3488C11.4887 15.3488 11.4074 15.3151 11.3463 15.254L7.23953 11.1472C7.17844 11.0861 7.14477 11.0048 7.14477 10.9184C7.14477 10.832 7.17844 10.7507 7.23953 10.6896C7.30066 10.6284 7.38195 10.5948 7.46836 10.5948C7.55477 10.5948 7.63605 10.6284 7.69719 10.6896L11.804 14.7964C11.8651 14.8575 11.8987 14.9388 11.8987 15.0252ZM11.0982 13.2619L9.84324 12.007H11.1846L11.0982 13.2619ZM11.968 11.4016C11.968 11.4123 11.9593 11.4211 11.9487 11.4211H9.2573L8.43102 10.5948H11.9487C11.9593 10.5948 11.968 10.6035 11.968 10.6142V11.4016ZM3.4059 9.39789C3.52934 9.38461 3.65258 9.3875 3.7723 9.40652C4.01984 9.4457 4.26105 9.30192 4.3457 9.06504C4.54199 8.51809 5.0643 8.15059 5.64539 8.15059C6 8.15059 6.33703 8.28496 6.59457 8.5291C6.74352 8.67012 6.96297 8.71082 7.15426 8.63258C7.32148 8.56375 7.49797 8.52887 7.67883 8.52887C8.07145 8.52887 8.44691 8.69715 8.70914 8.99078C8.88086 9.1827 9.17324 9.2202 9.38914 9.07801C9.63473 8.91641 9.9209 8.83875 10.2173 8.85336C10.8671 8.88582 11.4049 9.38031 11.5085 10.0088H2.40828C2.63273 9.67387 2.99855 9.44215 3.4059 9.39789ZM3.69473 11.421H1.75504C1.74438 11.421 1.73566 11.4123 1.73566 11.4016V10.6141C1.73566 10.6034 1.74438 10.5947 1.75504 10.5947H6.61879C6.57992 10.6968 6.55879 10.8059 6.55879 10.9184C6.55879 11.0999 6.61168 11.2732 6.71004 11.421H5.06125C4.89945 11.421 4.76828 11.5521 4.76828 11.7139C4.76828 11.8757 4.89945 12.0069 5.06125 12.0069H7.27059L10.9319 15.6682C10.9322 15.6685 10.9325 15.6688 10.9327 15.6691L10.8632 16.6809H10.6493C10.4006 16.6809 10.1801 16.83 10.0875 17.0608C10.0875 17.0608 10.0875 17.0608 10.0875 17.0608L9.64023 18.1754C9.61133 18.2473 9.59668 18.3232 9.59668 18.4008V19.3946C9.59668 19.4011 9.59746 19.4075 9.59766 19.414H4.3223V15.9469C4.3223 15.3152 4.00106 14.757 3.51332 14.4273V13.3651C3.51332 13.0313 3.24176 12.7598 2.90801 12.7598H2.57047L2.51863 12.0069H3.69473C3.85652 12.0069 3.9877 11.8757 3.9877 11.7139C3.9877 11.5521 3.85656 11.421 3.69473 11.421ZM1.24211 15.947C1.24211 15.9318 1.24273 15.9167 1.24324 15.9016H3.7352C3.73574 15.9167 3.73633 15.9318 3.73633 15.947V18.1952H1.24211V15.947ZM2.48926 14.6998C2.94668 14.6998 3.34711 14.9475 3.56414 15.3157H1.41434C1.63141 14.9475 2.03184 14.6998 2.48926 14.6998ZM2.05113 13.3652C2.05113 13.3545 2.05984 13.3457 2.07051 13.3457H2.90801C2.91867 13.3457 2.92738 13.3545 2.92738 13.3652V14.1672C2.78691 14.1326 2.64027 14.1139 2.48926 14.1139C2.33824 14.1139 2.1916 14.1326 2.05113 14.1672V13.3652ZM1.24211 18.7811H3.73637V19.4141H1.24211V18.7811ZM18.7376 19.4141H17.8193L17.82 18.6155L18.757 18.6129V19.3947C18.757 19.4054 18.7482 19.4141 18.7376 19.4141Z" fill="#CFCDC9"/>
</g>
</g>
<defs>
<clipPath id="clip0_3148_7285">
<rect width="20" height="20" fill="white"/>
</clipPath>
</defs>
</svg>
