<svg width="20" height="20" viewBox="0 0 20 20" fill="none" xmlns="http://www.w3.org/2000/svg">
<g id="Idea" clip-path="url(#clip0_3159_8443)">
<g id="Group">
<path id="Vector" d="M7.65624 8.98434V11.3281C7.65624 11.4317 7.69741 11.531 7.77066 11.6043L8.5519 12.3855C8.62518 12.4588 8.72452 12.5 8.82811 12.5H11.1719C11.2754 12.5 11.3748 12.4588 11.4481 12.3855L12.2293 11.6043C12.3026 11.531 12.3437 11.4317 12.3437 11.3281V8.98434C12.3437 8.38637 12.3836 8.25778 13.419 6.8997C13.9932 6.14642 14.2968 5.24635 14.2968 4.29686C14.2968 1.92757 12.3693 0 9.99998 0C7.6307 0 5.70312 1.92757 5.70312 4.29686C5.70312 5.24635 6.00668 6.14642 6.58101 6.8997C7.6164 8.2577 7.65624 8.38633 7.65624 8.98434ZM11.5625 9.37496V10.1562H8.43749V9.37496H11.5625ZM11.01 11.7187H8.98991L8.43745 11.1663V10.9375H11.5624V11.1663L11.01 11.7187ZM9.99998 0.781247C11.9385 0.781247 13.5156 2.35835 13.5156 4.29686C13.5156 5.07373 13.2674 5.81002 12.7977 6.42603C11.9215 7.57528 11.6471 7.98364 11.5806 8.59372H10.3906V5.23994L11.0574 4.57311C11.21 4.42057 11.21 4.17323 11.0574 4.02065C10.9049 3.86811 10.6576 3.86811 10.505 4.02065L9.99994 4.52568L9.49491 4.02065C9.34233 3.86811 9.09506 3.86811 8.94245 4.02065C8.78991 4.17319 8.78991 4.42053 8.94245 4.57311L9.60928 5.23994V8.59372H8.41929C8.35276 7.98356 8.07843 7.57524 7.20218 6.42603C6.73257 5.81002 6.48429 5.07373 6.48429 4.29686C6.48437 2.35835 8.06148 0.781247 9.99998 0.781247Z" fill="#CFCDC9"/>
<path id="Vector_2" d="M3.55469 4.68747H4.33594C4.55164 4.68747 4.72656 4.51259 4.72656 4.29684C4.72656 4.0811 4.55164 3.90622 4.33594 3.90622H3.55469C3.33898 3.90622 3.16406 4.0811 3.16406 4.29684C3.16406 4.51259 3.33898 4.68747 3.55469 4.68747Z" fill="#CFCDC9"/>
<path id="Vector_3" d="M4.22271 1.4125L4.89927 1.80312C4.96075 1.83863 5.02794 1.85555 5.09419 1.85555C5.22919 1.85555 5.36048 1.78547 5.43286 1.66019C5.54075 1.47336 5.47673 1.23445 5.28989 1.12656L4.61333 0.735936C4.42654 0.628046 4.18763 0.692108 4.07974 0.878905C3.97189 1.0657 4.03587 1.30461 4.22271 1.4125Z" fill="#CFCDC9"/>
<path id="Vector_4" d="M4.89929 6.79059L4.22272 7.18121C4.03589 7.2891 3.97187 7.52797 4.07976 7.7148C4.15214 7.84012 4.28339 7.91016 4.41843 7.91016C4.48468 7.91016 4.55187 7.89328 4.61335 7.85777L5.28991 7.46715C5.47675 7.35926 5.54077 7.12039 5.43288 6.93352C5.32499 6.74672 5.08612 6.68273 4.89929 6.79059Z" fill="#CFCDC9"/>
<path id="Vector_5" d="M15.2734 4.29684C15.2734 4.51259 15.4484 4.68747 15.6641 4.68747H16.4454C16.6611 4.68747 16.836 4.51259 16.836 4.29684C16.836 4.0811 16.6611 3.90622 16.4454 3.90622H15.6641C15.4484 3.90622 15.2734 4.0811 15.2734 4.29684Z" fill="#CFCDC9"/>
<path id="Vector_6" d="M14.9048 1.85556C14.971 1.85556 15.0382 1.83864 15.0997 1.80314L15.7762 1.41251C15.9631 1.30462 16.0271 1.06575 15.9192 0.878918C15.8113 0.692121 15.5725 0.628098 15.3856 0.73595L14.7091 1.12657C14.5222 1.23447 14.4582 1.47333 14.5661 1.66021C14.6385 1.78548 14.7697 1.85556 14.9048 1.85556Z" fill="#CFCDC9"/>
<path id="Vector_7" d="M14.7091 7.46716L15.3856 7.85778C15.4471 7.89329 15.5143 7.91016 15.5805 7.91016C15.7155 7.91016 15.8468 7.84012 15.9192 7.71481C16.0271 7.52798 15.9631 7.28911 15.7762 7.18122L15.0997 6.79059C14.9129 6.6827 14.674 6.74677 14.5661 6.93356C14.4582 7.1204 14.5222 7.35927 14.7091 7.46716Z" fill="#CFCDC9"/>
<path id="Vector_8" d="M19.6093 16.4844V15.2831C19.6093 15.0674 19.4344 14.8925 19.2187 14.8925C17.6469 14.8925 16.6654 14.4412 15.7995 14.043C15.5465 13.9267 15.3076 13.8168 15.0684 13.7254C13.9196 13.2859 12.8744 13.2428 11.962 13.5972C11.218 13.8861 10.56 14.4414 9.99996 15.2516C9.43996 14.4414 8.78192 13.8861 8.03794 13.5972C7.12556 13.2429 6.08033 13.2859 4.9315 13.7254C4.69233 13.8168 4.45342 13.9267 4.20045 14.043C3.33452 14.4412 2.35304 14.8925 0.781208 14.8925C0.565506 14.8925 0.390584 15.0674 0.390584 15.2831V16.4843C0.174882 16.4843 0 16.6592 0 16.875V18.6328C0 18.8485 0.174921 19.0234 0.390623 19.0234H8.42544C8.7186 19.6103 9.32946 19.9999 9.99996 19.9999C10.6705 19.9999 11.2813 19.6103 11.5745 19.0234H19.6093C19.825 19.0234 19.9999 18.8485 19.9999 18.6328V16.875C19.9999 16.6593 19.825 16.4844 19.6093 16.4844ZM14.7893 14.4551C15.0046 14.5374 15.2321 14.642 15.4731 14.7529C16.2969 15.1316 17.3066 15.5959 18.8281 15.665V16.4844H11.3336C10.9749 16.4844 10.66 16.5533 10.3906 16.6902V16.0929C11.4574 14.2671 12.8973 13.7315 14.7893 14.4551ZM4.52686 14.7528C4.76783 14.642 4.99541 14.5374 5.2106 14.4551C7.10267 13.7315 8.54247 14.2672 9.60934 16.0928V16.6901C9.33996 16.5533 9.02508 16.4844 8.66629 16.4844H1.17183V15.665C2.69331 15.5959 3.70315 15.1316 4.52686 14.7528ZM19.2187 18.2422H11.3104C11.1376 18.2422 10.9853 18.3557 10.9361 18.5213C10.8138 18.9319 10.4289 19.2187 9.99996 19.2187C9.57102 19.2187 9.18614 18.932 9.06387 18.5213C9.01457 18.3557 8.86231 18.2422 8.6895 18.2422H0.781247V17.2656H8.66629C9.13864 17.2656 9.45488 17.4324 9.66164 17.7905C9.73141 17.9114 9.86039 17.9859 9.99992 17.9859C10.1395 17.9859 10.2684 17.9114 10.3382 17.7905C10.545 17.4325 10.8612 17.2656 11.3335 17.2656H19.2186V18.2422H19.2187Z" fill="#CFCDC9"/>
</g>
</g>
<defs>
<clipPath id="clip0_3159_8443">
<rect width="20" height="20" fill="white"/>
</clipPath>
</defs>
</svg>
