<svg width="20" height="20" viewBox="0 0 20 20" fill="none" xmlns="http://www.w3.org/2000/svg">
<g id="Night">
<g id="Group">
<path id="Vector" d="M14.3652 6.51364H14.6582V6.80661C14.6582 7.0493 14.855 7.24606 15.0977 7.24606C15.3404 7.24606 15.5371 7.0493 15.5371 6.80661V6.51364H15.8301C16.0728 6.51364 16.2695 6.31688 16.2695 6.07419C16.2695 5.83149 16.0728 5.63473 15.8301 5.63473H15.5371V5.34177C15.5371 5.09907 15.3404 4.90231 15.0977 4.90231C14.855 4.90231 14.6582 5.09907 14.6582 5.34177V5.63473H14.3652C14.1225 5.63473 13.9258 5.83149 13.9258 6.07419C13.9258 6.31688 14.1225 6.51364 14.3652 6.51364Z" fill="#CFCDC9"/>
<path id="Vector_2" d="M4.11133 4.69723H4.4043V4.9902C4.4043 5.2329 4.60105 5.42966 4.84375 5.42966C5.08644 5.42966 5.2832 5.2329 5.2832 4.9902V4.69723H5.57617C5.81887 4.69723 6.01562 4.50048 6.01562 4.25778C6.01562 4.01509 5.81887 3.81833 5.57617 3.81833H5.2832V3.52536C5.2832 3.28266 5.08644 3.08591 4.84375 3.08591C4.60105 3.08591 4.4043 3.28266 4.4043 3.52536V3.81833H4.11133C3.86863 3.81833 3.67188 4.01509 3.67188 4.25778C3.67188 4.50048 3.86863 4.69723 4.11133 4.69723Z" fill="#CFCDC9"/>
<path id="Vector_3" d="M16.4746 15.0097H16.1816V14.7168C16.1816 14.4741 15.9849 14.2773 15.7422 14.2773C15.4995 14.2773 15.3027 14.4741 15.3027 14.7168V15.0097H15.0098C14.7671 15.0097 14.5703 15.2065 14.5703 15.4492C14.5703 15.6919 14.7671 15.8886 15.0098 15.8886H15.3027V16.1816C15.3027 16.4243 15.4995 16.6211 15.7422 16.6211C15.9849 16.6211 16.1816 16.4243 16.1816 16.1816V15.8886H16.4746C16.7173 15.8886 16.9141 15.6919 16.9141 15.4492C16.9141 15.2065 16.7173 15.0097 16.4746 15.0097Z" fill="#CFCDC9"/>
<path id="Vector_4" d="M17.4037 9.91145C17.2946 9.77504 17.115 9.71615 16.9463 9.76162C16.5413 9.87063 16.136 9.92589 15.7418 9.92589C13.1884 9.92589 11.1111 7.84857 11.1111 5.29517C11.1111 4.5389 11.2901 3.81515 11.6431 3.14405C11.7244 2.98945 11.7065 2.80136 11.5973 2.66493C11.4882 2.52855 11.3088 2.46966 11.14 2.5151C8.73973 3.16113 7.06337 5.34676 7.06337 7.83023C7.06337 8.46272 7.16804 9.07637 7.37491 9.66163C6.0789 9.94707 5.0868 11.0521 4.97207 12.4035C3.60191 12.4442 2.5 13.5714 2.5 14.9511C2.5 16.3566 3.6434 17.5 5.04883 17.5H11.0254C12.6247 17.5 13.9258 16.1989 13.9258 14.5996C13.9258 14.1102 13.8038 13.6489 13.5889 13.2441C14.288 13.1133 14.9578 12.8481 15.5576 12.4601C16.354 11.9451 17.0081 11.2295 17.4495 10.3905C17.5308 10.2359 17.5128 10.0479 17.4037 9.91145ZM11.0254 16.6211H5.04883C4.12803 16.6211 3.37891 15.872 3.37891 14.9511C3.37891 14.0303 4.12803 13.2812 5.04883 13.2812C5.13798 13.2812 5.23187 13.29 5.33591 13.308C5.46971 13.3313 5.60652 13.2913 5.70689 13.1999C5.8072 13.1085 5.8597 12.9759 5.84907 12.8406C5.84403 12.7765 5.83984 12.7192 5.83984 12.666C5.83984 11.4544 6.82553 10.4687 8.03711 10.4687C9.09144 10.4687 9.99873 11.2202 10.1944 12.2555C10.2388 12.4898 10.4619 12.6462 10.6971 12.6076C10.8184 12.5877 10.9258 12.5781 11.0254 12.5781C12.14 12.5781 13.0469 13.4849 13.0469 14.5996C13.0469 15.7142 12.14 16.6211 11.0254 16.6211ZM12.9633 12.4436C12.4493 11.9811 11.7697 11.6992 11.0254 11.6992C11.0027 11.6992 10.9799 11.6995 10.9569 11.7001C10.5732 10.536 9.52363 9.70256 8.29243 9.60049C8.05993 9.04027 7.94224 8.44602 7.94224 7.83023C7.94224 6.07098 8.94337 4.48962 10.4663 3.71118C10.3119 4.22431 10.2322 4.75927 10.2322 5.29514C10.2322 8.33314 12.7038 10.8048 15.7418 10.8048C15.8706 10.8048 16.0001 10.7999 16.1302 10.7901C15.3431 11.7335 14.2015 12.339 12.9633 12.4436Z" fill="#CFCDC9"/>
</g>
</g>
</svg>
