<svg width="20" height="20" viewBox="0 0 20 20" fill="none" xmlns="http://www.w3.org/2000/svg">
<g id="fi_6710426">
<path id="Vector" d="M18.7058 14.2111L14.4892 10L18.3336 6.16112C18.6909 5.80378 18.8915 5.31918 18.8915 4.8139C18.8915 4.30862 18.6909 3.82402 18.3336 3.46668L16.5336 1.66668C16.1763 1.30945 15.6917 1.10876 15.1864 1.10876C14.6811 1.10876 14.1965 1.30945 13.8392 1.66668L10.0003 5.51112L5.78918 1.30001C5.73029 1.24055 5.6602 1.19335 5.58296 1.16114C5.50572 1.12892 5.42286 1.11234 5.33918 1.11234C5.25549 1.11234 5.17263 1.12892 5.09539 1.16114C5.01815 1.19335 4.94807 1.24055 4.88918 1.30001L1.29473 4.8889C1.23527 4.94779 1.18807 5.01788 1.15586 5.09512C1.12364 5.17236 1.10706 5.25522 1.10706 5.3389C1.10706 5.42259 1.12364 5.50545 1.15586 5.58269C1.18807 5.65993 1.23527 5.73001 1.29473 5.7889L5.5114 10L2.68362 12.8278C2.2302 13.2818 1.92594 13.8631 1.8114 14.4945L1.1114 18.1389C1.09363 18.2385 1.1 18.341 1.12996 18.4376C1.15993 18.5343 1.21262 18.6224 1.28362 18.6945C1.35546 18.7661 1.44332 18.8195 1.53993 18.8505C1.63653 18.8814 1.73911 18.8888 1.83918 18.8722L5.48362 18.1889C6.11547 18.0725 6.69684 17.7663 7.15029 17.3111L10.0003 14.4889L14.2114 18.7C14.3318 18.8174 14.4933 18.8831 14.6614 18.8831C14.8295 18.8831 14.991 18.8174 15.1114 18.7L18.7058 15.1056C18.8242 14.9868 18.8907 14.826 18.8907 14.6583C18.8907 14.4907 18.8242 14.3298 18.7058 14.2111ZM14.7392 2.54446C14.8595 2.42704 15.021 2.36133 15.1892 2.36133C15.3573 2.36133 15.5188 2.42704 15.6392 2.54446L17.4336 4.3389C17.5524 4.45857 17.619 4.62032 17.619 4.7889C17.619 4.95748 17.5524 5.11923 17.4336 5.2389L16.0225 6.66668L13.3336 3.97779L14.7392 2.54446ZM2.64473 5.32224L5.33918 2.64446L6.4114 3.71668L5.5114 4.61112L6.4114 5.51112L7.30584 4.61112L9.10029 6.40557L6.40584 9.10001L2.64473 5.32224ZM6.27251 16.4056C6.00217 16.6782 5.65537 16.8623 5.27807 16.9333L2.54473 17.4445L3.05584 14.7222C3.12505 14.3455 3.30718 13.9987 3.57807 13.7278L12.4281 4.87779L15.1225 7.57224L6.27251 16.4056ZM14.6614 17.3389L10.8947 13.5722L13.5892 10.8778L15.3836 12.6722L14.4836 13.5722L15.3836 14.4722L16.2836 13.5722L17.3558 14.6445L14.6614 17.3389Z" fill="#CFCDC9"/>
</g>
</svg>
