<svg width="20" height="20" viewBox="0 0 20 20" fill="none" xmlns="http://www.w3.org/2000/svg">
<g id="Promotion" clip-path="url(#clip0_3148_7319)">
<path id="Vector" d="M5.34966 12.5873C5.53643 12.4796 5.60036 12.2405 5.49264 12.0537C5.38476 11.8671 5.14581 11.803 4.95904 11.9107C4.77227 12.0186 4.70818 12.2577 4.81606 12.4443C4.92379 12.6311 5.1629 12.6952 5.34966 12.5873Z" fill="#CFCDC9"/>
<path id="Vector_2" d="M3.74938 15.2834L5.71655 18.6908C6.14105 19.4269 7.09594 19.6994 7.8511 19.2628C8.59832 18.831 8.85513 17.8763 8.42285 17.1284L7.25097 15.0984L8.26583 14.5125C8.4526 14.4044 8.51669 14.1656 8.40881 13.9789L7.90084 13.0991C7.96142 13.0873 8.35968 13.0092 15.3828 11.6315C16.2511 11.5843 16.7712 10.6348 16.3327 9.87564L15.0345 7.62711L15.8641 6.37054C15.9456 6.24695 15.9505 6.0881 15.8765 5.95993L15.0952 4.60678C15.0212 4.47861 14.8807 4.40353 14.7334 4.41223L13.2306 4.50241L11.7894 2.00607C11.5807 1.64444 11.2067 1.42548 10.7892 1.42029C10.7841 1.42014 10.7793 1.42014 10.7742 1.42014C10.3708 1.42014 10.0046 1.62094 9.78759 1.96045L4.68475 8.461L1.36733 10.3763C0.0625548 11.1293 -0.389411 12.8032 0.36651 14.1115C1.05712 15.3078 2.51312 15.7784 3.74938 15.2834ZM7.74642 17.5192C7.96218 17.8925 7.83447 18.3701 7.46017 18.5863C7.08465 18.8034 6.60644 18.67 6.39312 18.3003L4.44 14.917L5.79315 14.1357C8.05358 18.0515 7.71011 17.4565 7.74642 17.5192ZM6.86035 14.4217L6.46972 13.7451L7.1463 13.3545L7.53692 14.0311L6.86035 14.4217ZM14.5393 5.20645L15.0792 6.14151L14.5978 6.87057L13.6673 5.25879L14.5393 5.20645ZM10.441 2.38876C10.5458 2.21725 10.7121 2.19955 10.7796 2.20139C10.8462 2.20215 11.0124 2.2229 11.1127 2.39655L15.6561 10.2663C15.8041 10.5225 15.6242 10.8446 15.3274 10.8519C15.2742 10.8531 15.2496 10.8627 15.1132 10.8882L10.3072 2.56378C10.408 2.43408 10.421 2.42157 10.441 2.38876ZM9.78729 3.22601L14.3028 11.0472L7.48794 12.3839L5.4158 8.79486L9.78729 3.22601ZM1.04308 13.7209C0.871576 13.4241 0.780939 13.0872 0.780939 12.7463C0.780939 12.0496 1.15539 11.4008 1.75796 11.0529L4.80255 9.29504L6.75567 12.6779L3.71108 14.4359C2.77831 14.9742 1.58157 14.6535 1.04308 13.7209Z" fill="#CFCDC9"/>
<path id="Vector_3" d="M4.14071 12.8349C4.03283 12.6482 3.79388 12.5841 3.60711 12.6919L2.93053 13.0826C2.74407 13.1903 2.50466 13.1261 2.39693 12.9396C2.28905 12.7528 2.0501 12.6887 1.86333 12.7966C1.67657 12.9045 1.61248 13.1435 1.72036 13.3302C2.04186 13.8872 2.75903 14.0835 3.32116 13.7591L3.99773 13.3685C4.1845 13.2606 4.24859 13.0218 4.14071 12.8349Z" fill="#CFCDC9"/>
<path id="Vector_4" d="M19.4184 2.25572L17.2418 3.46696C17.0533 3.57194 16.9854 3.80983 17.0904 3.99827C17.1951 4.18657 17.4328 4.25477 17.6217 4.14964L19.7982 2.9384C19.9868 2.83342 20.0546 2.59553 19.9496 2.40709C19.8448 2.21849 19.6069 2.15074 19.4184 2.25572Z" fill="#CFCDC9"/>
<path id="Vector_5" d="M19.1906 6.30141L17.6814 5.89705C17.4729 5.84121 17.2587 5.9648 17.2029 6.17324C17.147 6.38167 17.2708 6.59575 17.4792 6.6516L18.9886 7.05596C19.1983 7.11226 19.4114 6.98668 19.467 6.77977C19.5228 6.57134 19.3991 6.35711 19.1906 6.30141Z" fill="#CFCDC9"/>
<path id="Vector_6" d="M15.3987 0.836475L14.9939 2.34587C14.938 2.55431 15.0616 2.76839 15.2701 2.82439C15.4784 2.88008 15.6926 2.75679 15.7486 2.54821L16.1532 1.03881C16.2091 0.830372 16.0855 0.616138 15.8771 0.560291C15.6688 0.504444 15.4545 0.62804 15.3987 0.836475Z" fill="#CFCDC9"/>
</g>
<defs>
<clipPath id="clip0_3148_7319">
<rect width="20" height="20" fill="white"/>
</clipPath>
</defs>
</svg>
