<svg width="20" height="20" viewBox="0 0 20 20" fill="none" xmlns="http://www.w3.org/2000/svg">
<g id="fi_8070762">
<path id="Vector" d="M16.8999 14.1167C16.2268 14.2842 15.5229 14.2842 14.8499 14.1167C13.9618 13.8937 13.0324 13.8937 12.1443 14.1167L11.2388 14.3444C10.6029 13.4168 9.85666 12.5699 9.01654 11.8222C9.32972 11.7974 9.64016 11.7454 9.94431 11.6667C10.6407 11.4903 11.3701 11.4903 12.0665 11.6667C12.9546 11.8896 13.884 11.8896 14.7721 11.6667C15.4684 11.4898 16.198 11.4898 16.8943 11.6667L18.1388 11.9778L18.4332 10.8056L17.6165 10.6C17.6084 9.14916 17.0499 7.75547 16.054 6.70043C15.058 5.64539 13.6988 5.00763 12.2508 4.91594C10.8028 4.82425 9.37404 5.28547 8.25296 6.20646C7.13189 7.12744 6.40209 8.43956 6.21098 9.87778C4.91004 9.18736 3.50719 8.70911 2.05543 8.46112L1.49987 8.36667L1.2832 9.55556L1.83876 9.65C3.81299 9.97898 5.6817 10.7693 7.29288 11.9567C8.90407 13.1441 10.2122 14.695 11.111 16.4833L12.3165 18.8889L13.3943 18.3333C12.9054 17.35 12.4388 16.35 11.8999 15.3889L12.4554 15.2556C13.1517 15.0783 13.8813 15.0783 14.5776 15.2556C15.4423 15.4701 16.3463 15.4701 17.211 15.2556L18.4332 15L18.1388 13.8278L16.8999 14.1167ZM11.8832 6.11112C13.0301 6.11272 14.1336 6.54948 14.9709 7.33317C15.8082 8.11686 16.3169 9.1891 16.3943 10.3333C15.7537 10.2721 15.1073 10.3209 14.4832 10.4778C13.7869 10.6551 13.0573 10.6551 12.361 10.4778C11.4729 10.2548 10.5435 10.2548 9.65543 10.4778C8.98236 10.6453 8.27849 10.6453 7.60542 10.4778L7.37209 10.4167C7.42904 9.25763 7.92883 8.16471 8.76829 7.3635C9.60774 6.5623 10.7228 6.11399 11.8832 6.11112Z" fill="#CFCDC9"/>
<path id="Vector_2" d="M11.2832 1.11111H12.4888V3.52778H11.2832V1.11111Z" fill="#CFCDC9"/>
<path id="Vector_3" d="M5.05469 4.18607L5.90714 3.33361L7.48242 4.90889L6.62996 5.76134L5.05469 4.18607Z" fill="#CFCDC9"/>
<path id="Vector_4" d="M16.2871 4.90732L17.8624 3.33204L18.7148 4.1845L17.1396 5.75977L16.2871 4.90732Z" fill="#CFCDC9"/>
</g>
</svg>
