<svg width="20" height="20" viewBox="0 0 20 20" fill="currentColor" xmlns="http://www.w3.org/2000/svg">
<g id="Team" clip-path="url(#clip0_3148_7289)">
<path id="Vector" d="M3.42375 8.14136C2.74422 8.14136 2.19141 8.69421 2.19141 9.3737C2.19141 10.0532 2.74422 10.606 3.42375 10.606C4.10328 10.606 4.65609 10.0532 4.65609 9.3737C4.65609 8.69421 4.10328 8.14136 3.42375 8.14136ZM3.42375 10.0201C3.0673 10.0201 2.77734 9.73019 2.77734 9.37374C2.77734 9.01729 3.0673 8.72733 3.42375 8.72733C3.7802 8.72733 4.07016 9.01729 4.07016 9.37374C4.07016 9.73019 3.7802 10.0201 3.42375 10.0201Z" fill="currentColor"/>
<path id="Vector_2" d="M15.3438 9.37376C15.3438 10.0533 15.8966 10.6061 16.5761 10.6061C17.2556 10.6061 17.8084 10.0533 17.8084 9.37376C17.8084 8.69427 17.2556 8.14142 16.5761 8.14142C15.8966 8.14142 15.3438 8.69423 15.3438 9.37376ZM17.2225 9.37376C17.2225 9.73021 16.9325 10.0202 16.5761 10.0202C16.2196 10.0202 15.9297 9.73021 15.9297 9.37376C15.9297 9.01732 16.2196 8.72736 16.5761 8.72736C16.9325 8.72736 17.2225 9.01732 17.2225 9.37376Z" fill="currentColor"/>
<path id="Vector_3" d="M19.4316 8.1123C19.3422 7.97738 19.1605 7.94051 19.0255 8.02981C18.8906 8.11914 18.8537 8.30094 18.943 8.43586C19.2512 8.90109 19.4141 9.44199 19.4141 10C19.4141 10.9 18.9925 11.7029 18.3371 12.2232C18.0882 11.4811 17.3896 10.9595 16.5757 10.9595C15.7695 10.9595 15.0661 11.4882 14.8152 12.2239C14.1593 11.7036 13.7373 10.9004 13.7373 10C13.7373 8.43496 15.0106 7.16168 16.5757 7.16168C17.1337 7.16168 17.6746 7.32453 18.1398 7.63266C18.2747 7.72199 18.4565 7.68504 18.5459 7.55016C18.6352 7.41523 18.5983 7.23348 18.4634 7.1441C17.9018 6.77223 17.2491 6.5757 16.5757 6.5757C16.3738 6.5757 16.176 6.5934 15.9837 6.62703C15.365 5.53043 14.4687 4.63355 13.3729 4.01562C13.4065 3.82348 13.4242 3.62586 13.4242 3.42422C13.4242 2.75082 13.2276 2.09805 12.8557 1.53652C12.7664 1.40164 12.5846 1.36473 12.4497 1.45402C12.3148 1.54336 12.2779 1.72516 12.3672 1.86004C12.6754 2.32535 12.8382 2.86621 12.8382 3.42422C12.8382 4.32422 12.4167 5.12707 11.7613 5.64746C11.5123 4.90531 10.8138 4.38375 9.99988 4.38375C9.19371 4.38375 8.49031 4.91246 8.23941 5.64812C7.58348 5.12777 7.16156 4.32461 7.16156 3.42422C7.16168 1.85922 8.43496 0.585938 10 0.585938C10.558 0.585938 11.0989 0.748789 11.5641 1.05695C11.699 1.14629 11.8808 1.10934 11.9702 0.974453C12.0595 0.83957 12.0226 0.657773 11.8877 0.568398C11.3262 0.196562 10.6734 0 10 0C8.11188 0 6.57574 1.53613 6.57574 3.42426C6.57574 3.62609 6.59344 3.82379 6.62707 4.01609C5.53188 4.63398 4.63457 5.53156 4.01621 6.62746C3.82191 6.5934 3.62402 6.5757 3.42426 6.5757C1.53613 6.57574 0 8.11184 0 10C0 11.8882 1.53613 13.4243 3.42426 13.4243C3.62602 13.4243 3.82371 13.4066 4.01598 13.373C4.63426 14.4692 5.53078 15.3657 6.62703 15.984C6.5934 16.1763 6.5757 16.374 6.5757 16.5757C6.57574 18.4639 8.11188 20 10 20C11.8881 20 13.4243 18.4639 13.4243 16.5757C13.4243 16.3757 13.4065 16.1777 13.3724 15.9831C14.4695 15.3646 15.3662 14.4699 15.9846 13.373C16.1767 13.4066 16.3741 13.4243 16.5757 13.4243C18.4639 13.4243 20 11.8882 20 10C20 9.32656 19.8034 8.67383 19.4316 8.1123ZM10 4.96977C10.6073 4.96977 11.1209 5.39348 11.2444 5.97461C10.8684 6.15883 10.4462 6.26262 10 6.26262C9.55398 6.26262 9.13188 6.15891 8.75598 5.97484C8.88016 5.39992 9.39812 4.96977 10 4.96977ZM2.18023 12.5505C2.30441 11.9757 2.82238 11.5455 3.42426 11.5455C4.03156 11.5455 4.5452 11.9692 4.66867 12.5504C4.29266 12.7346 3.87039 12.8384 3.42426 12.8384C2.97824 12.8383 2.55613 12.7346 2.18023 12.5505ZM8.75598 19.1262C8.88016 18.5514 9.39812 18.1212 10 18.1212C10.6073 18.1212 11.1209 18.5449 11.2444 19.1261C10.8684 19.3103 10.4462 19.4141 10 19.4141C9.55398 19.4141 9.13188 19.3104 8.75598 19.1262ZM13.2149 15.398C13.1237 15.1499 13.0039 14.9116 12.8559 14.688C12.7666 14.5531 12.5848 14.5162 12.4498 14.6055C12.3149 14.6949 12.278 14.8766 12.3673 15.0116C12.6755 15.4769 12.8384 16.0178 12.8384 16.5758C12.8384 17.4757 12.4168 18.2786 11.7614 18.799C11.5124 18.0569 10.8139 17.5354 10 17.5354C9.19383 17.5354 8.49043 18.064 8.23953 18.7997C7.58359 18.2794 7.16168 17.4762 7.16168 16.5758C7.16168 15.0108 8.43496 13.7375 10 13.7375C10.558 13.7375 11.0989 13.9004 11.5641 14.2085C11.699 14.2978 11.8808 14.2609 11.9702 14.126C12.0595 13.9911 12.0226 13.8093 11.8877 13.72C11.3261 13.3481 10.6734 13.1516 9.99996 13.1516C8.52566 13.1516 7.26602 14.0881 6.78465 15.3975C5.88426 14.8612 5.13863 14.1158 4.60227 13.2155C5.91184 12.7343 6.84852 11.4745 6.84852 10.0001C6.84852 9.32672 6.65195 8.67398 6.28012 8.11242C6.19074 7.9775 6.00898 7.94062 5.87406 8.02992C5.73918 8.11926 5.70223 8.30105 5.79156 8.43598C6.09973 8.90129 6.26258 9.44219 6.26258 10.0002C6.26258 10.9002 5.84105 11.703 5.18559 12.2234C4.93668 11.4812 4.23813 10.9597 3.42422 10.9597C2.61805 10.9597 1.91465 11.4884 1.66375 12.2241C1.00785 11.7036 0.585938 10.9004 0.585938 10C0.585938 8.43496 1.85922 7.16168 3.42426 7.16168C3.98227 7.16168 4.52313 7.32453 4.9884 7.63266C5.12324 7.72199 5.30508 7.68504 5.39441 7.55016C5.48375 7.41523 5.44684 7.23348 5.31191 7.1441C5.0882 6.99598 4.84988 6.87617 4.60168 6.785C5.13816 5.88465 5.88477 5.13844 6.78453 4.60227C7.26582 5.9118 8.52555 6.84852 9.99996 6.84852C11.4744 6.84852 12.7341 5.91184 13.2154 4.6023C14.1154 5.1384 14.8611 5.88387 15.3977 6.78453C14.0881 7.26578 13.1514 8.52555 13.1514 10C13.1514 11.4744 14.0881 12.7342 15.3977 13.2154C14.8613 14.1164 14.1161 14.8615 13.2149 15.398ZM15.3317 12.5505C15.4559 11.9756 15.9739 11.5455 16.5757 11.5455C17.183 11.5455 17.6966 11.9692 17.8202 12.5503C17.4442 12.7345 17.0219 12.8383 16.5757 12.8383C16.1297 12.8383 15.7076 12.7346 15.3317 12.5505Z" fill="currentColor"/>
<path id="Vector_4" d="M8.76758 2.79802C8.76758 3.47755 9.32039 4.0304 9.99992 4.0304C10.6795 4.0304 11.2323 3.47755 11.2323 2.79802C11.2323 2.11849 10.6795 1.56567 9.99992 1.56567C9.32039 1.56567 8.76758 2.11849 8.76758 2.79802ZM10.6463 2.79802C10.6463 3.15446 10.3564 3.44446 9.99992 3.44446C9.64348 3.44446 9.35352 3.15446 9.35352 2.79802C9.35352 2.44157 9.64348 2.15161 9.99992 2.15161C10.3564 2.15161 10.6463 2.44157 10.6463 2.79802Z" fill="currentColor"/>
<path id="Vector_5" d="M9.99992 14.7171C9.32039 14.7171 8.76758 15.27 8.76758 15.9495C8.76758 16.629 9.32039 17.1818 9.99992 17.1818C10.6795 17.1818 11.2323 16.629 11.2323 15.9495C11.2323 15.27 10.6795 14.7171 9.99992 14.7171ZM9.99992 16.5959C9.64348 16.5959 9.35352 16.3059 9.35352 15.9494C9.35352 15.593 9.64348 15.303 9.99992 15.303C10.3564 15.303 10.6463 15.593 10.6463 15.9494C10.6463 16.3059 10.3564 16.5959 9.99992 16.5959Z" fill="currentColor"/>
</g>
<defs>
<clipPath id="clip0_3148_7289">
<rect width="20" height="20" fill="currentColor"/>
</clipPath>
</defs>
</svg>
