<svg width="32" height="32" viewBox="0 0 32 32" fill="none" xmlns="http://www.w3.org/2000/svg">
<rect width="32" height="32" rx="4" fill="#FFE9E5"/>
<path d="M13 5V7H19V5H21V7H25C25.2652 7 25.5196 7.10536 25.7071 7.29289C25.8946 7.48043 26 7.73478 26 8V24C26 24.2652 25.8946 24.5196 25.7071 24.7071C25.5196 24.8946 25.2652 25 25 25H7C6.73478 25 6.48043 24.8946 6.29289 24.7071C6.10536 24.5196 6 24.2652 6 24V8C6 7.73478 6.10536 7.48043 6.29289 7.29289C6.48043 7.10536 6.73478 7 7 7H11V5H13ZM24 12H8V23H24V12ZM19.036 14.136L20.45 15.55L15.5 20.5L11.964 16.964L13.38 15.55L15.501 17.672L19.036 14.136Z" fill="#ED4C41"/>
</svg>
