<svg width="32" height="32" viewBox="0 0 32 32" fill="none" xmlns="http://www.w3.org/2000/svg">
<rect width="32" height="32" rx="4" fill="#FDF7E9"/>
<path d="M15.9997 7C15.204 7 14.441 7.31607 13.8784 7.87868C13.3158 8.44129 12.9997 9.20435 12.9997 10V14C12.9997 14.7956 13.3158 15.5587 13.8784 16.1213C14.441 16.6839 15.204 17 15.9997 17C16.7953 17 17.5584 16.6839 18.121 16.1213C18.6836 15.5587 18.9997 14.7956 18.9997 14V10C18.9997 9.20435 18.6836 8.44129 18.121 7.87868C17.5584 7.31607 16.7953 7 15.9997 7ZM15.9997 5C16.6563 5 17.3065 5.12933 17.9131 5.3806C18.5197 5.63188 19.0709 6.00017 19.5352 6.46447C19.9995 6.92876 20.3678 7.47995 20.6191 8.08658C20.8704 8.69321 20.9997 9.34339 20.9997 10V14C20.9997 15.3261 20.4729 16.5979 19.5352 17.5355C18.5975 18.4732 17.3258 19 15.9997 19C14.6736 19 13.4018 18.4732 12.4642 17.5355C11.5265 16.5979 10.9997 15.3261 10.9997 14V10C10.9997 8.67392 11.5265 7.40215 12.4642 6.46447C13.4018 5.52678 14.6736 5 15.9997 5ZM7.05469 15H9.06969C9.31198 16.6648 10.1456 18.1867 11.4179 19.2873C12.6903 20.3879 14.3164 20.9936 15.9987 20.9936C17.681 20.9936 19.3071 20.3879 20.5795 19.2873C21.8518 18.1867 22.6854 16.6648 22.9277 15H24.9437C24.7163 17.0287 23.8063 18.9199 22.3629 20.3635C20.9195 21.8071 19.0284 22.7174 16.9997 22.945V27H14.9997V22.945C12.9708 22.7176 11.0795 21.8074 9.63586 20.3638C8.19226 18.9202 7.2821 17.0289 7.05469 15Z" fill="#FFBC00"/>
</svg>
