<svg width="41" height="41" viewBox="0 0 41 41" fill="none" xmlns="http://www.w3.org/2000/svg">
<g clip-path="url(#clip0_3728_7732)">
<path d="M41 20.5C41 31.822 31.822 41 20.5 41C9.17802 41 0 31.822 0 20.5C0 9.17802 9.17802 0 20.5 0C31.822 0 41 9.17802 41 20.5Z" fill="#ccc"/>
<path d="M25.1608 19.8544C27.0439 18.4361 28.2638 16.1827 28.2638 13.6493C28.2638 9.36852 24.7811 5.88574 20.5 5.88574C16.2193 5.88574 12.7365 9.36852 12.7365 13.6493C12.7365 16.1827 13.9561 18.4361 15.8392 19.8544C10.7974 21.7468 7.19922 26.6166 7.19922 32.3115H9.60156C9.60156 26.3019 14.4907 21.4131 20.5003 21.4131C26.5096 21.4131 31.3988 26.3019 31.3988 32.3115H33.8011C33.8008 26.6166 30.2029 21.7468 25.1608 19.8544V19.8544ZM15.1388 13.6493C15.1388 10.6929 17.5437 8.28809 20.5 8.28809C23.4563 8.28809 25.8612 10.6929 25.8612 13.6493C25.8612 16.6056 23.4563 19.0107 20.5 19.0107C17.5437 19.0107 15.1388 16.6056 15.1388 13.6493V13.6493Z" fill="white"/>
</g>
<defs>
<clipPath id="clip0_3728_7732">
<rect width="41" height="41" fill="white"/>
</clipPath>
</defs>
</svg>
