<svg xmlns:xlink="http://www.w3.org/1999/xlink" xmlns="http://www.w3.org/2000/svg" fill="none" viewBox="0 0 78 22" height="22" width="78">
<g clip-path="url(#clip0_2207_2268)">
<path fill="#451451" d="M8.5 2.5C6.81886 2.5 5.17547 2.99852 3.77766 3.93251C2.37984 4.8665 1.29037 6.19402 0.647028 7.74719C0.00368292 9.30036 -0.164645 11.0094 0.163329 12.6583C0.491303 14.3071 1.30085 15.8217 2.4896 17.0104C3.67834 18.1992 5.1929 19.0087 6.84174 19.3367C8.49057 19.6646 10.1996 19.4963 11.7528 18.853C13.306 18.2096 14.6335 17.1202 15.5675 15.7223C16.5015 14.3245 17 12.6811 17 11C16.9975 8.74643 16.1012 6.58588 14.5076 4.99237C12.9141 3.39885 10.7536 2.50251 8.5 2.5ZM8.5 2.94119C10.5713 2.9428 12.5626 3.74129 14.0611 5.17118C15.5597 6.60107 16.4506 8.55273 16.5493 10.6217C15.68 9.77843 12.4422 6.91545 8.5 6.91545C4.55777 6.91545 1.32001 9.77843 0.450681 10.6217C0.549371 8.55273 1.44032 6.60107 2.93888 5.17118C4.43744 3.74129 6.42871 2.9428 8.5 2.94119ZM16.3026 11.0059C15.5768 11.7175 12.3296 14.6493 8.5 14.6493C4.67044 14.6493 1.42319 11.7069 0.698553 11C1.42319 10.2931 4.67162 7.36256 8.5 7.36256C12.3284 7.36256 15.5768 10.2931 16.3026 11V11.0059ZM8.5 19.0707C6.42675 19.0689 4.43381 18.2688 2.93494 16.8364C1.43607 15.404 0.546415 13.4494 0.450681 11.3783C1.32001 12.2228 4.55895 15.0846 8.5 15.0846C12.4411 15.0846 15.68 12.2251 16.5493 11.3783C16.4506 13.4473 15.5597 15.3989 14.0611 16.8288C12.5626 18.2587 10.5713 19.0572 8.5 19.0588V19.0707Z"></path>
<path fill="#451451" d="M7.18118 11C7.18118 11.2608 7.25853 11.5158 7.40344 11.7327C7.54836 11.9496 7.75433 12.1186 7.99531 12.2184C8.2363 12.3182 8.50147 12.3443 8.75729 12.2935C9.01312 12.2426 9.24811 12.117 9.43255 11.9325C9.61699 11.7481 9.7426 11.5131 9.79349 11.2573C9.84437 11.0014 9.81826 10.7363 9.71844 10.4953C9.61862 10.2543 9.44958 10.0483 9.2327 9.90341C9.01582 9.7585 8.76084 9.68115 8.50001 9.68115C8.32681 9.68115 8.15532 9.71527 7.99531 9.78154C7.83531 9.84782 7.68992 9.94496 7.56746 10.0674C7.44499 10.1899 7.34785 10.3353 7.28157 10.4953C7.2153 10.6553 7.18118 10.8268 7.18118 11Z"></path>
</g>
<path fill="#451451" d="M29.48 9.784C28.68 9.464 28.2 9.112 28.2 8.44C28.2 7.864 28.856 7.528 29.48 7.528C30.344 7.528 30.952 7.912 31.448 8.36L32.568 6.856C31.144 5.544 29.864 5.608 29.512 5.608C27.624 5.608 26.152 6.808 26.152 8.44C26.152 10.2 27.304 11.112 29.608 11.992C30.488 12.328 31.144 12.904 31.144 13.864C31.144 14.52 30.456 15.208 29.416 15.208C28.52 15.208 27.496 14.68 26.696 13.64L25.512 15.08C25.784 15.528 27.272 17.128 29.416 17.128C31.688 17.128 33.192 15.56 33.192 13.768C33.192 11.32 31.384 10.552 29.48 9.784ZM39.9111 5.736H37.1271V17H39.1751V13.288H40.1671C42.6951 13.288 44.2951 11.528 44.2951 9.512C44.2951 7.496 42.9511 5.736 39.9111 5.736ZM40.2791 11.368H39.1751V7.656H40.2791C41.3831 7.656 42.2471 8.344 42.2471 9.512C42.2471 10.552 41.3831 11.368 40.2791 11.368ZM53.8036 17H56.0436L52.0756 5.736H50.2836L46.3156 17H48.5556L49.2276 14.952H53.1316L53.8036 17ZM49.8356 13.16L51.1796 9.096L52.5236 13.16H49.8356ZM63.4444 15.208C61.5564 15.208 60.2444 13.496 60.2444 11.368C60.2444 9.24 61.5564 7.528 63.4444 7.528C64.5164 7.528 65.2364 8.072 65.7964 8.936L67.4124 7.816C66.5484 6.424 65.1564 5.608 63.4444 5.608C60.2924 5.608 58.1964 8.184 58.1964 11.368C58.1964 14.552 60.2924 17.128 63.4444 17.128C65.1564 17.128 66.5484 16.312 67.4124 14.92L65.7964 13.8C65.2364 14.664 64.5164 15.208 63.4444 15.208ZM77.1117 7.656V5.736H70.9677V17H77.1117V15.08H73.0157V12.328H76.0877V10.408H73.0157V7.656H77.1117Z"></path>
<defs>
<clipPath id="clip0_2207_2268">
<rect transform="translate(0 2.5)" fill="white" height="17" width="17"></rect>
</clipPath>
</defs>
</svg>