<svg width="17" height="9" viewBox="0 0 17 9" fill="none" xmlns="http://www.w3.org/2000/svg">
<path d="M7.07016 4.77844C7.85498 4.34415 7.85498 3.63351 7.07016 3.19923L1.99838 0.394821C1.21219 -0.0394606 0.570312 0.315861 0.570312 1.18442V6.79324C0.570312 7.66181 1.21219 8.01713 1.99838 7.58285L7.07016 4.77844Z" fill="#A0D3F8"/>
<path d="M2.78496 4.77844C1.99876 4.34415 1.99876 3.63351 2.78496 3.19923L7.85672 0.394821C8.64292 -0.0394606 9.28617 0.315861 9.28617 1.18442V6.79324C9.28617 7.66181 8.64292 8.01713 7.85672 7.58285L2.78496 4.77844Z" fill="#1E79C3"/>
<path d="M11.8955 8.07785C11.4586 8.07612 11.0401 7.90918 10.7312 7.6134C10.4223 7.31761 10.248 6.91694 10.2461 6.49864V3.6666C10.2459 3.66282 10.2467 3.65905 10.2487 3.65573C10.2506 3.65242 10.2534 3.64969 10.2569 3.64789C10.2604 3.64609 10.2643 3.64528 10.2683 3.64556C10.2722 3.64585 10.276 3.64721 10.2791 3.64949L15.6066 7.18165C16.3515 7.67778 16.2196 8.0818 15.3124 8.08048L11.8955 8.07785Z" fill="#1E79C3"/>
<path d="M14.3805 4.48839C15.1653 4.05411 15.1653 3.34347 14.3805 2.90919L11.6742 1.41289C10.8893 0.978606 10.2461 1.33393 10.2461 2.20249V6.73876C10.2461 6.74248 10.247 6.74613 10.249 6.74936C10.2509 6.75259 10.2537 6.75527 10.257 6.75714C10.2603 6.75901 10.2642 6.76 10.268 6.76001C10.2719 6.76002 10.2757 6.75904 10.2791 6.75719L14.3805 4.48839Z" fill="#3996E3"/>
<path d="M11.8955 0.134323C11.4586 0.136055 11.0401 0.302991 10.7312 0.598775C10.4223 0.894559 10.2479 1.29523 10.2461 1.71353V4.58111L15.5969 1.02789C16.3418 0.533072 16.2099 0.129058 15.3027 0.130374L11.8955 0.134323Z" fill="#A0D3F8"/>
</svg>
