<svg xmlns="http://www.w3.org/2000/svg" viewBox="0 0 241.85 241.85"><defs><style>.cls-1{fill:#c6f8f9;}.cls-2{fill:#a5f2f2;}.cls-3{fill:#002739;}.cls-4{fill:#33d6e1;}.cls-5{fill:#116e84;}.cls-6{fill:#083d4f;}</style></defs><g id="Layer_2" data-name="Layer 2"><g id="Layer_1-2" data-name="Layer 1"><circle className="cls-1" cx="120.92" cy="120.92" r="120.92"/><path className="cls-2" d="M99.92,158.68H94.77c-5.54,0-5.56-8.4,0-8.4h5.15a4.21,4.21,0,0,0,4.2-4.21V136c0-5.54,8.41-5.56,8.41,0v10.08A12.63,12.63,0,0,1,99.92,158.68Z"/><path className="cls-3" d="M83.11,183.89a12.53,12.53,0,0,1-12.24-9.61l-4.8-44.57a4.21,4.21,0,0,1,4.18-4.65H87.57a4.2,4.2,0,0,1,4.18,3.82s2.65,30.73,3.7,40C96.24,175.92,91.54,183.89,83.11,183.89Z"/><path className="cls-4" d="M197.11,108.26a4.05,4.05,0,0,1-4.2,4.2H176.1a4.21,4.21,0,0,1,0-8.41h16.81A4.05,4.05,0,0,1,197.11,108.26Z"/><path className="cls-4" d="M174.22,87.69,191,79.28c5-2.47,8.72,5,3.76,7.52L178,95.21C172.94,97.71,169.31,90.14,174.22,87.69Z"/><path className="cls-2" d="M191,137.23l-16.81-8.41c-4.93-2.46-1.24-10,3.76-7.52l16.81,8.41C199.73,132.18,196,139.71,191,137.23Z"/><path className="cls-2" d="M197.11,108.26a4.05,4.05,0,0,1-4.2,4.2H176.1a4.05,4.05,0,0,1-4.2-4.2Z"/><path className="cls-5" d="M91.52,83H66.3A12.59,12.59,0,0,0,53.7,95.65v25.21a12.59,12.59,0,0,0,12.6,12.61H91.52a4.16,4.16,0,0,0,4.2-4.2v-42A4.16,4.16,0,0,0,91.52,83Z"/><path className="cls-6" d="M53.7,108.26h42v21a4.16,4.16,0,0,1-4.2,4.2H66.3a12.59,12.59,0,0,1-12.6-12.61Z"/><path className="cls-2" d="M140.59,66.49,90.84,83v50.43L140.59,150a4.14,4.14,0,0,0,5.55-4V70.44A4.19,4.19,0,0,0,140.59,66.49Z"/><path className="cls-5" d="M137.74,70.44v75.63c0,16.64,25.21,16.64,25.21,0V70.44C163,53.8,137.74,53.8,137.74,70.44Z"/><path className="cls-4" d="M146.14,108.26v37.81a4.14,4.14,0,0,1-5.55,4L90.84,133.47V108.26Z"/><path className="cls-6" d="M137.74,108.26H163v37.81c0,16.64-25.21,16.64-25.21,0Z"/></g></g></svg>