<svg xmlns="http://www.w3.org/2000/svg" viewBox="0 0 241.85 241.85"><defs><style>.cls-1{fill:#fcdccc;}.cls-2{fill:#f57d34;}.cls-3{fill:#ce5511;}.cls-4{fill:#601800;}.cls-5{fill:#ed4c41;}.cls-6{fill:#c63434;}</style></defs><g id="Layer_2" data-name="Layer 2"><g id="Layer_1-2" data-name="Layer 1"><circle className="cls-1" cx="120.92" cy="120.92" r="120.92"/><path className="cls-2" d="M160,169.12l-27.32-102,7.84-25.61a7.45,7.45,0,0,0-7.12-9.63H108.82a7.45,7.45,0,0,0-7.13,9.63l7.81,25.59L81.86,169a3.74,3.74,0,0,0,.88,3.53l33,35.2a7,7,0,0,0,10.21,0l33.13-35.09a3.75,3.75,0,0,0,.89-3.53Z"/><path className="cls-3" d="M160,169.12l-27.32-102,7.84-25.61a7.45,7.45,0,0,0-7.12-9.63H120.92v178a6.93,6.93,0,0,0,5-2.2l33.13-35.1A3.72,3.72,0,0,0,160,169.12Z"/><path className="cls-3" d="M132.68,67.14H109.52l-7.83-25.61a7.45,7.45,0,0,1,7.13-9.63h24.57a7.45,7.45,0,0,1,7.12,9.63Z"/><path className="cls-4" d="M133.39,31.9H120.92V67.14h11.76l7.83-25.61A7.45,7.45,0,0,0,133.39,31.9Z"/><path className="cls-5" d="M150.63,134.2l-52,55.27,7.21,7.69,48-51Z"/><path className="cls-5" d="M142.06,102.21,82.93,165.05,81.86,169a3.74,3.74,0,0,0,.88,3.53l3.8,4.05,58.72-62.42Z"/><path className="cls-5" d="M133.49,70.22,98.6,107.29l-5.85,21.58,43.94-46.7Z"/><path className="cls-6" d="M120.92,181.13V165.78"/><path className="cls-6" d="M150.63,134.2l-29.71,31.58v15.35l32.92-35Z"/><path className="cls-6" d="M142.06,102.21l-21.14,22.46V140l24.34-25.87Z"/><path className="cls-6" d="M120.92,140V124.67"/><path className="cls-6" d="M133.49,70.22,120.92,83.57V98.92l15.77-16.75Z"/><path className="cls-6" d="M120.92,98.92V83.57"/></g></g></svg>