<svg xmlns="http://www.w3.org/2000/svg" viewBox="0 0 241.85 241.85"><defs><style>.cls-1{fill:#f5ffef;}.cls-2{fill:#0c1e00;}.cls-3{fill:#445b34;}.cls-4{fill:#2f7400;}.cls-5{fill:#fff;}.cls-6{fill:#ededed;}</style></defs><g id="Layer_2" data-name="Layer 2"><g id="Layer_1-2" data-name="Layer 1"><circle className="cls-1" cx="120.92" cy="120.92" r="120.92"/><path className="cls-2" d="M106.78,98.66h28.29v45.9H106.78Z"/><path className="cls-2" d="M134.23,78.34V72a14,14,0,0,1,27-5.35l2.26,5.49"/><path className="cls-2" d="M128.25,94.45v54l40.49-7.41,28-5.13L175.76,85a24.68,24.68,0,0,0-22.82-15.27c-.43,0-.84,0-1.26,0A24.69,24.69,0,0,0,128.25,94.45Z"/><path className="cls-3" d="M151.68,69.79l17.06,71.29,28-5.13L175.76,85a24.68,24.68,0,0,0-22.82-15.27C152.51,69.76,152.1,69.77,151.68,69.79Z"/><path className="cls-4" d="M199.05,148.49a35.4,35.4,0,1,1-35.4-35.4A35.4,35.4,0,0,1,199.05,148.49Z"/><path className="cls-2" d="M188.68,148.49a25,25,0,1,1-25-25A25,25,0,0,1,188.68,148.49Z"/><path className="cls-5" d="M139.23,143a25,25,0,0,0,48.84,0,25,25,0,0,0-48.84,0Z"/><path className="cls-2" d="M78.35,72.13l2.27-5.49a14,14,0,0,1,27,5.35v6.35"/><path className="cls-3" d="M113.6,94.45v54l-40.5-7.41-28-5.13L66.09,85A24.68,24.68,0,0,1,88.91,69.76q.63,0,1.26,0A24.69,24.69,0,0,1,113.6,94.45Z"/><path className="cls-2" d="M90.17,69.79,73.1,141.08l-28-5.13L66.09,85A24.68,24.68,0,0,1,88.91,69.76Q89.54,69.76,90.17,69.79Z"/><path className="cls-4" d="M113.6,148.49a35.4,35.4,0,1,1-35.4-35.4A35.4,35.4,0,0,1,113.6,148.49Z"/><path className="cls-2" d="M103.23,148.49a25,25,0,1,1-25-25A25,25,0,0,1,103.23,148.49Z"/><path className="cls-5" d="M102.62,143a25,25,0,0,1-48.84,0,25,25,0,0,1,48.84,0Z"/><path className="cls-6" d="M68.47,148.49a24.91,24.91,0,0,0,3.82,13.3A25.07,25.07,0,0,1,53.78,143a25.06,25.06,0,0,1,32.07-18.32A25,25,0,0,0,68.47,148.49Z"/><path className="cls-6" d="M153.91,148.49a24.83,24.83,0,0,0,3.83,13.3A25.06,25.06,0,0,1,139.23,143a25.05,25.05,0,0,1,32.06-18.32A25,25,0,0,0,153.91,148.49Z"/></g></g></svg>