<svg width="13" height="13" viewBox="0 0 13 13" fill="none" xmlns="http://www.w3.org/2000/svg">
<path d="M6.5 0C2.91027 0 0 2.91027 0 6.5C0 10.0897 2.91027 13 6.5 13C10.0897 13 13 10.0897 13 6.5C13 2.91027 10.0897 0 6.5 0ZM10.207 5.42395L6.30018 9.52682C6.19371 9.63851 6.06579 9.72756 5.92408 9.78864C5.78237 9.84972 5.6298 9.88157 5.47549 9.88229H5.47041C5.31696 9.88233 5.16507 9.85153 5.02375 9.79174C4.88243 9.73194 4.75457 9.64435 4.64775 9.53418L2.57461 7.39857C2.46749 7.29105 2.3828 7.16333 2.32544 7.02281C2.26808 6.88229 2.23921 6.73178 2.24048 6.58001C2.24176 6.42824 2.27317 6.27824 2.33289 6.13871C2.3926 5.99918 2.47944 5.8729 2.58835 5.76719C2.69727 5.66149 2.82609 5.57847 2.96735 5.52296C3.1086 5.46744 3.25948 5.44054 3.41121 5.4438C3.56295 5.44706 3.71253 5.48043 3.85127 5.54197C3.99001 5.6035 4.11514 5.69198 4.21941 5.80227L5.46229 7.08246L8.54699 3.84313C8.65079 3.73413 8.77504 3.64664 8.91265 3.58566C9.05026 3.52468 9.19853 3.4914 9.349 3.48772C9.49947 3.48404 9.6492 3.51004 9.78962 3.56422C9.93005 3.6184 10.0584 3.69972 10.1674 3.80352C10.2764 3.90731 10.3639 4.03156 10.4249 4.16917C10.4859 4.30678 10.5192 4.45506 10.5228 4.60553C10.5265 4.756 10.5005 4.90572 10.4463 5.04614C10.3921 5.18657 10.3108 5.31495 10.207 5.42395Z" fill="#1E803F"/>
</svg>
