<svg width="183" height="183" viewBox="0 0 183 183" fill="none" xmlns="http://www.w3.org/2000/svg">
<path d="M183 176.552H0V177.47H183V176.552Z" fill="#0E1738"/>
<path d="M83.8739 54.5247V90.0561H50.4443V46.4846H75.8493L83.8739 54.5247Z" fill="#E8E9FD"/>
<path d="M83.8732 54.5247H77.8571C77.5935 54.5253 77.3325 54.4738 77.0888 54.3731C76.8452 54.2724 76.6237 54.1246 76.4372 53.938C76.2506 53.7514 76.1026 53.5297 76.0016 53.2857C75.9006 53.0416 75.8486 52.78 75.8486 52.5159V46.4846L83.8732 54.5247Z" fill="#CFD7FE"/>
<path d="M66.873 72.2606C66.7637 72.257 66.6561 72.2319 66.5564 72.1866C66.4567 72.1414 66.367 72.0769 66.2922 71.9968C66.2174 71.9167 66.1591 71.8226 66.1206 71.7199C66.0821 71.6173 66.0642 71.508 66.0678 71.3983L66.2142 67.2705C66.2226 67.0495 66.3176 66.8407 66.4787 66.6896C66.6398 66.5384 66.8538 66.4571 67.0743 66.4633C67.5437 66.4802 68.0076 66.3573 68.4072 66.1099C68.8069 65.8625 69.1243 65.5019 69.3195 65.0736C69.5147 64.6453 69.5788 64.1686 69.5037 63.7038C69.4285 63.239 69.2176 62.807 68.8976 62.4624C68.5775 62.1178 68.1627 61.8761 67.7056 61.7678C67.2485 61.6596 66.7696 61.6897 66.3296 61.8543C65.8895 62.019 65.5081 62.3107 65.2335 62.6927C64.9589 63.0747 64.8034 63.5298 64.7868 64.0004C64.7832 64.11 64.7581 64.2178 64.713 64.3177C64.6678 64.4176 64.6034 64.5076 64.5236 64.5826C64.4437 64.6575 64.3499 64.716 64.2475 64.7546C64.1451 64.7932 64.0361 64.8112 63.9267 64.8076C63.8174 64.804 63.7098 64.7788 63.6102 64.7335C63.5106 64.6882 63.4208 64.6237 63.346 64.5436C63.2712 64.4636 63.2129 64.3695 63.1744 64.2669C63.1359 64.1642 63.1179 64.0549 63.1215 63.9453C63.1467 63.1792 63.3879 62.436 63.8173 61.8017C64.2467 61.1675 64.8467 60.6683 65.5476 60.362C66.2485 60.0557 67.0216 59.9549 67.7774 60.0712C68.5331 60.1875 69.2405 60.5162 69.8174 61.0192C70.3944 61.5221 70.8173 62.1788 71.0372 62.9129C71.257 63.6471 71.2648 64.4287 71.0595 65.167C70.8543 65.9054 70.4444 66.5703 69.8776 67.0847C69.3107 67.5991 68.61 67.9418 67.8567 68.0731L67.7423 71.4396C67.7406 71.5512 67.7165 71.6614 67.6716 71.7635C67.6267 71.8656 67.5618 71.9577 67.4807 72.0342C67.3997 72.1108 67.3041 72.1703 67.1998 72.2091C67.0954 72.248 66.9843 72.2655 66.873 72.2606Z" fill="#CFD7FE"/>
<path d="M68.2318 75.1913C68.2244 75.4566 68.1385 75.7137 67.985 75.93C67.8316 76.1463 67.6175 76.312 67.3699 76.406C67.1224 76.5001 66.8525 76.5183 66.5946 76.4583C66.3367 76.3984 66.1024 76.263 65.9214 76.0693C65.7405 75.8756 65.621 75.6323 65.5781 75.3704C65.5353 75.1085 65.5711 74.8397 65.6809 74.5982C65.7907 74.3567 65.9696 74.1534 66.1949 74.014C66.4202 73.8746 66.6817 73.8055 66.9462 73.8154C67.2978 73.8297 67.6296 73.982 67.8701 74.2395C68.1106 74.4969 68.2405 74.8388 68.2318 75.1913Z" fill="#CFD7FE"/>
<path d="M33.9602 34.4314L47.5205 67.2568L16.6301 80.0805L0 39.8251L23.4743 30.0789L33.9602 34.4314Z" fill="#E8E9FD"/>
<path d="M33.9605 34.4314L28.3973 36.7247C28.1537 36.826 27.8926 36.8781 27.6288 36.8781C27.3651 36.8781 27.104 36.8258 26.8605 36.7244C26.6169 36.623 26.3958 36.4744 26.2096 36.2871C26.0235 36.0999 25.8761 35.8776 25.7758 35.6331L23.4883 30.0605L33.9605 34.4314Z" fill="#CFD7FE"/>
<path d="M18.2474 60.3222L22.8799 62.2458L29.2772 46.7626L24.6447 44.8389L18.2474 60.3222Z" fill="#CFD7FE"/>
<path d="M16.996 48.0146L15.0771 52.6588L30.5217 59.0721L32.4405 54.428L16.996 48.0146Z" fill="#CFD7FE"/>
<path d="M57.014 11.4395C56.8107 11.5083 56.5886 11.4939 56.3958 11.3994C56.2031 11.3049 56.0553 11.138 55.9846 10.9349L54.6853 7.1557C54.6501 7.05485 54.6352 6.948 54.6414 6.84133C54.6477 6.73466 54.6751 6.63031 54.7219 6.53431C54.7687 6.43832 54.834 6.35259 54.9142 6.28212C54.9943 6.21164 55.0875 6.15781 55.1886 6.12374C55.6135 5.97306 55.9845 5.69991 56.2551 5.33857C56.5257 4.97722 56.6837 4.5438 56.7095 4.09271C56.7352 3.64162 56.6274 3.19295 56.3997 2.80305C56.172 2.41314 55.8344 2.09936 55.4294 1.90111C55.0244 1.70285 54.57 1.62895 54.1233 1.68869C53.6765 1.74842 53.2574 1.93913 52.9183 2.23686C52.5793 2.5346 52.3356 2.9261 52.2178 3.36221C52.0999 3.79832 52.1132 4.25962 52.256 4.68818C52.3246 4.89196 52.3103 5.11467 52.216 5.3079C52.1218 5.50113 51.9553 5.64927 51.7527 5.72014C51.6522 5.75546 51.5456 5.77041 51.4392 5.76412C51.3328 5.75783 51.2287 5.73042 51.1329 5.68349C51.0372 5.63656 50.9516 5.57104 50.8813 5.49073C50.811 5.41041 50.7573 5.3169 50.7234 5.21562C50.4821 4.5126 50.4443 3.75542 50.6146 3.03179C50.7849 2.30816 51.1561 1.64769 51.6854 1.12687C52.2146 0.60605 52.8802 0.246195 53.6051 0.0889824C54.3299 -0.0682298 55.0844 -0.0163664 55.7811 0.238566C56.4777 0.493498 57.0881 0.941067 57.5415 1.52944C57.9949 2.11781 58.2727 2.8229 58.3429 3.56305C58.413 4.30321 58.2726 5.04814 57.9378 5.71156C57.603 6.37499 57.0876 6.92977 56.4513 7.31164L57.5172 10.4075C57.5859 10.6113 57.5715 10.834 57.4773 11.0272C57.3831 11.2204 57.2166 11.3686 57.014 11.4395Z" fill="#E8E9FD"/>
<path d="M59.2641 13.6043C59.349 13.8478 59.3599 14.1111 59.2953 14.3609C59.2308 14.6106 59.0937 14.8355 58.9014 15.0071C58.7092 15.1786 58.4705 15.289 58.2156 15.3244C57.9606 15.3597 57.701 15.3184 57.4695 15.2056C57.2381 15.0928 57.0453 14.9136 56.9155 14.6908C56.7858 14.468 56.7249 14.2116 56.7407 13.9541C56.7565 13.6966 56.8483 13.4496 57.0043 13.2444C57.1603 13.0392 57.3736 12.8851 57.6171 12.8016C57.7778 12.7459 57.9479 12.7224 58.1177 12.7326C58.2874 12.7428 58.4535 12.7864 58.6064 12.8609C58.7594 12.9355 58.8962 13.0395 59.009 13.167C59.1219 13.2946 59.2085 13.4431 59.2641 13.6043Z" fill="#E8E9FD"/>
<path d="M90.9188 19.6951C90.799 19.6539 90.6885 19.5893 90.5937 19.5051C90.4989 19.4209 90.4217 19.3187 90.3664 19.2045C90.3111 19.0903 90.2789 18.9662 90.2716 18.8395C90.2644 18.7127 90.2822 18.5858 90.324 18.4659L91.8704 13.9666C91.9536 13.724 92.1294 13.5244 92.3594 13.4117C92.5893 13.2991 92.8544 13.2825 93.0965 13.3658C93.6098 13.5416 94.1636 13.561 94.6879 13.4216C95.2122 13.2822 95.6835 12.9901 96.0424 12.5823C96.4013 12.1745 96.6316 11.6693 96.7043 11.1304C96.777 10.5915 96.6887 10.0431 96.4508 9.5544C96.2128 9.06572 95.8357 8.65868 95.3671 8.38468C94.8986 8.11068 94.3595 7.98199 93.8181 8.01487C93.2766 8.04775 92.757 8.24072 92.3249 8.56942C91.8927 8.89812 91.5674 9.34781 91.39 9.86171C91.3069 10.105 91.1308 10.3052 90.9004 10.4183C90.67 10.5314 90.4043 10.5482 90.1616 10.4648C89.9189 10.3815 89.7192 10.205 89.6064 9.97401C89.4936 9.74307 89.4769 9.47665 89.56 9.23337C89.8484 8.39656 90.3674 7.65875 91.0568 7.10536C91.7462 6.55197 92.5778 6.20563 93.4554 6.10644C94.333 6.00724 95.2206 6.15924 96.0156 6.54484C96.8106 6.93045 97.4804 7.53388 97.9475 8.2853C98.4146 9.03671 98.6598 9.90537 98.6548 10.7907C98.6498 11.6761 98.3948 12.5419 97.9193 13.288C97.4438 14.0341 96.7673 14.6299 95.968 15.0065C95.1687 15.3831 94.2794 15.525 93.403 15.4159L92.1357 19.0851C92.0959 19.2054 92.0328 19.3166 91.9501 19.4123C91.8673 19.5081 91.7666 19.5866 91.6535 19.6433C91.5405 19.6999 91.4174 19.7337 91.2913 19.7426C91.1652 19.7515 91.0386 19.7353 90.9188 19.6951Z" fill="#E8E9FD"/>
<path d="M89.9715 24.4513C90.823 24.4513 91.5132 23.7593 91.5132 22.9056C91.5132 22.052 90.823 21.36 89.9715 21.36C89.12 21.36 88.4297 22.052 88.4297 22.9056C88.4297 23.7593 89.12 24.4513 89.9715 24.4513Z" fill="#E8E9FD"/>
<path d="M164.27 60.8128C163.387 59.9275 162.786 58.7997 162.543 57.572C162.3 56.3443 162.425 55.0718 162.903 53.9154C163.381 52.7591 164.19 51.7707 165.228 51.0753C166.266 50.38 167.487 50.0088 168.735 50.0088C169.984 50.0088 171.205 50.38 172.243 51.0753C173.281 51.7707 174.09 52.7591 174.568 53.9154C175.046 55.0718 175.171 56.3443 174.928 57.572C174.684 58.7997 174.083 59.9275 173.201 60.8128C172.614 61.4008 171.918 61.8672 171.152 62.1854C170.386 62.5037 169.565 62.6675 168.735 62.6675C167.906 62.6675 167.085 62.5037 166.319 62.1854C165.553 61.8672 164.856 61.4008 164.27 60.8128ZM165.085 59.9964C165.808 60.7184 166.728 61.2094 167.729 61.4074C168.731 61.6054 169.768 61.5016 170.711 61.1091C171.653 60.7165 172.459 60.0528 173.025 59.2017C173.592 58.3507 173.894 57.3504 173.894 56.3272C173.894 55.304 173.592 54.3037 173.025 53.4527C172.459 52.6016 171.653 51.9379 170.711 51.5453C169.768 51.1528 168.731 51.049 167.729 51.247C166.728 51.445 165.808 51.936 165.085 52.658C164.603 53.1391 164.22 53.7109 163.959 54.3406C163.698 54.9702 163.564 55.6454 163.564 56.3272C163.564 57.009 163.698 57.6842 163.959 58.3138C164.22 58.9435 164.603 59.5153 165.085 59.9964Z" fill="#E8E9FD"/>
<path d="M156.538 67.7521L164.242 60.0239L165.057 60.8357L157.343 68.5685C157.29 68.6219 157.227 68.6642 157.157 68.6931C157.088 68.722 157.013 68.7369 156.938 68.7369C156.863 68.7369 156.788 68.722 156.719 68.6931C156.65 68.6642 156.586 68.6219 156.533 68.5685C156.426 68.4595 156.366 68.3124 156.367 68.1593C156.368 68.0063 156.429 67.8598 156.538 67.7521Z" fill="#E8E9FD"/>
<path d="M152.709 144.264C156.534 145.126 163.653 141.415 164.714 136.187C165.707 131.311 164.828 125.922 169.257 122.276C173.686 118.63 179.596 105.884 178.233 103.765C176.252 100.701 166.576 103.971 162.678 108.558C158.78 113.144 160.221 116.199 157.485 119.657C154.75 123.115 150.975 127.142 149.319 132.458C147.663 137.774 152.709 144.264 152.709 144.264Z" fill="#5FD284"/>
<path d="M153.171 144.341C153.77 142.507 154.713 140.695 156.071 139.581C157.099 138.777 158.232 138.12 159.439 137.627C161.328 136.769 162.957 136.026 164.64 132.903C164.828 132.553 165.041 132.218 165.276 131.898C165.156 133.338 164.964 134.771 164.7 136.191C163.693 141.236 157.078 144.837 153.171 144.341Z" fill="#38C092"/>
<path d="M144.423 172.58C144.473 172.592 144.524 172.594 144.574 172.586C144.624 172.578 144.672 172.559 144.715 172.532C144.758 172.504 144.794 172.469 144.823 172.426C144.851 172.384 144.871 172.337 144.881 172.287C144.936 172.007 150.627 144.309 165.066 117.025C165.104 116.937 165.108 116.837 165.077 116.747C165.046 116.656 164.982 116.58 164.897 116.535C164.813 116.49 164.714 116.478 164.622 116.503C164.529 116.527 164.449 116.586 164.398 116.667C149.9 144.053 144.19 171.856 144.135 172.135C144.116 172.233 144.135 172.333 144.189 172.417C144.243 172.5 144.327 172.558 144.423 172.58Z" fill="#38C092"/>
<path d="M155.115 154.147C152.594 151.267 154.086 143.177 157.032 140.759C159.978 138.342 163.067 139.04 165.976 133.623C168.653 128.642 178.951 125.367 179.784 126.156C181.38 127.674 179.418 136.526 175.181 139.622C168.291 144.667 169.211 149.909 165.629 152.992C160.944 157.014 155.115 154.147 155.115 154.147Z" fill="#5FD284"/>
<path d="M146.633 173.131C146.73 173.154 146.833 173.139 146.918 173.087C147.004 173.036 147.066 172.953 147.091 172.856C151.172 156.45 166.05 140.044 166.196 139.883C166.265 139.809 166.301 139.711 166.297 139.61C166.293 139.509 166.249 139.413 166.175 139.345C166.101 139.276 166.003 139.239 165.902 139.243C165.802 139.247 165.706 139.291 165.638 139.365C165.487 139.53 150.481 156.074 146.354 172.672C146.331 172.77 146.347 172.873 146.399 172.959C146.452 173.045 146.536 173.107 146.633 173.131Z" fill="#38C092"/>
<path d="M125.007 46.7277C124.52 47.2169 123.899 47.5502 123.222 47.6854C122.546 47.8205 121.845 47.7516 121.208 47.4872C120.57 47.2228 120.026 46.7748 119.642 46.2C119.259 45.6252 119.055 44.9493 119.055 44.2579C119.055 43.5665 119.259 42.8907 119.642 42.3158C120.026 41.741 120.57 41.2931 121.208 41.0287C121.845 40.7643 122.546 40.6953 123.222 40.8305C123.899 40.9657 124.52 41.2989 125.007 41.7881C125.66 42.4434 126.027 43.3317 126.027 44.2579C126.027 45.1841 125.66 46.0724 125.007 46.7277Z" fill="#0E1738"/>
<path d="M120.78 47.113C120.417 46.7855 120.124 46.3874 119.919 45.9429C119.714 45.4983 119.602 45.0166 119.588 44.5271C119.575 44.0376 119.661 43.5504 119.842 43.0954C120.022 42.6403 120.293 42.2268 120.638 41.8801C120.983 41.5334 121.395 41.2606 121.848 41.0785C122.302 40.8963 122.787 40.8085 123.276 40.8205C123.764 40.8325 124.245 40.944 124.689 41.1482C125.133 41.3524 125.531 41.645 125.858 42.0083C126.2 42.3496 126.47 42.7565 126.652 43.2048C126.833 43.653 126.923 44.1334 126.915 44.6171C126.908 45.1009 126.803 45.5781 126.607 46.0204C126.411 46.4626 126.129 46.8607 125.776 47.191C125.094 47.8327 124.19 48.1833 123.255 48.1688C122.32 48.1542 121.428 47.7756 120.766 47.113H120.78ZM120.78 47.113C121.093 47.4268 121.465 47.6757 121.874 47.8454C122.284 48.0151 122.722 48.1023 123.165 48.1021C123.608 48.1019 124.047 48.0142 124.456 47.8441C124.865 47.674 125.236 47.4248 125.549 47.1107C125.862 46.7966 126.111 46.4238 126.28 46.0135C126.449 45.6032 126.536 45.1635 126.536 44.7195C126.536 44.2755 126.448 43.8359 126.279 43.4258C126.109 43.0157 125.86 42.6431 125.547 42.3293C125.081 41.8622 124.489 41.542 123.844 41.4084C123.199 41.2748 122.529 41.3336 121.917 41.5775C121.305 41.8215 120.777 42.2399 120.399 42.781C120.022 43.3222 119.811 43.9624 119.792 44.6225C119.78 45.083 119.862 45.5411 120.032 45.9691C120.202 46.3971 120.456 46.7862 120.78 47.113Z" fill="#0E1738"/>
<path d="M122.936 48.9806C124.326 47.5871 124.243 45.2451 122.752 43.7495C121.26 42.2539 118.923 42.1711 117.533 43.5646C116.143 44.9581 116.226 47.3002 117.718 48.7958C119.21 50.2913 121.546 50.3741 122.936 48.9806Z" fill="#FF5F81"/>
<path d="M124.211 51.3417C124.211 56.3318 120.551 60.377 116.031 60.377C111.511 60.377 107.855 53.1763 107.855 50.0804C107.855 45.0904 112.234 42.3201 116.749 42.3201C121.265 42.3201 124.211 46.3654 124.211 51.3417Z" fill="#0E1738"/>
<path d="M112.481 64.2756C108.363 65.7111 104.703 70.3756 97.502 80.6951C97.502 80.6951 99.6476 81.1216 104.762 82.3829L114.301 72.1413L112.481 64.2756Z" fill="#FFC3BD"/>
<path d="M112.481 64.2756H121.205L127.45 65.7891C129.381 69.4583 125.803 84.135 128.965 97.344C128.965 97.344 113.359 99.9812 105.243 97.344C105.243 97.344 108.903 91.5559 107.123 83.1901C105.568 75.8885 104.836 72.2743 107.544 67.4448L112.481 64.2756Z" fill="#FF5F81"/>
<path d="M122.99 52.8782C122.733 52.6743 122.416 52.5633 122.088 52.5633C121.761 52.5633 121.444 52.6743 121.187 52.8782V50.8831C121.186 49.6078 120.68 48.3853 119.78 47.484C118.88 46.5827 117.66 46.0764 116.388 46.0764C114.476 46.0764 112.642 46.838 111.29 48.1936C109.937 49.5491 109.178 51.3877 109.178 53.3047V56.0566C109.175 57.1691 109.48 58.2606 110.059 59.2096C110.638 60.1586 111.469 60.9279 112.458 61.4319V65.4084L121.205 64.2985V56.795C122.798 57.1711 124.111 53.823 122.99 52.8782Z" fill="#FFC3BD"/>
<path d="M112.458 61.4319V62.6886C118.373 63.982 120.062 58.891 120.062 58.891C117.038 62.3492 113.666 61.8906 112.458 61.4319Z" fill="#FF847F"/>
<path d="M127.451 65.7891C125.731 66.422 124.596 73.2971 126.179 75.9206L131.646 86.9281L131.06 95.6837C135.146 97.5641 134.849 96.2157 134.849 96.2157C134.849 96.2157 136.926 90.9413 136.926 85.7448C136.926 82.1903 131.134 67.2751 127.451 65.7891Z" fill="#FFC3BD"/>
<path d="M115.624 53.9468C115.876 53.9468 116.081 53.7415 116.081 53.4882C116.081 53.2349 115.876 53.0295 115.624 53.0295C115.371 53.0295 115.166 53.2349 115.166 53.4882C115.166 53.7415 115.371 53.9468 115.624 53.9468Z" fill="#0E1738"/>
<path d="M111.406 53.9468C111.658 53.9468 111.863 53.7415 111.863 53.4882C111.863 53.2349 111.658 53.0295 111.406 53.0295C111.153 53.0295 110.948 53.2349 110.948 53.4882C110.948 53.7415 111.153 53.9468 111.406 53.9468Z" fill="#0E1738"/>
<path d="M112.952 53.6349C112.769 54.2037 112.518 54.7311 112.312 55.2631C112.262 55.3905 112.219 55.5207 112.184 55.653C112.152 55.7814 112.129 55.9098 112.184 55.9511C112.369 56.1648 112.572 56.3612 112.792 56.5382C112.486 56.4765 112.2 56.3358 111.964 56.13C111.925 56.0879 111.895 56.0379 111.877 55.9832C111.869 55.9347 111.869 55.885 111.877 55.8365C111.868 55.7526 111.868 55.668 111.877 55.5842C111.91 55.4277 111.956 55.2742 112.015 55.1256C112.235 54.5758 112.552 54.0708 112.952 53.6349Z" fill="#FF847F"/>
<path d="M117.038 52.7543C116.632 52.4753 116.194 52.2459 115.734 52.071C115.268 51.9362 114.778 51.9111 114.302 51.9976C114.498 51.7988 114.748 51.6604 115.02 51.5986C115.303 51.5335 115.598 51.5445 115.876 51.6307C116.139 51.7214 116.38 51.869 116.581 52.0632C116.782 52.2573 116.938 52.4933 117.038 52.7543Z" fill="#0E1738"/>
<path d="M109.681 52.7544C109.779 52.4925 109.935 52.2558 110.136 52.0615C110.337 51.8671 110.578 51.72 110.843 51.6307C111.119 51.5445 111.412 51.5334 111.694 51.5986C111.967 51.6584 112.217 51.7971 112.412 51.9976C111.935 51.9111 111.445 51.9362 110.98 52.071C110.522 52.2469 110.086 52.4763 109.681 52.7544Z" fill="#0E1738"/>
<path d="M121.238 55.6805C121.489 55.4237 121.777 55.0476 121.535 54.8687L121.434 54.7678C121.396 54.7269 121.363 54.6806 121.338 54.6302C121.286 54.534 121.249 54.4304 121.228 54.3229C121.187 54.1128 121.197 53.8958 121.256 53.69C121.291 53.5672 121.361 53.4573 121.457 53.3735C121.556 53.3062 121.668 53.2623 121.787 53.2451C121.999 53.2038 122.219 53.2278 122.418 53.3139C122.517 53.3608 122.603 53.4292 122.672 53.5141C122.741 53.599 122.79 53.6983 122.816 53.8046C122.857 53.9966 122.857 54.1952 122.816 54.3871C122.77 54.0156 122.633 53.6349 122.331 53.5616C122.181 53.5197 122.023 53.5197 121.873 53.5616C121.807 53.5759 121.744 53.6007 121.686 53.6349C121.647 53.6794 121.62 53.7331 121.608 53.7909C121.562 53.9391 121.548 54.0955 121.567 54.2495C121.577 54.3267 121.597 54.4022 121.626 54.4743C121.642 54.5079 121.66 54.5401 121.681 54.5706C121.681 54.5706 121.722 54.6302 121.764 54.6761C121.841 54.7734 121.88 54.8958 121.873 55.0201C121.86 55.1335 121.81 55.2396 121.732 55.3228C121.594 55.4753 121.425 55.5972 121.238 55.6805Z" fill="#FF847F"/>
<path opacity="0.15" d="M128.054 70.4306L125.588 70.0316C125.561 74.0814 122.633 81.6537 115.67 80.8877C115.67 80.8877 126.06 84.5936 125.419 87.8041C124.779 91.0147 115.18 93.9959 113.3 94.2252C111.42 94.4545 113.25 95.5277 121.187 95.5277C123.598 95.5277 124.541 96.5322 124.692 97.9219C127.258 97.6329 128.965 97.344 128.965 97.344C126.595 87.4418 128.009 76.7232 128.054 70.4306Z" fill="#0E1738"/>
<path d="M130.429 97.4265L127.172 97.0458C126.986 97.0245 126.815 96.9355 126.691 96.796C126.567 96.6564 126.499 96.476 126.499 96.2891C126.499 96.0872 126.579 95.8935 126.721 95.7507C126.864 95.6079 127.057 95.5277 127.258 95.5277H130.429V97.4265Z" fill="#FFC3BD"/>
<path d="M121.205 64.2756H112.472C112.472 64.2756 111.195 66.3028 112.472 67.2292C112.896 67.4979 113.38 67.6556 113.881 67.6879L114.302 72.8293L116.31 67.5549C118.707 67.1146 121.205 65.8808 121.205 64.2756Z" fill="#FFC3BD"/>
<path d="M115.034 57.9049C115.057 57.9943 115.058 58.0875 115.04 58.1776C115.021 58.2678 114.981 58.3524 114.925 58.425C114.868 58.4976 114.796 58.5564 114.714 58.5968C114.631 58.6373 114.54 58.6583 114.449 58.6583C114.357 58.6583 114.266 58.6373 114.184 58.5968C114.101 58.5564 114.029 58.4976 113.972 58.425C113.916 58.3524 113.877 58.2678 113.858 58.1776C113.839 58.0875 113.841 57.9943 113.863 57.9049C113.841 57.8156 113.839 57.7224 113.858 57.6323C113.877 57.5421 113.916 57.4575 113.972 57.3849C114.029 57.3123 114.101 57.2535 114.184 57.2131C114.266 57.1726 114.357 57.1516 114.449 57.1516C114.54 57.1516 114.631 57.1726 114.714 57.2131C114.796 57.2535 114.868 57.3123 114.925 57.3849C114.981 57.4575 115.021 57.5421 115.04 57.6323C115.058 57.7224 115.057 57.8156 115.034 57.9049Z" fill="#FF847F"/>
<path d="M108.885 64.9543L111.886 67.0871L105.01 81.9334C104.753 82.4856 104.372 82.9709 103.898 83.3516C103.423 83.7322 102.868 83.9979 102.274 84.1279C101.68 84.258 101.065 84.2489 100.475 84.1013C99.8854 83.9538 99.3377 83.6718 98.8746 83.2773C98.0805 82.6073 97.5815 81.6508 97.4856 80.6147C97.3898 79.5787 97.7046 78.5465 98.3622 77.7414L108.885 64.9543Z" fill="#FFC3BD"/>
<path d="M108.885 64.9543L108.428 62.574C108.419 62.507 108.419 62.4391 108.428 62.3722L109.036 59.2809C109.055 59.1843 109.101 59.0952 109.169 59.024L109.855 58.304C109.903 58.2557 109.96 58.2174 110.023 58.1913C110.086 58.1652 110.153 58.1517 110.221 58.1517C110.289 58.1517 110.356 58.1652 110.419 58.1913C110.482 58.2174 110.539 58.2557 110.587 58.304L110.766 58.4828C110.851 58.5679 110.903 58.6801 110.914 58.8C110.925 58.9198 110.893 59.0397 110.825 59.1387L110.404 59.7579C110.34 59.8521 110.308 59.9648 110.313 60.0789C110.321 60.1821 110.359 60.2804 110.423 60.3614C110.488 60.4424 110.574 60.5023 110.673 60.5333C110.771 60.5644 110.877 60.5653 110.975 60.5358C111.074 60.5063 111.162 60.4478 111.228 60.3679L113.346 57.7215C113.424 57.6234 113.534 57.5571 113.657 57.5352C113.78 57.5132 113.907 57.5371 114.014 57.6022L116.512 59.1479C116.618 59.2129 116.696 59.3146 116.733 59.4338C116.769 59.5529 116.76 59.6813 116.709 59.7946L114.618 64.459C114.591 64.5197 114.552 64.5743 114.503 64.6195L111.909 67.0962L108.885 64.9543Z" fill="#FFC3BD"/>
<path d="M109.851 58.304C109.926 58.2211 110.025 58.1641 110.134 58.1411C110.243 58.118 110.357 58.1301 110.459 58.1755C110.557 58.2286 110.646 58.2985 110.72 58.3819C110.81 58.4534 110.881 58.5465 110.926 58.6525C110.962 58.7658 110.962 58.8878 110.926 59.0011C110.887 59.1099 110.831 59.2121 110.761 59.3038C110.651 59.4827 110.519 59.6753 110.422 59.845C110.383 59.9255 110.37 60.0164 110.386 60.1046C110.402 60.1929 110.445 60.2738 110.509 60.3358C110.574 60.3957 110.655 60.4337 110.742 60.4444C110.829 60.4551 110.918 60.438 110.994 60.3954C111.144 60.2596 111.276 60.1055 111.388 59.9368L111.786 59.4231L112.582 58.3957L112.989 57.8866L113.19 57.6298C113.274 57.5169 113.391 57.4334 113.524 57.3913C113.66 57.3477 113.805 57.3477 113.941 57.3913C114.051 57.4385 114.157 57.4969 114.256 57.5655L114.81 57.9049L115.922 58.5792L116.471 58.9231C116.586 58.9843 116.687 59.0686 116.768 59.1708C116.852 59.2884 116.897 59.4297 116.896 59.5744C116.89 59.7068 116.852 59.8357 116.786 59.9505L116.654 60.2486L116.384 60.8403C116.022 61.6292 115.67 62.4226 115.295 63.2069L114.741 64.3856C114.7 64.5006 114.633 64.6043 114.545 64.6883L114.307 64.9085L113.849 65.3671C113.204 65.945 112.564 66.5321 111.909 67.1008C112.509 66.4771 113.126 65.8625 113.739 65.2433L114.197 64.7846L114.426 64.5599C114.491 64.4891 114.539 64.4044 114.567 64.3122L115.08 63.1152C115.414 62.3125 115.775 61.5237 116.123 60.7302L116.384 60.134C116.476 59.9636 116.545 59.7816 116.59 59.5928C116.591 59.5182 116.566 59.4454 116.521 59.3864C116.467 59.3192 116.398 59.2657 116.32 59.2304L115.761 58.891L114.663 58.1985L114.11 57.8545C113.909 57.7215 113.799 57.6527 113.652 57.7031C113.578 57.7267 113.512 57.7732 113.465 57.8361L113.259 58.0884L112.852 58.5929L112.024 59.6019L111.612 60.1019L111.402 60.3541C111.331 60.4555 111.239 60.5401 111.132 60.6018C111.015 60.6613 110.883 60.6823 110.754 60.6617C110.625 60.6411 110.506 60.58 110.413 60.4871C110.323 60.3958 110.265 60.2781 110.246 60.1512C110.227 60.0242 110.249 59.8945 110.308 59.7808C110.441 59.5836 110.564 59.4231 110.692 59.2442C110.76 59.1658 110.816 59.0777 110.857 58.9828C110.888 58.889 110.888 58.7876 110.857 58.6938C110.823 58.5979 110.765 58.5126 110.688 58.4461C110.622 58.364 110.543 58.2928 110.454 58.2352C110.36 58.1783 110.25 58.1542 110.141 58.1667C110.032 58.1791 109.93 58.2274 109.851 58.304Z" fill="#FF847F"/>
<path d="M114.375 57.8224C114.286 58.4224 114.099 59.0035 113.821 59.5423C113.682 59.8155 113.518 60.075 113.331 60.3174C113.15 60.5679 112.914 60.7734 112.641 60.9183C112.814 60.6811 112.967 60.4294 113.098 60.1661C113.235 59.9092 113.373 59.6524 113.501 59.3864C113.789 58.8681 114.045 58.3361 114.375 57.8224Z" fill="#FF847F"/>
<path d="M115.29 58.3728C115.252 58.9335 115.111 59.4823 114.874 59.9918C114.658 60.5171 114.314 60.9793 113.872 61.3356C114.119 60.8265 114.33 60.3495 114.563 59.8496C114.796 59.3497 114.988 58.8635 115.29 58.3728Z" fill="#FF847F"/>
<path d="M116.035 58.8452C115.999 59.4136 115.872 59.9726 115.66 60.5009C115.466 61.0418 115.153 61.5323 114.745 61.9365L115.335 60.3771C115.534 59.851 115.767 59.3392 116.035 58.8452Z" fill="#FF847F"/>
<path d="M127.451 65.7891C125.731 66.422 124.596 73.2971 126.179 75.9206L128.759 81.938L135.123 76.8608C132.643 71.7607 129.473 66.6009 127.451 65.7891Z" fill="#FF5F81"/>
<path d="M119.17 44.9207C116.777 43.9346 109.681 44.3703 108.734 47.3928V51.0619C108.734 51.0619 109.599 51.1124 110.798 51.1491L111.406 48.2871L111.749 51.172C113.063 51.2034 114.378 51.1666 115.688 51.0619L116.036 48.998L116.494 51.1812L118.479 51.5527C118.479 51.5527 120.401 54.3046 120.286 61.1522L121.201 52.8415C121.201 52.8415 121.563 45.9205 119.17 44.9207Z" fill="#0E1738"/>
<path d="M127.922 79.9842C128.818 78.9672 129.778 78.0083 130.795 77.1131C131.798 76.2031 132.859 75.359 133.97 74.5859C133.076 75.6051 132.116 76.5642 131.097 77.4571C130.094 78.3673 129.034 79.2114 127.922 79.9842Z" fill="white"/>
<path d="M81.1326 90.1707L79.9477 86.8134C79.3174 85.0242 78.1491 83.4749 76.6037 82.3791C75.0584 81.2833 73.2121 80.695 71.3193 80.6951H32.0475C29.6207 80.6951 27.2934 81.6615 25.5774 83.3818C23.8615 85.102 22.8975 87.4352 22.8975 89.868V167.379C22.8975 169.812 23.8615 172.145 25.5774 173.866C27.2934 175.586 29.6207 176.552 32.0475 176.552H140.932C143.359 176.552 145.687 175.586 147.402 173.866C149.118 172.145 150.082 169.812 150.082 167.379V105.462C150.082 103.029 149.118 100.696 147.402 98.9758C145.687 97.2555 143.359 96.2891 140.932 96.2891H89.7611C87.8682 96.2892 86.022 95.7009 84.4766 94.6051C82.9313 93.5093 81.7629 91.96 81.1326 90.1707Z" fill="#FF8A72"/>
<path d="M6.98636 129.082C6.88123 129.085 6.77835 129.052 6.69502 128.987C6.61169 128.923 6.55301 128.832 6.52886 128.729L1.33624 106.306C1.30872 106.188 1.32888 106.064 1.39231 105.961C1.45574 105.858 1.55729 105.784 1.67479 105.756C1.73368 105.741 1.79482 105.739 1.85465 105.748C1.91448 105.758 1.97181 105.78 2.02331 105.812C2.07481 105.844 2.11946 105.885 2.15466 105.935C2.18986 105.984 2.21491 106.04 2.22836 106.1L7.43471 128.518C7.44827 128.577 7.45015 128.638 7.44024 128.697C7.43032 128.757 7.40882 128.814 7.37695 128.865C7.34509 128.916 7.30348 128.96 7.25451 128.995C7.20555 129.03 7.15018 129.055 7.09159 129.069C7.0573 129.078 7.0219 129.083 6.98636 129.082Z" fill="#FFC592"/>
<path d="M11.0856 146.74C10.9798 146.743 10.8764 146.709 10.793 146.643C10.7096 146.578 10.6513 146.486 10.6281 146.382L7.82819 134.32C7.81463 134.261 7.81275 134.201 7.82266 134.141C7.83258 134.082 7.85408 134.025 7.88595 133.974C7.91781 133.922 7.95942 133.878 8.00839 133.843C8.05735 133.808 8.11272 133.783 8.17131 133.77C8.22989 133.756 8.29057 133.754 8.34987 133.764C8.40918 133.774 8.46595 133.796 8.51694 133.828C8.56793 133.86 8.61213 133.901 8.64703 133.95C8.68193 133.999 8.70683 134.055 8.72031 134.114L11.5202 146.176C11.5338 146.235 11.5356 146.296 11.5257 146.355C11.5158 146.415 11.4943 146.471 11.4625 146.523C11.4306 146.574 11.389 146.618 11.34 146.653C11.291 146.688 11.2357 146.713 11.1771 146.726C11.1473 146.735 11.1165 146.739 11.0856 146.74Z" fill="#FFC592"/>
<path d="M150.083 165.88V167.379C150.083 169.812 149.119 172.145 147.403 173.866C145.687 175.586 143.36 176.552 140.933 176.552H30.5609C25.5284 176.552 20.5508 172.86 19.494 168.297L3.2985 98.5823C2.2371 94.0188 5.48992 90.3267 10.5224 90.3267H49.7988C51.7729 90.3618 53.7082 90.882 55.4351 91.8416C57.162 92.8012 58.6277 94.1708 59.7037 95.8304L61.5886 98.8483C62.6645 100.508 64.1302 101.878 65.8571 102.837C67.584 103.797 69.5193 104.317 71.4934 104.352H122.674C127.729 104.352 132.684 108.049 133.741 112.608L146.235 166.393C146.36 166.852 146.646 167.249 147.04 167.513C147.435 167.776 147.911 167.886 148.381 167.824C148.851 167.762 149.282 167.531 149.595 167.174C149.908 166.818 150.081 166.359 150.083 165.884V165.88Z" fill="#FFC592"/>
<path d="M69.8964 151.804L63.3633 146.612L80.0803 123.913L86.6089 129.101L69.8964 151.804Z" fill="#FF8A72"/>
<path d="M58.7891 129.101L62.6092 123.913L91.1846 146.612L87.3645 151.804L58.7891 129.101Z" fill="#FF8A72"/>
<path d="M93.71 146.282L87.7122 154.423L80.7444 148.887L78.3975 147.02C79.7028 143.811 82.0304 141.124 85.0175 139.379L87.4514 141.31L93.71 146.282Z" fill="#FF8A72"/>
<path d="M103.884 163.398C101.703 165.586 98.9227 167.076 95.8964 167.679C92.8701 168.283 89.7331 167.974 86.8823 166.79C84.0314 165.606 81.5948 163.602 79.8804 161.03C78.166 158.458 77.251 155.434 77.251 152.34C77.251 149.247 78.166 146.223 79.8804 143.651C81.5948 141.079 84.0314 139.074 86.8823 137.891C89.7331 136.707 92.8701 136.397 95.8964 137.001C98.9227 137.605 101.703 139.095 103.884 141.282C106.808 144.216 108.451 148.193 108.451 152.34C108.451 156.487 106.808 160.465 103.884 163.398ZM101.876 161.389C103.661 159.6 104.877 157.32 105.37 154.838C105.863 152.355 105.611 149.782 104.645 147.444C103.679 145.105 102.043 143.106 99.9435 141.7C97.8443 140.294 95.3763 139.543 92.8516 139.543C90.3269 139.543 87.8589 140.294 85.7597 141.7C83.6605 143.106 82.0245 145.105 81.0585 147.444C80.0926 149.782 79.84 152.355 80.3329 154.838C80.8258 157.32 82.0419 159.6 83.8274 161.389C86.2222 163.786 89.4678 165.132 92.8516 165.132C96.2354 165.132 99.4809 163.786 101.876 161.389Z" fill="#0E1738"/>
<path d="M120.99 182.556L101.936 163.458L103.944 161.449L122.994 180.547C123.26 180.814 123.409 181.175 123.409 181.551C123.409 181.928 123.26 182.289 122.994 182.556C122.728 182.822 122.368 182.971 121.992 182.971C121.617 182.971 121.256 182.822 120.99 182.556Z" fill="#0E1738"/>
<path opacity="0.15" d="M92.8541 165.137C99.9036 165.137 105.618 159.407 105.618 152.34C105.618 145.273 99.9036 139.544 92.8541 139.544C85.8046 139.544 80.0898 145.273 80.0898 152.34C80.0898 159.407 85.8046 165.137 92.8541 165.137Z" fill="white"/>
<path opacity="0.5" d="M93.71 141.901C101.401 141.901 105.797 153.253 101.831 158.069C101.962 154.842 101.239 151.637 99.7352 148.781C98.281 146.054 96.2191 143.7 93.71 141.901Z" fill="white"/>
<path d="M134.811 94.9407H130.598C130.502 94.9395 130.408 94.9571 130.319 94.9927C130.23 95.0282 130.149 95.0809 130.081 95.1478C130.012 95.2146 129.958 95.2943 129.92 95.3824C129.883 95.4704 129.863 95.565 129.861 95.6607V97.9998C129.862 98.0846 129.879 98.1684 129.914 98.2459C129.948 98.3234 129.998 98.393 130.06 98.4502C130.122 98.5075 130.196 98.5513 130.276 98.5788C130.356 98.6062 130.44 98.6168 130.525 98.6098H130.616C130.783 98.6115 130.945 98.5494 131.068 98.4361C131.191 98.3229 131.267 98.1669 131.28 97.9998C131.291 98.1665 131.366 98.3225 131.488 98.4358C131.611 98.5492 131.772 98.6114 131.938 98.6098H132.03C132.197 98.6104 132.358 98.548 132.481 98.4349C132.604 98.3219 132.679 98.1665 132.693 97.9998C132.707 98.1665 132.783 98.3219 132.906 98.4349C133.029 98.548 133.19 98.6104 133.357 98.6098H133.448C134.116 98.6098 134.084 98.0778 134.107 97.7384C134.12 97.9055 134.195 98.0614 134.318 98.1747C134.442 98.288 134.603 98.3501 134.77 98.3484H134.862C135.028 98.35 135.189 98.2877 135.312 98.1744C135.434 98.061 135.509 97.9051 135.521 97.7384V95.6607C135.518 95.4721 135.443 95.2916 135.311 95.1573C135.179 95.0231 135 94.9454 134.811 94.9407Z" fill="#FFC3BD"/>
<path d="M131.303 94.9407C131.422 95.4425 131.48 95.9568 131.477 96.4725C131.484 96.9867 131.427 97.4998 131.308 97.9998C131.078 96.993 131.078 95.9475 131.308 94.9407H131.303Z" fill="#FF847F"/>
<path d="M132.702 94.9407C132.934 95.9471 132.934 96.9934 132.702 97.9998C132.477 96.9926 132.477 95.9478 132.702 94.9407Z" fill="#FF847F"/>
<path d="M134.13 94.9407C134.362 95.8588 134.362 96.8203 134.13 97.7384C133.905 96.8195 133.905 95.8595 134.13 94.9407Z" fill="#FF847F"/>
<path d="M147.068 31.4181C146.986 31.4151 146.905 31.3959 146.83 31.3616C146.755 31.3273 146.688 31.2785 146.632 31.218C146.576 31.1575 146.532 31.0865 146.503 31.0091C146.474 30.9317 146.461 30.8493 146.464 30.7668L146.574 27.671C146.576 27.5882 146.595 27.5068 146.629 27.4314C146.663 27.356 146.712 27.2882 146.772 27.2318C146.833 27.1755 146.904 27.1318 146.981 27.1032C147.059 27.0747 147.141 27.0619 147.224 27.0655C147.576 27.0752 147.924 26.9801 148.223 26.7923C148.522 26.6044 148.758 26.3322 148.903 26.0098C149.048 25.6875 149.095 25.3293 149.037 24.9805C148.98 24.6316 148.821 24.3075 148.58 24.0491C148.339 23.7906 148.028 23.6092 147.685 23.5278C147.341 23.4464 146.982 23.4685 146.651 23.5914C146.32 23.7142 146.033 23.9324 145.826 24.2184C145.618 24.5044 145.5 24.8455 145.485 25.1989C145.483 25.2812 145.464 25.3622 145.431 25.4373C145.397 25.5124 145.349 25.58 145.289 25.6363C145.229 25.6926 145.158 25.7364 145.081 25.7652C145.004 25.7941 144.922 25.8073 144.84 25.8043C144.758 25.8019 144.677 25.7833 144.602 25.7495C144.527 25.7157 144.459 25.6674 144.402 25.6073C144.346 25.5473 144.302 25.4766 144.272 25.3995C144.243 25.3223 144.229 25.2401 144.232 25.1576C144.252 24.5818 144.434 24.0235 144.757 23.5473C145.081 23.071 145.532 22.6963 146.059 22.4666C146.586 22.2368 147.167 22.1613 147.735 22.2489C148.303 22.3365 148.834 22.5836 149.268 22.9615C149.702 23.3395 150.02 23.8328 150.186 24.3845C150.351 24.9361 150.358 25.5235 150.204 26.0787C150.05 26.6338 149.743 27.134 149.318 27.5213C148.892 27.9086 148.366 28.1672 147.8 28.2672L147.709 30.8035C147.708 30.8862 147.69 30.9679 147.657 31.0437C147.624 31.1195 147.576 31.188 147.517 31.2452C147.457 31.3024 147.387 31.3472 147.31 31.3768C147.233 31.4065 147.151 31.4205 147.068 31.4181Z" fill="#9CAFCD"/>
<path d="M148.093 33.6288C148.086 33.8284 148.021 34.0216 147.905 34.1839C147.789 34.3462 147.627 34.4703 147.441 34.5406C147.254 34.6108 147.051 34.624 146.857 34.5785C146.663 34.5329 146.487 34.4307 146.351 34.2847C146.215 34.1388 146.125 33.9557 146.093 33.7585C146.061 33.5614 146.088 33.3592 146.171 33.1775C146.253 32.9958 146.388 32.8427 146.557 32.7377C146.727 32.6327 146.924 32.5805 147.123 32.5877C147.255 32.5918 147.385 32.6221 147.505 32.6767C147.625 32.7313 147.733 32.8093 147.824 32.906C147.914 33.0028 147.984 33.1164 148.03 33.2405C148.076 33.3645 148.097 33.4965 148.093 33.6288Z" fill="#9CAFCD"/>
<path d="M133.068 44.4207L136.092 34.7341C134.563 32.0153 134.07 28.8325 134.705 25.7768C135.34 22.7211 137.059 20.0002 139.544 18.1193C142.028 16.2384 145.109 15.3253 148.215 15.5497C151.32 15.774 154.239 17.1205 156.429 19.3391C158.619 21.5577 159.931 24.4977 160.122 27.613C160.313 30.7284 159.37 33.8074 157.468 36.2784C155.566 38.7493 152.834 40.4443 149.779 41.0485C146.725 41.6527 143.555 41.1251 140.86 39.5637L133.068 44.4207ZM147.283 16.9019C145.256 16.9029 143.265 17.442 141.513 18.4646C139.761 19.4872 138.31 20.9567 137.308 22.7237C136.307 24.4907 135.79 26.4921 135.81 28.5243C135.83 30.5566 136.387 32.5473 137.424 34.2938L137.584 34.5552L135.484 41.2882L140.855 37.9401L141.216 38.1694C142.724 39.1105 144.429 39.688 146.197 39.8562C147.965 40.0244 149.748 39.7789 151.406 39.1389C153.063 38.4989 154.55 37.4819 155.748 36.168C156.947 34.8542 157.825 33.2793 158.313 31.5674C158.802 29.8555 158.887 28.0533 158.562 26.3028C158.238 24.5522 157.512 22.9011 156.443 21.4795C155.374 20.0578 153.99 18.9044 152.4 18.1101C150.811 17.3157 149.059 16.9022 147.283 16.9019Z" fill="#CFD7FE"/>
</svg>
