<svg width="160" height="160" viewBox="0 0 160 160" fill="none" xmlns="http://www.w3.org/2000/svg">
<g clip-path="url(#clip0_1038_577)">
<path d="M80 0C35.8175 0 0 35.8175 0 80C0 124.184 35.8175 160 80 160C124.181 160 160 124.184 160 80C160 35.8175 124.181 0 80 0Z" fill="#324D5B"/>
<path d="M86.3903 75.1662C90.64 79.4222 90.64 86.3262 86.3903 90.5822C82.1406 94.8412 69.7566 100.348 65.5072 96.0893C61.2575 91.8303 66.7534 79.4222 71.0031 75.1662C75.2528 70.9072 82.1409 70.9072 86.3903 75.1662Z" fill="#EFC75E"/>
<path d="M73.6191 73.2319L73.6 73.6C73.6 81.5519 80.0481 88 88 88L88.3088 87.9841C90.4928 83.8641 89.8559 78.6353 86.3903 75.165C82.9313 71.7009 77.7281 71.0559 73.6191 73.2319Z" fill="#DEB957"/>
<path d="M2.34563 99.2416C9.95375 130.046 35.4 153.808 67.1041 158.949C65.3103 125.65 37.7472 99.2 4 99.2C3.44469 99.2 2.8975 99.2288 2.34563 99.2416Z" fill="#26A6D1"/>
<path d="M19.8303 132.691C24.8959 131.992 28.8 127.658 28.8 122.4C28.8 116.654 24.1441 112 18.4 112C14.4687 112 11.0481 114.183 9.28 117.402C12.2016 122.914 15.7519 128.037 19.8303 132.691Z" fill="#1795BF"/>
<path d="M46.4 140.8C49.9346 140.8 52.8 137.935 52.8 134.4C52.8 130.865 49.9346 128 46.4 128C42.8654 128 40 130.865 40 134.4C40 137.935 42.8654 140.8 46.4 140.8Z" fill="#1795BF"/>
<path d="M24.0016 9.60315C23.0416 18.24 18.2416 23.0416 9.60156 24.0031C18.2416 24.9631 23.0416 29.7647 24.0016 38.4032C24.9616 29.7647 29.7631 24.9631 38.4031 24.0031C29.7631 23.0416 24.9616 18.24 24.0016 9.60315ZM115.2 118.403C114.453 125.12 110.722 128.854 104 129.603C110.722 130.349 114.453 134.083 115.2 140.803C115.947 134.083 119.682 130.349 126.403 129.603C119.682 128.854 115.947 125.12 115.2 118.403Z" fill="#EFC75E"/>
<path d="M142.4 72.0015C141.869 76.8 139.2 79.4687 134.4 80.0031C139.2 80.5344 141.869 83.2031 142.4 88.0016C142.934 83.2031 145.6 80.5344 150.4 80.0031C145.6 79.4687 142.934 76.8 142.4 72.0015ZM30.4 68.8C29.9728 72.6384 27.84 74.7744 24 75.2C27.84 75.6272 29.9728 77.7615 30.4 81.6C30.8272 77.7631 32.96 75.6287 36.8 75.2C32.9616 74.7744 30.8272 72.6384 30.4 68.8ZM75.2 113.6C74.6672 118.4 72 121.069 67.2 121.602C72 122.134 74.6672 124.803 75.2 129.602C75.7328 124.803 78.4 122.134 83.2 121.602C78.4 121.069 75.7344 118.4 75.2 113.6Z" fill="#5B717C"/>
<path d="M108.731 51.2672C121.76 64.2975 124.368 82.8144 111.987 95.1969L106.141 101.045C93.76 113.424 102.335 83.725 89.3041 70.6947C76.2753 57.6644 46.5744 66.2388 58.9569 53.8578L64.805 48.0097C77.1856 35.6303 95.6991 38.2384 108.731 51.2672Z" fill="#F26C4F"/>
<path d="M151.947 8.05282C155.907 12.0128 154.166 37.12 129.822 61.4656C113.968 77.3184 103.954 82.8641 103.954 82.8641C93.3506 89.9841 88.2225 85.1216 81.5506 78.4497C74.8306 71.7281 69.9153 66.6434 77.1362 56.0466C77.1362 56.0466 82.7572 45.9584 98.5362 30.1794C122.859 5.85281 147.971 4.07844 151.947 8.05282Z" fill="#F4F0D3"/>
<path d="M119.966 48.384C117.723 48.384 115.613 47.5103 114.025 45.9231C110.75 42.6478 110.753 37.3184 114.025 34.0431C115.613 32.4575 117.723 31.584 119.966 31.584C122.21 31.584 124.32 32.4578 125.907 34.0431C127.494 35.6303 128.366 37.7406 128.366 39.984C128.366 42.2272 127.494 44.3378 125.907 45.9231C124.32 47.5087 122.21 48.384 119.966 48.384Z" fill="#8BA0AB"/>
<path d="M119.966 32.784C121.888 32.784 123.698 33.5328 125.058 34.8912C126.421 36.2528 127.166 38.0593 127.166 39.984C127.166 41.9072 126.419 43.7153 125.058 45.0753C123.698 46.4353 121.889 47.184 119.966 47.184C118.042 47.184 116.235 46.4353 114.875 45.0753C112.069 42.269 112.069 37.6993 114.875 34.8912C116.233 33.5328 118.04 32.784 119.966 32.784ZM119.966 30.384C117.51 30.384 115.051 31.32 113.179 33.1953C109.429 36.9456 109.429 43.024 113.179 46.7728C115.051 48.6465 117.51 49.584 119.966 49.584C122.422 49.584 124.878 48.6465 126.753 46.7728C130.504 43.024 130.504 36.9456 126.753 33.1953C124.878 31.3215 122.423 30.384 119.966 30.384Z" fill="#324D5B"/>
<path d="M44.8 131.2C48.3344 131.2 51.2 134.066 51.2 137.6C51.2 137.987 51.1519 138.363 51.0863 138.731C52.1406 137.589 52.8 136.077 52.8 134.4C52.8 130.866 49.9344 128 46.4 128C43.2528 128 40.6497 130.277 40.1138 133.269C41.2831 132.005 42.9425 131.2 44.8 131.2ZM18.4 112C14.4625 112 11.0625 114.206 9.2975 117.434L9.63656 118.096C11.5006 116.312 14.0141 115.2 16.7997 115.2C22.5438 115.2 27.1997 119.855 27.1997 125.6C27.1997 126.629 27.0444 127.621 26.7659 128.559C28.0378 126.834 28.7997 124.708 28.7997 122.4C28.8 116.654 24.1441 112 18.4 112Z" fill="#1483A8"/>
<path d="M130.106 9.4256C131.165 14.2593 133.859 19.2575 138.083 23.4753C141.742 27.1297 145.986 29.6337 150.202 30.9297C154.595 19.2097 154.173 10.2815 151.946 8.05278C149.778 5.88466 141.306 5.43841 130.106 9.4256Z" fill="#F26C4F"/>
<path d="M108.837 79.6097C97.6688 87.1107 92.2656 81.9888 85.24 74.96C78.16 67.8816 72.9809 62.5247 80.5872 51.36C80.5872 51.36 81.3328 50.0303 82.9919 47.6241C78.8463 52.9856 77.1328 56.0466 77.1328 56.0466C69.9119 66.645 74.8272 71.7297 81.5472 78.4497C88.2191 85.1216 93.3472 89.9841 103.95 82.8641C103.95 82.8641 105.797 81.8369 109.141 79.4303L108.837 79.6097Z" fill="#DAD3AF"/>
<path d="M105.115 56.4831C107.027 58.3934 103.397 65.1231 94.1584 74.36C84.9216 83.5969 79.3472 86.0753 77.4337 84.1647C75.5234 82.2544 78.0019 76.6766 87.2384 67.44C96.475 58.2034 103.206 54.5713 105.115 56.4831Z" fill="#F26C4F"/>
</g>
<defs>
<clipPath id="clip0_1038_577">
<rect width="160" height="160" fill="white"/>
</clipPath>
</defs>
</svg>
