<?xml version="1.0" standalone="no"?>
<!DOCTYPE svg PUBLIC "-//W3C//DTD SVG 20010904//EN"
 "http://www.w3.org/TR/2001/REC-SVG-20010904/DTD/svg10.dtd">
<svg version="1.0" xmlns="http://www.w3.org/2000/svg"
 width="327.000000pt" height="327.000000pt" viewBox="0 0 327.000000 327.000000"
 preserveAspectRatio="xMidYMid meet">
<metadata>
Created by potrace 1.14, written by Peter Selinger 2001-2017
</metadata>
<g transform="translate(0.000000,327.000000) scale(0.100000,-0.100000)"
fill="#000000" stroke="none">
<path d="M1375 3240 c-225 -39 -400 -104 -589 -217 -117 -70 -336 -253 -336
-281 0 -7 -5 -12 -10 -12 -16 0 -59 -51 -71 -82 -6 -16 -15 -25 -20 -22 -5 3
-12 -3 -16 -13 -4 -10 -12 -23 -17 -30 -30 -34 -36 -43 -36 -53 0 -5 -5 -10
-11 -10 -5 0 -7 -5 -4 -10 3 -6 -1 -13 -9 -16 -9 -3 -13 -10 -10 -15 3 -5 0
-9 -5 -9 -6 0 -11 -7 -11 -15 0 -9 -7 -18 -16 -22 -13 -5 -13 -7 -2 -14 10 -7
10 -9 1 -9 -7 0 -13 -7 -13 -15 0 -8 -5 -15 -11 -15 -5 0 -7 -4 -4 -10 3 -5 1
-10 -4 -10 -6 0 -11 -7 -11 -15 0 -8 -9 -30 -20 -49 -49 -89 -108 -300 -131
-473 -11 -89 -8 -368 6 -423 3 -14 8 -40 10 -59 13 -90 90 -336 115 -367 6 -6
7 -14 3 -17 -3 -4 -1 -7 5 -7 7 0 12 -8 12 -18 0 -10 8 -27 18 -38 10 -10 19
-23 19 -27 3 -17 28 -67 34 -67 4 0 12 -14 19 -30 7 -16 17 -30 23 -30 6 0 8
-3 4 -6 -5 -6 0 -15 31 -49 6 -7 12 -16 12 -19 0 -25 186 -218 291 -302 206
-164 490 -293 725 -328 22 -4 51 -9 64 -13 43 -10 372 -12 435 -1 390 64 693
215 945 471 405 412 562 990 419 1549 -162 640 -711 1123 -1372 1208 -123 15
-343 11 -462 -10z"/>
</g>
</svg>
