<svg width="16" height="16" viewBox="0 0 16 16" fill="none" xmlns="http://www.w3.org/2000/svg">
<path d="M15.0367 9.10747L13.77 4.55013C13.3987 3.21502 12.5918 2.04233 11.4775 1.21845C10.3633 0.39457 9.0056 -0.0332076 7.6203 0.00311245C6.235 0.0394325 4.9016 0.537766 3.83203 1.4189C2.76247 2.30003 2.01812 3.5134 1.71732 4.86614L0.736655 9.27613C0.628331 9.76342 0.630836 10.2688 0.743983 10.755C0.85713 11.2412 1.07803 11.6958 1.39038 12.0852C1.70272 12.4746 2.09854 12.7888 2.5486 13.0048C2.99866 13.2207 3.49147 13.3328 3.99066 13.3328H4.73332C4.88633 14.0863 5.29514 14.7638 5.89048 15.2504C6.48583 15.737 7.23109 16.0028 7.99999 16.0028C8.76889 16.0028 9.51415 15.737 10.1095 15.2504C10.7048 14.7638 11.1136 14.0863 11.2667 13.3328H11.8253C12.3392 13.3328 12.8461 13.2141 13.3065 12.9858C13.7669 12.7575 14.1682 12.4258 14.4792 12.0167C14.7902 11.6076 15.0024 11.1322 15.0992 10.6275C15.196 10.1228 15.1748 9.6026 15.0373 9.10747H15.0367ZM7.99999 14.6661C7.58782 14.6644 7.18624 14.5354 6.85019 14.2967C6.51414 14.0581 6.26004 13.7214 6.12266 13.3328H9.87732C9.73993 13.7214 9.48584 14.0581 9.14979 14.2967C8.81374 14.5354 8.41216 14.6644 7.99999 14.6661ZM13.4173 11.2095C13.2316 11.4559 12.9909 11.6556 12.7144 11.7928C12.4379 11.9299 12.1333 12.0007 11.8247 11.9995H3.99066C3.69118 11.9994 3.39554 11.9321 3.12555 11.8025C2.85556 11.6729 2.61813 11.4844 2.43076 11.2507C2.2434 11.0171 2.1109 10.7444 2.04303 10.4527C1.97516 10.161 1.97367 9.85781 2.03865 9.56547L3.01866 5.1548C3.25489 4.09227 3.83953 3.1392 4.67963 2.4471C5.51973 1.755 6.56707 1.36358 7.65517 1.33508C8.74327 1.30657 9.80968 1.64261 10.6849 2.28978C11.56 2.93695 12.1938 3.8581 12.4853 4.9068L13.752 9.46414C13.8357 9.76105 13.849 10.0734 13.7909 10.3764C13.7328 10.6793 13.6049 10.9646 13.4173 11.2095Z" fill="#301709"/>
</svg>
