<svg width="16" height="16" viewBox="0 0 16 16" fill="none" xmlns="http://www.w3.org/2000/svg">
<path d="M0.648438 2.8106C0.648438 1.61647 1.61647 0.648438 2.8106 0.648438H4.54033C5.73446 0.648438 6.70249 1.61647 6.70249 2.8106V4.54033C6.70249 5.73446 5.73446 6.70249 4.54033 6.70249H2.8106C1.61647 6.70249 0.648438 5.73446 0.648438 4.54033V2.8106Z" fill="#FBF6E5"/>
<path fill-rule="evenodd" clip-rule="evenodd" d="M0 2.81081C0 1.25844 1.25844 0 2.81081 0H4.54054C6.09289 0 7.35135 1.25844 7.35135 2.81081V4.54054C7.35135 6.09289 6.09289 7.35135 4.54054 7.35135H2.81081C1.25844 7.35135 0 6.09289 0 4.54054V2.81081ZM2.81081 1.2973C1.97492 1.2973 1.2973 1.97492 1.2973 2.81081V4.54054C1.2973 5.37643 1.97492 6.05405 2.81081 6.05405H4.54054C5.37643 6.05405 6.05405 5.37643 6.05405 4.54054V2.81081C6.05405 1.97492 5.37643 1.2973 4.54054 1.2973H2.81081Z" fill="#301709"/>
<path d="M0.648438 11.459C0.648438 10.2649 1.61647 9.29688 2.8106 9.29688H4.54033C5.73446 9.29688 6.70249 10.2649 6.70249 11.459V13.1888C6.70249 14.3829 5.73446 15.3509 4.54033 15.3509H2.8106C1.61647 15.3509 0.648438 14.3829 0.648438 13.1888V11.459Z" fill="#FBF6E5"/>
<path fill-rule="evenodd" clip-rule="evenodd" d="M0 11.4592C0 9.9069 1.25844 8.64844 2.81081 8.64844H4.54054C6.09289 8.64844 7.35135 9.9069 7.35135 11.4592V13.189C7.35135 14.7413 6.09289 15.9998 4.54054 15.9998H2.81081C1.25844 15.9998 0 14.7413 0 13.189V11.4592ZM2.81081 9.94573C1.97492 9.94573 1.2973 10.6234 1.2973 11.4592V13.189C1.2973 14.0249 1.97492 14.7025 2.81081 14.7025H4.54054C5.37643 14.7025 6.05405 14.0249 6.05405 13.189V11.4592C6.05405 10.6234 5.37643 9.94573 4.54054 9.94573H2.81081Z" fill="#301709"/>
<path d="M9.29736 2.8106C9.29736 1.61647 10.2654 0.648438 11.4595 0.648438H13.1893C14.3834 0.648438 15.3514 1.61647 15.3514 2.8106V4.54033C15.3514 5.73446 14.3834 6.70249 13.1893 6.70249H11.4595C10.2654 6.70249 9.29736 5.73446 9.29736 4.54033V2.8106Z" fill="#FBF6E5"/>
<path fill-rule="evenodd" clip-rule="evenodd" d="M8.64844 2.81081C8.64844 1.25844 9.9069 0 11.4592 0H13.189C14.7413 0 15.9998 1.25844 15.9998 2.81081V4.54054C15.9998 6.09289 14.7413 7.35135 13.189 7.35135H11.4592C9.9069 7.35135 8.64844 6.09289 8.64844 4.54054V2.81081ZM11.4592 1.2973C10.6234 1.2973 9.94573 1.97492 9.94573 2.81081V4.54054C9.94573 5.37643 10.6234 6.05405 11.4592 6.05405H13.189C14.0249 6.05405 14.7025 5.37643 14.7025 4.54054V2.81081C14.7025 1.97492 14.0249 1.2973 13.189 1.2973H11.4592Z" fill="#301709"/>
<path d="M9.29736 11.459C9.29736 10.2649 10.2654 9.29688 11.4595 9.29688H13.1893C14.3834 9.29688 15.3514 10.2649 15.3514 11.459V13.1888C15.3514 14.3829 14.3834 15.3509 13.1893 15.3509H11.4595C10.2654 15.3509 9.29736 14.3829 9.29736 13.1888V11.459Z" fill="#FBF6E5"/>
<path fill-rule="evenodd" clip-rule="evenodd" d="M8.64844 11.4592C8.64844 9.9069 9.9069 8.64844 11.4592 8.64844H13.189C14.7413 8.64844 15.9998 9.9069 15.9998 11.4592V13.189C15.9998 14.7413 14.7413 15.9998 13.189 15.9998H11.4592C9.9069 15.9998 8.64844 14.7413 8.64844 13.189V11.4592ZM11.4592 9.94573C10.6234 9.94573 9.94573 10.6234 9.94573 11.4592V13.189C9.94573 14.0249 10.6234 14.7025 11.4592 14.7025H13.189C14.0249 14.7025 14.7025 14.0249 14.7025 13.189V11.4592C14.7025 10.6234 14.0249 9.94573 13.189 9.94573H11.4592Z" fill="#301709"/>
</svg>
